G04 #@! TF.GenerationSoftware,KiCad,Pcbnew,5.1.6-c6e7f7d~87~ubuntu20.04.1*
G04 #@! TF.CreationDate,2020-08-28T15:15:28-04:00*
G04 #@! TF.ProjectId,gategrinder_panel,67617465-6772-4696-9e64-65725f70616e,rev?*
G04 #@! TF.SameCoordinates,Original*
G04 #@! TF.FileFunction,Copper,L2,Bot*
G04 #@! TF.FilePolarity,Positive*
%FSLAX46Y46*%
G04 Gerber Fmt 4.6, Leading zero omitted, Abs format (unit mm)*
G04 Created by KiCad (PCBNEW 5.1.6-c6e7f7d~87~ubuntu20.04.1) date 2020-08-28 15:15:28*
%MOMM*%
%LPD*%
G01*
G04 APERTURE LIST*
G04 #@! TA.AperFunction,ComponentPad*
%ADD10C,14.000000*%
G04 #@! TD*
G04 #@! TA.AperFunction,ComponentPad*
%ADD11C,9.000000*%
G04 #@! TD*
G04 #@! TA.AperFunction,ComponentPad*
%ADD12C,4.000000*%
G04 #@! TD*
G04 #@! TA.AperFunction,ComponentPad*
%ADD13C,5.500000*%
G04 #@! TD*
G04 #@! TA.AperFunction,ComponentPad*
%ADD14C,15.000000*%
G04 #@! TD*
G04 #@! TA.AperFunction,Conductor*
%ADD15C,0.254000*%
G04 #@! TD*
G04 APERTURE END LIST*
D10*
X102500000Y-175500000D03*
D11*
X177500000Y-95500000D03*
D10*
X177500000Y-175500000D03*
D12*
X187000000Y-3000000D03*
D11*
X152500000Y-95500000D03*
D10*
X127500000Y-175500000D03*
D12*
X93000000Y-3000000D03*
D13*
X102500000Y-160500000D03*
D11*
X115000000Y-95300000D03*
X152500000Y-45400000D03*
D10*
X152500000Y-175500000D03*
D12*
X187000000Y-197000000D03*
D13*
X127500000Y-160500000D03*
D11*
X115000000Y-45500000D03*
X177500000Y-45400000D03*
D10*
X115000000Y-133000000D03*
D14*
X165000000Y-132900000D03*
D12*
X93000000Y-197000000D03*
D15*
G36*
X91548228Y-785742D02*
G01*
X91332106Y-1152501D01*
X93000000Y-2820395D01*
X94667894Y-1152501D01*
X94451772Y-785742D01*
X94211512Y-660000D01*
X185783476Y-660000D01*
X185548228Y-785742D01*
X185332106Y-1152501D01*
X187000000Y-2820395D01*
X188667894Y-1152501D01*
X188451772Y-785742D01*
X188211512Y-660000D01*
X189340000Y-660000D01*
X189340000Y-1783476D01*
X189214258Y-1548228D01*
X188847499Y-1332106D01*
X187179605Y-3000000D01*
X188847499Y-4667894D01*
X189214258Y-4451772D01*
X189340000Y-4211512D01*
X189340001Y-195783478D01*
X189214258Y-195548228D01*
X188847499Y-195332106D01*
X187179605Y-197000000D01*
X188847499Y-198667894D01*
X189214258Y-198451772D01*
X189340001Y-198211510D01*
X189340001Y-199340000D01*
X188216524Y-199340000D01*
X188451772Y-199214258D01*
X188667894Y-198847499D01*
X187000000Y-197179605D01*
X185332106Y-198847499D01*
X185548228Y-199214258D01*
X185788488Y-199340000D01*
X94216524Y-199340000D01*
X94451772Y-199214258D01*
X94667894Y-198847499D01*
X93000000Y-197179605D01*
X91332106Y-198847499D01*
X91548228Y-199214258D01*
X91788488Y-199340000D01*
X90660000Y-199340000D01*
X90660000Y-198216524D01*
X90785742Y-198451772D01*
X91152501Y-198667894D01*
X92820395Y-197000000D01*
X93179605Y-197000000D01*
X94847499Y-198667894D01*
X95214258Y-198451772D01*
X95454938Y-197991895D01*
X95601275Y-197493902D01*
X95643509Y-197023071D01*
X184352352Y-197023071D01*
X184407727Y-197539159D01*
X184562721Y-198034526D01*
X184785742Y-198451772D01*
X185152501Y-198667894D01*
X186820395Y-197000000D01*
X185152501Y-195332106D01*
X184785742Y-195548228D01*
X184545062Y-196008105D01*
X184398725Y-196506098D01*
X184352352Y-197023071D01*
X95643509Y-197023071D01*
X95647648Y-196976929D01*
X95592273Y-196460841D01*
X95437279Y-195965474D01*
X95214258Y-195548228D01*
X94847499Y-195332106D01*
X93179605Y-197000000D01*
X92820395Y-197000000D01*
X91152501Y-195332106D01*
X90785742Y-195548228D01*
X90660000Y-195788488D01*
X90660000Y-195152501D01*
X91332106Y-195152501D01*
X93000000Y-196820395D01*
X94667894Y-195152501D01*
X185332106Y-195152501D01*
X187000000Y-196820395D01*
X188667894Y-195152501D01*
X188451772Y-194785742D01*
X187991895Y-194545062D01*
X187493902Y-194398725D01*
X186976929Y-194352352D01*
X186460841Y-194407727D01*
X185965474Y-194562721D01*
X185548228Y-194785742D01*
X185332106Y-195152501D01*
X94667894Y-195152501D01*
X94451772Y-194785742D01*
X93991895Y-194545062D01*
X93493902Y-194398725D01*
X92976929Y-194352352D01*
X92460841Y-194407727D01*
X91965474Y-194562721D01*
X91548228Y-194785742D01*
X91332106Y-195152501D01*
X90660000Y-195152501D01*
X90660000Y-180901674D01*
X97277932Y-180901674D01*
X98093908Y-181780530D01*
X99403840Y-182519437D01*
X100832756Y-182988591D01*
X102325743Y-183169963D01*
X103825428Y-183056583D01*
X105274176Y-182652807D01*
X106616314Y-181974153D01*
X106906092Y-181780530D01*
X107722068Y-180901674D01*
X122277932Y-180901674D01*
X123093908Y-181780530D01*
X124403840Y-182519437D01*
X125832756Y-182988591D01*
X127325743Y-183169963D01*
X128825428Y-183056583D01*
X130274176Y-182652807D01*
X131616314Y-181974153D01*
X131906092Y-181780530D01*
X132722068Y-180901674D01*
X147277932Y-180901674D01*
X148093908Y-181780530D01*
X149403840Y-182519437D01*
X150832756Y-182988591D01*
X152325743Y-183169963D01*
X153825428Y-183056583D01*
X155274176Y-182652807D01*
X156616314Y-181974153D01*
X156906092Y-181780530D01*
X157722068Y-180901674D01*
X172277932Y-180901674D01*
X173093908Y-181780530D01*
X174403840Y-182519437D01*
X175832756Y-182988591D01*
X177325743Y-183169963D01*
X178825428Y-183056583D01*
X180274176Y-182652807D01*
X181616314Y-181974153D01*
X181906092Y-181780530D01*
X182722068Y-180901674D01*
X177500000Y-175679605D01*
X172277932Y-180901674D01*
X157722068Y-180901674D01*
X152500000Y-175679605D01*
X147277932Y-180901674D01*
X132722068Y-180901674D01*
X127500000Y-175679605D01*
X122277932Y-180901674D01*
X107722068Y-180901674D01*
X102500000Y-175679605D01*
X97277932Y-180901674D01*
X90660000Y-180901674D01*
X90660000Y-175325743D01*
X94830037Y-175325743D01*
X94943417Y-176825428D01*
X95347193Y-178274176D01*
X96025847Y-179616314D01*
X96219470Y-179906092D01*
X97098326Y-180722068D01*
X102320395Y-175500000D01*
X102679605Y-175500000D01*
X107901674Y-180722068D01*
X108780530Y-179906092D01*
X109519437Y-178596160D01*
X109988591Y-177167244D01*
X110169963Y-175674257D01*
X110143615Y-175325743D01*
X119830037Y-175325743D01*
X119943417Y-176825428D01*
X120347193Y-178274176D01*
X121025847Y-179616314D01*
X121219470Y-179906092D01*
X122098326Y-180722068D01*
X127320395Y-175500000D01*
X127679605Y-175500000D01*
X132901674Y-180722068D01*
X133780530Y-179906092D01*
X134519437Y-178596160D01*
X134988591Y-177167244D01*
X135169963Y-175674257D01*
X135143615Y-175325743D01*
X144830037Y-175325743D01*
X144943417Y-176825428D01*
X145347193Y-178274176D01*
X146025847Y-179616314D01*
X146219470Y-179906092D01*
X147098326Y-180722068D01*
X152320395Y-175500000D01*
X152679605Y-175500000D01*
X157901674Y-180722068D01*
X158780530Y-179906092D01*
X159519437Y-178596160D01*
X159988591Y-177167244D01*
X160169963Y-175674257D01*
X160143615Y-175325743D01*
X169830037Y-175325743D01*
X169943417Y-176825428D01*
X170347193Y-178274176D01*
X171025847Y-179616314D01*
X171219470Y-179906092D01*
X172098326Y-180722068D01*
X177320395Y-175500000D01*
X177679605Y-175500000D01*
X182901674Y-180722068D01*
X183780530Y-179906092D01*
X184519437Y-178596160D01*
X184988591Y-177167244D01*
X185169963Y-175674257D01*
X185056583Y-174174572D01*
X184652807Y-172725824D01*
X183974153Y-171383686D01*
X183780530Y-171093908D01*
X182901674Y-170277932D01*
X177679605Y-175500000D01*
X177320395Y-175500000D01*
X172098326Y-170277932D01*
X171219470Y-171093908D01*
X170480563Y-172403840D01*
X170011409Y-173832756D01*
X169830037Y-175325743D01*
X160143615Y-175325743D01*
X160056583Y-174174572D01*
X159652807Y-172725824D01*
X158974153Y-171383686D01*
X158780530Y-171093908D01*
X157901674Y-170277932D01*
X152679605Y-175500000D01*
X152320395Y-175500000D01*
X147098326Y-170277932D01*
X146219470Y-171093908D01*
X145480563Y-172403840D01*
X145011409Y-173832756D01*
X144830037Y-175325743D01*
X135143615Y-175325743D01*
X135056583Y-174174572D01*
X134652807Y-172725824D01*
X133974153Y-171383686D01*
X133780530Y-171093908D01*
X132901674Y-170277932D01*
X127679605Y-175500000D01*
X127320395Y-175500000D01*
X122098326Y-170277932D01*
X121219470Y-171093908D01*
X120480563Y-172403840D01*
X120011409Y-173832756D01*
X119830037Y-175325743D01*
X110143615Y-175325743D01*
X110056583Y-174174572D01*
X109652807Y-172725824D01*
X108974153Y-171383686D01*
X108780530Y-171093908D01*
X107901674Y-170277932D01*
X102679605Y-175500000D01*
X102320395Y-175500000D01*
X97098326Y-170277932D01*
X96219470Y-171093908D01*
X95480563Y-172403840D01*
X95011409Y-173832756D01*
X94830037Y-175325743D01*
X90660000Y-175325743D01*
X90660000Y-170098326D01*
X97277932Y-170098326D01*
X102500000Y-175320395D01*
X107722068Y-170098326D01*
X122277932Y-170098326D01*
X127500000Y-175320395D01*
X132722068Y-170098326D01*
X147277932Y-170098326D01*
X152500000Y-175320395D01*
X157722068Y-170098326D01*
X172277932Y-170098326D01*
X177500000Y-175320395D01*
X182722068Y-170098326D01*
X181906092Y-169219470D01*
X180596160Y-168480563D01*
X179167244Y-168011409D01*
X177674257Y-167830037D01*
X176174572Y-167943417D01*
X174725824Y-168347193D01*
X173383686Y-169025847D01*
X173093908Y-169219470D01*
X172277932Y-170098326D01*
X157722068Y-170098326D01*
X156906092Y-169219470D01*
X155596160Y-168480563D01*
X154167244Y-168011409D01*
X152674257Y-167830037D01*
X151174572Y-167943417D01*
X149725824Y-168347193D01*
X148383686Y-169025847D01*
X148093908Y-169219470D01*
X147277932Y-170098326D01*
X132722068Y-170098326D01*
X131906092Y-169219470D01*
X130596160Y-168480563D01*
X129167244Y-168011409D01*
X127674257Y-167830037D01*
X126174572Y-167943417D01*
X124725824Y-168347193D01*
X123383686Y-169025847D01*
X123093908Y-169219470D01*
X122277932Y-170098326D01*
X107722068Y-170098326D01*
X106906092Y-169219470D01*
X105596160Y-168480563D01*
X104167244Y-168011409D01*
X102674257Y-167830037D01*
X101174572Y-167943417D01*
X99725824Y-168347193D01*
X98383686Y-169025847D01*
X98093908Y-169219470D01*
X97277932Y-170098326D01*
X90660000Y-170098326D01*
X90660000Y-162880928D01*
X100298677Y-162880928D01*
X100604859Y-163324503D01*
X101192306Y-163639954D01*
X101830008Y-163834740D01*
X102493457Y-163901372D01*
X103157158Y-163837292D01*
X103795605Y-163644962D01*
X104384262Y-163331772D01*
X104395141Y-163324503D01*
X104701323Y-162880928D01*
X125298677Y-162880928D01*
X125604859Y-163324503D01*
X126192306Y-163639954D01*
X126830008Y-163834740D01*
X127493457Y-163901372D01*
X128157158Y-163837292D01*
X128795605Y-163644962D01*
X129384262Y-163331772D01*
X129395141Y-163324503D01*
X129701323Y-162880928D01*
X127500000Y-160679605D01*
X125298677Y-162880928D01*
X104701323Y-162880928D01*
X102500000Y-160679605D01*
X100298677Y-162880928D01*
X90660000Y-162880928D01*
X90660000Y-160493457D01*
X99098628Y-160493457D01*
X99162708Y-161157158D01*
X99355038Y-161795605D01*
X99668228Y-162384262D01*
X99675497Y-162395141D01*
X100119072Y-162701323D01*
X102320395Y-160500000D01*
X102679605Y-160500000D01*
X104880928Y-162701323D01*
X105324503Y-162395141D01*
X105639954Y-161807694D01*
X105834740Y-161169992D01*
X105901372Y-160506543D01*
X105900109Y-160493457D01*
X124098628Y-160493457D01*
X124162708Y-161157158D01*
X124355038Y-161795605D01*
X124668228Y-162384262D01*
X124675497Y-162395141D01*
X125119072Y-162701323D01*
X127320395Y-160500000D01*
X127679605Y-160500000D01*
X129880928Y-162701323D01*
X130324503Y-162395141D01*
X130639954Y-161807694D01*
X130834740Y-161169992D01*
X130901372Y-160506543D01*
X130837292Y-159842842D01*
X130644962Y-159204395D01*
X130331772Y-158615738D01*
X130324503Y-158604859D01*
X129880928Y-158298677D01*
X127679605Y-160500000D01*
X127320395Y-160500000D01*
X125119072Y-158298677D01*
X124675497Y-158604859D01*
X124360046Y-159192306D01*
X124165260Y-159830008D01*
X124098628Y-160493457D01*
X105900109Y-160493457D01*
X105837292Y-159842842D01*
X105644962Y-159204395D01*
X105331772Y-158615738D01*
X105324503Y-158604859D01*
X104880928Y-158298677D01*
X102679605Y-160500000D01*
X102320395Y-160500000D01*
X100119072Y-158298677D01*
X99675497Y-158604859D01*
X99360046Y-159192306D01*
X99165260Y-159830008D01*
X99098628Y-160493457D01*
X90660000Y-160493457D01*
X90660000Y-158119072D01*
X100298677Y-158119072D01*
X102500000Y-160320395D01*
X104701323Y-158119072D01*
X125298677Y-158119072D01*
X127500000Y-160320395D01*
X129701323Y-158119072D01*
X129395141Y-157675497D01*
X128807694Y-157360046D01*
X128169992Y-157165260D01*
X127506543Y-157098628D01*
X126842842Y-157162708D01*
X126204395Y-157355038D01*
X125615738Y-157668228D01*
X125604859Y-157675497D01*
X125298677Y-158119072D01*
X104701323Y-158119072D01*
X104395141Y-157675497D01*
X103807694Y-157360046D01*
X103169992Y-157165260D01*
X102506543Y-157098628D01*
X101842842Y-157162708D01*
X101204395Y-157355038D01*
X100615738Y-157668228D01*
X100604859Y-157675497D01*
X100298677Y-158119072D01*
X90660000Y-158119072D01*
X90660000Y-138401674D01*
X109777932Y-138401674D01*
X110593908Y-139280530D01*
X111903840Y-140019437D01*
X113332756Y-140488591D01*
X114825743Y-140669963D01*
X116325428Y-140556583D01*
X117774176Y-140152807D01*
X119116314Y-139474153D01*
X119406092Y-139280530D01*
X119985023Y-138656985D01*
X159422620Y-138656985D01*
X160298556Y-139587048D01*
X161693471Y-140375765D01*
X163215454Y-140877192D01*
X164806017Y-141072060D01*
X166404033Y-140952881D01*
X167948094Y-140524234D01*
X169378861Y-139802592D01*
X169701444Y-139587048D01*
X170577380Y-138656985D01*
X165000000Y-133079605D01*
X159422620Y-138656985D01*
X119985023Y-138656985D01*
X120222068Y-138401674D01*
X115000000Y-133179605D01*
X109777932Y-138401674D01*
X90660000Y-138401674D01*
X90660000Y-132825743D01*
X107330037Y-132825743D01*
X107443417Y-134325428D01*
X107847193Y-135774176D01*
X108525847Y-137116314D01*
X108719470Y-137406092D01*
X109598326Y-138222068D01*
X114820395Y-133000000D01*
X115179605Y-133000000D01*
X120401674Y-138222068D01*
X121280530Y-137406092D01*
X122019437Y-136096160D01*
X122488591Y-134667244D01*
X122669963Y-133174257D01*
X122634563Y-132706017D01*
X156827940Y-132706017D01*
X156947119Y-134304033D01*
X157375766Y-135848094D01*
X158097408Y-137278861D01*
X158312952Y-137601444D01*
X159243015Y-138477380D01*
X164820395Y-132900000D01*
X165179605Y-132900000D01*
X170756985Y-138477380D01*
X171687048Y-137601444D01*
X172475765Y-136206529D01*
X172977192Y-134684546D01*
X173172060Y-133093983D01*
X173052881Y-131495967D01*
X172624234Y-129951906D01*
X171902592Y-128521139D01*
X171687048Y-128198556D01*
X170756985Y-127322620D01*
X165179605Y-132900000D01*
X164820395Y-132900000D01*
X159243015Y-127322620D01*
X158312952Y-128198556D01*
X157524235Y-129593471D01*
X157022808Y-131115454D01*
X156827940Y-132706017D01*
X122634563Y-132706017D01*
X122556583Y-131674572D01*
X122152807Y-130225824D01*
X121474153Y-128883686D01*
X121280530Y-128593908D01*
X120401674Y-127777932D01*
X115179605Y-133000000D01*
X114820395Y-133000000D01*
X109598326Y-127777932D01*
X108719470Y-128593908D01*
X107980563Y-129903840D01*
X107511409Y-131332756D01*
X107330037Y-132825743D01*
X90660000Y-132825743D01*
X90660000Y-127598326D01*
X109777932Y-127598326D01*
X115000000Y-132820395D01*
X120222068Y-127598326D01*
X119799334Y-127143015D01*
X159422620Y-127143015D01*
X165000000Y-132720395D01*
X170577380Y-127143015D01*
X169701444Y-126212952D01*
X168306529Y-125424235D01*
X166784546Y-124922808D01*
X165193983Y-124727940D01*
X163595967Y-124847119D01*
X162051906Y-125275766D01*
X160621139Y-125997408D01*
X160298556Y-126212952D01*
X159422620Y-127143015D01*
X119799334Y-127143015D01*
X119406092Y-126719470D01*
X118096160Y-125980563D01*
X116667244Y-125511409D01*
X115174257Y-125330037D01*
X113674572Y-125443417D01*
X112225824Y-125847193D01*
X110883686Y-126525847D01*
X110593908Y-126719470D01*
X109777932Y-127598326D01*
X90660000Y-127598326D01*
X90660000Y-98924971D01*
X111554634Y-98924971D01*
X112070783Y-99547788D01*
X112955768Y-100037630D01*
X113919314Y-100345407D01*
X114924389Y-100459293D01*
X115932370Y-100374910D01*
X116904520Y-100095501D01*
X117803481Y-99631803D01*
X117929217Y-99547788D01*
X118279619Y-99124971D01*
X149054634Y-99124971D01*
X149570783Y-99747788D01*
X150455768Y-100237630D01*
X151419314Y-100545407D01*
X152424389Y-100659293D01*
X153432370Y-100574910D01*
X154404520Y-100295501D01*
X155303481Y-99831803D01*
X155429217Y-99747788D01*
X155945366Y-99124971D01*
X174054634Y-99124971D01*
X174570783Y-99747788D01*
X175455768Y-100237630D01*
X176419314Y-100545407D01*
X177424389Y-100659293D01*
X178432370Y-100574910D01*
X179404520Y-100295501D01*
X180303481Y-99831803D01*
X180429217Y-99747788D01*
X180945366Y-99124971D01*
X177500000Y-95679605D01*
X174054634Y-99124971D01*
X155945366Y-99124971D01*
X152500000Y-95679605D01*
X149054634Y-99124971D01*
X118279619Y-99124971D01*
X118445366Y-98924971D01*
X115000000Y-95479605D01*
X111554634Y-98924971D01*
X90660000Y-98924971D01*
X90660000Y-95224389D01*
X109840707Y-95224389D01*
X109925090Y-96232370D01*
X110204499Y-97204520D01*
X110668197Y-98103481D01*
X110752212Y-98229217D01*
X111375029Y-98745366D01*
X114820395Y-95300000D01*
X115179605Y-95300000D01*
X118624971Y-98745366D01*
X119247788Y-98229217D01*
X119737630Y-97344232D01*
X120045407Y-96380686D01*
X120153765Y-95424389D01*
X147340707Y-95424389D01*
X147425090Y-96432370D01*
X147704499Y-97404520D01*
X148168197Y-98303481D01*
X148252212Y-98429217D01*
X148875029Y-98945366D01*
X152320395Y-95500000D01*
X152679605Y-95500000D01*
X156124971Y-98945366D01*
X156747788Y-98429217D01*
X157237630Y-97544232D01*
X157545407Y-96580686D01*
X157659293Y-95575611D01*
X157646634Y-95424389D01*
X172340707Y-95424389D01*
X172425090Y-96432370D01*
X172704499Y-97404520D01*
X173168197Y-98303481D01*
X173252212Y-98429217D01*
X173875029Y-98945366D01*
X177320395Y-95500000D01*
X177679605Y-95500000D01*
X181124971Y-98945366D01*
X181747788Y-98429217D01*
X182237630Y-97544232D01*
X182545407Y-96580686D01*
X182659293Y-95575611D01*
X182574910Y-94567630D01*
X182295501Y-93595480D01*
X181831803Y-92696519D01*
X181747788Y-92570783D01*
X181124971Y-92054634D01*
X177679605Y-95500000D01*
X177320395Y-95500000D01*
X173875029Y-92054634D01*
X173252212Y-92570783D01*
X172762370Y-93455768D01*
X172454593Y-94419314D01*
X172340707Y-95424389D01*
X157646634Y-95424389D01*
X157574910Y-94567630D01*
X157295501Y-93595480D01*
X156831803Y-92696519D01*
X156747788Y-92570783D01*
X156124971Y-92054634D01*
X152679605Y-95500000D01*
X152320395Y-95500000D01*
X148875029Y-92054634D01*
X148252212Y-92570783D01*
X147762370Y-93455768D01*
X147454593Y-94419314D01*
X147340707Y-95424389D01*
X120153765Y-95424389D01*
X120159293Y-95375611D01*
X120074910Y-94367630D01*
X119795501Y-93395480D01*
X119331803Y-92496519D01*
X119247788Y-92370783D01*
X118649581Y-91875029D01*
X149054634Y-91875029D01*
X152500000Y-95320395D01*
X155945366Y-91875029D01*
X174054634Y-91875029D01*
X177500000Y-95320395D01*
X180945366Y-91875029D01*
X180429217Y-91252212D01*
X179544232Y-90762370D01*
X178580686Y-90454593D01*
X177575611Y-90340707D01*
X176567630Y-90425090D01*
X175595480Y-90704499D01*
X174696519Y-91168197D01*
X174570783Y-91252212D01*
X174054634Y-91875029D01*
X155945366Y-91875029D01*
X155429217Y-91252212D01*
X154544232Y-90762370D01*
X153580686Y-90454593D01*
X152575611Y-90340707D01*
X151567630Y-90425090D01*
X150595480Y-90704499D01*
X149696519Y-91168197D01*
X149570783Y-91252212D01*
X149054634Y-91875029D01*
X118649581Y-91875029D01*
X118624971Y-91854634D01*
X115179605Y-95300000D01*
X114820395Y-95300000D01*
X111375029Y-91854634D01*
X110752212Y-92370783D01*
X110262370Y-93255768D01*
X109954593Y-94219314D01*
X109840707Y-95224389D01*
X90660000Y-95224389D01*
X90660000Y-91675029D01*
X111554634Y-91675029D01*
X115000000Y-95120395D01*
X118445366Y-91675029D01*
X117929217Y-91052212D01*
X117044232Y-90562370D01*
X116080686Y-90254593D01*
X115075611Y-90140707D01*
X114067630Y-90225090D01*
X113095480Y-90504499D01*
X112196519Y-90968197D01*
X112070783Y-91052212D01*
X111554634Y-91675029D01*
X90660000Y-91675029D01*
X90660000Y-49124971D01*
X111554634Y-49124971D01*
X112070783Y-49747788D01*
X112955768Y-50237630D01*
X113919314Y-50545407D01*
X114924389Y-50659293D01*
X115932370Y-50574910D01*
X116904520Y-50295501D01*
X117803481Y-49831803D01*
X117929217Y-49747788D01*
X118445366Y-49124971D01*
X118345366Y-49024971D01*
X149054634Y-49024971D01*
X149570783Y-49647788D01*
X150455768Y-50137630D01*
X151419314Y-50445407D01*
X152424389Y-50559293D01*
X153432370Y-50474910D01*
X154404520Y-50195501D01*
X155303481Y-49731803D01*
X155429217Y-49647788D01*
X155945366Y-49024971D01*
X174054634Y-49024971D01*
X174570783Y-49647788D01*
X175455768Y-50137630D01*
X176419314Y-50445407D01*
X177424389Y-50559293D01*
X178432370Y-50474910D01*
X179404520Y-50195501D01*
X180303481Y-49731803D01*
X180429217Y-49647788D01*
X180945366Y-49024971D01*
X177500000Y-45579605D01*
X174054634Y-49024971D01*
X155945366Y-49024971D01*
X152500000Y-45579605D01*
X149054634Y-49024971D01*
X118345366Y-49024971D01*
X115000000Y-45679605D01*
X111554634Y-49124971D01*
X90660000Y-49124971D01*
X90660000Y-45424389D01*
X109840707Y-45424389D01*
X109925090Y-46432370D01*
X110204499Y-47404520D01*
X110668197Y-48303481D01*
X110752212Y-48429217D01*
X111375029Y-48945366D01*
X114820395Y-45500000D01*
X115179605Y-45500000D01*
X118624971Y-48945366D01*
X119247788Y-48429217D01*
X119737630Y-47544232D01*
X120045407Y-46580686D01*
X120159293Y-45575611D01*
X120138262Y-45324389D01*
X147340707Y-45324389D01*
X147425090Y-46332370D01*
X147704499Y-47304520D01*
X148168197Y-48203481D01*
X148252212Y-48329217D01*
X148875029Y-48845366D01*
X152320395Y-45400000D01*
X152679605Y-45400000D01*
X156124971Y-48845366D01*
X156747788Y-48329217D01*
X157237630Y-47444232D01*
X157545407Y-46480686D01*
X157659293Y-45475611D01*
X157646634Y-45324389D01*
X172340707Y-45324389D01*
X172425090Y-46332370D01*
X172704499Y-47304520D01*
X173168197Y-48203481D01*
X173252212Y-48329217D01*
X173875029Y-48845366D01*
X177320395Y-45400000D01*
X177679605Y-45400000D01*
X181124971Y-48845366D01*
X181747788Y-48329217D01*
X182237630Y-47444232D01*
X182545407Y-46480686D01*
X182659293Y-45475611D01*
X182574910Y-44467630D01*
X182295501Y-43495480D01*
X181831803Y-42596519D01*
X181747788Y-42470783D01*
X181124971Y-41954634D01*
X177679605Y-45400000D01*
X177320395Y-45400000D01*
X173875029Y-41954634D01*
X173252212Y-42470783D01*
X172762370Y-43355768D01*
X172454593Y-44319314D01*
X172340707Y-45324389D01*
X157646634Y-45324389D01*
X157574910Y-44467630D01*
X157295501Y-43495480D01*
X156831803Y-42596519D01*
X156747788Y-42470783D01*
X156124971Y-41954634D01*
X152679605Y-45400000D01*
X152320395Y-45400000D01*
X148875029Y-41954634D01*
X148252212Y-42470783D01*
X147762370Y-43355768D01*
X147454593Y-44319314D01*
X147340707Y-45324389D01*
X120138262Y-45324389D01*
X120074910Y-44567630D01*
X119795501Y-43595480D01*
X119331803Y-42696519D01*
X119247788Y-42570783D01*
X118624971Y-42054634D01*
X115179605Y-45500000D01*
X114820395Y-45500000D01*
X111375029Y-42054634D01*
X110752212Y-42570783D01*
X110262370Y-43455768D01*
X109954593Y-44419314D01*
X109840707Y-45424389D01*
X90660000Y-45424389D01*
X90660000Y-41875029D01*
X111554634Y-41875029D01*
X115000000Y-45320395D01*
X118445366Y-41875029D01*
X118362493Y-41775029D01*
X149054634Y-41775029D01*
X152500000Y-45220395D01*
X155945366Y-41775029D01*
X174054634Y-41775029D01*
X177500000Y-45220395D01*
X180945366Y-41775029D01*
X180429217Y-41152212D01*
X179544232Y-40662370D01*
X178580686Y-40354593D01*
X177575611Y-40240707D01*
X176567630Y-40325090D01*
X175595480Y-40604499D01*
X174696519Y-41068197D01*
X174570783Y-41152212D01*
X174054634Y-41775029D01*
X155945366Y-41775029D01*
X155429217Y-41152212D01*
X154544232Y-40662370D01*
X153580686Y-40354593D01*
X152575611Y-40240707D01*
X151567630Y-40325090D01*
X150595480Y-40604499D01*
X149696519Y-41068197D01*
X149570783Y-41152212D01*
X149054634Y-41775029D01*
X118362493Y-41775029D01*
X117929217Y-41252212D01*
X117044232Y-40762370D01*
X116080686Y-40454593D01*
X115075611Y-40340707D01*
X114067630Y-40425090D01*
X113095480Y-40704499D01*
X112196519Y-41168197D01*
X112070783Y-41252212D01*
X111554634Y-41875029D01*
X90660000Y-41875029D01*
X90660000Y-4847499D01*
X91332106Y-4847499D01*
X91548228Y-5214258D01*
X92008105Y-5454938D01*
X92506098Y-5601275D01*
X93023071Y-5647648D01*
X93539159Y-5592273D01*
X94034526Y-5437279D01*
X94451772Y-5214258D01*
X94667894Y-4847499D01*
X185332106Y-4847499D01*
X185548228Y-5214258D01*
X186008105Y-5454938D01*
X186506098Y-5601275D01*
X187023071Y-5647648D01*
X187539159Y-5592273D01*
X188034526Y-5437279D01*
X188451772Y-5214258D01*
X188667894Y-4847499D01*
X187000000Y-3179605D01*
X185332106Y-4847499D01*
X94667894Y-4847499D01*
X93000000Y-3179605D01*
X91332106Y-4847499D01*
X90660000Y-4847499D01*
X90660000Y-4216524D01*
X90785742Y-4451772D01*
X91152501Y-4667894D01*
X92820395Y-3000000D01*
X93179605Y-3000000D01*
X94847499Y-4667894D01*
X95214258Y-4451772D01*
X95454938Y-3991895D01*
X95601275Y-3493902D01*
X95643509Y-3023071D01*
X184352352Y-3023071D01*
X184407727Y-3539159D01*
X184562721Y-4034526D01*
X184785742Y-4451772D01*
X185152501Y-4667894D01*
X186820395Y-3000000D01*
X185152501Y-1332106D01*
X184785742Y-1548228D01*
X184545062Y-2008105D01*
X184398725Y-2506098D01*
X184352352Y-3023071D01*
X95643509Y-3023071D01*
X95647648Y-2976929D01*
X95592273Y-2460841D01*
X95437279Y-1965474D01*
X95214258Y-1548228D01*
X94847499Y-1332106D01*
X93179605Y-3000000D01*
X92820395Y-3000000D01*
X91152501Y-1332106D01*
X90785742Y-1548228D01*
X90660000Y-1788488D01*
X90660000Y-660000D01*
X91783476Y-660000D01*
X91548228Y-785742D01*
G37*
X91548228Y-785742D02*
X91332106Y-1152501D01*
X93000000Y-2820395D01*
X94667894Y-1152501D01*
X94451772Y-785742D01*
X94211512Y-660000D01*
X185783476Y-660000D01*
X185548228Y-785742D01*
X185332106Y-1152501D01*
X187000000Y-2820395D01*
X188667894Y-1152501D01*
X188451772Y-785742D01*
X188211512Y-660000D01*
X189340000Y-660000D01*
X189340000Y-1783476D01*
X189214258Y-1548228D01*
X188847499Y-1332106D01*
X187179605Y-3000000D01*
X188847499Y-4667894D01*
X189214258Y-4451772D01*
X189340000Y-4211512D01*
X189340001Y-195783478D01*
X189214258Y-195548228D01*
X188847499Y-195332106D01*
X187179605Y-197000000D01*
X188847499Y-198667894D01*
X189214258Y-198451772D01*
X189340001Y-198211510D01*
X189340001Y-199340000D01*
X188216524Y-199340000D01*
X188451772Y-199214258D01*
X188667894Y-198847499D01*
X187000000Y-197179605D01*
X185332106Y-198847499D01*
X185548228Y-199214258D01*
X185788488Y-199340000D01*
X94216524Y-199340000D01*
X94451772Y-199214258D01*
X94667894Y-198847499D01*
X93000000Y-197179605D01*
X91332106Y-198847499D01*
X91548228Y-199214258D01*
X91788488Y-199340000D01*
X90660000Y-199340000D01*
X90660000Y-198216524D01*
X90785742Y-198451772D01*
X91152501Y-198667894D01*
X92820395Y-197000000D01*
X93179605Y-197000000D01*
X94847499Y-198667894D01*
X95214258Y-198451772D01*
X95454938Y-197991895D01*
X95601275Y-197493902D01*
X95643509Y-197023071D01*
X184352352Y-197023071D01*
X184407727Y-197539159D01*
X184562721Y-198034526D01*
X184785742Y-198451772D01*
X185152501Y-198667894D01*
X186820395Y-197000000D01*
X185152501Y-195332106D01*
X184785742Y-195548228D01*
X184545062Y-196008105D01*
X184398725Y-196506098D01*
X184352352Y-197023071D01*
X95643509Y-197023071D01*
X95647648Y-196976929D01*
X95592273Y-196460841D01*
X95437279Y-195965474D01*
X95214258Y-195548228D01*
X94847499Y-195332106D01*
X93179605Y-197000000D01*
X92820395Y-197000000D01*
X91152501Y-195332106D01*
X90785742Y-195548228D01*
X90660000Y-195788488D01*
X90660000Y-195152501D01*
X91332106Y-195152501D01*
X93000000Y-196820395D01*
X94667894Y-195152501D01*
X185332106Y-195152501D01*
X187000000Y-196820395D01*
X188667894Y-195152501D01*
X188451772Y-194785742D01*
X187991895Y-194545062D01*
X187493902Y-194398725D01*
X186976929Y-194352352D01*
X186460841Y-194407727D01*
X185965474Y-194562721D01*
X185548228Y-194785742D01*
X185332106Y-195152501D01*
X94667894Y-195152501D01*
X94451772Y-194785742D01*
X93991895Y-194545062D01*
X93493902Y-194398725D01*
X92976929Y-194352352D01*
X92460841Y-194407727D01*
X91965474Y-194562721D01*
X91548228Y-194785742D01*
X91332106Y-195152501D01*
X90660000Y-195152501D01*
X90660000Y-180901674D01*
X97277932Y-180901674D01*
X98093908Y-181780530D01*
X99403840Y-182519437D01*
X100832756Y-182988591D01*
X102325743Y-183169963D01*
X103825428Y-183056583D01*
X105274176Y-182652807D01*
X106616314Y-181974153D01*
X106906092Y-181780530D01*
X107722068Y-180901674D01*
X122277932Y-180901674D01*
X123093908Y-181780530D01*
X124403840Y-182519437D01*
X125832756Y-182988591D01*
X127325743Y-183169963D01*
X128825428Y-183056583D01*
X130274176Y-182652807D01*
X131616314Y-181974153D01*
X131906092Y-181780530D01*
X132722068Y-180901674D01*
X147277932Y-180901674D01*
X148093908Y-181780530D01*
X149403840Y-182519437D01*
X150832756Y-182988591D01*
X152325743Y-183169963D01*
X153825428Y-183056583D01*
X155274176Y-182652807D01*
X156616314Y-181974153D01*
X156906092Y-181780530D01*
X157722068Y-180901674D01*
X172277932Y-180901674D01*
X173093908Y-181780530D01*
X174403840Y-182519437D01*
X175832756Y-182988591D01*
X177325743Y-183169963D01*
X178825428Y-183056583D01*
X180274176Y-182652807D01*
X181616314Y-181974153D01*
X181906092Y-181780530D01*
X182722068Y-180901674D01*
X177500000Y-175679605D01*
X172277932Y-180901674D01*
X157722068Y-180901674D01*
X152500000Y-175679605D01*
X147277932Y-180901674D01*
X132722068Y-180901674D01*
X127500000Y-175679605D01*
X122277932Y-180901674D01*
X107722068Y-180901674D01*
X102500000Y-175679605D01*
X97277932Y-180901674D01*
X90660000Y-180901674D01*
X90660000Y-175325743D01*
X94830037Y-175325743D01*
X94943417Y-176825428D01*
X95347193Y-178274176D01*
X96025847Y-179616314D01*
X96219470Y-179906092D01*
X97098326Y-180722068D01*
X102320395Y-175500000D01*
X102679605Y-175500000D01*
X107901674Y-180722068D01*
X108780530Y-179906092D01*
X109519437Y-178596160D01*
X109988591Y-177167244D01*
X110169963Y-175674257D01*
X110143615Y-175325743D01*
X119830037Y-175325743D01*
X119943417Y-176825428D01*
X120347193Y-178274176D01*
X121025847Y-179616314D01*
X121219470Y-179906092D01*
X122098326Y-180722068D01*
X127320395Y-175500000D01*
X127679605Y-175500000D01*
X132901674Y-180722068D01*
X133780530Y-179906092D01*
X134519437Y-178596160D01*
X134988591Y-177167244D01*
X135169963Y-175674257D01*
X135143615Y-175325743D01*
X144830037Y-175325743D01*
X144943417Y-176825428D01*
X145347193Y-178274176D01*
X146025847Y-179616314D01*
X146219470Y-179906092D01*
X147098326Y-180722068D01*
X152320395Y-175500000D01*
X152679605Y-175500000D01*
X157901674Y-180722068D01*
X158780530Y-179906092D01*
X159519437Y-178596160D01*
X159988591Y-177167244D01*
X160169963Y-175674257D01*
X160143615Y-175325743D01*
X169830037Y-175325743D01*
X169943417Y-176825428D01*
X170347193Y-178274176D01*
X171025847Y-179616314D01*
X171219470Y-179906092D01*
X172098326Y-180722068D01*
X177320395Y-175500000D01*
X177679605Y-175500000D01*
X182901674Y-180722068D01*
X183780530Y-179906092D01*
X184519437Y-178596160D01*
X184988591Y-177167244D01*
X185169963Y-175674257D01*
X185056583Y-174174572D01*
X184652807Y-172725824D01*
X183974153Y-171383686D01*
X183780530Y-171093908D01*
X182901674Y-170277932D01*
X177679605Y-175500000D01*
X177320395Y-175500000D01*
X172098326Y-170277932D01*
X171219470Y-171093908D01*
X170480563Y-172403840D01*
X170011409Y-173832756D01*
X169830037Y-175325743D01*
X160143615Y-175325743D01*
X160056583Y-174174572D01*
X159652807Y-172725824D01*
X158974153Y-171383686D01*
X158780530Y-171093908D01*
X157901674Y-170277932D01*
X152679605Y-175500000D01*
X152320395Y-175500000D01*
X147098326Y-170277932D01*
X146219470Y-171093908D01*
X145480563Y-172403840D01*
X145011409Y-173832756D01*
X144830037Y-175325743D01*
X135143615Y-175325743D01*
X135056583Y-174174572D01*
X134652807Y-172725824D01*
X133974153Y-171383686D01*
X133780530Y-171093908D01*
X132901674Y-170277932D01*
X127679605Y-175500000D01*
X127320395Y-175500000D01*
X122098326Y-170277932D01*
X121219470Y-171093908D01*
X120480563Y-172403840D01*
X120011409Y-173832756D01*
X119830037Y-175325743D01*
X110143615Y-175325743D01*
X110056583Y-174174572D01*
X109652807Y-172725824D01*
X108974153Y-171383686D01*
X108780530Y-171093908D01*
X107901674Y-170277932D01*
X102679605Y-175500000D01*
X102320395Y-175500000D01*
X97098326Y-170277932D01*
X96219470Y-171093908D01*
X95480563Y-172403840D01*
X95011409Y-173832756D01*
X94830037Y-175325743D01*
X90660000Y-175325743D01*
X90660000Y-170098326D01*
X97277932Y-170098326D01*
X102500000Y-175320395D01*
X107722068Y-170098326D01*
X122277932Y-170098326D01*
X127500000Y-175320395D01*
X132722068Y-170098326D01*
X147277932Y-170098326D01*
X152500000Y-175320395D01*
X157722068Y-170098326D01*
X172277932Y-170098326D01*
X177500000Y-175320395D01*
X182722068Y-170098326D01*
X181906092Y-169219470D01*
X180596160Y-168480563D01*
X179167244Y-168011409D01*
X177674257Y-167830037D01*
X176174572Y-167943417D01*
X174725824Y-168347193D01*
X173383686Y-169025847D01*
X173093908Y-169219470D01*
X172277932Y-170098326D01*
X157722068Y-170098326D01*
X156906092Y-169219470D01*
X155596160Y-168480563D01*
X154167244Y-168011409D01*
X152674257Y-167830037D01*
X151174572Y-167943417D01*
X149725824Y-168347193D01*
X148383686Y-169025847D01*
X148093908Y-169219470D01*
X147277932Y-170098326D01*
X132722068Y-170098326D01*
X131906092Y-169219470D01*
X130596160Y-168480563D01*
X129167244Y-168011409D01*
X127674257Y-167830037D01*
X126174572Y-167943417D01*
X124725824Y-168347193D01*
X123383686Y-169025847D01*
X123093908Y-169219470D01*
X122277932Y-170098326D01*
X107722068Y-170098326D01*
X106906092Y-169219470D01*
X105596160Y-168480563D01*
X104167244Y-168011409D01*
X102674257Y-167830037D01*
X101174572Y-167943417D01*
X99725824Y-168347193D01*
X98383686Y-169025847D01*
X98093908Y-169219470D01*
X97277932Y-170098326D01*
X90660000Y-170098326D01*
X90660000Y-162880928D01*
X100298677Y-162880928D01*
X100604859Y-163324503D01*
X101192306Y-163639954D01*
X101830008Y-163834740D01*
X102493457Y-163901372D01*
X103157158Y-163837292D01*
X103795605Y-163644962D01*
X104384262Y-163331772D01*
X104395141Y-163324503D01*
X104701323Y-162880928D01*
X125298677Y-162880928D01*
X125604859Y-163324503D01*
X126192306Y-163639954D01*
X126830008Y-163834740D01*
X127493457Y-163901372D01*
X128157158Y-163837292D01*
X128795605Y-163644962D01*
X129384262Y-163331772D01*
X129395141Y-163324503D01*
X129701323Y-162880928D01*
X127500000Y-160679605D01*
X125298677Y-162880928D01*
X104701323Y-162880928D01*
X102500000Y-160679605D01*
X100298677Y-162880928D01*
X90660000Y-162880928D01*
X90660000Y-160493457D01*
X99098628Y-160493457D01*
X99162708Y-161157158D01*
X99355038Y-161795605D01*
X99668228Y-162384262D01*
X99675497Y-162395141D01*
X100119072Y-162701323D01*
X102320395Y-160500000D01*
X102679605Y-160500000D01*
X104880928Y-162701323D01*
X105324503Y-162395141D01*
X105639954Y-161807694D01*
X105834740Y-161169992D01*
X105901372Y-160506543D01*
X105900109Y-160493457D01*
X124098628Y-160493457D01*
X124162708Y-161157158D01*
X124355038Y-161795605D01*
X124668228Y-162384262D01*
X124675497Y-162395141D01*
X125119072Y-162701323D01*
X127320395Y-160500000D01*
X127679605Y-160500000D01*
X129880928Y-162701323D01*
X130324503Y-162395141D01*
X130639954Y-161807694D01*
X130834740Y-161169992D01*
X130901372Y-160506543D01*
X130837292Y-159842842D01*
X130644962Y-159204395D01*
X130331772Y-158615738D01*
X130324503Y-158604859D01*
X129880928Y-158298677D01*
X127679605Y-160500000D01*
X127320395Y-160500000D01*
X125119072Y-158298677D01*
X124675497Y-158604859D01*
X124360046Y-159192306D01*
X124165260Y-159830008D01*
X124098628Y-160493457D01*
X105900109Y-160493457D01*
X105837292Y-159842842D01*
X105644962Y-159204395D01*
X105331772Y-158615738D01*
X105324503Y-158604859D01*
X104880928Y-158298677D01*
X102679605Y-160500000D01*
X102320395Y-160500000D01*
X100119072Y-158298677D01*
X99675497Y-158604859D01*
X99360046Y-159192306D01*
X99165260Y-159830008D01*
X99098628Y-160493457D01*
X90660000Y-160493457D01*
X90660000Y-158119072D01*
X100298677Y-158119072D01*
X102500000Y-160320395D01*
X104701323Y-158119072D01*
X125298677Y-158119072D01*
X127500000Y-160320395D01*
X129701323Y-158119072D01*
X129395141Y-157675497D01*
X128807694Y-157360046D01*
X128169992Y-157165260D01*
X127506543Y-157098628D01*
X126842842Y-157162708D01*
X126204395Y-157355038D01*
X125615738Y-157668228D01*
X125604859Y-157675497D01*
X125298677Y-158119072D01*
X104701323Y-158119072D01*
X104395141Y-157675497D01*
X103807694Y-157360046D01*
X103169992Y-157165260D01*
X102506543Y-157098628D01*
X101842842Y-157162708D01*
X101204395Y-157355038D01*
X100615738Y-157668228D01*
X100604859Y-157675497D01*
X100298677Y-158119072D01*
X90660000Y-158119072D01*
X90660000Y-138401674D01*
X109777932Y-138401674D01*
X110593908Y-139280530D01*
X111903840Y-140019437D01*
X113332756Y-140488591D01*
X114825743Y-140669963D01*
X116325428Y-140556583D01*
X117774176Y-140152807D01*
X119116314Y-139474153D01*
X119406092Y-139280530D01*
X119985023Y-138656985D01*
X159422620Y-138656985D01*
X160298556Y-139587048D01*
X161693471Y-140375765D01*
X163215454Y-140877192D01*
X164806017Y-141072060D01*
X166404033Y-140952881D01*
X167948094Y-140524234D01*
X169378861Y-139802592D01*
X169701444Y-139587048D01*
X170577380Y-138656985D01*
X165000000Y-133079605D01*
X159422620Y-138656985D01*
X119985023Y-138656985D01*
X120222068Y-138401674D01*
X115000000Y-133179605D01*
X109777932Y-138401674D01*
X90660000Y-138401674D01*
X90660000Y-132825743D01*
X107330037Y-132825743D01*
X107443417Y-134325428D01*
X107847193Y-135774176D01*
X108525847Y-137116314D01*
X108719470Y-137406092D01*
X109598326Y-138222068D01*
X114820395Y-133000000D01*
X115179605Y-133000000D01*
X120401674Y-138222068D01*
X121280530Y-137406092D01*
X122019437Y-136096160D01*
X122488591Y-134667244D01*
X122669963Y-133174257D01*
X122634563Y-132706017D01*
X156827940Y-132706017D01*
X156947119Y-134304033D01*
X157375766Y-135848094D01*
X158097408Y-137278861D01*
X158312952Y-137601444D01*
X159243015Y-138477380D01*
X164820395Y-132900000D01*
X165179605Y-132900000D01*
X170756985Y-138477380D01*
X171687048Y-137601444D01*
X172475765Y-136206529D01*
X172977192Y-134684546D01*
X173172060Y-133093983D01*
X173052881Y-131495967D01*
X172624234Y-129951906D01*
X171902592Y-128521139D01*
X171687048Y-128198556D01*
X170756985Y-127322620D01*
X165179605Y-132900000D01*
X164820395Y-132900000D01*
X159243015Y-127322620D01*
X158312952Y-128198556D01*
X157524235Y-129593471D01*
X157022808Y-131115454D01*
X156827940Y-132706017D01*
X122634563Y-132706017D01*
X122556583Y-131674572D01*
X122152807Y-130225824D01*
X121474153Y-128883686D01*
X121280530Y-128593908D01*
X120401674Y-127777932D01*
X115179605Y-133000000D01*
X114820395Y-133000000D01*
X109598326Y-127777932D01*
X108719470Y-128593908D01*
X107980563Y-129903840D01*
X107511409Y-131332756D01*
X107330037Y-132825743D01*
X90660000Y-132825743D01*
X90660000Y-127598326D01*
X109777932Y-127598326D01*
X115000000Y-132820395D01*
X120222068Y-127598326D01*
X119799334Y-127143015D01*
X159422620Y-127143015D01*
X165000000Y-132720395D01*
X170577380Y-127143015D01*
X169701444Y-126212952D01*
X168306529Y-125424235D01*
X166784546Y-124922808D01*
X165193983Y-124727940D01*
X163595967Y-124847119D01*
X162051906Y-125275766D01*
X160621139Y-125997408D01*
X160298556Y-126212952D01*
X159422620Y-127143015D01*
X119799334Y-127143015D01*
X119406092Y-126719470D01*
X118096160Y-125980563D01*
X116667244Y-125511409D01*
X115174257Y-125330037D01*
X113674572Y-125443417D01*
X112225824Y-125847193D01*
X110883686Y-126525847D01*
X110593908Y-126719470D01*
X109777932Y-127598326D01*
X90660000Y-127598326D01*
X90660000Y-98924971D01*
X111554634Y-98924971D01*
X112070783Y-99547788D01*
X112955768Y-100037630D01*
X113919314Y-100345407D01*
X114924389Y-100459293D01*
X115932370Y-100374910D01*
X116904520Y-100095501D01*
X117803481Y-99631803D01*
X117929217Y-99547788D01*
X118279619Y-99124971D01*
X149054634Y-99124971D01*
X149570783Y-99747788D01*
X150455768Y-100237630D01*
X151419314Y-100545407D01*
X152424389Y-100659293D01*
X153432370Y-100574910D01*
X154404520Y-100295501D01*
X155303481Y-99831803D01*
X155429217Y-99747788D01*
X155945366Y-99124971D01*
X174054634Y-99124971D01*
X174570783Y-99747788D01*
X175455768Y-100237630D01*
X176419314Y-100545407D01*
X177424389Y-100659293D01*
X178432370Y-100574910D01*
X179404520Y-100295501D01*
X180303481Y-99831803D01*
X180429217Y-99747788D01*
X180945366Y-99124971D01*
X177500000Y-95679605D01*
X174054634Y-99124971D01*
X155945366Y-99124971D01*
X152500000Y-95679605D01*
X149054634Y-99124971D01*
X118279619Y-99124971D01*
X118445366Y-98924971D01*
X115000000Y-95479605D01*
X111554634Y-98924971D01*
X90660000Y-98924971D01*
X90660000Y-95224389D01*
X109840707Y-95224389D01*
X109925090Y-96232370D01*
X110204499Y-97204520D01*
X110668197Y-98103481D01*
X110752212Y-98229217D01*
X111375029Y-98745366D01*
X114820395Y-95300000D01*
X115179605Y-95300000D01*
X118624971Y-98745366D01*
X119247788Y-98229217D01*
X119737630Y-97344232D01*
X120045407Y-96380686D01*
X120153765Y-95424389D01*
X147340707Y-95424389D01*
X147425090Y-96432370D01*
X147704499Y-97404520D01*
X148168197Y-98303481D01*
X148252212Y-98429217D01*
X148875029Y-98945366D01*
X152320395Y-95500000D01*
X152679605Y-95500000D01*
X156124971Y-98945366D01*
X156747788Y-98429217D01*
X157237630Y-97544232D01*
X157545407Y-96580686D01*
X157659293Y-95575611D01*
X157646634Y-95424389D01*
X172340707Y-95424389D01*
X172425090Y-96432370D01*
X172704499Y-97404520D01*
X173168197Y-98303481D01*
X173252212Y-98429217D01*
X173875029Y-98945366D01*
X177320395Y-95500000D01*
X177679605Y-95500000D01*
X181124971Y-98945366D01*
X181747788Y-98429217D01*
X182237630Y-97544232D01*
X182545407Y-96580686D01*
X182659293Y-95575611D01*
X182574910Y-94567630D01*
X182295501Y-93595480D01*
X181831803Y-92696519D01*
X181747788Y-92570783D01*
X181124971Y-92054634D01*
X177679605Y-95500000D01*
X177320395Y-95500000D01*
X173875029Y-92054634D01*
X173252212Y-92570783D01*
X172762370Y-93455768D01*
X172454593Y-94419314D01*
X172340707Y-95424389D01*
X157646634Y-95424389D01*
X157574910Y-94567630D01*
X157295501Y-93595480D01*
X156831803Y-92696519D01*
X156747788Y-92570783D01*
X156124971Y-92054634D01*
X152679605Y-95500000D01*
X152320395Y-95500000D01*
X148875029Y-92054634D01*
X148252212Y-92570783D01*
X147762370Y-93455768D01*
X147454593Y-94419314D01*
X147340707Y-95424389D01*
X120153765Y-95424389D01*
X120159293Y-95375611D01*
X120074910Y-94367630D01*
X119795501Y-93395480D01*
X119331803Y-92496519D01*
X119247788Y-92370783D01*
X118649581Y-91875029D01*
X149054634Y-91875029D01*
X152500000Y-95320395D01*
X155945366Y-91875029D01*
X174054634Y-91875029D01*
X177500000Y-95320395D01*
X180945366Y-91875029D01*
X180429217Y-91252212D01*
X179544232Y-90762370D01*
X178580686Y-90454593D01*
X177575611Y-90340707D01*
X176567630Y-90425090D01*
X175595480Y-90704499D01*
X174696519Y-91168197D01*
X174570783Y-91252212D01*
X174054634Y-91875029D01*
X155945366Y-91875029D01*
X155429217Y-91252212D01*
X154544232Y-90762370D01*
X153580686Y-90454593D01*
X152575611Y-90340707D01*
X151567630Y-90425090D01*
X150595480Y-90704499D01*
X149696519Y-91168197D01*
X149570783Y-91252212D01*
X149054634Y-91875029D01*
X118649581Y-91875029D01*
X118624971Y-91854634D01*
X115179605Y-95300000D01*
X114820395Y-95300000D01*
X111375029Y-91854634D01*
X110752212Y-92370783D01*
X110262370Y-93255768D01*
X109954593Y-94219314D01*
X109840707Y-95224389D01*
X90660000Y-95224389D01*
X90660000Y-91675029D01*
X111554634Y-91675029D01*
X115000000Y-95120395D01*
X118445366Y-91675029D01*
X117929217Y-91052212D01*
X117044232Y-90562370D01*
X116080686Y-90254593D01*
X115075611Y-90140707D01*
X114067630Y-90225090D01*
X113095480Y-90504499D01*
X112196519Y-90968197D01*
X112070783Y-91052212D01*
X111554634Y-91675029D01*
X90660000Y-91675029D01*
X90660000Y-49124971D01*
X111554634Y-49124971D01*
X112070783Y-49747788D01*
X112955768Y-50237630D01*
X113919314Y-50545407D01*
X114924389Y-50659293D01*
X115932370Y-50574910D01*
X116904520Y-50295501D01*
X117803481Y-49831803D01*
X117929217Y-49747788D01*
X118445366Y-49124971D01*
X118345366Y-49024971D01*
X149054634Y-49024971D01*
X149570783Y-49647788D01*
X150455768Y-50137630D01*
X151419314Y-50445407D01*
X152424389Y-50559293D01*
X153432370Y-50474910D01*
X154404520Y-50195501D01*
X155303481Y-49731803D01*
X155429217Y-49647788D01*
X155945366Y-49024971D01*
X174054634Y-49024971D01*
X174570783Y-49647788D01*
X175455768Y-50137630D01*
X176419314Y-50445407D01*
X177424389Y-50559293D01*
X178432370Y-50474910D01*
X179404520Y-50195501D01*
X180303481Y-49731803D01*
X180429217Y-49647788D01*
X180945366Y-49024971D01*
X177500000Y-45579605D01*
X174054634Y-49024971D01*
X155945366Y-49024971D01*
X152500000Y-45579605D01*
X149054634Y-49024971D01*
X118345366Y-49024971D01*
X115000000Y-45679605D01*
X111554634Y-49124971D01*
X90660000Y-49124971D01*
X90660000Y-45424389D01*
X109840707Y-45424389D01*
X109925090Y-46432370D01*
X110204499Y-47404520D01*
X110668197Y-48303481D01*
X110752212Y-48429217D01*
X111375029Y-48945366D01*
X114820395Y-45500000D01*
X115179605Y-45500000D01*
X118624971Y-48945366D01*
X119247788Y-48429217D01*
X119737630Y-47544232D01*
X120045407Y-46580686D01*
X120159293Y-45575611D01*
X120138262Y-45324389D01*
X147340707Y-45324389D01*
X147425090Y-46332370D01*
X147704499Y-47304520D01*
X148168197Y-48203481D01*
X148252212Y-48329217D01*
X148875029Y-48845366D01*
X152320395Y-45400000D01*
X152679605Y-45400000D01*
X156124971Y-48845366D01*
X156747788Y-48329217D01*
X157237630Y-47444232D01*
X157545407Y-46480686D01*
X157659293Y-45475611D01*
X157646634Y-45324389D01*
X172340707Y-45324389D01*
X172425090Y-46332370D01*
X172704499Y-47304520D01*
X173168197Y-48203481D01*
X173252212Y-48329217D01*
X173875029Y-48845366D01*
X177320395Y-45400000D01*
X177679605Y-45400000D01*
X181124971Y-48845366D01*
X181747788Y-48329217D01*
X182237630Y-47444232D01*
X182545407Y-46480686D01*
X182659293Y-45475611D01*
X182574910Y-44467630D01*
X182295501Y-43495480D01*
X181831803Y-42596519D01*
X181747788Y-42470783D01*
X181124971Y-41954634D01*
X177679605Y-45400000D01*
X177320395Y-45400000D01*
X173875029Y-41954634D01*
X173252212Y-42470783D01*
X172762370Y-43355768D01*
X172454593Y-44319314D01*
X172340707Y-45324389D01*
X157646634Y-45324389D01*
X157574910Y-44467630D01*
X157295501Y-43495480D01*
X156831803Y-42596519D01*
X156747788Y-42470783D01*
X156124971Y-41954634D01*
X152679605Y-45400000D01*
X152320395Y-45400000D01*
X148875029Y-41954634D01*
X148252212Y-42470783D01*
X147762370Y-43355768D01*
X147454593Y-44319314D01*
X147340707Y-45324389D01*
X120138262Y-45324389D01*
X120074910Y-44567630D01*
X119795501Y-43595480D01*
X119331803Y-42696519D01*
X119247788Y-42570783D01*
X118624971Y-42054634D01*
X115179605Y-45500000D01*
X114820395Y-45500000D01*
X111375029Y-42054634D01*
X110752212Y-42570783D01*
X110262370Y-43455768D01*
X109954593Y-44419314D01*
X109840707Y-45424389D01*
X90660000Y-45424389D01*
X90660000Y-41875029D01*
X111554634Y-41875029D01*
X115000000Y-45320395D01*
X118445366Y-41875029D01*
X118362493Y-41775029D01*
X149054634Y-41775029D01*
X152500000Y-45220395D01*
X155945366Y-41775029D01*
X174054634Y-41775029D01*
X177500000Y-45220395D01*
X180945366Y-41775029D01*
X180429217Y-41152212D01*
X179544232Y-40662370D01*
X178580686Y-40354593D01*
X177575611Y-40240707D01*
X176567630Y-40325090D01*
X175595480Y-40604499D01*
X174696519Y-41068197D01*
X174570783Y-41152212D01*
X174054634Y-41775029D01*
X155945366Y-41775029D01*
X155429217Y-41152212D01*
X154544232Y-40662370D01*
X153580686Y-40354593D01*
X152575611Y-40240707D01*
X151567630Y-40325090D01*
X150595480Y-40604499D01*
X149696519Y-41068197D01*
X149570783Y-41152212D01*
X149054634Y-41775029D01*
X118362493Y-41775029D01*
X117929217Y-41252212D01*
X117044232Y-40762370D01*
X116080686Y-40454593D01*
X115075611Y-40340707D01*
X114067630Y-40425090D01*
X113095480Y-40704499D01*
X112196519Y-41168197D01*
X112070783Y-41252212D01*
X111554634Y-41875029D01*
X90660000Y-41875029D01*
X90660000Y-4847499D01*
X91332106Y-4847499D01*
X91548228Y-5214258D01*
X92008105Y-5454938D01*
X92506098Y-5601275D01*
X93023071Y-5647648D01*
X93539159Y-5592273D01*
X94034526Y-5437279D01*
X94451772Y-5214258D01*
X94667894Y-4847499D01*
X185332106Y-4847499D01*
X185548228Y-5214258D01*
X186008105Y-5454938D01*
X186506098Y-5601275D01*
X187023071Y-5647648D01*
X187539159Y-5592273D01*
X188034526Y-5437279D01*
X188451772Y-5214258D01*
X188667894Y-4847499D01*
X187000000Y-3179605D01*
X185332106Y-4847499D01*
X94667894Y-4847499D01*
X93000000Y-3179605D01*
X91332106Y-4847499D01*
X90660000Y-4847499D01*
X90660000Y-4216524D01*
X90785742Y-4451772D01*
X91152501Y-4667894D01*
X92820395Y-3000000D01*
X93179605Y-3000000D01*
X94847499Y-4667894D01*
X95214258Y-4451772D01*
X95454938Y-3991895D01*
X95601275Y-3493902D01*
X95643509Y-3023071D01*
X184352352Y-3023071D01*
X184407727Y-3539159D01*
X184562721Y-4034526D01*
X184785742Y-4451772D01*
X185152501Y-4667894D01*
X186820395Y-3000000D01*
X185152501Y-1332106D01*
X184785742Y-1548228D01*
X184545062Y-2008105D01*
X184398725Y-2506098D01*
X184352352Y-3023071D01*
X95643509Y-3023071D01*
X95647648Y-2976929D01*
X95592273Y-2460841D01*
X95437279Y-1965474D01*
X95214258Y-1548228D01*
X94847499Y-1332106D01*
X93179605Y-3000000D01*
X92820395Y-3000000D01*
X91152501Y-1332106D01*
X90785742Y-1548228D01*
X90660000Y-1788488D01*
X90660000Y-660000D01*
X91783476Y-660000D01*
X91548228Y-785742D01*
M02*
