G04 #@! TF.GenerationSoftware,KiCad,Pcbnew,5.1.5-52549c5~84~ubuntu18.04.1*
G04 #@! TF.CreationDate,2020-05-18T23:06:02-04:00*
G04 #@! TF.ProjectId,gategrinder_panel,67617465-6772-4696-9e64-65725f70616e,rev?*
G04 #@! TF.SameCoordinates,Original*
G04 #@! TF.FileFunction,Legend,Bot*
G04 #@! TF.FilePolarity,Positive*
%FSLAX46Y46*%
G04 Gerber Fmt 4.6, Leading zero omitted, Abs format (unit mm)*
G04 Created by KiCad (PCBNEW 5.1.5-52549c5~84~ubuntu18.04.1) date 2020-05-18 23:06:02*
%MOMM*%
%LPD*%
G04 APERTURE LIST*
%ADD10C,0.160000*%
G04 APERTURE END LIST*
D10*
X145619047Y-191452380D02*
X145619047Y-192166666D01*
X145666666Y-192309523D01*
X145761904Y-192404761D01*
X145904761Y-192452380D01*
X146000000Y-192452380D01*
X144666666Y-192452380D02*
X145142857Y-192452380D01*
X145142857Y-191452380D01*
X143761904Y-192357142D02*
X143809523Y-192404761D01*
X143952380Y-192452380D01*
X144047619Y-192452380D01*
X144190476Y-192404761D01*
X144285714Y-192309523D01*
X144333333Y-192214285D01*
X144380952Y-192023809D01*
X144380952Y-191880952D01*
X144333333Y-191690476D01*
X144285714Y-191595238D01*
X144190476Y-191500000D01*
X144047619Y-191452380D01*
X143952380Y-191452380D01*
X143809523Y-191500000D01*
X143761904Y-191547619D01*
X143047619Y-191452380D02*
X143047619Y-192166666D01*
X143095238Y-192309523D01*
X143190476Y-192404761D01*
X143333333Y-192452380D01*
X143428571Y-192452380D01*
X142095238Y-192452380D02*
X142571428Y-192452380D01*
X142571428Y-191452380D01*
X141190476Y-192357142D02*
X141238095Y-192404761D01*
X141380952Y-192452380D01*
X141476190Y-192452380D01*
X141619047Y-192404761D01*
X141714285Y-192309523D01*
X141761904Y-192214285D01*
X141809523Y-192023809D01*
X141809523Y-191880952D01*
X141761904Y-191690476D01*
X141714285Y-191595238D01*
X141619047Y-191500000D01*
X141476190Y-191452380D01*
X141380952Y-191452380D01*
X141238095Y-191500000D01*
X141190476Y-191547619D01*
X140476190Y-191452380D02*
X140476190Y-192166666D01*
X140523809Y-192309523D01*
X140619047Y-192404761D01*
X140761904Y-192452380D01*
X140857142Y-192452380D01*
X139523809Y-192452380D02*
X140000000Y-192452380D01*
X140000000Y-191452380D01*
X138619047Y-192357142D02*
X138666666Y-192404761D01*
X138809523Y-192452380D01*
X138904761Y-192452380D01*
X139047619Y-192404761D01*
X139142857Y-192309523D01*
X139190476Y-192214285D01*
X139238095Y-192023809D01*
X139238095Y-191880952D01*
X139190476Y-191690476D01*
X139142857Y-191595238D01*
X139047619Y-191500000D01*
X138904761Y-191452380D01*
X138809523Y-191452380D01*
X138666666Y-191500000D01*
X138619047Y-191547619D01*
X137904761Y-191452380D02*
X137904761Y-192166666D01*
X137952380Y-192309523D01*
X138047619Y-192404761D01*
X138190476Y-192452380D01*
X138285714Y-192452380D01*
X136952380Y-192452380D02*
X137428571Y-192452380D01*
X137428571Y-191452380D01*
X136047619Y-192357142D02*
X136095238Y-192404761D01*
X136238095Y-192452380D01*
X136333333Y-192452380D01*
X136476190Y-192404761D01*
X136571428Y-192309523D01*
X136619047Y-192214285D01*
X136666666Y-192023809D01*
X136666666Y-191880952D01*
X136619047Y-191690476D01*
X136571428Y-191595238D01*
X136476190Y-191500000D01*
X136333333Y-191452380D01*
X136238095Y-191452380D01*
X136095238Y-191500000D01*
X136047619Y-191547619D01*
M02*
