G04 #@! TF.GenerationSoftware,KiCad,Pcbnew,5.1.5-52549c5~84~ubuntu18.04.1*
G04 #@! TF.CreationDate,2020-05-11T15:10:22-04:00*
G04 #@! TF.ProjectId,gategrinder,67617465-6772-4696-9e64-65722e6b6963,rev?*
G04 #@! TF.SameCoordinates,Original*
G04 #@! TF.FileFunction,Legend,Bot*
G04 #@! TF.FilePolarity,Positive*
%FSLAX46Y46*%
G04 Gerber Fmt 4.6, Leading zero omitted, Abs format (unit mm)*
G04 Created by KiCad (PCBNEW 5.1.5-52549c5~84~ubuntu18.04.1) date 2020-05-11 15:10:22*
%MOMM*%
%LPD*%
G04 APERTURE LIST*
%ADD10C,0.300000*%
%ADD11C,0.600000*%
%ADD12C,0.010000*%
%ADD13C,0.120000*%
%ADD14C,0.150000*%
G04 APERTURE END LIST*
D10*
X103821428Y-155878571D02*
X104321428Y-155164285D01*
X104678571Y-155878571D02*
X104678571Y-154378571D01*
X104107142Y-154378571D01*
X103964285Y-154450000D01*
X103892857Y-154521428D01*
X103821428Y-154664285D01*
X103821428Y-154878571D01*
X103892857Y-155021428D01*
X103964285Y-155092857D01*
X104107142Y-155164285D01*
X104678571Y-155164285D01*
X103178571Y-155878571D02*
X103178571Y-154878571D01*
X103178571Y-154378571D02*
X103250000Y-154450000D01*
X103178571Y-154521428D01*
X103107142Y-154450000D01*
X103178571Y-154378571D01*
X103178571Y-154521428D01*
X101821428Y-155807142D02*
X101964285Y-155878571D01*
X102250000Y-155878571D01*
X102392857Y-155807142D01*
X102464285Y-155735714D01*
X102535714Y-155592857D01*
X102535714Y-155164285D01*
X102464285Y-155021428D01*
X102392857Y-154950000D01*
X102250000Y-154878571D01*
X101964285Y-154878571D01*
X101821428Y-154950000D01*
X101178571Y-155878571D02*
X101178571Y-154378571D01*
X100535714Y-155878571D02*
X100535714Y-155092857D01*
X100607142Y-154950000D01*
X100750000Y-154878571D01*
X100964285Y-154878571D01*
X101107142Y-154950000D01*
X101178571Y-155021428D01*
X98678571Y-155878571D02*
X98678571Y-154378571D01*
X98678571Y-155092857D02*
X97821428Y-155092857D01*
X97821428Y-155878571D02*
X97821428Y-154378571D01*
X96892857Y-155878571D02*
X97035714Y-155807142D01*
X97107142Y-155735714D01*
X97178571Y-155592857D01*
X97178571Y-155164285D01*
X97107142Y-155021428D01*
X97035714Y-154950000D01*
X96892857Y-154878571D01*
X96678571Y-154878571D01*
X96535714Y-154950000D01*
X96464285Y-155021428D01*
X96392857Y-155164285D01*
X96392857Y-155592857D01*
X96464285Y-155735714D01*
X96535714Y-155807142D01*
X96678571Y-155878571D01*
X96892857Y-155878571D01*
X95535714Y-155878571D02*
X95678571Y-155807142D01*
X95750000Y-155664285D01*
X95750000Y-154378571D01*
X94964285Y-155878571D02*
X94964285Y-154878571D01*
X94964285Y-155021428D02*
X94892857Y-154950000D01*
X94750000Y-154878571D01*
X94535714Y-154878571D01*
X94392857Y-154950000D01*
X94321428Y-155092857D01*
X94321428Y-155878571D01*
X94321428Y-155092857D02*
X94250000Y-154950000D01*
X94107142Y-154878571D01*
X93892857Y-154878571D01*
X93750000Y-154950000D01*
X93678571Y-155092857D01*
X93678571Y-155878571D01*
X92392857Y-155807142D02*
X92535714Y-155878571D01*
X92821428Y-155878571D01*
X92964285Y-155807142D01*
X93035714Y-155664285D01*
X93035714Y-155092857D01*
X92964285Y-154950000D01*
X92821428Y-154878571D01*
X92535714Y-154878571D01*
X92392857Y-154950000D01*
X92321428Y-155092857D01*
X92321428Y-155235714D01*
X93035714Y-155378571D01*
X91750000Y-155807142D02*
X91607142Y-155878571D01*
X91321428Y-155878571D01*
X91178571Y-155807142D01*
X91107142Y-155664285D01*
X91107142Y-155592857D01*
X91178571Y-155450000D01*
X91321428Y-155378571D01*
X91535714Y-155378571D01*
X91678571Y-155307142D01*
X91750000Y-155164285D01*
X91750000Y-155092857D01*
X91678571Y-154950000D01*
X91535714Y-154878571D01*
X91321428Y-154878571D01*
X91178571Y-154950000D01*
X88607142Y-154378571D02*
X89321428Y-154378571D01*
X89392857Y-155092857D01*
X89321428Y-155021428D01*
X89178571Y-154950000D01*
X88821428Y-154950000D01*
X88678571Y-155021428D01*
X88607142Y-155092857D01*
X88535714Y-155235714D01*
X88535714Y-155592857D01*
X88607142Y-155735714D01*
X88678571Y-155807142D01*
X88821428Y-155878571D01*
X89178571Y-155878571D01*
X89321428Y-155807142D01*
X89392857Y-155735714D01*
X86821428Y-154307142D02*
X88107142Y-156235714D01*
X86392857Y-154521428D02*
X86321428Y-154450000D01*
X86178571Y-154378571D01*
X85821428Y-154378571D01*
X85678571Y-154450000D01*
X85607142Y-154521428D01*
X85535714Y-154664285D01*
X85535714Y-154807142D01*
X85607142Y-155021428D01*
X86464285Y-155878571D01*
X85535714Y-155878571D01*
X84607142Y-154378571D02*
X84464285Y-154378571D01*
X84321428Y-154450000D01*
X84250000Y-154521428D01*
X84178571Y-154664285D01*
X84107142Y-154950000D01*
X84107142Y-155307142D01*
X84178571Y-155592857D01*
X84250000Y-155735714D01*
X84321428Y-155807142D01*
X84464285Y-155878571D01*
X84607142Y-155878571D01*
X84750000Y-155807142D01*
X84821428Y-155735714D01*
X84892857Y-155592857D01*
X84964285Y-155307142D01*
X84964285Y-154950000D01*
X84892857Y-154664285D01*
X84821428Y-154521428D01*
X84750000Y-154450000D01*
X84607142Y-154378571D01*
X83535714Y-154521428D02*
X83464285Y-154450000D01*
X83321428Y-154378571D01*
X82964285Y-154378571D01*
X82821428Y-154450000D01*
X82750000Y-154521428D01*
X82678571Y-154664285D01*
X82678571Y-154807142D01*
X82750000Y-155021428D01*
X83607142Y-155878571D01*
X82678571Y-155878571D01*
X81750000Y-154378571D02*
X81607142Y-154378571D01*
X81464285Y-154450000D01*
X81392857Y-154521428D01*
X81321428Y-154664285D01*
X81250000Y-154950000D01*
X81250000Y-155307142D01*
X81321428Y-155592857D01*
X81392857Y-155735714D01*
X81464285Y-155807142D01*
X81607142Y-155878571D01*
X81750000Y-155878571D01*
X81892857Y-155807142D01*
X81964285Y-155735714D01*
X82035714Y-155592857D01*
X82107142Y-155307142D01*
X82107142Y-154950000D01*
X82035714Y-154664285D01*
X81964285Y-154521428D01*
X81892857Y-154450000D01*
X81750000Y-154378571D01*
D11*
X165728571Y-152700000D02*
X166014285Y-152557142D01*
X166442857Y-152557142D01*
X166871428Y-152700000D01*
X167157142Y-152985714D01*
X167300000Y-153271428D01*
X167442857Y-153842857D01*
X167442857Y-154271428D01*
X167300000Y-154842857D01*
X167157142Y-155128571D01*
X166871428Y-155414285D01*
X166442857Y-155557142D01*
X166157142Y-155557142D01*
X165728571Y-155414285D01*
X165585714Y-155271428D01*
X165585714Y-154271428D01*
X166157142Y-154271428D01*
X163014285Y-155557142D02*
X163014285Y-153985714D01*
X163157142Y-153700000D01*
X163442857Y-153557142D01*
X164014285Y-153557142D01*
X164300000Y-153700000D01*
X163014285Y-155414285D02*
X163300000Y-155557142D01*
X164014285Y-155557142D01*
X164300000Y-155414285D01*
X164442857Y-155128571D01*
X164442857Y-154842857D01*
X164300000Y-154557142D01*
X164014285Y-154414285D01*
X163300000Y-154414285D01*
X163014285Y-154271428D01*
X162014285Y-153557142D02*
X160871428Y-153557142D01*
X161585714Y-152557142D02*
X161585714Y-155128571D01*
X161442857Y-155414285D01*
X161157142Y-155557142D01*
X160871428Y-155557142D01*
X158728571Y-155414285D02*
X159014285Y-155557142D01*
X159585714Y-155557142D01*
X159871428Y-155414285D01*
X160014285Y-155128571D01*
X160014285Y-153985714D01*
X159871428Y-153700000D01*
X159585714Y-153557142D01*
X159014285Y-153557142D01*
X158728571Y-153700000D01*
X158585714Y-153985714D01*
X158585714Y-154271428D01*
X160014285Y-154557142D01*
X153442857Y-152700000D02*
X153728571Y-152557142D01*
X154157142Y-152557142D01*
X154585714Y-152700000D01*
X154871428Y-152985714D01*
X155014285Y-153271428D01*
X155157142Y-153842857D01*
X155157142Y-154271428D01*
X155014285Y-154842857D01*
X154871428Y-155128571D01*
X154585714Y-155414285D01*
X154157142Y-155557142D01*
X153871428Y-155557142D01*
X153442857Y-155414285D01*
X153300000Y-155271428D01*
X153300000Y-154271428D01*
X153871428Y-154271428D01*
X152014285Y-155557142D02*
X152014285Y-153557142D01*
X152014285Y-154128571D02*
X151871428Y-153842857D01*
X151728571Y-153700000D01*
X151442857Y-153557142D01*
X151157142Y-153557142D01*
X150157142Y-155557142D02*
X150157142Y-153557142D01*
X150157142Y-152557142D02*
X150300000Y-152700000D01*
X150157142Y-152842857D01*
X150014285Y-152700000D01*
X150157142Y-152557142D01*
X150157142Y-152842857D01*
X148728571Y-153557142D02*
X148728571Y-155557142D01*
X148728571Y-153842857D02*
X148585714Y-153700000D01*
X148300000Y-153557142D01*
X147871428Y-153557142D01*
X147585714Y-153700000D01*
X147442857Y-153985714D01*
X147442857Y-155557142D01*
X144728571Y-155557142D02*
X144728571Y-152557142D01*
X144728571Y-155414285D02*
X145014285Y-155557142D01*
X145585714Y-155557142D01*
X145871428Y-155414285D01*
X146014285Y-155271428D01*
X146157142Y-154985714D01*
X146157142Y-154128571D01*
X146014285Y-153842857D01*
X145871428Y-153700000D01*
X145585714Y-153557142D01*
X145014285Y-153557142D01*
X144728571Y-153700000D01*
X142157142Y-155414285D02*
X142442857Y-155557142D01*
X143014285Y-155557142D01*
X143300000Y-155414285D01*
X143442857Y-155128571D01*
X143442857Y-153985714D01*
X143300000Y-153700000D01*
X143014285Y-153557142D01*
X142442857Y-153557142D01*
X142157142Y-153700000D01*
X142014285Y-153985714D01*
X142014285Y-154271428D01*
X143442857Y-154557142D01*
X140728571Y-155557142D02*
X140728571Y-153557142D01*
X140728571Y-154128571D02*
X140585714Y-153842857D01*
X140442857Y-153700000D01*
X140157142Y-153557142D01*
X139871428Y-153557142D01*
D12*
G36*
X223852281Y-115935412D02*
G01*
X223853088Y-115998520D01*
X223853844Y-116071885D01*
X223854535Y-116153065D01*
X223855145Y-116239617D01*
X223855659Y-116329098D01*
X223856063Y-116419066D01*
X223856342Y-116507078D01*
X223856480Y-116590690D01*
X223856492Y-116621212D01*
X223856500Y-117016500D01*
X224262900Y-117016500D01*
X224262900Y-116032250D01*
X228358650Y-116032250D01*
X228358650Y-116629150D01*
X224847338Y-116629150D01*
X224845631Y-116484687D01*
X224843925Y-116340225D01*
X224705757Y-116338513D01*
X224567589Y-116336802D01*
X224569232Y-116676903D01*
X224570875Y-117017005D01*
X226667962Y-117018340D01*
X228765050Y-117019675D01*
X228765050Y-115644900D01*
X223848078Y-115644900D01*
X223852281Y-115935412D01*
G37*
X223852281Y-115935412D02*
X223853088Y-115998520D01*
X223853844Y-116071885D01*
X223854535Y-116153065D01*
X223855145Y-116239617D01*
X223855659Y-116329098D01*
X223856063Y-116419066D01*
X223856342Y-116507078D01*
X223856480Y-116590690D01*
X223856492Y-116621212D01*
X223856500Y-117016500D01*
X224262900Y-117016500D01*
X224262900Y-116032250D01*
X228358650Y-116032250D01*
X228358650Y-116629150D01*
X224847338Y-116629150D01*
X224845631Y-116484687D01*
X224843925Y-116340225D01*
X224705757Y-116338513D01*
X224567589Y-116336802D01*
X224569232Y-116676903D01*
X224570875Y-117017005D01*
X226667962Y-117018340D01*
X228765050Y-117019675D01*
X228765050Y-115644900D01*
X223848078Y-115644900D01*
X223852281Y-115935412D01*
G36*
X223851709Y-114598737D02*
G01*
X223853325Y-115286125D01*
X226309187Y-115287720D01*
X228765050Y-115289316D01*
X228765050Y-113911350D01*
X224262900Y-113911350D01*
X224262900Y-114305050D01*
X228358650Y-114305050D01*
X228358650Y-114895600D01*
X224262900Y-114895600D01*
X224262900Y-114305050D01*
X224262900Y-113911350D01*
X223850093Y-113911350D01*
X223851709Y-114598737D01*
G37*
X223851709Y-114598737D02*
X223853325Y-115286125D01*
X226309187Y-115287720D01*
X228765050Y-115289316D01*
X228765050Y-113911350D01*
X224262900Y-113911350D01*
X224262900Y-114305050D01*
X228358650Y-114305050D01*
X228358650Y-114895600D01*
X224262900Y-114895600D01*
X224262900Y-114305050D01*
X224262900Y-113911350D01*
X223850093Y-113911350D01*
X223851709Y-114598737D01*
G36*
X226105987Y-112566728D02*
G01*
X228355475Y-112568325D01*
X228357101Y-113062037D01*
X228358727Y-113555750D01*
X228765050Y-113555750D01*
X228765050Y-112177800D01*
X223856500Y-112177800D01*
X223856500Y-112565132D01*
X226105987Y-112566728D01*
G37*
X226105987Y-112566728D02*
X228355475Y-112568325D01*
X228357101Y-113062037D01*
X228358727Y-113555750D01*
X228765050Y-113555750D01*
X228765050Y-112177800D01*
X223856500Y-112177800D01*
X223856500Y-112565132D01*
X226105987Y-112566728D01*
G36*
X226309187Y-111820620D02*
G01*
X228765050Y-111822216D01*
X228765050Y-111434850D01*
X228358650Y-111434850D01*
X228358650Y-110837950D01*
X228765050Y-110837950D01*
X228765050Y-110444233D01*
X226309187Y-110445829D01*
X224262900Y-110447158D01*
X224262900Y-110837950D01*
X228085725Y-110837950D01*
X228084075Y-111134812D01*
X228082425Y-111431675D01*
X226172662Y-111433272D01*
X224262900Y-111434870D01*
X224262900Y-110837950D01*
X224262900Y-110447158D01*
X223853325Y-110447425D01*
X223853325Y-111819025D01*
X226309187Y-111820620D01*
G37*
X226309187Y-111820620D02*
X228765050Y-111822216D01*
X228765050Y-111434850D01*
X228358650Y-111434850D01*
X228358650Y-110837950D01*
X228765050Y-110837950D01*
X228765050Y-110444233D01*
X226309187Y-110445829D01*
X224262900Y-110447158D01*
X224262900Y-110837950D01*
X228085725Y-110837950D01*
X228084075Y-111134812D01*
X228082425Y-111431675D01*
X226172662Y-111433272D01*
X224262900Y-111434870D01*
X224262900Y-110837950D01*
X224262900Y-110447158D01*
X223853325Y-110447425D01*
X223853325Y-111819025D01*
X226309187Y-111820620D01*
G36*
X228765050Y-110088650D02*
G01*
X228765050Y-109701300D01*
X224262900Y-109701300D01*
X224262900Y-109104400D01*
X228765050Y-109104400D01*
X228765050Y-108717050D01*
X226513975Y-108715509D01*
X226343382Y-108715393D01*
X226174999Y-108715279D01*
X226009333Y-108715166D01*
X225846892Y-108715057D01*
X225688185Y-108714951D01*
X225533718Y-108714848D01*
X225383999Y-108714748D01*
X225239538Y-108714653D01*
X225100841Y-108714562D01*
X224968417Y-108714475D01*
X224842774Y-108714394D01*
X224724418Y-108714318D01*
X224613860Y-108714247D01*
X224511605Y-108714183D01*
X224418163Y-108714125D01*
X224334041Y-108714073D01*
X224259748Y-108714029D01*
X224195790Y-108713991D01*
X224142676Y-108713961D01*
X224100914Y-108713940D01*
X224071012Y-108713926D01*
X224058112Y-108713922D01*
X223853325Y-108713875D01*
X223853098Y-109401262D01*
X223852872Y-110088650D01*
X228765050Y-110088650D01*
G37*
X228765050Y-110088650D02*
X228765050Y-109701300D01*
X224262900Y-109701300D01*
X224262900Y-109104400D01*
X228765050Y-109104400D01*
X228765050Y-108717050D01*
X226513975Y-108715509D01*
X226343382Y-108715393D01*
X226174999Y-108715279D01*
X226009333Y-108715166D01*
X225846892Y-108715057D01*
X225688185Y-108714951D01*
X225533718Y-108714848D01*
X225383999Y-108714748D01*
X225239538Y-108714653D01*
X225100841Y-108714562D01*
X224968417Y-108714475D01*
X224842774Y-108714394D01*
X224724418Y-108714318D01*
X224613860Y-108714247D01*
X224511605Y-108714183D01*
X224418163Y-108714125D01*
X224334041Y-108714073D01*
X224259748Y-108714029D01*
X224195790Y-108713991D01*
X224142676Y-108713961D01*
X224100914Y-108713940D01*
X224071012Y-108713926D01*
X224058112Y-108713922D01*
X223853325Y-108713875D01*
X223853098Y-109401262D01*
X223852872Y-110088650D01*
X228765050Y-110088650D01*
G36*
X228765050Y-108355100D02*
G01*
X228765050Y-107967750D01*
X228358650Y-107967750D01*
X228358650Y-107370850D01*
X228765050Y-107370850D01*
X228765050Y-106983500D01*
X228563437Y-106983372D01*
X228541822Y-106983360D01*
X228508014Y-106983346D01*
X228462520Y-106983329D01*
X228405845Y-106983309D01*
X228338496Y-106983286D01*
X228260980Y-106983262D01*
X228173804Y-106983234D01*
X228077474Y-106983205D01*
X227972497Y-106983174D01*
X227859379Y-106983141D01*
X227738627Y-106983106D01*
X227610748Y-106983070D01*
X227476247Y-106983032D01*
X227335632Y-106982993D01*
X227189410Y-106982953D01*
X227038086Y-106982912D01*
X226882168Y-106982870D01*
X226722162Y-106982827D01*
X226558575Y-106982784D01*
X226391913Y-106982740D01*
X226222682Y-106982696D01*
X226107575Y-106982667D01*
X224262900Y-106982195D01*
X224262900Y-107370850D01*
X228085725Y-107370850D01*
X228084075Y-107667712D01*
X228082425Y-107964575D01*
X226172662Y-107966172D01*
X224262900Y-107967770D01*
X224262900Y-107370850D01*
X224262900Y-106982195D01*
X223853325Y-106982090D01*
X223853098Y-107668595D01*
X223852872Y-108355100D01*
X228765050Y-108355100D01*
G37*
X228765050Y-108355100D02*
X228765050Y-107967750D01*
X228358650Y-107967750D01*
X228358650Y-107370850D01*
X228765050Y-107370850D01*
X228765050Y-106983500D01*
X228563437Y-106983372D01*
X228541822Y-106983360D01*
X228508014Y-106983346D01*
X228462520Y-106983329D01*
X228405845Y-106983309D01*
X228338496Y-106983286D01*
X228260980Y-106983262D01*
X228173804Y-106983234D01*
X228077474Y-106983205D01*
X227972497Y-106983174D01*
X227859379Y-106983141D01*
X227738627Y-106983106D01*
X227610748Y-106983070D01*
X227476247Y-106983032D01*
X227335632Y-106982993D01*
X227189410Y-106982953D01*
X227038086Y-106982912D01*
X226882168Y-106982870D01*
X226722162Y-106982827D01*
X226558575Y-106982784D01*
X226391913Y-106982740D01*
X226222682Y-106982696D01*
X226107575Y-106982667D01*
X224262900Y-106982195D01*
X224262900Y-107370850D01*
X228085725Y-107370850D01*
X228084075Y-107667712D01*
X228082425Y-107964575D01*
X226172662Y-107966172D01*
X224262900Y-107967770D01*
X224262900Y-107370850D01*
X224262900Y-106982195D01*
X223853325Y-106982090D01*
X223853098Y-107668595D01*
X223852872Y-108355100D01*
X228765050Y-108355100D01*
G36*
X229641350Y-117016500D02*
G01*
X229641350Y-116527550D01*
X234143500Y-116527550D01*
X234143500Y-116133850D01*
X229641350Y-116133850D01*
X229641350Y-115644900D01*
X229234950Y-115644900D01*
X229234950Y-117016500D01*
X229641350Y-117016500D01*
G37*
X229641350Y-117016500D02*
X229641350Y-116527550D01*
X234143500Y-116527550D01*
X234143500Y-116133850D01*
X229641350Y-116133850D01*
X229641350Y-115644900D01*
X229234950Y-115644900D01*
X229234950Y-117016500D01*
X229641350Y-117016500D01*
G36*
X230498522Y-113555750D02*
G01*
X230500148Y-113062037D01*
X230501775Y-112568325D01*
X232322637Y-112566726D01*
X234143500Y-112565128D01*
X234143500Y-112177800D01*
X229959181Y-112177800D01*
X229959181Y-112566227D01*
X230001195Y-112566297D01*
X230036245Y-112566542D01*
X230062800Y-112566952D01*
X230079330Y-112567519D01*
X230084220Y-112568039D01*
X230086165Y-112571377D01*
X230087789Y-112580368D01*
X230089117Y-112595905D01*
X230090172Y-112618886D01*
X230090979Y-112650204D01*
X230091561Y-112690756D01*
X230091942Y-112741437D01*
X230092147Y-112803141D01*
X230092200Y-112866575D01*
X230092200Y-113162050D01*
X229641224Y-113162050D01*
X229642874Y-112865187D01*
X229644525Y-112568325D01*
X229860382Y-112566651D01*
X229911733Y-112566342D01*
X229959181Y-112566227D01*
X229959181Y-112177800D01*
X229234950Y-112177800D01*
X229234950Y-113555750D01*
X230498522Y-113555750D01*
G37*
X230498522Y-113555750D02*
X230500148Y-113062037D01*
X230501775Y-112568325D01*
X232322637Y-112566726D01*
X234143500Y-112565128D01*
X234143500Y-112177800D01*
X229959181Y-112177800D01*
X229959181Y-112566227D01*
X230001195Y-112566297D01*
X230036245Y-112566542D01*
X230062800Y-112566952D01*
X230079330Y-112567519D01*
X230084220Y-112568039D01*
X230086165Y-112571377D01*
X230087789Y-112580368D01*
X230089117Y-112595905D01*
X230090172Y-112618886D01*
X230090979Y-112650204D01*
X230091561Y-112690756D01*
X230091942Y-112741437D01*
X230092147Y-112803141D01*
X230092200Y-112866575D01*
X230092200Y-113162050D01*
X229641224Y-113162050D01*
X229642874Y-112865187D01*
X229644525Y-112568325D01*
X229860382Y-112566651D01*
X229911733Y-112566342D01*
X229959181Y-112566227D01*
X229959181Y-112177800D01*
X229234950Y-112177800D01*
X229234950Y-113555750D01*
X230498522Y-113555750D01*
G36*
X229641350Y-111822200D02*
G01*
X229641350Y-111326900D01*
X234143500Y-111326900D01*
X234143500Y-110939550D01*
X229641350Y-110939550D01*
X229641350Y-110444250D01*
X229234950Y-110444250D01*
X229234950Y-111822200D01*
X229641350Y-111822200D01*
G37*
X229641350Y-111822200D02*
X229641350Y-111326900D01*
X234143500Y-111326900D01*
X234143500Y-110939550D01*
X229641350Y-110939550D01*
X229641350Y-110444250D01*
X229234950Y-110444250D01*
X229234950Y-111822200D01*
X229641350Y-111822200D01*
G36*
X233737100Y-114298700D02*
G01*
X233737100Y-114895600D01*
X229234950Y-114895600D01*
X229234950Y-115282950D01*
X231486025Y-115284490D01*
X231656617Y-115284606D01*
X231825000Y-115284720D01*
X231990666Y-115284833D01*
X232153107Y-115284942D01*
X232311814Y-115285048D01*
X232466281Y-115285151D01*
X232616000Y-115285251D01*
X232760461Y-115285346D01*
X232899158Y-115285437D01*
X233031582Y-115285524D01*
X233157225Y-115285605D01*
X233275581Y-115285681D01*
X233386139Y-115285752D01*
X233488394Y-115285816D01*
X233581836Y-115285874D01*
X233665958Y-115285926D01*
X233740251Y-115285970D01*
X233804209Y-115286008D01*
X233857323Y-115286038D01*
X233899085Y-115286059D01*
X233928987Y-115286073D01*
X233941887Y-115286077D01*
X234146675Y-115286125D01*
X234146901Y-114598737D01*
X234147127Y-113911350D01*
X229234950Y-113911350D01*
X229234950Y-114298700D01*
X233737100Y-114298700D01*
G37*
X233737100Y-114298700D02*
X233737100Y-114895600D01*
X229234950Y-114895600D01*
X229234950Y-115282950D01*
X231486025Y-115284490D01*
X231656617Y-115284606D01*
X231825000Y-115284720D01*
X231990666Y-115284833D01*
X232153107Y-115284942D01*
X232311814Y-115285048D01*
X232466281Y-115285151D01*
X232616000Y-115285251D01*
X232760461Y-115285346D01*
X232899158Y-115285437D01*
X233031582Y-115285524D01*
X233157225Y-115285605D01*
X233275581Y-115285681D01*
X233386139Y-115285752D01*
X233488394Y-115285816D01*
X233581836Y-115285874D01*
X233665958Y-115285926D01*
X233740251Y-115285970D01*
X233804209Y-115286008D01*
X233857323Y-115286038D01*
X233899085Y-115286059D01*
X233928987Y-115286073D01*
X233941887Y-115286077D01*
X234146675Y-115286125D01*
X234146901Y-114598737D01*
X234147127Y-113911350D01*
X229234950Y-113911350D01*
X229234950Y-114298700D01*
X233737100Y-114298700D01*
G36*
X233737100Y-109104400D02*
G01*
X233737100Y-109701300D01*
X229234950Y-109701300D01*
X229234950Y-110088650D01*
X234147095Y-110088650D01*
X234147095Y-109402373D01*
X234147064Y-109310147D01*
X234146975Y-109221541D01*
X234146831Y-109137377D01*
X234146637Y-109058473D01*
X234146396Y-108985649D01*
X234146112Y-108919725D01*
X234145790Y-108861520D01*
X234145434Y-108811855D01*
X234145047Y-108771547D01*
X234144634Y-108741419D01*
X234144199Y-108722288D01*
X234143745Y-108714974D01*
X234143710Y-108714925D01*
X234137187Y-108714846D01*
X234118398Y-108714780D01*
X234087776Y-108714725D01*
X234045754Y-108714682D01*
X233992765Y-108714651D01*
X233929243Y-108714631D01*
X233855622Y-108714623D01*
X233772333Y-108714625D01*
X233679812Y-108714639D01*
X233578492Y-108714663D01*
X233468804Y-108714698D01*
X233351184Y-108714744D01*
X233226065Y-108714799D01*
X233093879Y-108714865D01*
X232955060Y-108714941D01*
X232810042Y-108715026D01*
X232659258Y-108715121D01*
X232503141Y-108715226D01*
X232342124Y-108715340D01*
X232176642Y-108715463D01*
X232007127Y-108715595D01*
X231834012Y-108715735D01*
X231687637Y-108715859D01*
X229234950Y-108717965D01*
X229234950Y-109104400D01*
X233737100Y-109104400D01*
G37*
X233737100Y-109104400D02*
X233737100Y-109701300D01*
X229234950Y-109701300D01*
X229234950Y-110088650D01*
X234147095Y-110088650D01*
X234147095Y-109402373D01*
X234147064Y-109310147D01*
X234146975Y-109221541D01*
X234146831Y-109137377D01*
X234146637Y-109058473D01*
X234146396Y-108985649D01*
X234146112Y-108919725D01*
X234145790Y-108861520D01*
X234145434Y-108811855D01*
X234145047Y-108771547D01*
X234144634Y-108741419D01*
X234144199Y-108722288D01*
X234143745Y-108714974D01*
X234143710Y-108714925D01*
X234137187Y-108714846D01*
X234118398Y-108714780D01*
X234087776Y-108714725D01*
X234045754Y-108714682D01*
X233992765Y-108714651D01*
X233929243Y-108714631D01*
X233855622Y-108714623D01*
X233772333Y-108714625D01*
X233679812Y-108714639D01*
X233578492Y-108714663D01*
X233468804Y-108714698D01*
X233351184Y-108714744D01*
X233226065Y-108714799D01*
X233093879Y-108714865D01*
X232955060Y-108714941D01*
X232810042Y-108715026D01*
X232659258Y-108715121D01*
X232503141Y-108715226D01*
X232342124Y-108715340D01*
X232176642Y-108715463D01*
X232007127Y-108715595D01*
X231834012Y-108715735D01*
X231687637Y-108715859D01*
X229234950Y-108717965D01*
X229234950Y-109104400D01*
X233737100Y-109104400D01*
G36*
X234149850Y-108355100D02*
G01*
X234149850Y-107670358D01*
X234149811Y-107578164D01*
X234149699Y-107489542D01*
X234149519Y-107405319D01*
X234149275Y-107326320D01*
X234148972Y-107253370D01*
X234148617Y-107187295D01*
X234148213Y-107128920D01*
X234147766Y-107079070D01*
X234147281Y-107038572D01*
X234146764Y-107008250D01*
X234146218Y-106988929D01*
X234145649Y-106981437D01*
X234145616Y-106981383D01*
X234139033Y-106981079D01*
X234120182Y-106980782D01*
X234089499Y-106980490D01*
X234047417Y-106980206D01*
X233994368Y-106979930D01*
X233930787Y-106979662D01*
X233857108Y-106979403D01*
X233773763Y-106979155D01*
X233681186Y-106978918D01*
X233579811Y-106978692D01*
X233470070Y-106978478D01*
X233352399Y-106978278D01*
X233227230Y-106978091D01*
X233094997Y-106977919D01*
X232956133Y-106977762D01*
X232811072Y-106977622D01*
X232660247Y-106977498D01*
X232504092Y-106977392D01*
X232343040Y-106977304D01*
X232177526Y-106977235D01*
X232007981Y-106977186D01*
X231834841Y-106977157D01*
X231688166Y-106977150D01*
X229641350Y-106977150D01*
X229641350Y-107370850D01*
X233737100Y-107370850D01*
X233737100Y-107967750D01*
X229641350Y-107967750D01*
X229641350Y-107370850D01*
X229641350Y-106977150D01*
X229234950Y-106977150D01*
X229234950Y-108355100D01*
X234149850Y-108355100D01*
G37*
X234149850Y-108355100D02*
X234149850Y-107670358D01*
X234149811Y-107578164D01*
X234149699Y-107489542D01*
X234149519Y-107405319D01*
X234149275Y-107326320D01*
X234148972Y-107253370D01*
X234148617Y-107187295D01*
X234148213Y-107128920D01*
X234147766Y-107079070D01*
X234147281Y-107038572D01*
X234146764Y-107008250D01*
X234146218Y-106988929D01*
X234145649Y-106981437D01*
X234145616Y-106981383D01*
X234139033Y-106981079D01*
X234120182Y-106980782D01*
X234089499Y-106980490D01*
X234047417Y-106980206D01*
X233994368Y-106979930D01*
X233930787Y-106979662D01*
X233857108Y-106979403D01*
X233773763Y-106979155D01*
X233681186Y-106978918D01*
X233579811Y-106978692D01*
X233470070Y-106978478D01*
X233352399Y-106978278D01*
X233227230Y-106978091D01*
X233094997Y-106977919D01*
X232956133Y-106977762D01*
X232811072Y-106977622D01*
X232660247Y-106977498D01*
X232504092Y-106977392D01*
X232343040Y-106977304D01*
X232177526Y-106977235D01*
X232007981Y-106977186D01*
X231834841Y-106977157D01*
X231688166Y-106977150D01*
X229641350Y-106977150D01*
X229641350Y-107370850D01*
X233737100Y-107370850D01*
X233737100Y-107967750D01*
X229641350Y-107967750D01*
X229641350Y-107370850D01*
X229641350Y-106977150D01*
X229234950Y-106977150D01*
X229234950Y-108355100D01*
X234149850Y-108355100D01*
G36*
X220975735Y-112174991D02*
G01*
X220982774Y-112390629D01*
X220995337Y-112598909D01*
X220996151Y-112609600D01*
X221027031Y-112928374D01*
X221070289Y-113244574D01*
X221125818Y-113557904D01*
X221193510Y-113868072D01*
X221273257Y-114174782D01*
X221364950Y-114477741D01*
X221468480Y-114776654D01*
X221583741Y-115071227D01*
X221710622Y-115361166D01*
X221849017Y-115646177D01*
X221998816Y-115925965D01*
X222159912Y-116200237D01*
X222332196Y-116468699D01*
X222510716Y-116724400D01*
X222698759Y-116972396D01*
X222897428Y-117213921D01*
X223106041Y-117448286D01*
X223323919Y-117674801D01*
X223550380Y-117892777D01*
X223784742Y-118101524D01*
X224026326Y-118300355D01*
X224200161Y-118433860D01*
X224458787Y-118618876D01*
X224724146Y-118793230D01*
X224995861Y-118956761D01*
X225273556Y-119109306D01*
X225556854Y-119250704D01*
X225845380Y-119380794D01*
X226138756Y-119499413D01*
X226436608Y-119606399D01*
X226738557Y-119701591D01*
X227044229Y-119784827D01*
X227353246Y-119855945D01*
X227631575Y-119909055D01*
X227804235Y-119937042D01*
X227975168Y-119961037D01*
X228147803Y-119981439D01*
X228325570Y-119998648D01*
X228511896Y-120013063D01*
X228539625Y-120014931D01*
X228579936Y-120017042D01*
X228631142Y-120018835D01*
X228691464Y-120020311D01*
X228759124Y-120021469D01*
X228832341Y-120022310D01*
X228909338Y-120022833D01*
X228988334Y-120023039D01*
X229067552Y-120022926D01*
X229145212Y-120022496D01*
X229219534Y-120021748D01*
X229288741Y-120020681D01*
X229351053Y-120019296D01*
X229404691Y-120017593D01*
X229447876Y-120015571D01*
X229457200Y-120014991D01*
X229725334Y-119993639D01*
X229984351Y-119965676D01*
X230236148Y-119930812D01*
X230482622Y-119888757D01*
X230725671Y-119839221D01*
X230943241Y-119787955D01*
X231253427Y-119703741D01*
X231558673Y-119607846D01*
X231858811Y-119500362D01*
X232153671Y-119381378D01*
X232443085Y-119250984D01*
X232726882Y-119109271D01*
X233004895Y-118956329D01*
X233276954Y-118792247D01*
X233542889Y-118617117D01*
X233802532Y-118431028D01*
X234055714Y-118234070D01*
X234302265Y-118026334D01*
X234383239Y-117954446D01*
X234418069Y-117922488D01*
X234460027Y-117882958D01*
X234507566Y-117837387D01*
X234559144Y-117787310D01*
X234613214Y-117734262D01*
X234668232Y-117679776D01*
X234722654Y-117625386D01*
X234774935Y-117572626D01*
X234823529Y-117523031D01*
X234866893Y-117478134D01*
X234903481Y-117439469D01*
X234921698Y-117419725D01*
X235134082Y-117177164D01*
X235335786Y-116927826D01*
X235526703Y-116671968D01*
X235706729Y-116409846D01*
X235875757Y-116141717D01*
X236033681Y-115867836D01*
X236180395Y-115588462D01*
X236315794Y-115303851D01*
X236439772Y-115014258D01*
X236552223Y-114719941D01*
X236653041Y-114421156D01*
X236742120Y-114118160D01*
X236819355Y-113811210D01*
X236884638Y-113500562D01*
X236937866Y-113186472D01*
X236978931Y-112869198D01*
X237007728Y-112548996D01*
X237020087Y-112333375D01*
X237021469Y-112294019D01*
X237022637Y-112244526D01*
X237023583Y-112187151D01*
X237024301Y-112124151D01*
X237024782Y-112057781D01*
X237025020Y-111990295D01*
X237025006Y-111923951D01*
X237024734Y-111861003D01*
X237024196Y-111803708D01*
X237023385Y-111754319D01*
X237022293Y-111715094D01*
X237022138Y-111711075D01*
X237003071Y-111389278D01*
X236971720Y-111070045D01*
X236928190Y-110753659D01*
X236872587Y-110440404D01*
X236805016Y-110130562D01*
X236725583Y-109824416D01*
X236634392Y-109522249D01*
X236531550Y-109224345D01*
X236417162Y-108930987D01*
X236291333Y-108642457D01*
X236154168Y-108359038D01*
X236005773Y-108081015D01*
X235846253Y-107808669D01*
X235675714Y-107542285D01*
X235494261Y-107282144D01*
X235302000Y-107028530D01*
X235258532Y-106973975D01*
X235082109Y-106762582D01*
X234894938Y-106553698D01*
X234698964Y-106349323D01*
X234496129Y-106151459D01*
X234288375Y-105962107D01*
X234210175Y-105894199D01*
X233969527Y-105696322D01*
X233720284Y-105507571D01*
X233463034Y-105328302D01*
X233198365Y-105158871D01*
X232926867Y-104999632D01*
X232649127Y-104850941D01*
X232365734Y-104713153D01*
X232077277Y-104586623D01*
X231974975Y-104544962D01*
X231677599Y-104433049D01*
X231376886Y-104333287D01*
X231073211Y-104245687D01*
X230766952Y-104170261D01*
X230458484Y-104107022D01*
X230148185Y-104055980D01*
X229836431Y-104017150D01*
X229523599Y-103990541D01*
X229210065Y-103976167D01*
X229000000Y-103974743D01*
X229000000Y-104059475D01*
X229096293Y-104059580D01*
X229181638Y-104059947D01*
X229257786Y-104060658D01*
X229326488Y-104061792D01*
X229389495Y-104063429D01*
X229448557Y-104065649D01*
X229505424Y-104068532D01*
X229561849Y-104072159D01*
X229619581Y-104076609D01*
X229680371Y-104081963D01*
X229745971Y-104088301D01*
X229818131Y-104095702D01*
X229838200Y-104097812D01*
X230151784Y-104137267D01*
X230462810Y-104189082D01*
X230770937Y-104253113D01*
X231075827Y-104329214D01*
X231377138Y-104417242D01*
X231674531Y-104517051D01*
X231967665Y-104628497D01*
X232256201Y-104751435D01*
X232539799Y-104885722D01*
X232818118Y-105031211D01*
X233090819Y-105187758D01*
X233357562Y-105355219D01*
X233618007Y-105533450D01*
X233871813Y-105722304D01*
X234111595Y-105915722D01*
X234181174Y-105974700D01*
X234246716Y-106031615D01*
X234310173Y-106088272D01*
X234373500Y-106146476D01*
X234438647Y-106208032D01*
X234507568Y-106274744D01*
X234582215Y-106348418D01*
X234613744Y-106379871D01*
X234740062Y-106508278D01*
X234857562Y-106632218D01*
X234968192Y-106753963D01*
X235073898Y-106875785D01*
X235176628Y-106999956D01*
X235278330Y-107128745D01*
X235380950Y-107264427D01*
X235434290Y-107337040D01*
X235603233Y-107579212D01*
X235764170Y-107830297D01*
X235916523Y-108089121D01*
X236059718Y-108354511D01*
X236193179Y-108625290D01*
X236316331Y-108900285D01*
X236428598Y-109178321D01*
X236529404Y-109458223D01*
X236618175Y-109738818D01*
X236628524Y-109774325D01*
X236691549Y-110003846D01*
X236746941Y-110229880D01*
X236795055Y-110454561D01*
X236836244Y-110680028D01*
X236870863Y-110908415D01*
X236899267Y-111141859D01*
X236921810Y-111382498D01*
X236938847Y-111632466D01*
X236939864Y-111650750D01*
X236940894Y-111678707D01*
X236941600Y-111717779D01*
X236942002Y-111766385D01*
X236942121Y-111822944D01*
X236941975Y-111885874D01*
X236941584Y-111953596D01*
X236940970Y-112024528D01*
X236940150Y-112097089D01*
X236939146Y-112169698D01*
X236937976Y-112240776D01*
X236936661Y-112308740D01*
X236935221Y-112372010D01*
X236933675Y-112429005D01*
X236932043Y-112478144D01*
X236930346Y-112517846D01*
X236928635Y-112546100D01*
X236916665Y-112690558D01*
X236903570Y-112825841D01*
X236888923Y-112955455D01*
X236872300Y-113082903D01*
X236853277Y-113211692D01*
X236832359Y-113339850D01*
X236773295Y-113649490D01*
X236701975Y-113956131D01*
X236618569Y-114259392D01*
X236523249Y-114558895D01*
X236416185Y-114854263D01*
X236297547Y-115145116D01*
X236167506Y-115431077D01*
X236026233Y-115711766D01*
X235873898Y-115986806D01*
X235710672Y-116255819D01*
X235536725Y-116518425D01*
X235352227Y-116774247D01*
X235190866Y-116981575D01*
X235017043Y-117189717D01*
X234833804Y-117394452D01*
X234643227Y-117593631D01*
X234447393Y-117785102D01*
X234248381Y-117966715D01*
X234184632Y-118022169D01*
X233938812Y-118225140D01*
X233685875Y-118417637D01*
X233426036Y-118599532D01*
X233159510Y-118770694D01*
X232886511Y-118930991D01*
X232607255Y-119080295D01*
X232321957Y-119218473D01*
X232030832Y-119345396D01*
X231954666Y-119376354D01*
X231657325Y-119488636D01*
X231356408Y-119588792D01*
X231052227Y-119676748D01*
X230745092Y-119752428D01*
X230435316Y-119815756D01*
X230123210Y-119866658D01*
X229809086Y-119905058D01*
X229739775Y-119911817D01*
X229674465Y-119917793D01*
X229615676Y-119922893D01*
X229561664Y-119927185D01*
X229510687Y-119930737D01*
X229461004Y-119933618D01*
X229410873Y-119935894D01*
X229358551Y-119937634D01*
X229302296Y-119938907D01*
X229240367Y-119939779D01*
X229171022Y-119940319D01*
X229092518Y-119940595D01*
X229003113Y-119940674D01*
X229000000Y-119940675D01*
X228910211Y-119940600D01*
X228831379Y-119940332D01*
X228761763Y-119939801D01*
X228699620Y-119938941D01*
X228643208Y-119937683D01*
X228590785Y-119935959D01*
X228540610Y-119933701D01*
X228490940Y-119930841D01*
X228440033Y-119927312D01*
X228386147Y-119923045D01*
X228327541Y-119917972D01*
X228262471Y-119912026D01*
X228260225Y-119911817D01*
X227946587Y-119876271D01*
X227635048Y-119828284D01*
X227325996Y-119767999D01*
X227019818Y-119695559D01*
X226716902Y-119611109D01*
X226417635Y-119514791D01*
X226122406Y-119406748D01*
X225831601Y-119287124D01*
X225545608Y-119156061D01*
X225264815Y-119013704D01*
X224989610Y-118860196D01*
X224720379Y-118695679D01*
X224457511Y-118520297D01*
X224415300Y-118490694D01*
X224161644Y-118303809D01*
X223915341Y-118106646D01*
X223676690Y-117899486D01*
X223445990Y-117682611D01*
X223223539Y-117456304D01*
X223009637Y-117220846D01*
X222804582Y-116976519D01*
X222785687Y-116953000D01*
X222598764Y-116709432D01*
X222420822Y-116457192D01*
X222252232Y-116196942D01*
X222093367Y-115929348D01*
X221944601Y-115655075D01*
X221806305Y-115374787D01*
X221678853Y-115089149D01*
X221562617Y-114798825D01*
X221532502Y-114717800D01*
X221435024Y-114434472D01*
X221348738Y-114148299D01*
X221273486Y-113858533D01*
X221209108Y-113564427D01*
X221155447Y-113265234D01*
X221112344Y-112960209D01*
X221079641Y-112648604D01*
X221070767Y-112539750D01*
X221067595Y-112488630D01*
X221064898Y-112426592D01*
X221062679Y-112355407D01*
X221060935Y-112276847D01*
X221059667Y-112192685D01*
X221058876Y-112104691D01*
X221058561Y-112014639D01*
X221058722Y-111924300D01*
X221059359Y-111835447D01*
X221060473Y-111749851D01*
X221062062Y-111669284D01*
X221064128Y-111595520D01*
X221066670Y-111530329D01*
X221069689Y-111475483D01*
X221070767Y-111460250D01*
X221095598Y-111184454D01*
X221127842Y-110917162D01*
X221167858Y-110656314D01*
X221216002Y-110399856D01*
X221272631Y-110145729D01*
X221338104Y-109891876D01*
X221351805Y-109842681D01*
X221442852Y-109542873D01*
X221545948Y-109246573D01*
X221660819Y-108954304D01*
X221787187Y-108666593D01*
X221924778Y-108383963D01*
X222073317Y-108106940D01*
X222232527Y-107836048D01*
X222402134Y-107571812D01*
X222581861Y-107314756D01*
X222771434Y-107065405D01*
X222880928Y-106930372D01*
X223004537Y-106785437D01*
X223135990Y-106638871D01*
X223272948Y-106493080D01*
X223413072Y-106350470D01*
X223554023Y-106213447D01*
X223693463Y-106084417D01*
X223764425Y-106021431D01*
X224007239Y-105817557D01*
X224257244Y-105624008D01*
X224514096Y-105440935D01*
X224777449Y-105268488D01*
X225046959Y-105106817D01*
X225322283Y-104956073D01*
X225603076Y-104816408D01*
X225888995Y-104687970D01*
X226179694Y-104570912D01*
X226474830Y-104465383D01*
X226774058Y-104371534D01*
X227077035Y-104289515D01*
X227383415Y-104219478D01*
X227692856Y-104161572D01*
X228005012Y-104115949D01*
X228161800Y-104097812D01*
X228235953Y-104090121D01*
X228303091Y-104083514D01*
X228364965Y-104077912D01*
X228423324Y-104073235D01*
X228479920Y-104069401D01*
X228536504Y-104066332D01*
X228594826Y-104063947D01*
X228656638Y-104062166D01*
X228723689Y-104060909D01*
X228797731Y-104060096D01*
X228880515Y-104059647D01*
X228973791Y-104059481D01*
X229000000Y-104059475D01*
X229000000Y-103974743D01*
X228896206Y-103974039D01*
X228582399Y-103984169D01*
X228269019Y-104006569D01*
X227956445Y-104041252D01*
X227645052Y-104088229D01*
X227335217Y-104147512D01*
X227027317Y-104219113D01*
X226721728Y-104303045D01*
X226504450Y-104370756D01*
X226203487Y-104475926D01*
X225907463Y-104592745D01*
X225616663Y-104721048D01*
X225331376Y-104860665D01*
X225051888Y-105011429D01*
X224778485Y-105173174D01*
X224511455Y-105345731D01*
X224251084Y-105528932D01*
X223997661Y-105722611D01*
X223751470Y-105926599D01*
X223580275Y-106078462D01*
X223548295Y-106108217D01*
X223509116Y-106145594D01*
X223464307Y-106189029D01*
X223415433Y-106236954D01*
X223364061Y-106287803D01*
X223311757Y-106340008D01*
X223260090Y-106392004D01*
X223210624Y-106442222D01*
X223164928Y-106489097D01*
X223124568Y-106531062D01*
X223091110Y-106566549D01*
X223078462Y-106580275D01*
X222867276Y-106821047D01*
X222666321Y-107069184D01*
X222475760Y-107324396D01*
X222295753Y-107586395D01*
X222126464Y-107854890D01*
X221968054Y-108129594D01*
X221820685Y-108410216D01*
X221684520Y-108696469D01*
X221559720Y-108988061D01*
X221446447Y-109284705D01*
X221344863Y-109586111D01*
X221287174Y-109777500D01*
X221204847Y-110086397D01*
X221134900Y-110398110D01*
X221077345Y-110712588D01*
X221032191Y-111029775D01*
X221002451Y-111314200D01*
X220987578Y-111521597D01*
X220978156Y-111736707D01*
X220974202Y-111955760D01*
X220975735Y-112174991D01*
G37*
X220975735Y-112174991D02*
X220982774Y-112390629D01*
X220995337Y-112598909D01*
X220996151Y-112609600D01*
X221027031Y-112928374D01*
X221070289Y-113244574D01*
X221125818Y-113557904D01*
X221193510Y-113868072D01*
X221273257Y-114174782D01*
X221364950Y-114477741D01*
X221468480Y-114776654D01*
X221583741Y-115071227D01*
X221710622Y-115361166D01*
X221849017Y-115646177D01*
X221998816Y-115925965D01*
X222159912Y-116200237D01*
X222332196Y-116468699D01*
X222510716Y-116724400D01*
X222698759Y-116972396D01*
X222897428Y-117213921D01*
X223106041Y-117448286D01*
X223323919Y-117674801D01*
X223550380Y-117892777D01*
X223784742Y-118101524D01*
X224026326Y-118300355D01*
X224200161Y-118433860D01*
X224458787Y-118618876D01*
X224724146Y-118793230D01*
X224995861Y-118956761D01*
X225273556Y-119109306D01*
X225556854Y-119250704D01*
X225845380Y-119380794D01*
X226138756Y-119499413D01*
X226436608Y-119606399D01*
X226738557Y-119701591D01*
X227044229Y-119784827D01*
X227353246Y-119855945D01*
X227631575Y-119909055D01*
X227804235Y-119937042D01*
X227975168Y-119961037D01*
X228147803Y-119981439D01*
X228325570Y-119998648D01*
X228511896Y-120013063D01*
X228539625Y-120014931D01*
X228579936Y-120017042D01*
X228631142Y-120018835D01*
X228691464Y-120020311D01*
X228759124Y-120021469D01*
X228832341Y-120022310D01*
X228909338Y-120022833D01*
X228988334Y-120023039D01*
X229067552Y-120022926D01*
X229145212Y-120022496D01*
X229219534Y-120021748D01*
X229288741Y-120020681D01*
X229351053Y-120019296D01*
X229404691Y-120017593D01*
X229447876Y-120015571D01*
X229457200Y-120014991D01*
X229725334Y-119993639D01*
X229984351Y-119965676D01*
X230236148Y-119930812D01*
X230482622Y-119888757D01*
X230725671Y-119839221D01*
X230943241Y-119787955D01*
X231253427Y-119703741D01*
X231558673Y-119607846D01*
X231858811Y-119500362D01*
X232153671Y-119381378D01*
X232443085Y-119250984D01*
X232726882Y-119109271D01*
X233004895Y-118956329D01*
X233276954Y-118792247D01*
X233542889Y-118617117D01*
X233802532Y-118431028D01*
X234055714Y-118234070D01*
X234302265Y-118026334D01*
X234383239Y-117954446D01*
X234418069Y-117922488D01*
X234460027Y-117882958D01*
X234507566Y-117837387D01*
X234559144Y-117787310D01*
X234613214Y-117734262D01*
X234668232Y-117679776D01*
X234722654Y-117625386D01*
X234774935Y-117572626D01*
X234823529Y-117523031D01*
X234866893Y-117478134D01*
X234903481Y-117439469D01*
X234921698Y-117419725D01*
X235134082Y-117177164D01*
X235335786Y-116927826D01*
X235526703Y-116671968D01*
X235706729Y-116409846D01*
X235875757Y-116141717D01*
X236033681Y-115867836D01*
X236180395Y-115588462D01*
X236315794Y-115303851D01*
X236439772Y-115014258D01*
X236552223Y-114719941D01*
X236653041Y-114421156D01*
X236742120Y-114118160D01*
X236819355Y-113811210D01*
X236884638Y-113500562D01*
X236937866Y-113186472D01*
X236978931Y-112869198D01*
X237007728Y-112548996D01*
X237020087Y-112333375D01*
X237021469Y-112294019D01*
X237022637Y-112244526D01*
X237023583Y-112187151D01*
X237024301Y-112124151D01*
X237024782Y-112057781D01*
X237025020Y-111990295D01*
X237025006Y-111923951D01*
X237024734Y-111861003D01*
X237024196Y-111803708D01*
X237023385Y-111754319D01*
X237022293Y-111715094D01*
X237022138Y-111711075D01*
X237003071Y-111389278D01*
X236971720Y-111070045D01*
X236928190Y-110753659D01*
X236872587Y-110440404D01*
X236805016Y-110130562D01*
X236725583Y-109824416D01*
X236634392Y-109522249D01*
X236531550Y-109224345D01*
X236417162Y-108930987D01*
X236291333Y-108642457D01*
X236154168Y-108359038D01*
X236005773Y-108081015D01*
X235846253Y-107808669D01*
X235675714Y-107542285D01*
X235494261Y-107282144D01*
X235302000Y-107028530D01*
X235258532Y-106973975D01*
X235082109Y-106762582D01*
X234894938Y-106553698D01*
X234698964Y-106349323D01*
X234496129Y-106151459D01*
X234288375Y-105962107D01*
X234210175Y-105894199D01*
X233969527Y-105696322D01*
X233720284Y-105507571D01*
X233463034Y-105328302D01*
X233198365Y-105158871D01*
X232926867Y-104999632D01*
X232649127Y-104850941D01*
X232365734Y-104713153D01*
X232077277Y-104586623D01*
X231974975Y-104544962D01*
X231677599Y-104433049D01*
X231376886Y-104333287D01*
X231073211Y-104245687D01*
X230766952Y-104170261D01*
X230458484Y-104107022D01*
X230148185Y-104055980D01*
X229836431Y-104017150D01*
X229523599Y-103990541D01*
X229210065Y-103976167D01*
X229000000Y-103974743D01*
X229000000Y-104059475D01*
X229096293Y-104059580D01*
X229181638Y-104059947D01*
X229257786Y-104060658D01*
X229326488Y-104061792D01*
X229389495Y-104063429D01*
X229448557Y-104065649D01*
X229505424Y-104068532D01*
X229561849Y-104072159D01*
X229619581Y-104076609D01*
X229680371Y-104081963D01*
X229745971Y-104088301D01*
X229818131Y-104095702D01*
X229838200Y-104097812D01*
X230151784Y-104137267D01*
X230462810Y-104189082D01*
X230770937Y-104253113D01*
X231075827Y-104329214D01*
X231377138Y-104417242D01*
X231674531Y-104517051D01*
X231967665Y-104628497D01*
X232256201Y-104751435D01*
X232539799Y-104885722D01*
X232818118Y-105031211D01*
X233090819Y-105187758D01*
X233357562Y-105355219D01*
X233618007Y-105533450D01*
X233871813Y-105722304D01*
X234111595Y-105915722D01*
X234181174Y-105974700D01*
X234246716Y-106031615D01*
X234310173Y-106088272D01*
X234373500Y-106146476D01*
X234438647Y-106208032D01*
X234507568Y-106274744D01*
X234582215Y-106348418D01*
X234613744Y-106379871D01*
X234740062Y-106508278D01*
X234857562Y-106632218D01*
X234968192Y-106753963D01*
X235073898Y-106875785D01*
X235176628Y-106999956D01*
X235278330Y-107128745D01*
X235380950Y-107264427D01*
X235434290Y-107337040D01*
X235603233Y-107579212D01*
X235764170Y-107830297D01*
X235916523Y-108089121D01*
X236059718Y-108354511D01*
X236193179Y-108625290D01*
X236316331Y-108900285D01*
X236428598Y-109178321D01*
X236529404Y-109458223D01*
X236618175Y-109738818D01*
X236628524Y-109774325D01*
X236691549Y-110003846D01*
X236746941Y-110229880D01*
X236795055Y-110454561D01*
X236836244Y-110680028D01*
X236870863Y-110908415D01*
X236899267Y-111141859D01*
X236921810Y-111382498D01*
X236938847Y-111632466D01*
X236939864Y-111650750D01*
X236940894Y-111678707D01*
X236941600Y-111717779D01*
X236942002Y-111766385D01*
X236942121Y-111822944D01*
X236941975Y-111885874D01*
X236941584Y-111953596D01*
X236940970Y-112024528D01*
X236940150Y-112097089D01*
X236939146Y-112169698D01*
X236937976Y-112240776D01*
X236936661Y-112308740D01*
X236935221Y-112372010D01*
X236933675Y-112429005D01*
X236932043Y-112478144D01*
X236930346Y-112517846D01*
X236928635Y-112546100D01*
X236916665Y-112690558D01*
X236903570Y-112825841D01*
X236888923Y-112955455D01*
X236872300Y-113082903D01*
X236853277Y-113211692D01*
X236832359Y-113339850D01*
X236773295Y-113649490D01*
X236701975Y-113956131D01*
X236618569Y-114259392D01*
X236523249Y-114558895D01*
X236416185Y-114854263D01*
X236297547Y-115145116D01*
X236167506Y-115431077D01*
X236026233Y-115711766D01*
X235873898Y-115986806D01*
X235710672Y-116255819D01*
X235536725Y-116518425D01*
X235352227Y-116774247D01*
X235190866Y-116981575D01*
X235017043Y-117189717D01*
X234833804Y-117394452D01*
X234643227Y-117593631D01*
X234447393Y-117785102D01*
X234248381Y-117966715D01*
X234184632Y-118022169D01*
X233938812Y-118225140D01*
X233685875Y-118417637D01*
X233426036Y-118599532D01*
X233159510Y-118770694D01*
X232886511Y-118930991D01*
X232607255Y-119080295D01*
X232321957Y-119218473D01*
X232030832Y-119345396D01*
X231954666Y-119376354D01*
X231657325Y-119488636D01*
X231356408Y-119588792D01*
X231052227Y-119676748D01*
X230745092Y-119752428D01*
X230435316Y-119815756D01*
X230123210Y-119866658D01*
X229809086Y-119905058D01*
X229739775Y-119911817D01*
X229674465Y-119917793D01*
X229615676Y-119922893D01*
X229561664Y-119927185D01*
X229510687Y-119930737D01*
X229461004Y-119933618D01*
X229410873Y-119935894D01*
X229358551Y-119937634D01*
X229302296Y-119938907D01*
X229240367Y-119939779D01*
X229171022Y-119940319D01*
X229092518Y-119940595D01*
X229003113Y-119940674D01*
X229000000Y-119940675D01*
X228910211Y-119940600D01*
X228831379Y-119940332D01*
X228761763Y-119939801D01*
X228699620Y-119938941D01*
X228643208Y-119937683D01*
X228590785Y-119935959D01*
X228540610Y-119933701D01*
X228490940Y-119930841D01*
X228440033Y-119927312D01*
X228386147Y-119923045D01*
X228327541Y-119917972D01*
X228262471Y-119912026D01*
X228260225Y-119911817D01*
X227946587Y-119876271D01*
X227635048Y-119828284D01*
X227325996Y-119767999D01*
X227019818Y-119695559D01*
X226716902Y-119611109D01*
X226417635Y-119514791D01*
X226122406Y-119406748D01*
X225831601Y-119287124D01*
X225545608Y-119156061D01*
X225264815Y-119013704D01*
X224989610Y-118860196D01*
X224720379Y-118695679D01*
X224457511Y-118520297D01*
X224415300Y-118490694D01*
X224161644Y-118303809D01*
X223915341Y-118106646D01*
X223676690Y-117899486D01*
X223445990Y-117682611D01*
X223223539Y-117456304D01*
X223009637Y-117220846D01*
X222804582Y-116976519D01*
X222785687Y-116953000D01*
X222598764Y-116709432D01*
X222420822Y-116457192D01*
X222252232Y-116196942D01*
X222093367Y-115929348D01*
X221944601Y-115655075D01*
X221806305Y-115374787D01*
X221678853Y-115089149D01*
X221562617Y-114798825D01*
X221532502Y-114717800D01*
X221435024Y-114434472D01*
X221348738Y-114148299D01*
X221273486Y-113858533D01*
X221209108Y-113564427D01*
X221155447Y-113265234D01*
X221112344Y-112960209D01*
X221079641Y-112648604D01*
X221070767Y-112539750D01*
X221067595Y-112488630D01*
X221064898Y-112426592D01*
X221062679Y-112355407D01*
X221060935Y-112276847D01*
X221059667Y-112192685D01*
X221058876Y-112104691D01*
X221058561Y-112014639D01*
X221058722Y-111924300D01*
X221059359Y-111835447D01*
X221060473Y-111749851D01*
X221062062Y-111669284D01*
X221064128Y-111595520D01*
X221066670Y-111530329D01*
X221069689Y-111475483D01*
X221070767Y-111460250D01*
X221095598Y-111184454D01*
X221127842Y-110917162D01*
X221167858Y-110656314D01*
X221216002Y-110399856D01*
X221272631Y-110145729D01*
X221338104Y-109891876D01*
X221351805Y-109842681D01*
X221442852Y-109542873D01*
X221545948Y-109246573D01*
X221660819Y-108954304D01*
X221787187Y-108666593D01*
X221924778Y-108383963D01*
X222073317Y-108106940D01*
X222232527Y-107836048D01*
X222402134Y-107571812D01*
X222581861Y-107314756D01*
X222771434Y-107065405D01*
X222880928Y-106930372D01*
X223004537Y-106785437D01*
X223135990Y-106638871D01*
X223272948Y-106493080D01*
X223413072Y-106350470D01*
X223554023Y-106213447D01*
X223693463Y-106084417D01*
X223764425Y-106021431D01*
X224007239Y-105817557D01*
X224257244Y-105624008D01*
X224514096Y-105440935D01*
X224777449Y-105268488D01*
X225046959Y-105106817D01*
X225322283Y-104956073D01*
X225603076Y-104816408D01*
X225888995Y-104687970D01*
X226179694Y-104570912D01*
X226474830Y-104465383D01*
X226774058Y-104371534D01*
X227077035Y-104289515D01*
X227383415Y-104219478D01*
X227692856Y-104161572D01*
X228005012Y-104115949D01*
X228161800Y-104097812D01*
X228235953Y-104090121D01*
X228303091Y-104083514D01*
X228364965Y-104077912D01*
X228423324Y-104073235D01*
X228479920Y-104069401D01*
X228536504Y-104066332D01*
X228594826Y-104063947D01*
X228656638Y-104062166D01*
X228723689Y-104060909D01*
X228797731Y-104060096D01*
X228880515Y-104059647D01*
X228973791Y-104059481D01*
X229000000Y-104059475D01*
X229000000Y-103974743D01*
X228896206Y-103974039D01*
X228582399Y-103984169D01*
X228269019Y-104006569D01*
X227956445Y-104041252D01*
X227645052Y-104088229D01*
X227335217Y-104147512D01*
X227027317Y-104219113D01*
X226721728Y-104303045D01*
X226504450Y-104370756D01*
X226203487Y-104475926D01*
X225907463Y-104592745D01*
X225616663Y-104721048D01*
X225331376Y-104860665D01*
X225051888Y-105011429D01*
X224778485Y-105173174D01*
X224511455Y-105345731D01*
X224251084Y-105528932D01*
X223997661Y-105722611D01*
X223751470Y-105926599D01*
X223580275Y-106078462D01*
X223548295Y-106108217D01*
X223509116Y-106145594D01*
X223464307Y-106189029D01*
X223415433Y-106236954D01*
X223364061Y-106287803D01*
X223311757Y-106340008D01*
X223260090Y-106392004D01*
X223210624Y-106442222D01*
X223164928Y-106489097D01*
X223124568Y-106531062D01*
X223091110Y-106566549D01*
X223078462Y-106580275D01*
X222867276Y-106821047D01*
X222666321Y-107069184D01*
X222475760Y-107324396D01*
X222295753Y-107586395D01*
X222126464Y-107854890D01*
X221968054Y-108129594D01*
X221820685Y-108410216D01*
X221684520Y-108696469D01*
X221559720Y-108988061D01*
X221446447Y-109284705D01*
X221344863Y-109586111D01*
X221287174Y-109777500D01*
X221204847Y-110086397D01*
X221134900Y-110398110D01*
X221077345Y-110712588D01*
X221032191Y-111029775D01*
X221002451Y-111314200D01*
X220987578Y-111521597D01*
X220978156Y-111736707D01*
X220974202Y-111955760D01*
X220975735Y-112174991D01*
D13*
X69582060Y-149060000D02*
X69582060Y-138560000D01*
X87602060Y-149060000D02*
X69582060Y-149060000D01*
X87602060Y-138560000D02*
X87602060Y-149060000D01*
X69582060Y-138560000D02*
X87602060Y-138560000D01*
X69642060Y-146060000D02*
X69642060Y-144810000D01*
X87542060Y-146060000D02*
X69642060Y-146060000D01*
X87542060Y-141560000D02*
X87542060Y-146060000D01*
X69642060Y-141560000D02*
X87542060Y-141560000D01*
X69642060Y-142810000D02*
X69642060Y-141560000D01*
X69642060Y-144810000D02*
G75*
G03X69642060Y-142810000I0J1000000D01*
G01*
X54582060Y-149060000D02*
X54582060Y-138560000D01*
X64982060Y-149060000D02*
X54582060Y-149060000D01*
X64982060Y-138560000D02*
X64982060Y-149060000D01*
X54582060Y-138560000D02*
X64982060Y-138560000D01*
X54642060Y-146060000D02*
X54642060Y-144810000D01*
X64922060Y-146060000D02*
X54642060Y-146060000D01*
X64922060Y-141560000D02*
X64922060Y-146060000D01*
X54642060Y-141560000D02*
X64922060Y-141560000D01*
X54642060Y-142810000D02*
X54642060Y-141560000D01*
X54642060Y-144810000D02*
G75*
G03X54642060Y-142810000I0J1000000D01*
G01*
X91582060Y-149060000D02*
X91582060Y-138560000D01*
X109602060Y-149060000D02*
X91582060Y-149060000D01*
X109602060Y-138560000D02*
X109602060Y-149060000D01*
X91582060Y-138560000D02*
X109602060Y-138560000D01*
X91642060Y-146060000D02*
X91642060Y-144810000D01*
X109542060Y-146060000D02*
X91642060Y-146060000D01*
X109542060Y-141560000D02*
X109542060Y-146060000D01*
X91642060Y-141560000D02*
X109542060Y-141560000D01*
X91642060Y-142810000D02*
X91642060Y-141560000D01*
X91642060Y-144810000D02*
G75*
G03X91642060Y-142810000I0J1000000D01*
G01*
X89582060Y-99060000D02*
X89582060Y-88560000D01*
X107602060Y-99060000D02*
X89582060Y-99060000D01*
X107602060Y-88560000D02*
X107602060Y-99060000D01*
X89582060Y-88560000D02*
X107602060Y-88560000D01*
X89642060Y-96060000D02*
X89642060Y-94810000D01*
X107542060Y-96060000D02*
X89642060Y-96060000D01*
X107542060Y-91560000D02*
X107542060Y-96060000D01*
X89642060Y-91560000D02*
X107542060Y-91560000D01*
X89642060Y-92810000D02*
X89642060Y-91560000D01*
X89642060Y-94810000D02*
G75*
G03X89642060Y-92810000I0J1000000D01*
G01*
X154710000Y-79880000D02*
X154710000Y-80210000D01*
X148170000Y-79880000D02*
X154710000Y-79880000D01*
X148170000Y-80210000D02*
X148170000Y-79880000D01*
X154710000Y-82620000D02*
X154710000Y-82290000D01*
X148170000Y-82620000D02*
X154710000Y-82620000D01*
X148170000Y-82290000D02*
X148170000Y-82620000D01*
X148170000Y-87620000D02*
X148170000Y-87290000D01*
X154710000Y-87620000D02*
X148170000Y-87620000D01*
X154710000Y-87290000D02*
X154710000Y-87620000D01*
X148170000Y-84880000D02*
X148170000Y-85210000D01*
X154710000Y-84880000D02*
X148170000Y-84880000D01*
X154710000Y-85210000D02*
X154710000Y-84880000D01*
X154710000Y-110380000D02*
X154710000Y-110710000D01*
X148170000Y-110380000D02*
X154710000Y-110380000D01*
X148170000Y-110710000D02*
X148170000Y-110380000D01*
X154710000Y-113120000D02*
X154710000Y-112790000D01*
X148170000Y-113120000D02*
X154710000Y-113120000D01*
X148170000Y-112790000D02*
X148170000Y-113120000D01*
X148170000Y-118120000D02*
X148170000Y-117790000D01*
X154710000Y-118120000D02*
X148170000Y-118120000D01*
X154710000Y-117790000D02*
X154710000Y-118120000D01*
X148170000Y-115380000D02*
X148170000Y-115710000D01*
X154710000Y-115380000D02*
X148170000Y-115380000D01*
X154710000Y-115710000D02*
X154710000Y-115380000D01*
X148170000Y-108120000D02*
X148170000Y-107790000D01*
X154710000Y-108120000D02*
X148170000Y-108120000D01*
X154710000Y-107790000D02*
X154710000Y-108120000D01*
X148170000Y-105380000D02*
X148170000Y-105710000D01*
X154710000Y-105380000D02*
X148170000Y-105380000D01*
X154710000Y-105710000D02*
X154710000Y-105380000D01*
X137170000Y-108120000D02*
X137170000Y-107790000D01*
X143710000Y-108120000D02*
X137170000Y-108120000D01*
X143710000Y-107790000D02*
X143710000Y-108120000D01*
X137170000Y-105380000D02*
X137170000Y-105710000D01*
X143710000Y-105380000D02*
X137170000Y-105380000D01*
X143710000Y-105710000D02*
X143710000Y-105380000D01*
X148170000Y-138370000D02*
X148170000Y-138040000D01*
X154710000Y-138370000D02*
X148170000Y-138370000D01*
X154710000Y-138040000D02*
X154710000Y-138370000D01*
X148170000Y-135630000D02*
X148170000Y-135960000D01*
X154710000Y-135630000D02*
X148170000Y-135630000D01*
X154710000Y-135960000D02*
X154710000Y-135630000D01*
X137170000Y-138370000D02*
X137170000Y-138040000D01*
X143710000Y-138370000D02*
X137170000Y-138370000D01*
X143710000Y-138040000D02*
X143710000Y-138370000D01*
X137170000Y-135630000D02*
X137170000Y-135960000D01*
X143710000Y-135630000D02*
X137170000Y-135630000D01*
X143710000Y-135960000D02*
X143710000Y-135630000D01*
X143710000Y-89880000D02*
X143710000Y-90210000D01*
X137170000Y-89880000D02*
X143710000Y-89880000D01*
X137170000Y-90210000D02*
X137170000Y-89880000D01*
X143710000Y-92620000D02*
X143710000Y-92290000D01*
X137170000Y-92620000D02*
X143710000Y-92620000D01*
X137170000Y-92290000D02*
X137170000Y-92620000D01*
X143710000Y-120380000D02*
X143710000Y-120710000D01*
X137170000Y-120380000D02*
X143710000Y-120380000D01*
X137170000Y-120710000D02*
X137170000Y-120380000D01*
X143710000Y-123120000D02*
X143710000Y-122790000D01*
X137170000Y-123120000D02*
X143710000Y-123120000D01*
X137170000Y-122790000D02*
X137170000Y-123120000D01*
X148170000Y-102640000D02*
X148170000Y-102310000D01*
X154710000Y-102640000D02*
X148170000Y-102640000D01*
X154710000Y-102310000D02*
X154710000Y-102640000D01*
X148170000Y-99900000D02*
X148170000Y-100230000D01*
X154710000Y-99900000D02*
X148170000Y-99900000D01*
X154710000Y-100230000D02*
X154710000Y-99900000D01*
X148170000Y-132890000D02*
X148170000Y-132560000D01*
X154710000Y-132890000D02*
X148170000Y-132890000D01*
X154710000Y-132560000D02*
X154710000Y-132890000D01*
X148170000Y-130150000D02*
X148170000Y-130480000D01*
X154710000Y-130150000D02*
X148170000Y-130150000D01*
X154710000Y-130480000D02*
X154710000Y-130150000D01*
X148170000Y-97620000D02*
X148170000Y-97290000D01*
X154710000Y-97620000D02*
X148170000Y-97620000D01*
X154710000Y-97290000D02*
X154710000Y-97620000D01*
X148170000Y-94880000D02*
X148170000Y-95210000D01*
X154710000Y-94880000D02*
X148170000Y-94880000D01*
X154710000Y-95210000D02*
X154710000Y-94880000D01*
X148170000Y-128120000D02*
X148170000Y-127790000D01*
X154710000Y-128120000D02*
X148170000Y-128120000D01*
X154710000Y-127790000D02*
X154710000Y-128120000D01*
X148170000Y-125380000D02*
X148170000Y-125710000D01*
X154710000Y-125380000D02*
X148170000Y-125380000D01*
X154710000Y-125710000D02*
X154710000Y-125380000D01*
X94602060Y-104250225D02*
X94932060Y-104250225D01*
X94602060Y-110790225D02*
X94602060Y-104250225D01*
X94932060Y-110790225D02*
X94602060Y-110790225D01*
X97342060Y-104250225D02*
X97012060Y-104250225D01*
X97342060Y-110790225D02*
X97342060Y-104250225D01*
X97012060Y-110790225D02*
X97342060Y-110790225D01*
X96892060Y-123620000D02*
X96892060Y-123290000D01*
X103432060Y-123620000D02*
X96892060Y-123620000D01*
X103432060Y-123290000D02*
X103432060Y-123620000D01*
X96892060Y-120880000D02*
X96892060Y-121210000D01*
X103432060Y-120880000D02*
X96892060Y-120880000D01*
X103432060Y-121210000D02*
X103432060Y-120880000D01*
X103432060Y-125880000D02*
X103432060Y-126210000D01*
X96892060Y-125880000D02*
X103432060Y-125880000D01*
X96892060Y-126210000D02*
X96892060Y-125880000D01*
X103432060Y-128620000D02*
X103432060Y-128290000D01*
X96892060Y-128620000D02*
X103432060Y-128620000D01*
X96892060Y-128290000D02*
X96892060Y-128620000D01*
X108512060Y-133620000D02*
X108512060Y-133290000D01*
X115052060Y-133620000D02*
X108512060Y-133620000D01*
X115052060Y-133290000D02*
X115052060Y-133620000D01*
X108512060Y-130880000D02*
X108512060Y-131210000D01*
X115052060Y-130880000D02*
X108512060Y-130880000D01*
X115052060Y-131210000D02*
X115052060Y-130880000D01*
X64602060Y-125540000D02*
X64932060Y-125540000D01*
X64602060Y-132080000D02*
X64602060Y-125540000D01*
X64932060Y-132080000D02*
X64602060Y-132080000D01*
X67342060Y-125540000D02*
X67012060Y-125540000D01*
X67342060Y-132080000D02*
X67342060Y-125540000D01*
X67012060Y-132080000D02*
X67342060Y-132080000D01*
X62342060Y-132080000D02*
X62012060Y-132080000D01*
X62342060Y-125540000D02*
X62342060Y-132080000D01*
X62012060Y-125540000D02*
X62342060Y-125540000D01*
X59602060Y-132080000D02*
X59932060Y-132080000D01*
X59602060Y-125540000D02*
X59602060Y-132080000D01*
X59932060Y-125540000D02*
X59602060Y-125540000D01*
X74602060Y-125540000D02*
X74932060Y-125540000D01*
X74602060Y-132080000D02*
X74602060Y-125540000D01*
X74932060Y-132080000D02*
X74602060Y-132080000D01*
X77342060Y-125540000D02*
X77012060Y-125540000D01*
X77342060Y-132080000D02*
X77342060Y-125540000D01*
X77012060Y-132080000D02*
X77342060Y-132080000D01*
X69602060Y-125540000D02*
X69932060Y-125540000D01*
X69602060Y-132080000D02*
X69602060Y-125540000D01*
X69932060Y-132080000D02*
X69602060Y-132080000D01*
X72342060Y-125540000D02*
X72012060Y-125540000D01*
X72342060Y-132080000D02*
X72342060Y-125540000D01*
X72012060Y-132080000D02*
X72342060Y-132080000D01*
X87342060Y-132080000D02*
X87012060Y-132080000D01*
X87342060Y-125540000D02*
X87342060Y-132080000D01*
X87012060Y-125540000D02*
X87342060Y-125540000D01*
X84602060Y-132080000D02*
X84932060Y-132080000D01*
X84602060Y-125540000D02*
X84602060Y-132080000D01*
X84932060Y-125540000D02*
X84602060Y-125540000D01*
X102342060Y-83080000D02*
X102012060Y-83080000D01*
X102342060Y-76540000D02*
X102342060Y-83080000D01*
X102012060Y-76540000D02*
X102342060Y-76540000D01*
X99602060Y-83080000D02*
X99932060Y-83080000D01*
X99602060Y-76540000D02*
X99602060Y-83080000D01*
X99932060Y-76540000D02*
X99602060Y-76540000D01*
X82342060Y-132080000D02*
X82012060Y-132080000D01*
X82342060Y-125540000D02*
X82342060Y-132080000D01*
X82012060Y-125540000D02*
X82342060Y-125540000D01*
X79602060Y-132080000D02*
X79932060Y-132080000D01*
X79602060Y-125540000D02*
X79602060Y-132080000D01*
X79932060Y-125540000D02*
X79602060Y-125540000D01*
X97342060Y-83080000D02*
X97012060Y-83080000D01*
X97342060Y-76540000D02*
X97342060Y-83080000D01*
X97012060Y-76540000D02*
X97342060Y-76540000D01*
X94602060Y-83080000D02*
X94932060Y-83080000D01*
X94602060Y-76540000D02*
X94602060Y-83080000D01*
X94932060Y-76540000D02*
X94602060Y-76540000D01*
X142278478Y-84051522D02*
G75*
G02X140440000Y-88490000I-1838478J-1838478D01*
G01*
X138601522Y-84051522D02*
G75*
G03X140440000Y-88490000I1838478J-1838478D01*
G01*
X138640000Y-84040000D02*
X142240000Y-84040000D01*
X142278478Y-114551522D02*
G75*
G02X140440000Y-118990000I-1838478J-1838478D01*
G01*
X138601522Y-114551522D02*
G75*
G03X140440000Y-118990000I1838478J-1838478D01*
G01*
X138640000Y-114540000D02*
X142240000Y-114540000D01*
X142638478Y-103108478D02*
G75*
G02X138200000Y-101270000I-1838478J1838478D01*
G01*
X142638478Y-99431522D02*
G75*
G03X138200000Y-101270000I-1838478J-1838478D01*
G01*
X142650000Y-99470000D02*
X142650000Y-103070000D01*
X142638478Y-133358478D02*
G75*
G02X138200000Y-131520000I-1838478J1838478D01*
G01*
X142638478Y-129681522D02*
G75*
G03X138200000Y-131520000I-1838478J-1838478D01*
G01*
X142650000Y-129720000D02*
X142650000Y-133320000D01*
X113620538Y-120411522D02*
G75*
G02X111782060Y-124850000I-1838478J-1838478D01*
G01*
X109943582Y-120411522D02*
G75*
G03X111782060Y-124850000I1838478J-1838478D01*
G01*
X109982060Y-120400000D02*
X113582060Y-120400000D01*
X67572060Y-91405000D02*
X67572060Y-88865000D01*
X67572060Y-91405000D02*
X65032060Y-91405000D01*
X67322060Y-91155000D02*
X67322060Y-81805000D01*
X46462060Y-91155000D02*
X67322060Y-91155000D01*
X46462060Y-81805000D02*
X46462060Y-91155000D01*
X67322060Y-81805000D02*
X46462060Y-81805000D01*
X149920000Y-92370000D02*
X149920000Y-90130000D01*
X150160000Y-92370000D02*
X150160000Y-90130000D01*
X150040000Y-92370000D02*
X150040000Y-90130000D01*
X154210000Y-91250000D02*
X153560000Y-91250000D01*
X148670000Y-91250000D02*
X149320000Y-91250000D01*
X153560000Y-92370000D02*
X149320000Y-92370000D01*
X153560000Y-90130000D02*
X153560000Y-92370000D01*
X149320000Y-90130000D02*
X153560000Y-90130000D01*
X149320000Y-92370000D02*
X149320000Y-90130000D01*
X149920000Y-122870000D02*
X149920000Y-120630000D01*
X150160000Y-122870000D02*
X150160000Y-120630000D01*
X150040000Y-122870000D02*
X150040000Y-120630000D01*
X154210000Y-121750000D02*
X153560000Y-121750000D01*
X148670000Y-121750000D02*
X149320000Y-121750000D01*
X153560000Y-122870000D02*
X149320000Y-122870000D01*
X153560000Y-120630000D02*
X153560000Y-122870000D01*
X149320000Y-120630000D02*
X153560000Y-120630000D01*
X149320000Y-122870000D02*
X149320000Y-120630000D01*
X110262060Y-128370000D02*
X110262060Y-126130000D01*
X110502060Y-128370000D02*
X110502060Y-126130000D01*
X110382060Y-128370000D02*
X110382060Y-126130000D01*
X114552060Y-127250000D02*
X113902060Y-127250000D01*
X109012060Y-127250000D02*
X109662060Y-127250000D01*
X113902060Y-128370000D02*
X109662060Y-128370000D01*
X113902060Y-126130000D02*
X113902060Y-128370000D01*
X109662060Y-126130000D02*
X113902060Y-126130000D01*
X109662060Y-128370000D02*
X109662060Y-126130000D01*
X54852060Y-127290000D02*
X57092060Y-127290000D01*
X54852060Y-127530000D02*
X57092060Y-127530000D01*
X54852060Y-127410000D02*
X57092060Y-127410000D01*
X55972060Y-131580000D02*
X55972060Y-130930000D01*
X55972060Y-126040000D02*
X55972060Y-126690000D01*
X54852060Y-130930000D02*
X54852060Y-126690000D01*
X57092060Y-130930000D02*
X54852060Y-130930000D01*
X57092060Y-126690000D02*
X57092060Y-130930000D01*
X54852060Y-126690000D02*
X57092060Y-126690000D01*
X60502060Y-97730000D02*
X63442060Y-97730000D01*
X60502060Y-97970000D02*
X63442060Y-97970000D01*
X60502060Y-97850000D02*
X63442060Y-97850000D01*
X61972060Y-103410000D02*
X61972060Y-102390000D01*
X61972060Y-95930000D02*
X61972060Y-96950000D01*
X60502060Y-102390000D02*
X60502060Y-96950000D01*
X63442060Y-102390000D02*
X60502060Y-102390000D01*
X63442060Y-96950000D02*
X63442060Y-102390000D01*
X60502060Y-96950000D02*
X63442060Y-96950000D01*
X53192060Y-101610000D02*
X50252060Y-101610000D01*
X53192060Y-101370000D02*
X50252060Y-101370000D01*
X53192060Y-101490000D02*
X50252060Y-101490000D01*
X51722060Y-95930000D02*
X51722060Y-96950000D01*
X51722060Y-103410000D02*
X51722060Y-102390000D01*
X53192060Y-96950000D02*
X53192060Y-102390000D01*
X50252060Y-96950000D02*
X53192060Y-96950000D01*
X50252060Y-102390000D02*
X50252060Y-96950000D01*
X53192060Y-102390000D02*
X50252060Y-102390000D01*
X101068060Y-110064759D02*
X101698060Y-110064759D01*
X101383060Y-109749759D02*
X101383060Y-110379759D01*
X102820060Y-116491000D02*
X103624060Y-116491000D01*
X102589060Y-116451000D02*
X103855060Y-116451000D01*
X102420060Y-116411000D02*
X104024060Y-116411000D01*
X102282060Y-116371000D02*
X104162060Y-116371000D01*
X102163060Y-116331000D02*
X104281060Y-116331000D01*
X102057060Y-116291000D02*
X104387060Y-116291000D01*
X101960060Y-116251000D02*
X104484060Y-116251000D01*
X101872060Y-116211000D02*
X104572060Y-116211000D01*
X101790060Y-116171000D02*
X104654060Y-116171000D01*
X101713060Y-116131000D02*
X104731060Y-116131000D01*
X101641060Y-116091000D02*
X104803060Y-116091000D01*
X101572060Y-116051000D02*
X104872060Y-116051000D01*
X101508060Y-116011000D02*
X104936060Y-116011000D01*
X101446060Y-115971000D02*
X104998060Y-115971000D01*
X101388060Y-115931000D02*
X105056060Y-115931000D01*
X101332060Y-115891000D02*
X105112060Y-115891000D01*
X101278060Y-115851000D02*
X105166060Y-115851000D01*
X101227060Y-115811000D02*
X105217060Y-115811000D01*
X101178060Y-115771000D02*
X105266060Y-115771000D01*
X101130060Y-115731000D02*
X105314060Y-115731000D01*
X101085060Y-115691000D02*
X105359060Y-115691000D01*
X101040060Y-115651000D02*
X105404060Y-115651000D01*
X100998060Y-115611000D02*
X105446060Y-115611000D01*
X100957060Y-115571000D02*
X105487060Y-115571000D01*
X104262060Y-115531000D02*
X105527060Y-115531000D01*
X100917060Y-115531000D02*
X102182060Y-115531000D01*
X104262060Y-115491000D02*
X105565060Y-115491000D01*
X100879060Y-115491000D02*
X102182060Y-115491000D01*
X104262060Y-115451000D02*
X105602060Y-115451000D01*
X100842060Y-115451000D02*
X102182060Y-115451000D01*
X104262060Y-115411000D02*
X105638060Y-115411000D01*
X100806060Y-115411000D02*
X102182060Y-115411000D01*
X104262060Y-115371000D02*
X105672060Y-115371000D01*
X100772060Y-115371000D02*
X102182060Y-115371000D01*
X104262060Y-115331000D02*
X105706060Y-115331000D01*
X100738060Y-115331000D02*
X102182060Y-115331000D01*
X104262060Y-115291000D02*
X105738060Y-115291000D01*
X100706060Y-115291000D02*
X102182060Y-115291000D01*
X104262060Y-115251000D02*
X105770060Y-115251000D01*
X100674060Y-115251000D02*
X102182060Y-115251000D01*
X104262060Y-115211000D02*
X105800060Y-115211000D01*
X100644060Y-115211000D02*
X102182060Y-115211000D01*
X104262060Y-115171000D02*
X105829060Y-115171000D01*
X100615060Y-115171000D02*
X102182060Y-115171000D01*
X104262060Y-115131000D02*
X105858060Y-115131000D01*
X100586060Y-115131000D02*
X102182060Y-115131000D01*
X104262060Y-115091000D02*
X105886060Y-115091000D01*
X100558060Y-115091000D02*
X102182060Y-115091000D01*
X104262060Y-115051000D02*
X105912060Y-115051000D01*
X100532060Y-115051000D02*
X102182060Y-115051000D01*
X104262060Y-115011000D02*
X105938060Y-115011000D01*
X100506060Y-115011000D02*
X102182060Y-115011000D01*
X104262060Y-114971000D02*
X105964060Y-114971000D01*
X100480060Y-114971000D02*
X102182060Y-114971000D01*
X104262060Y-114931000D02*
X105988060Y-114931000D01*
X100456060Y-114931000D02*
X102182060Y-114931000D01*
X104262060Y-114891000D02*
X106012060Y-114891000D01*
X100432060Y-114891000D02*
X102182060Y-114891000D01*
X104262060Y-114851000D02*
X106034060Y-114851000D01*
X100410060Y-114851000D02*
X102182060Y-114851000D01*
X104262060Y-114811000D02*
X106056060Y-114811000D01*
X100388060Y-114811000D02*
X102182060Y-114811000D01*
X104262060Y-114771000D02*
X106078060Y-114771000D01*
X100366060Y-114771000D02*
X102182060Y-114771000D01*
X104262060Y-114731000D02*
X106098060Y-114731000D01*
X100346060Y-114731000D02*
X102182060Y-114731000D01*
X104262060Y-114691000D02*
X106118060Y-114691000D01*
X100326060Y-114691000D02*
X102182060Y-114691000D01*
X104262060Y-114651000D02*
X106138060Y-114651000D01*
X100306060Y-114651000D02*
X102182060Y-114651000D01*
X104262060Y-114611000D02*
X106156060Y-114611000D01*
X100288060Y-114611000D02*
X102182060Y-114611000D01*
X104262060Y-114571000D02*
X106174060Y-114571000D01*
X100270060Y-114571000D02*
X102182060Y-114571000D01*
X104262060Y-114531000D02*
X106192060Y-114531000D01*
X100252060Y-114531000D02*
X102182060Y-114531000D01*
X104262060Y-114491000D02*
X106208060Y-114491000D01*
X100236060Y-114491000D02*
X102182060Y-114491000D01*
X104262060Y-114451000D02*
X106224060Y-114451000D01*
X100220060Y-114451000D02*
X102182060Y-114451000D01*
X104262060Y-114411000D02*
X106240060Y-114411000D01*
X100204060Y-114411000D02*
X102182060Y-114411000D01*
X104262060Y-114371000D02*
X106255060Y-114371000D01*
X100189060Y-114371000D02*
X102182060Y-114371000D01*
X104262060Y-114331000D02*
X106269060Y-114331000D01*
X100175060Y-114331000D02*
X102182060Y-114331000D01*
X104262060Y-114291000D02*
X106283060Y-114291000D01*
X100161060Y-114291000D02*
X102182060Y-114291000D01*
X104262060Y-114251000D02*
X106296060Y-114251000D01*
X100148060Y-114251000D02*
X102182060Y-114251000D01*
X104262060Y-114211000D02*
X106308060Y-114211000D01*
X100136060Y-114211000D02*
X102182060Y-114211000D01*
X104262060Y-114171000D02*
X106320060Y-114171000D01*
X100124060Y-114171000D02*
X102182060Y-114171000D01*
X104262060Y-114131000D02*
X106332060Y-114131000D01*
X100112060Y-114131000D02*
X102182060Y-114131000D01*
X104262060Y-114091000D02*
X106343060Y-114091000D01*
X100101060Y-114091000D02*
X102182060Y-114091000D01*
X104262060Y-114051000D02*
X106353060Y-114051000D01*
X100091060Y-114051000D02*
X102182060Y-114051000D01*
X104262060Y-114011000D02*
X106363060Y-114011000D01*
X100081060Y-114011000D02*
X102182060Y-114011000D01*
X104262060Y-113971000D02*
X106372060Y-113971000D01*
X100072060Y-113971000D02*
X102182060Y-113971000D01*
X104262060Y-113930000D02*
X106381060Y-113930000D01*
X100063060Y-113930000D02*
X102182060Y-113930000D01*
X104262060Y-113890000D02*
X106389060Y-113890000D01*
X100055060Y-113890000D02*
X102182060Y-113890000D01*
X104262060Y-113850000D02*
X106397060Y-113850000D01*
X100047060Y-113850000D02*
X102182060Y-113850000D01*
X104262060Y-113810000D02*
X106404060Y-113810000D01*
X100040060Y-113810000D02*
X102182060Y-113810000D01*
X104262060Y-113770000D02*
X106411060Y-113770000D01*
X100033060Y-113770000D02*
X102182060Y-113770000D01*
X104262060Y-113730000D02*
X106417060Y-113730000D01*
X100027060Y-113730000D02*
X102182060Y-113730000D01*
X104262060Y-113690000D02*
X106423060Y-113690000D01*
X100021060Y-113690000D02*
X102182060Y-113690000D01*
X104262060Y-113650000D02*
X106428060Y-113650000D01*
X100016060Y-113650000D02*
X102182060Y-113650000D01*
X104262060Y-113610000D02*
X106433060Y-113610000D01*
X100011060Y-113610000D02*
X102182060Y-113610000D01*
X104262060Y-113570000D02*
X106437060Y-113570000D01*
X100007060Y-113570000D02*
X102182060Y-113570000D01*
X104262060Y-113530000D02*
X106440060Y-113530000D01*
X100004060Y-113530000D02*
X102182060Y-113530000D01*
X104262060Y-113490000D02*
X106444060Y-113490000D01*
X100000060Y-113490000D02*
X102182060Y-113490000D01*
X99998060Y-113450000D02*
X106446060Y-113450000D01*
X99995060Y-113410000D02*
X106449060Y-113410000D01*
X99994060Y-113370000D02*
X106450060Y-113370000D01*
X99992060Y-113330000D02*
X106452060Y-113330000D01*
X99992060Y-113290000D02*
X106452060Y-113290000D01*
X99992060Y-113250000D02*
X106452060Y-113250000D01*
X106492060Y-113250000D02*
G75*
G03X106492060Y-113250000I-3270000J0D01*
G01*
X139811000Y-95330000D02*
X141069000Y-95330000D01*
X139811000Y-97170000D02*
X141069000Y-97170000D01*
X139811000Y-125830000D02*
X141069000Y-125830000D01*
X139811000Y-127670000D02*
X141069000Y-127670000D01*
X101497060Y-102945225D02*
X101997060Y-102945225D01*
X101747060Y-102695225D02*
X101747060Y-103195225D01*
X102938060Y-108101000D02*
X103506060Y-108101000D01*
X102704060Y-108061000D02*
X103740060Y-108061000D01*
X102545060Y-108021000D02*
X103899060Y-108021000D01*
X102417060Y-107981000D02*
X104027060Y-107981000D01*
X102307060Y-107941000D02*
X104137060Y-107941000D01*
X102211060Y-107901000D02*
X104233060Y-107901000D01*
X102124060Y-107861000D02*
X104320060Y-107861000D01*
X102044060Y-107821000D02*
X104400060Y-107821000D01*
X101971060Y-107781000D02*
X104473060Y-107781000D01*
X101903060Y-107741000D02*
X104541060Y-107741000D01*
X101839060Y-107701000D02*
X104605060Y-107701000D01*
X101779060Y-107661000D02*
X104665060Y-107661000D01*
X101722060Y-107621000D02*
X104722060Y-107621000D01*
X101668060Y-107581000D02*
X104776060Y-107581000D01*
X101617060Y-107541000D02*
X104827060Y-107541000D01*
X104262060Y-107501000D02*
X104875060Y-107501000D01*
X101569060Y-107501000D02*
X102182060Y-107501000D01*
X104262060Y-107461000D02*
X104921060Y-107461000D01*
X101523060Y-107461000D02*
X102182060Y-107461000D01*
X104262060Y-107421000D02*
X104965060Y-107421000D01*
X101479060Y-107421000D02*
X102182060Y-107421000D01*
X104262060Y-107381000D02*
X105007060Y-107381000D01*
X101437060Y-107381000D02*
X102182060Y-107381000D01*
X104262060Y-107341000D02*
X105048060Y-107341000D01*
X101396060Y-107341000D02*
X102182060Y-107341000D01*
X104262060Y-107301000D02*
X105086060Y-107301000D01*
X101358060Y-107301000D02*
X102182060Y-107301000D01*
X104262060Y-107261000D02*
X105123060Y-107261000D01*
X101321060Y-107261000D02*
X102182060Y-107261000D01*
X104262060Y-107221000D02*
X105159060Y-107221000D01*
X101285060Y-107221000D02*
X102182060Y-107221000D01*
X104262060Y-107181000D02*
X105193060Y-107181000D01*
X101251060Y-107181000D02*
X102182060Y-107181000D01*
X104262060Y-107141000D02*
X105226060Y-107141000D01*
X101218060Y-107141000D02*
X102182060Y-107141000D01*
X104262060Y-107101000D02*
X105257060Y-107101000D01*
X101187060Y-107101000D02*
X102182060Y-107101000D01*
X104262060Y-107061000D02*
X105287060Y-107061000D01*
X101157060Y-107061000D02*
X102182060Y-107061000D01*
X104262060Y-107021000D02*
X105317060Y-107021000D01*
X101127060Y-107021000D02*
X102182060Y-107021000D01*
X104262060Y-106981000D02*
X105344060Y-106981000D01*
X101100060Y-106981000D02*
X102182060Y-106981000D01*
X104262060Y-106941000D02*
X105371060Y-106941000D01*
X101073060Y-106941000D02*
X102182060Y-106941000D01*
X104262060Y-106901000D02*
X105397060Y-106901000D01*
X101047060Y-106901000D02*
X102182060Y-106901000D01*
X104262060Y-106861000D02*
X105422060Y-106861000D01*
X101022060Y-106861000D02*
X102182060Y-106861000D01*
X104262060Y-106821000D02*
X105446060Y-106821000D01*
X100998060Y-106821000D02*
X102182060Y-106821000D01*
X104262060Y-106781000D02*
X105469060Y-106781000D01*
X100975060Y-106781000D02*
X102182060Y-106781000D01*
X104262060Y-106741000D02*
X105490060Y-106741000D01*
X100954060Y-106741000D02*
X102182060Y-106741000D01*
X104262060Y-106701000D02*
X105512060Y-106701000D01*
X100932060Y-106701000D02*
X102182060Y-106701000D01*
X104262060Y-106661000D02*
X105532060Y-106661000D01*
X100912060Y-106661000D02*
X102182060Y-106661000D01*
X104262060Y-106621000D02*
X105551060Y-106621000D01*
X100893060Y-106621000D02*
X102182060Y-106621000D01*
X104262060Y-106581000D02*
X105570060Y-106581000D01*
X100874060Y-106581000D02*
X102182060Y-106581000D01*
X104262060Y-106541000D02*
X105587060Y-106541000D01*
X100857060Y-106541000D02*
X102182060Y-106541000D01*
X104262060Y-106501000D02*
X105604060Y-106501000D01*
X100840060Y-106501000D02*
X102182060Y-106501000D01*
X104262060Y-106461000D02*
X105620060Y-106461000D01*
X100824060Y-106461000D02*
X102182060Y-106461000D01*
X104262060Y-106421000D02*
X105636060Y-106421000D01*
X100808060Y-106421000D02*
X102182060Y-106421000D01*
X104262060Y-106381000D02*
X105650060Y-106381000D01*
X100794060Y-106381000D02*
X102182060Y-106381000D01*
X104262060Y-106341000D02*
X105664060Y-106341000D01*
X100780060Y-106341000D02*
X102182060Y-106341000D01*
X104262060Y-106301000D02*
X105677060Y-106301000D01*
X100767060Y-106301000D02*
X102182060Y-106301000D01*
X104262060Y-106261000D02*
X105690060Y-106261000D01*
X100754060Y-106261000D02*
X102182060Y-106261000D01*
X104262060Y-106221000D02*
X105702060Y-106221000D01*
X100742060Y-106221000D02*
X102182060Y-106221000D01*
X104262060Y-106180000D02*
X105713060Y-106180000D01*
X100731060Y-106180000D02*
X102182060Y-106180000D01*
X104262060Y-106140000D02*
X105723060Y-106140000D01*
X100721060Y-106140000D02*
X102182060Y-106140000D01*
X104262060Y-106100000D02*
X105733060Y-106100000D01*
X100711060Y-106100000D02*
X102182060Y-106100000D01*
X104262060Y-106060000D02*
X105742060Y-106060000D01*
X100702060Y-106060000D02*
X102182060Y-106060000D01*
X104262060Y-106020000D02*
X105750060Y-106020000D01*
X100694060Y-106020000D02*
X102182060Y-106020000D01*
X104262060Y-105980000D02*
X105758060Y-105980000D01*
X100686060Y-105980000D02*
X102182060Y-105980000D01*
X104262060Y-105940000D02*
X105765060Y-105940000D01*
X100679060Y-105940000D02*
X102182060Y-105940000D01*
X104262060Y-105900000D02*
X105772060Y-105900000D01*
X100672060Y-105900000D02*
X102182060Y-105900000D01*
X104262060Y-105860000D02*
X105778060Y-105860000D01*
X100666060Y-105860000D02*
X102182060Y-105860000D01*
X104262060Y-105820000D02*
X105783060Y-105820000D01*
X100661060Y-105820000D02*
X102182060Y-105820000D01*
X104262060Y-105780000D02*
X105787060Y-105780000D01*
X100657060Y-105780000D02*
X102182060Y-105780000D01*
X104262060Y-105740000D02*
X105791060Y-105740000D01*
X100653060Y-105740000D02*
X102182060Y-105740000D01*
X104262060Y-105700000D02*
X105795060Y-105700000D01*
X100649060Y-105700000D02*
X102182060Y-105700000D01*
X104262060Y-105660000D02*
X105798060Y-105660000D01*
X100646060Y-105660000D02*
X102182060Y-105660000D01*
X104262060Y-105620000D02*
X105800060Y-105620000D01*
X100644060Y-105620000D02*
X102182060Y-105620000D01*
X104262060Y-105580000D02*
X105801060Y-105580000D01*
X100643060Y-105580000D02*
X102182060Y-105580000D01*
X100642060Y-105540000D02*
X102182060Y-105540000D01*
X104262060Y-105540000D02*
X105802060Y-105540000D01*
X100642060Y-105500000D02*
X102182060Y-105500000D01*
X104262060Y-105500000D02*
X105802060Y-105500000D01*
X105842060Y-105500000D02*
G75*
G03X105842060Y-105500000I-2620000J0D01*
G01*
X87392060Y-96371000D02*
X87392060Y-97629000D01*
X85552060Y-96371000D02*
X85552060Y-97629000D01*
X110642060Y-106891225D02*
X110642060Y-108149225D01*
X108802060Y-106891225D02*
X108802060Y-108149225D01*
X88802060Y-147379000D02*
X88802060Y-146121000D01*
X90642060Y-147379000D02*
X90642060Y-146121000D01*
X67052060Y-147379000D02*
X67052060Y-146121000D01*
X68892060Y-147379000D02*
X68892060Y-146121000D01*
X100791060Y-133170000D02*
X99533060Y-133170000D01*
X100791060Y-131330000D02*
X99533060Y-131330000D01*
X67642060Y-140121000D02*
X67642060Y-141379000D01*
X65802060Y-140121000D02*
X65802060Y-141379000D01*
X52052060Y-147629000D02*
X52052060Y-146371000D01*
X53892060Y-147629000D02*
X53892060Y-146371000D01*
X63697060Y-114965000D02*
X63197060Y-114965000D01*
X63447060Y-115215000D02*
X63447060Y-114715000D01*
X62256060Y-109809225D02*
X61688060Y-109809225D01*
X62490060Y-109849225D02*
X61454060Y-109849225D01*
X62649060Y-109889225D02*
X61295060Y-109889225D01*
X62777060Y-109929225D02*
X61167060Y-109929225D01*
X62887060Y-109969225D02*
X61057060Y-109969225D01*
X62983060Y-110009225D02*
X60961060Y-110009225D01*
X63070060Y-110049225D02*
X60874060Y-110049225D01*
X63150060Y-110089225D02*
X60794060Y-110089225D01*
X63223060Y-110129225D02*
X60721060Y-110129225D01*
X63291060Y-110169225D02*
X60653060Y-110169225D01*
X63355060Y-110209225D02*
X60589060Y-110209225D01*
X63415060Y-110249225D02*
X60529060Y-110249225D01*
X63472060Y-110289225D02*
X60472060Y-110289225D01*
X63526060Y-110329225D02*
X60418060Y-110329225D01*
X63577060Y-110369225D02*
X60367060Y-110369225D01*
X60932060Y-110409225D02*
X60319060Y-110409225D01*
X63625060Y-110409225D02*
X63012060Y-110409225D01*
X60932060Y-110449225D02*
X60273060Y-110449225D01*
X63671060Y-110449225D02*
X63012060Y-110449225D01*
X60932060Y-110489225D02*
X60229060Y-110489225D01*
X63715060Y-110489225D02*
X63012060Y-110489225D01*
X60932060Y-110529225D02*
X60187060Y-110529225D01*
X63757060Y-110529225D02*
X63012060Y-110529225D01*
X60932060Y-110569225D02*
X60146060Y-110569225D01*
X63798060Y-110569225D02*
X63012060Y-110569225D01*
X60932060Y-110609225D02*
X60108060Y-110609225D01*
X63836060Y-110609225D02*
X63012060Y-110609225D01*
X60932060Y-110649225D02*
X60071060Y-110649225D01*
X63873060Y-110649225D02*
X63012060Y-110649225D01*
X60932060Y-110689225D02*
X60035060Y-110689225D01*
X63909060Y-110689225D02*
X63012060Y-110689225D01*
X60932060Y-110729225D02*
X60001060Y-110729225D01*
X63943060Y-110729225D02*
X63012060Y-110729225D01*
X60932060Y-110769225D02*
X59968060Y-110769225D01*
X63976060Y-110769225D02*
X63012060Y-110769225D01*
X60932060Y-110809225D02*
X59937060Y-110809225D01*
X64007060Y-110809225D02*
X63012060Y-110809225D01*
X60932060Y-110849225D02*
X59907060Y-110849225D01*
X64037060Y-110849225D02*
X63012060Y-110849225D01*
X60932060Y-110889225D02*
X59877060Y-110889225D01*
X64067060Y-110889225D02*
X63012060Y-110889225D01*
X60932060Y-110929225D02*
X59850060Y-110929225D01*
X64094060Y-110929225D02*
X63012060Y-110929225D01*
X60932060Y-110969225D02*
X59823060Y-110969225D01*
X64121060Y-110969225D02*
X63012060Y-110969225D01*
X60932060Y-111009225D02*
X59797060Y-111009225D01*
X64147060Y-111009225D02*
X63012060Y-111009225D01*
X60932060Y-111049225D02*
X59772060Y-111049225D01*
X64172060Y-111049225D02*
X63012060Y-111049225D01*
X60932060Y-111089225D02*
X59748060Y-111089225D01*
X64196060Y-111089225D02*
X63012060Y-111089225D01*
X60932060Y-111129225D02*
X59725060Y-111129225D01*
X64219060Y-111129225D02*
X63012060Y-111129225D01*
X60932060Y-111169225D02*
X59704060Y-111169225D01*
X64240060Y-111169225D02*
X63012060Y-111169225D01*
X60932060Y-111209225D02*
X59682060Y-111209225D01*
X64262060Y-111209225D02*
X63012060Y-111209225D01*
X60932060Y-111249225D02*
X59662060Y-111249225D01*
X64282060Y-111249225D02*
X63012060Y-111249225D01*
X60932060Y-111289225D02*
X59643060Y-111289225D01*
X64301060Y-111289225D02*
X63012060Y-111289225D01*
X60932060Y-111329225D02*
X59624060Y-111329225D01*
X64320060Y-111329225D02*
X63012060Y-111329225D01*
X60932060Y-111369225D02*
X59607060Y-111369225D01*
X64337060Y-111369225D02*
X63012060Y-111369225D01*
X60932060Y-111409225D02*
X59590060Y-111409225D01*
X64354060Y-111409225D02*
X63012060Y-111409225D01*
X60932060Y-111449225D02*
X59574060Y-111449225D01*
X64370060Y-111449225D02*
X63012060Y-111449225D01*
X60932060Y-111489225D02*
X59558060Y-111489225D01*
X64386060Y-111489225D02*
X63012060Y-111489225D01*
X60932060Y-111529225D02*
X59544060Y-111529225D01*
X64400060Y-111529225D02*
X63012060Y-111529225D01*
X60932060Y-111569225D02*
X59530060Y-111569225D01*
X64414060Y-111569225D02*
X63012060Y-111569225D01*
X60932060Y-111609225D02*
X59517060Y-111609225D01*
X64427060Y-111609225D02*
X63012060Y-111609225D01*
X60932060Y-111649225D02*
X59504060Y-111649225D01*
X64440060Y-111649225D02*
X63012060Y-111649225D01*
X60932060Y-111689225D02*
X59492060Y-111689225D01*
X64452060Y-111689225D02*
X63012060Y-111689225D01*
X60932060Y-111730225D02*
X59481060Y-111730225D01*
X64463060Y-111730225D02*
X63012060Y-111730225D01*
X60932060Y-111770225D02*
X59471060Y-111770225D01*
X64473060Y-111770225D02*
X63012060Y-111770225D01*
X60932060Y-111810225D02*
X59461060Y-111810225D01*
X64483060Y-111810225D02*
X63012060Y-111810225D01*
X60932060Y-111850225D02*
X59452060Y-111850225D01*
X64492060Y-111850225D02*
X63012060Y-111850225D01*
X60932060Y-111890225D02*
X59444060Y-111890225D01*
X64500060Y-111890225D02*
X63012060Y-111890225D01*
X60932060Y-111930225D02*
X59436060Y-111930225D01*
X64508060Y-111930225D02*
X63012060Y-111930225D01*
X60932060Y-111970225D02*
X59429060Y-111970225D01*
X64515060Y-111970225D02*
X63012060Y-111970225D01*
X60932060Y-112010225D02*
X59422060Y-112010225D01*
X64522060Y-112010225D02*
X63012060Y-112010225D01*
X60932060Y-112050225D02*
X59416060Y-112050225D01*
X64528060Y-112050225D02*
X63012060Y-112050225D01*
X60932060Y-112090225D02*
X59411060Y-112090225D01*
X64533060Y-112090225D02*
X63012060Y-112090225D01*
X60932060Y-112130225D02*
X59407060Y-112130225D01*
X64537060Y-112130225D02*
X63012060Y-112130225D01*
X60932060Y-112170225D02*
X59403060Y-112170225D01*
X64541060Y-112170225D02*
X63012060Y-112170225D01*
X60932060Y-112210225D02*
X59399060Y-112210225D01*
X64545060Y-112210225D02*
X63012060Y-112210225D01*
X60932060Y-112250225D02*
X59396060Y-112250225D01*
X64548060Y-112250225D02*
X63012060Y-112250225D01*
X60932060Y-112290225D02*
X59394060Y-112290225D01*
X64550060Y-112290225D02*
X63012060Y-112290225D01*
X60932060Y-112330225D02*
X59393060Y-112330225D01*
X64551060Y-112330225D02*
X63012060Y-112330225D01*
X64552060Y-112370225D02*
X63012060Y-112370225D01*
X60932060Y-112370225D02*
X59392060Y-112370225D01*
X64552060Y-112410225D02*
X63012060Y-112410225D01*
X60932060Y-112410225D02*
X59392060Y-112410225D01*
X64592060Y-112410225D02*
G75*
G03X64592060Y-112410225I-2620000J0D01*
G01*
X50247060Y-109945225D02*
X50747060Y-109945225D01*
X50497060Y-109695225D02*
X50497060Y-110195225D01*
X51688060Y-115101000D02*
X52256060Y-115101000D01*
X51454060Y-115061000D02*
X52490060Y-115061000D01*
X51295060Y-115021000D02*
X52649060Y-115021000D01*
X51167060Y-114981000D02*
X52777060Y-114981000D01*
X51057060Y-114941000D02*
X52887060Y-114941000D01*
X50961060Y-114901000D02*
X52983060Y-114901000D01*
X50874060Y-114861000D02*
X53070060Y-114861000D01*
X50794060Y-114821000D02*
X53150060Y-114821000D01*
X50721060Y-114781000D02*
X53223060Y-114781000D01*
X50653060Y-114741000D02*
X53291060Y-114741000D01*
X50589060Y-114701000D02*
X53355060Y-114701000D01*
X50529060Y-114661000D02*
X53415060Y-114661000D01*
X50472060Y-114621000D02*
X53472060Y-114621000D01*
X50418060Y-114581000D02*
X53526060Y-114581000D01*
X50367060Y-114541000D02*
X53577060Y-114541000D01*
X53012060Y-114501000D02*
X53625060Y-114501000D01*
X50319060Y-114501000D02*
X50932060Y-114501000D01*
X53012060Y-114461000D02*
X53671060Y-114461000D01*
X50273060Y-114461000D02*
X50932060Y-114461000D01*
X53012060Y-114421000D02*
X53715060Y-114421000D01*
X50229060Y-114421000D02*
X50932060Y-114421000D01*
X53012060Y-114381000D02*
X53757060Y-114381000D01*
X50187060Y-114381000D02*
X50932060Y-114381000D01*
X53012060Y-114341000D02*
X53798060Y-114341000D01*
X50146060Y-114341000D02*
X50932060Y-114341000D01*
X53012060Y-114301000D02*
X53836060Y-114301000D01*
X50108060Y-114301000D02*
X50932060Y-114301000D01*
X53012060Y-114261000D02*
X53873060Y-114261000D01*
X50071060Y-114261000D02*
X50932060Y-114261000D01*
X53012060Y-114221000D02*
X53909060Y-114221000D01*
X50035060Y-114221000D02*
X50932060Y-114221000D01*
X53012060Y-114181000D02*
X53943060Y-114181000D01*
X50001060Y-114181000D02*
X50932060Y-114181000D01*
X53012060Y-114141000D02*
X53976060Y-114141000D01*
X49968060Y-114141000D02*
X50932060Y-114141000D01*
X53012060Y-114101000D02*
X54007060Y-114101000D01*
X49937060Y-114101000D02*
X50932060Y-114101000D01*
X53012060Y-114061000D02*
X54037060Y-114061000D01*
X49907060Y-114061000D02*
X50932060Y-114061000D01*
X53012060Y-114021000D02*
X54067060Y-114021000D01*
X49877060Y-114021000D02*
X50932060Y-114021000D01*
X53012060Y-113981000D02*
X54094060Y-113981000D01*
X49850060Y-113981000D02*
X50932060Y-113981000D01*
X53012060Y-113941000D02*
X54121060Y-113941000D01*
X49823060Y-113941000D02*
X50932060Y-113941000D01*
X53012060Y-113901000D02*
X54147060Y-113901000D01*
X49797060Y-113901000D02*
X50932060Y-113901000D01*
X53012060Y-113861000D02*
X54172060Y-113861000D01*
X49772060Y-113861000D02*
X50932060Y-113861000D01*
X53012060Y-113821000D02*
X54196060Y-113821000D01*
X49748060Y-113821000D02*
X50932060Y-113821000D01*
X53012060Y-113781000D02*
X54219060Y-113781000D01*
X49725060Y-113781000D02*
X50932060Y-113781000D01*
X53012060Y-113741000D02*
X54240060Y-113741000D01*
X49704060Y-113741000D02*
X50932060Y-113741000D01*
X53012060Y-113701000D02*
X54262060Y-113701000D01*
X49682060Y-113701000D02*
X50932060Y-113701000D01*
X53012060Y-113661000D02*
X54282060Y-113661000D01*
X49662060Y-113661000D02*
X50932060Y-113661000D01*
X53012060Y-113621000D02*
X54301060Y-113621000D01*
X49643060Y-113621000D02*
X50932060Y-113621000D01*
X53012060Y-113581000D02*
X54320060Y-113581000D01*
X49624060Y-113581000D02*
X50932060Y-113581000D01*
X53012060Y-113541000D02*
X54337060Y-113541000D01*
X49607060Y-113541000D02*
X50932060Y-113541000D01*
X53012060Y-113501000D02*
X54354060Y-113501000D01*
X49590060Y-113501000D02*
X50932060Y-113501000D01*
X53012060Y-113461000D02*
X54370060Y-113461000D01*
X49574060Y-113461000D02*
X50932060Y-113461000D01*
X53012060Y-113421000D02*
X54386060Y-113421000D01*
X49558060Y-113421000D02*
X50932060Y-113421000D01*
X53012060Y-113381000D02*
X54400060Y-113381000D01*
X49544060Y-113381000D02*
X50932060Y-113381000D01*
X53012060Y-113341000D02*
X54414060Y-113341000D01*
X49530060Y-113341000D02*
X50932060Y-113341000D01*
X53012060Y-113301000D02*
X54427060Y-113301000D01*
X49517060Y-113301000D02*
X50932060Y-113301000D01*
X53012060Y-113261000D02*
X54440060Y-113261000D01*
X49504060Y-113261000D02*
X50932060Y-113261000D01*
X53012060Y-113221000D02*
X54452060Y-113221000D01*
X49492060Y-113221000D02*
X50932060Y-113221000D01*
X53012060Y-113180000D02*
X54463060Y-113180000D01*
X49481060Y-113180000D02*
X50932060Y-113180000D01*
X53012060Y-113140000D02*
X54473060Y-113140000D01*
X49471060Y-113140000D02*
X50932060Y-113140000D01*
X53012060Y-113100000D02*
X54483060Y-113100000D01*
X49461060Y-113100000D02*
X50932060Y-113100000D01*
X53012060Y-113060000D02*
X54492060Y-113060000D01*
X49452060Y-113060000D02*
X50932060Y-113060000D01*
X53012060Y-113020000D02*
X54500060Y-113020000D01*
X49444060Y-113020000D02*
X50932060Y-113020000D01*
X53012060Y-112980000D02*
X54508060Y-112980000D01*
X49436060Y-112980000D02*
X50932060Y-112980000D01*
X53012060Y-112940000D02*
X54515060Y-112940000D01*
X49429060Y-112940000D02*
X50932060Y-112940000D01*
X53012060Y-112900000D02*
X54522060Y-112900000D01*
X49422060Y-112900000D02*
X50932060Y-112900000D01*
X53012060Y-112860000D02*
X54528060Y-112860000D01*
X49416060Y-112860000D02*
X50932060Y-112860000D01*
X53012060Y-112820000D02*
X54533060Y-112820000D01*
X49411060Y-112820000D02*
X50932060Y-112820000D01*
X53012060Y-112780000D02*
X54537060Y-112780000D01*
X49407060Y-112780000D02*
X50932060Y-112780000D01*
X53012060Y-112740000D02*
X54541060Y-112740000D01*
X49403060Y-112740000D02*
X50932060Y-112740000D01*
X53012060Y-112700000D02*
X54545060Y-112700000D01*
X49399060Y-112700000D02*
X50932060Y-112700000D01*
X53012060Y-112660000D02*
X54548060Y-112660000D01*
X49396060Y-112660000D02*
X50932060Y-112660000D01*
X53012060Y-112620000D02*
X54550060Y-112620000D01*
X49394060Y-112620000D02*
X50932060Y-112620000D01*
X53012060Y-112580000D02*
X54551060Y-112580000D01*
X49393060Y-112580000D02*
X50932060Y-112580000D01*
X49392060Y-112540000D02*
X50932060Y-112540000D01*
X53012060Y-112540000D02*
X54552060Y-112540000D01*
X49392060Y-112500000D02*
X50932060Y-112500000D01*
X53012060Y-112500000D02*
X54552060Y-112500000D01*
X54592060Y-112500000D02*
G75*
G03X54592060Y-112500000I-2620000J0D01*
G01*
X104818060Y-71064759D02*
X105448060Y-71064759D01*
X105133060Y-70749759D02*
X105133060Y-71379759D01*
X106570060Y-77491000D02*
X107374060Y-77491000D01*
X106339060Y-77451000D02*
X107605060Y-77451000D01*
X106170060Y-77411000D02*
X107774060Y-77411000D01*
X106032060Y-77371000D02*
X107912060Y-77371000D01*
X105913060Y-77331000D02*
X108031060Y-77331000D01*
X105807060Y-77291000D02*
X108137060Y-77291000D01*
X105710060Y-77251000D02*
X108234060Y-77251000D01*
X105622060Y-77211000D02*
X108322060Y-77211000D01*
X105540060Y-77171000D02*
X108404060Y-77171000D01*
X105463060Y-77131000D02*
X108481060Y-77131000D01*
X105391060Y-77091000D02*
X108553060Y-77091000D01*
X105322060Y-77051000D02*
X108622060Y-77051000D01*
X105258060Y-77011000D02*
X108686060Y-77011000D01*
X105196060Y-76971000D02*
X108748060Y-76971000D01*
X105138060Y-76931000D02*
X108806060Y-76931000D01*
X105082060Y-76891000D02*
X108862060Y-76891000D01*
X105028060Y-76851000D02*
X108916060Y-76851000D01*
X104977060Y-76811000D02*
X108967060Y-76811000D01*
X104928060Y-76771000D02*
X109016060Y-76771000D01*
X104880060Y-76731000D02*
X109064060Y-76731000D01*
X104835060Y-76691000D02*
X109109060Y-76691000D01*
X104790060Y-76651000D02*
X109154060Y-76651000D01*
X104748060Y-76611000D02*
X109196060Y-76611000D01*
X104707060Y-76571000D02*
X109237060Y-76571000D01*
X108012060Y-76531000D02*
X109277060Y-76531000D01*
X104667060Y-76531000D02*
X105932060Y-76531000D01*
X108012060Y-76491000D02*
X109315060Y-76491000D01*
X104629060Y-76491000D02*
X105932060Y-76491000D01*
X108012060Y-76451000D02*
X109352060Y-76451000D01*
X104592060Y-76451000D02*
X105932060Y-76451000D01*
X108012060Y-76411000D02*
X109388060Y-76411000D01*
X104556060Y-76411000D02*
X105932060Y-76411000D01*
X108012060Y-76371000D02*
X109422060Y-76371000D01*
X104522060Y-76371000D02*
X105932060Y-76371000D01*
X108012060Y-76331000D02*
X109456060Y-76331000D01*
X104488060Y-76331000D02*
X105932060Y-76331000D01*
X108012060Y-76291000D02*
X109488060Y-76291000D01*
X104456060Y-76291000D02*
X105932060Y-76291000D01*
X108012060Y-76251000D02*
X109520060Y-76251000D01*
X104424060Y-76251000D02*
X105932060Y-76251000D01*
X108012060Y-76211000D02*
X109550060Y-76211000D01*
X104394060Y-76211000D02*
X105932060Y-76211000D01*
X108012060Y-76171000D02*
X109579060Y-76171000D01*
X104365060Y-76171000D02*
X105932060Y-76171000D01*
X108012060Y-76131000D02*
X109608060Y-76131000D01*
X104336060Y-76131000D02*
X105932060Y-76131000D01*
X108012060Y-76091000D02*
X109636060Y-76091000D01*
X104308060Y-76091000D02*
X105932060Y-76091000D01*
X108012060Y-76051000D02*
X109662060Y-76051000D01*
X104282060Y-76051000D02*
X105932060Y-76051000D01*
X108012060Y-76011000D02*
X109688060Y-76011000D01*
X104256060Y-76011000D02*
X105932060Y-76011000D01*
X108012060Y-75971000D02*
X109714060Y-75971000D01*
X104230060Y-75971000D02*
X105932060Y-75971000D01*
X108012060Y-75931000D02*
X109738060Y-75931000D01*
X104206060Y-75931000D02*
X105932060Y-75931000D01*
X108012060Y-75891000D02*
X109762060Y-75891000D01*
X104182060Y-75891000D02*
X105932060Y-75891000D01*
X108012060Y-75851000D02*
X109784060Y-75851000D01*
X104160060Y-75851000D02*
X105932060Y-75851000D01*
X108012060Y-75811000D02*
X109806060Y-75811000D01*
X104138060Y-75811000D02*
X105932060Y-75811000D01*
X108012060Y-75771000D02*
X109828060Y-75771000D01*
X104116060Y-75771000D02*
X105932060Y-75771000D01*
X108012060Y-75731000D02*
X109848060Y-75731000D01*
X104096060Y-75731000D02*
X105932060Y-75731000D01*
X108012060Y-75691000D02*
X109868060Y-75691000D01*
X104076060Y-75691000D02*
X105932060Y-75691000D01*
X108012060Y-75651000D02*
X109888060Y-75651000D01*
X104056060Y-75651000D02*
X105932060Y-75651000D01*
X108012060Y-75611000D02*
X109906060Y-75611000D01*
X104038060Y-75611000D02*
X105932060Y-75611000D01*
X108012060Y-75571000D02*
X109924060Y-75571000D01*
X104020060Y-75571000D02*
X105932060Y-75571000D01*
X108012060Y-75531000D02*
X109942060Y-75531000D01*
X104002060Y-75531000D02*
X105932060Y-75531000D01*
X108012060Y-75491000D02*
X109958060Y-75491000D01*
X103986060Y-75491000D02*
X105932060Y-75491000D01*
X108012060Y-75451000D02*
X109974060Y-75451000D01*
X103970060Y-75451000D02*
X105932060Y-75451000D01*
X108012060Y-75411000D02*
X109990060Y-75411000D01*
X103954060Y-75411000D02*
X105932060Y-75411000D01*
X108012060Y-75371000D02*
X110005060Y-75371000D01*
X103939060Y-75371000D02*
X105932060Y-75371000D01*
X108012060Y-75331000D02*
X110019060Y-75331000D01*
X103925060Y-75331000D02*
X105932060Y-75331000D01*
X108012060Y-75291000D02*
X110033060Y-75291000D01*
X103911060Y-75291000D02*
X105932060Y-75291000D01*
X108012060Y-75251000D02*
X110046060Y-75251000D01*
X103898060Y-75251000D02*
X105932060Y-75251000D01*
X108012060Y-75211000D02*
X110058060Y-75211000D01*
X103886060Y-75211000D02*
X105932060Y-75211000D01*
X108012060Y-75171000D02*
X110070060Y-75171000D01*
X103874060Y-75171000D02*
X105932060Y-75171000D01*
X108012060Y-75131000D02*
X110082060Y-75131000D01*
X103862060Y-75131000D02*
X105932060Y-75131000D01*
X108012060Y-75091000D02*
X110093060Y-75091000D01*
X103851060Y-75091000D02*
X105932060Y-75091000D01*
X108012060Y-75051000D02*
X110103060Y-75051000D01*
X103841060Y-75051000D02*
X105932060Y-75051000D01*
X108012060Y-75011000D02*
X110113060Y-75011000D01*
X103831060Y-75011000D02*
X105932060Y-75011000D01*
X108012060Y-74971000D02*
X110122060Y-74971000D01*
X103822060Y-74971000D02*
X105932060Y-74971000D01*
X108012060Y-74930000D02*
X110131060Y-74930000D01*
X103813060Y-74930000D02*
X105932060Y-74930000D01*
X108012060Y-74890000D02*
X110139060Y-74890000D01*
X103805060Y-74890000D02*
X105932060Y-74890000D01*
X108012060Y-74850000D02*
X110147060Y-74850000D01*
X103797060Y-74850000D02*
X105932060Y-74850000D01*
X108012060Y-74810000D02*
X110154060Y-74810000D01*
X103790060Y-74810000D02*
X105932060Y-74810000D01*
X108012060Y-74770000D02*
X110161060Y-74770000D01*
X103783060Y-74770000D02*
X105932060Y-74770000D01*
X108012060Y-74730000D02*
X110167060Y-74730000D01*
X103777060Y-74730000D02*
X105932060Y-74730000D01*
X108012060Y-74690000D02*
X110173060Y-74690000D01*
X103771060Y-74690000D02*
X105932060Y-74690000D01*
X108012060Y-74650000D02*
X110178060Y-74650000D01*
X103766060Y-74650000D02*
X105932060Y-74650000D01*
X108012060Y-74610000D02*
X110183060Y-74610000D01*
X103761060Y-74610000D02*
X105932060Y-74610000D01*
X108012060Y-74570000D02*
X110187060Y-74570000D01*
X103757060Y-74570000D02*
X105932060Y-74570000D01*
X108012060Y-74530000D02*
X110190060Y-74530000D01*
X103754060Y-74530000D02*
X105932060Y-74530000D01*
X108012060Y-74490000D02*
X110194060Y-74490000D01*
X103750060Y-74490000D02*
X105932060Y-74490000D01*
X103748060Y-74450000D02*
X110196060Y-74450000D01*
X103745060Y-74410000D02*
X110199060Y-74410000D01*
X103744060Y-74370000D02*
X110200060Y-74370000D01*
X103742060Y-74330000D02*
X110202060Y-74330000D01*
X103742060Y-74290000D02*
X110202060Y-74290000D01*
X103742060Y-74250000D02*
X110202060Y-74250000D01*
X110242060Y-74250000D02*
G75*
G03X110242060Y-74250000I-3270000J0D01*
G01*
X91892060Y-128181000D02*
X91892060Y-129439000D01*
X90052060Y-128181000D02*
X90052060Y-129439000D01*
X105247060Y-79365225D02*
X105747060Y-79365225D01*
X105497060Y-79115225D02*
X105497060Y-79615225D01*
X106688060Y-84521000D02*
X107256060Y-84521000D01*
X106454060Y-84481000D02*
X107490060Y-84481000D01*
X106295060Y-84441000D02*
X107649060Y-84441000D01*
X106167060Y-84401000D02*
X107777060Y-84401000D01*
X106057060Y-84361000D02*
X107887060Y-84361000D01*
X105961060Y-84321000D02*
X107983060Y-84321000D01*
X105874060Y-84281000D02*
X108070060Y-84281000D01*
X105794060Y-84241000D02*
X108150060Y-84241000D01*
X105721060Y-84201000D02*
X108223060Y-84201000D01*
X105653060Y-84161000D02*
X108291060Y-84161000D01*
X105589060Y-84121000D02*
X108355060Y-84121000D01*
X105529060Y-84081000D02*
X108415060Y-84081000D01*
X105472060Y-84041000D02*
X108472060Y-84041000D01*
X105418060Y-84001000D02*
X108526060Y-84001000D01*
X105367060Y-83961000D02*
X108577060Y-83961000D01*
X108012060Y-83921000D02*
X108625060Y-83921000D01*
X105319060Y-83921000D02*
X105932060Y-83921000D01*
X108012060Y-83881000D02*
X108671060Y-83881000D01*
X105273060Y-83881000D02*
X105932060Y-83881000D01*
X108012060Y-83841000D02*
X108715060Y-83841000D01*
X105229060Y-83841000D02*
X105932060Y-83841000D01*
X108012060Y-83801000D02*
X108757060Y-83801000D01*
X105187060Y-83801000D02*
X105932060Y-83801000D01*
X108012060Y-83761000D02*
X108798060Y-83761000D01*
X105146060Y-83761000D02*
X105932060Y-83761000D01*
X108012060Y-83721000D02*
X108836060Y-83721000D01*
X105108060Y-83721000D02*
X105932060Y-83721000D01*
X108012060Y-83681000D02*
X108873060Y-83681000D01*
X105071060Y-83681000D02*
X105932060Y-83681000D01*
X108012060Y-83641000D02*
X108909060Y-83641000D01*
X105035060Y-83641000D02*
X105932060Y-83641000D01*
X108012060Y-83601000D02*
X108943060Y-83601000D01*
X105001060Y-83601000D02*
X105932060Y-83601000D01*
X108012060Y-83561000D02*
X108976060Y-83561000D01*
X104968060Y-83561000D02*
X105932060Y-83561000D01*
X108012060Y-83521000D02*
X109007060Y-83521000D01*
X104937060Y-83521000D02*
X105932060Y-83521000D01*
X108012060Y-83481000D02*
X109037060Y-83481000D01*
X104907060Y-83481000D02*
X105932060Y-83481000D01*
X108012060Y-83441000D02*
X109067060Y-83441000D01*
X104877060Y-83441000D02*
X105932060Y-83441000D01*
X108012060Y-83401000D02*
X109094060Y-83401000D01*
X104850060Y-83401000D02*
X105932060Y-83401000D01*
X108012060Y-83361000D02*
X109121060Y-83361000D01*
X104823060Y-83361000D02*
X105932060Y-83361000D01*
X108012060Y-83321000D02*
X109147060Y-83321000D01*
X104797060Y-83321000D02*
X105932060Y-83321000D01*
X108012060Y-83281000D02*
X109172060Y-83281000D01*
X104772060Y-83281000D02*
X105932060Y-83281000D01*
X108012060Y-83241000D02*
X109196060Y-83241000D01*
X104748060Y-83241000D02*
X105932060Y-83241000D01*
X108012060Y-83201000D02*
X109219060Y-83201000D01*
X104725060Y-83201000D02*
X105932060Y-83201000D01*
X108012060Y-83161000D02*
X109240060Y-83161000D01*
X104704060Y-83161000D02*
X105932060Y-83161000D01*
X108012060Y-83121000D02*
X109262060Y-83121000D01*
X104682060Y-83121000D02*
X105932060Y-83121000D01*
X108012060Y-83081000D02*
X109282060Y-83081000D01*
X104662060Y-83081000D02*
X105932060Y-83081000D01*
X108012060Y-83041000D02*
X109301060Y-83041000D01*
X104643060Y-83041000D02*
X105932060Y-83041000D01*
X108012060Y-83001000D02*
X109320060Y-83001000D01*
X104624060Y-83001000D02*
X105932060Y-83001000D01*
X108012060Y-82961000D02*
X109337060Y-82961000D01*
X104607060Y-82961000D02*
X105932060Y-82961000D01*
X108012060Y-82921000D02*
X109354060Y-82921000D01*
X104590060Y-82921000D02*
X105932060Y-82921000D01*
X108012060Y-82881000D02*
X109370060Y-82881000D01*
X104574060Y-82881000D02*
X105932060Y-82881000D01*
X108012060Y-82841000D02*
X109386060Y-82841000D01*
X104558060Y-82841000D02*
X105932060Y-82841000D01*
X108012060Y-82801000D02*
X109400060Y-82801000D01*
X104544060Y-82801000D02*
X105932060Y-82801000D01*
X108012060Y-82761000D02*
X109414060Y-82761000D01*
X104530060Y-82761000D02*
X105932060Y-82761000D01*
X108012060Y-82721000D02*
X109427060Y-82721000D01*
X104517060Y-82721000D02*
X105932060Y-82721000D01*
X108012060Y-82681000D02*
X109440060Y-82681000D01*
X104504060Y-82681000D02*
X105932060Y-82681000D01*
X108012060Y-82641000D02*
X109452060Y-82641000D01*
X104492060Y-82641000D02*
X105932060Y-82641000D01*
X108012060Y-82600000D02*
X109463060Y-82600000D01*
X104481060Y-82600000D02*
X105932060Y-82600000D01*
X108012060Y-82560000D02*
X109473060Y-82560000D01*
X104471060Y-82560000D02*
X105932060Y-82560000D01*
X108012060Y-82520000D02*
X109483060Y-82520000D01*
X104461060Y-82520000D02*
X105932060Y-82520000D01*
X108012060Y-82480000D02*
X109492060Y-82480000D01*
X104452060Y-82480000D02*
X105932060Y-82480000D01*
X108012060Y-82440000D02*
X109500060Y-82440000D01*
X104444060Y-82440000D02*
X105932060Y-82440000D01*
X108012060Y-82400000D02*
X109508060Y-82400000D01*
X104436060Y-82400000D02*
X105932060Y-82400000D01*
X108012060Y-82360000D02*
X109515060Y-82360000D01*
X104429060Y-82360000D02*
X105932060Y-82360000D01*
X108012060Y-82320000D02*
X109522060Y-82320000D01*
X104422060Y-82320000D02*
X105932060Y-82320000D01*
X108012060Y-82280000D02*
X109528060Y-82280000D01*
X104416060Y-82280000D02*
X105932060Y-82280000D01*
X108012060Y-82240000D02*
X109533060Y-82240000D01*
X104411060Y-82240000D02*
X105932060Y-82240000D01*
X108012060Y-82200000D02*
X109537060Y-82200000D01*
X104407060Y-82200000D02*
X105932060Y-82200000D01*
X108012060Y-82160000D02*
X109541060Y-82160000D01*
X104403060Y-82160000D02*
X105932060Y-82160000D01*
X108012060Y-82120000D02*
X109545060Y-82120000D01*
X104399060Y-82120000D02*
X105932060Y-82120000D01*
X108012060Y-82080000D02*
X109548060Y-82080000D01*
X104396060Y-82080000D02*
X105932060Y-82080000D01*
X108012060Y-82040000D02*
X109550060Y-82040000D01*
X104394060Y-82040000D02*
X105932060Y-82040000D01*
X108012060Y-82000000D02*
X109551060Y-82000000D01*
X104393060Y-82000000D02*
X105932060Y-82000000D01*
X104392060Y-81960000D02*
X105932060Y-81960000D01*
X108012060Y-81960000D02*
X109552060Y-81960000D01*
X104392060Y-81920000D02*
X105932060Y-81920000D01*
X108012060Y-81920000D02*
X109552060Y-81920000D01*
X109592060Y-81920000D02*
G75*
G03X109592060Y-81920000I-2620000J0D01*
G01*
X90052060Y-80439000D02*
X90052060Y-79181000D01*
X91892060Y-80439000D02*
X91892060Y-79181000D01*
D14*
X131252380Y-110666666D02*
X130776190Y-110333333D01*
X131252380Y-110095238D02*
X130252380Y-110095238D01*
X130252380Y-110476190D01*
X130300000Y-110571428D01*
X130347619Y-110619047D01*
X130442857Y-110666666D01*
X130585714Y-110666666D01*
X130680952Y-110619047D01*
X130728571Y-110571428D01*
X130776190Y-110476190D01*
X130776190Y-110095238D01*
X130728571Y-111095238D02*
X130728571Y-111428571D01*
X131252380Y-111571428D02*
X131252380Y-111095238D01*
X130252380Y-111095238D01*
X130252380Y-111571428D01*
X130728571Y-112333333D02*
X130728571Y-112000000D01*
X131252380Y-112000000D02*
X130252380Y-112000000D01*
X130252380Y-112476190D01*
X130252380Y-113000000D02*
X130490476Y-113000000D01*
X130395238Y-112761904D02*
X130490476Y-113000000D01*
X130395238Y-113238095D01*
X130680952Y-112857142D02*
X130490476Y-113000000D01*
X130680952Y-113142857D01*
X130252380Y-113761904D02*
X130490476Y-113761904D01*
X130395238Y-113523809D02*
X130490476Y-113761904D01*
X130395238Y-114000000D01*
X130680952Y-113619047D02*
X130490476Y-113761904D01*
X130680952Y-113904761D01*
X68252380Y-110666666D02*
X67776190Y-110333333D01*
X68252380Y-110095238D02*
X67252380Y-110095238D01*
X67252380Y-110476190D01*
X67300000Y-110571428D01*
X67347619Y-110619047D01*
X67442857Y-110666666D01*
X67585714Y-110666666D01*
X67680952Y-110619047D01*
X67728571Y-110571428D01*
X67776190Y-110476190D01*
X67776190Y-110095238D01*
X67728571Y-111095238D02*
X67728571Y-111428571D01*
X68252380Y-111571428D02*
X68252380Y-111095238D01*
X67252380Y-111095238D01*
X67252380Y-111571428D01*
X67728571Y-112333333D02*
X67728571Y-112000000D01*
X68252380Y-112000000D02*
X67252380Y-112000000D01*
X67252380Y-112476190D01*
X67252380Y-113000000D02*
X67490476Y-113000000D01*
X67395238Y-112761904D02*
X67490476Y-113000000D01*
X67395238Y-113238095D01*
X67680952Y-112857142D02*
X67490476Y-113000000D01*
X67680952Y-113142857D01*
X67252380Y-113761904D02*
X67490476Y-113761904D01*
X67395238Y-113523809D02*
X67490476Y-113761904D01*
X67395238Y-114000000D01*
X67680952Y-113619047D02*
X67490476Y-113761904D01*
X67680952Y-113904761D01*
X67952380Y-140738095D02*
X68761904Y-140738095D01*
X68857142Y-140785714D01*
X68904761Y-140833333D01*
X68952380Y-140928571D01*
X68952380Y-141119047D01*
X68904761Y-141214285D01*
X68857142Y-141261904D01*
X68761904Y-141309523D01*
X67952380Y-141309523D01*
X68285714Y-142214285D02*
X68952380Y-142214285D01*
X67904761Y-141976190D02*
X68619047Y-141738095D01*
X68619047Y-142357142D01*
X52952380Y-141738095D02*
X53761904Y-141738095D01*
X53857142Y-141785714D01*
X53904761Y-141833333D01*
X53952380Y-141928571D01*
X53952380Y-142119047D01*
X53904761Y-142214285D01*
X53857142Y-142261904D01*
X53761904Y-142309523D01*
X52952380Y-142309523D01*
X52952380Y-142690476D02*
X52952380Y-143309523D01*
X53333333Y-142976190D01*
X53333333Y-143119047D01*
X53380952Y-143214285D01*
X53428571Y-143261904D01*
X53523809Y-143309523D01*
X53761904Y-143309523D01*
X53857142Y-143261904D01*
X53904761Y-143214285D01*
X53952380Y-143119047D01*
X53952380Y-142833333D01*
X53904761Y-142738095D01*
X53857142Y-142690476D01*
X89452380Y-141238095D02*
X90261904Y-141238095D01*
X90357142Y-141285714D01*
X90404761Y-141333333D01*
X90452380Y-141428571D01*
X90452380Y-141619047D01*
X90404761Y-141714285D01*
X90357142Y-141761904D01*
X90261904Y-141809523D01*
X89452380Y-141809523D01*
X89547619Y-142238095D02*
X89500000Y-142285714D01*
X89452380Y-142380952D01*
X89452380Y-142619047D01*
X89500000Y-142714285D01*
X89547619Y-142761904D01*
X89642857Y-142809523D01*
X89738095Y-142809523D01*
X89880952Y-142761904D01*
X90452380Y-142190476D01*
X90452380Y-142809523D01*
X88094440Y-93048095D02*
X88903964Y-93048095D01*
X88999202Y-93095714D01*
X89046821Y-93143333D01*
X89094440Y-93238571D01*
X89094440Y-93429047D01*
X89046821Y-93524285D01*
X88999202Y-93571904D01*
X88903964Y-93619523D01*
X88094440Y-93619523D01*
X89094440Y-94619523D02*
X89094440Y-94048095D01*
X89094440Y-94333809D02*
X88094440Y-94333809D01*
X88237298Y-94238571D01*
X88332536Y-94143333D01*
X88380155Y-94048095D01*
X152142857Y-78952380D02*
X152476190Y-78476190D01*
X152714285Y-78952380D02*
X152714285Y-77952380D01*
X152333333Y-77952380D01*
X152238095Y-78000000D01*
X152190476Y-78047619D01*
X152142857Y-78142857D01*
X152142857Y-78285714D01*
X152190476Y-78380952D01*
X152238095Y-78428571D01*
X152333333Y-78476190D01*
X152714285Y-78476190D01*
X151761904Y-78047619D02*
X151714285Y-78000000D01*
X151619047Y-77952380D01*
X151380952Y-77952380D01*
X151285714Y-78000000D01*
X151238095Y-78047619D01*
X151190476Y-78142857D01*
X151190476Y-78238095D01*
X151238095Y-78380952D01*
X151809523Y-78952380D01*
X151190476Y-78952380D01*
X150333333Y-77952380D02*
X150523809Y-77952380D01*
X150619047Y-78000000D01*
X150666666Y-78047619D01*
X150761904Y-78190476D01*
X150809523Y-78380952D01*
X150809523Y-78761904D01*
X150761904Y-78857142D01*
X150714285Y-78904761D01*
X150619047Y-78952380D01*
X150428571Y-78952380D01*
X150333333Y-78904761D01*
X150285714Y-78857142D01*
X150238095Y-78761904D01*
X150238095Y-78523809D01*
X150285714Y-78428571D01*
X150333333Y-78380952D01*
X150428571Y-78333333D01*
X150619047Y-78333333D01*
X150714285Y-78380952D01*
X150761904Y-78428571D01*
X150809523Y-78523809D01*
X152082857Y-84332380D02*
X152416190Y-83856190D01*
X152654285Y-84332380D02*
X152654285Y-83332380D01*
X152273333Y-83332380D01*
X152178095Y-83380000D01*
X152130476Y-83427619D01*
X152082857Y-83522857D01*
X152082857Y-83665714D01*
X152130476Y-83760952D01*
X152178095Y-83808571D01*
X152273333Y-83856190D01*
X152654285Y-83856190D01*
X151701904Y-83427619D02*
X151654285Y-83380000D01*
X151559047Y-83332380D01*
X151320952Y-83332380D01*
X151225714Y-83380000D01*
X151178095Y-83427619D01*
X151130476Y-83522857D01*
X151130476Y-83618095D01*
X151178095Y-83760952D01*
X151749523Y-84332380D01*
X151130476Y-84332380D01*
X150225714Y-83332380D02*
X150701904Y-83332380D01*
X150749523Y-83808571D01*
X150701904Y-83760952D01*
X150606666Y-83713333D01*
X150368571Y-83713333D01*
X150273333Y-83760952D01*
X150225714Y-83808571D01*
X150178095Y-83903809D01*
X150178095Y-84141904D01*
X150225714Y-84237142D01*
X150273333Y-84284761D01*
X150368571Y-84332380D01*
X150606666Y-84332380D01*
X150701904Y-84284761D01*
X150749523Y-84237142D01*
X152082857Y-109952380D02*
X152416190Y-109476190D01*
X152654285Y-109952380D02*
X152654285Y-108952380D01*
X152273333Y-108952380D01*
X152178095Y-109000000D01*
X152130476Y-109047619D01*
X152082857Y-109142857D01*
X152082857Y-109285714D01*
X152130476Y-109380952D01*
X152178095Y-109428571D01*
X152273333Y-109476190D01*
X152654285Y-109476190D01*
X151701904Y-109047619D02*
X151654285Y-109000000D01*
X151559047Y-108952380D01*
X151320952Y-108952380D01*
X151225714Y-109000000D01*
X151178095Y-109047619D01*
X151130476Y-109142857D01*
X151130476Y-109238095D01*
X151178095Y-109380952D01*
X151749523Y-109952380D01*
X151130476Y-109952380D01*
X150273333Y-109285714D02*
X150273333Y-109952380D01*
X150511428Y-108904761D02*
X150749523Y-109619047D01*
X150130476Y-109619047D01*
X152082857Y-114832380D02*
X152416190Y-114356190D01*
X152654285Y-114832380D02*
X152654285Y-113832380D01*
X152273333Y-113832380D01*
X152178095Y-113880000D01*
X152130476Y-113927619D01*
X152082857Y-114022857D01*
X152082857Y-114165714D01*
X152130476Y-114260952D01*
X152178095Y-114308571D01*
X152273333Y-114356190D01*
X152654285Y-114356190D01*
X151701904Y-113927619D02*
X151654285Y-113880000D01*
X151559047Y-113832380D01*
X151320952Y-113832380D01*
X151225714Y-113880000D01*
X151178095Y-113927619D01*
X151130476Y-114022857D01*
X151130476Y-114118095D01*
X151178095Y-114260952D01*
X151749523Y-114832380D01*
X151130476Y-114832380D01*
X150797142Y-113832380D02*
X150178095Y-113832380D01*
X150511428Y-114213333D01*
X150368571Y-114213333D01*
X150273333Y-114260952D01*
X150225714Y-114308571D01*
X150178095Y-114403809D01*
X150178095Y-114641904D01*
X150225714Y-114737142D01*
X150273333Y-114784761D01*
X150368571Y-114832380D01*
X150654285Y-114832380D01*
X150749523Y-114784761D01*
X150797142Y-114737142D01*
X152082857Y-104832380D02*
X152416190Y-104356190D01*
X152654285Y-104832380D02*
X152654285Y-103832380D01*
X152273333Y-103832380D01*
X152178095Y-103880000D01*
X152130476Y-103927619D01*
X152082857Y-104022857D01*
X152082857Y-104165714D01*
X152130476Y-104260952D01*
X152178095Y-104308571D01*
X152273333Y-104356190D01*
X152654285Y-104356190D01*
X151701904Y-103927619D02*
X151654285Y-103880000D01*
X151559047Y-103832380D01*
X151320952Y-103832380D01*
X151225714Y-103880000D01*
X151178095Y-103927619D01*
X151130476Y-104022857D01*
X151130476Y-104118095D01*
X151178095Y-104260952D01*
X151749523Y-104832380D01*
X151130476Y-104832380D01*
X150749523Y-103927619D02*
X150701904Y-103880000D01*
X150606666Y-103832380D01*
X150368571Y-103832380D01*
X150273333Y-103880000D01*
X150225714Y-103927619D01*
X150178095Y-104022857D01*
X150178095Y-104118095D01*
X150225714Y-104260952D01*
X150797142Y-104832380D01*
X150178095Y-104832380D01*
X141082857Y-104832380D02*
X141416190Y-104356190D01*
X141654285Y-104832380D02*
X141654285Y-103832380D01*
X141273333Y-103832380D01*
X141178095Y-103880000D01*
X141130476Y-103927619D01*
X141082857Y-104022857D01*
X141082857Y-104165714D01*
X141130476Y-104260952D01*
X141178095Y-104308571D01*
X141273333Y-104356190D01*
X141654285Y-104356190D01*
X140701904Y-103927619D02*
X140654285Y-103880000D01*
X140559047Y-103832380D01*
X140320952Y-103832380D01*
X140225714Y-103880000D01*
X140178095Y-103927619D01*
X140130476Y-104022857D01*
X140130476Y-104118095D01*
X140178095Y-104260952D01*
X140749523Y-104832380D01*
X140130476Y-104832380D01*
X139178095Y-104832380D02*
X139749523Y-104832380D01*
X139463809Y-104832380D02*
X139463809Y-103832380D01*
X139559047Y-103975238D01*
X139654285Y-104070476D01*
X139749523Y-104118095D01*
X152082857Y-135082380D02*
X152416190Y-134606190D01*
X152654285Y-135082380D02*
X152654285Y-134082380D01*
X152273333Y-134082380D01*
X152178095Y-134130000D01*
X152130476Y-134177619D01*
X152082857Y-134272857D01*
X152082857Y-134415714D01*
X152130476Y-134510952D01*
X152178095Y-134558571D01*
X152273333Y-134606190D01*
X152654285Y-134606190D01*
X151701904Y-134177619D02*
X151654285Y-134130000D01*
X151559047Y-134082380D01*
X151320952Y-134082380D01*
X151225714Y-134130000D01*
X151178095Y-134177619D01*
X151130476Y-134272857D01*
X151130476Y-134368095D01*
X151178095Y-134510952D01*
X151749523Y-135082380D01*
X151130476Y-135082380D01*
X150511428Y-134082380D02*
X150416190Y-134082380D01*
X150320952Y-134130000D01*
X150273333Y-134177619D01*
X150225714Y-134272857D01*
X150178095Y-134463333D01*
X150178095Y-134701428D01*
X150225714Y-134891904D01*
X150273333Y-134987142D01*
X150320952Y-135034761D01*
X150416190Y-135082380D01*
X150511428Y-135082380D01*
X150606666Y-135034761D01*
X150654285Y-134987142D01*
X150701904Y-134891904D01*
X150749523Y-134701428D01*
X150749523Y-134463333D01*
X150701904Y-134272857D01*
X150654285Y-134177619D01*
X150606666Y-134130000D01*
X150511428Y-134082380D01*
X141082857Y-135082380D02*
X141416190Y-134606190D01*
X141654285Y-135082380D02*
X141654285Y-134082380D01*
X141273333Y-134082380D01*
X141178095Y-134130000D01*
X141130476Y-134177619D01*
X141082857Y-134272857D01*
X141082857Y-134415714D01*
X141130476Y-134510952D01*
X141178095Y-134558571D01*
X141273333Y-134606190D01*
X141654285Y-134606190D01*
X140130476Y-135082380D02*
X140701904Y-135082380D01*
X140416190Y-135082380D02*
X140416190Y-134082380D01*
X140511428Y-134225238D01*
X140606666Y-134320476D01*
X140701904Y-134368095D01*
X139654285Y-135082380D02*
X139463809Y-135082380D01*
X139368571Y-135034761D01*
X139320952Y-134987142D01*
X139225714Y-134844285D01*
X139178095Y-134653809D01*
X139178095Y-134272857D01*
X139225714Y-134177619D01*
X139273333Y-134130000D01*
X139368571Y-134082380D01*
X139559047Y-134082380D01*
X139654285Y-134130000D01*
X139701904Y-134177619D01*
X139749523Y-134272857D01*
X139749523Y-134510952D01*
X139701904Y-134606190D01*
X139654285Y-134653809D01*
X139559047Y-134701428D01*
X139368571Y-134701428D01*
X139273333Y-134653809D01*
X139225714Y-134606190D01*
X139178095Y-134510952D01*
X141082857Y-89452380D02*
X141416190Y-88976190D01*
X141654285Y-89452380D02*
X141654285Y-88452380D01*
X141273333Y-88452380D01*
X141178095Y-88500000D01*
X141130476Y-88547619D01*
X141082857Y-88642857D01*
X141082857Y-88785714D01*
X141130476Y-88880952D01*
X141178095Y-88928571D01*
X141273333Y-88976190D01*
X141654285Y-88976190D01*
X140130476Y-89452380D02*
X140701904Y-89452380D01*
X140416190Y-89452380D02*
X140416190Y-88452380D01*
X140511428Y-88595238D01*
X140606666Y-88690476D01*
X140701904Y-88738095D01*
X139559047Y-88880952D02*
X139654285Y-88833333D01*
X139701904Y-88785714D01*
X139749523Y-88690476D01*
X139749523Y-88642857D01*
X139701904Y-88547619D01*
X139654285Y-88500000D01*
X139559047Y-88452380D01*
X139368571Y-88452380D01*
X139273333Y-88500000D01*
X139225714Y-88547619D01*
X139178095Y-88642857D01*
X139178095Y-88690476D01*
X139225714Y-88785714D01*
X139273333Y-88833333D01*
X139368571Y-88880952D01*
X139559047Y-88880952D01*
X139654285Y-88928571D01*
X139701904Y-88976190D01*
X139749523Y-89071428D01*
X139749523Y-89261904D01*
X139701904Y-89357142D01*
X139654285Y-89404761D01*
X139559047Y-89452380D01*
X139368571Y-89452380D01*
X139273333Y-89404761D01*
X139225714Y-89357142D01*
X139178095Y-89261904D01*
X139178095Y-89071428D01*
X139225714Y-88976190D01*
X139273333Y-88928571D01*
X139368571Y-88880952D01*
X141082857Y-119952380D02*
X141416190Y-119476190D01*
X141654285Y-119952380D02*
X141654285Y-118952380D01*
X141273333Y-118952380D01*
X141178095Y-119000000D01*
X141130476Y-119047619D01*
X141082857Y-119142857D01*
X141082857Y-119285714D01*
X141130476Y-119380952D01*
X141178095Y-119428571D01*
X141273333Y-119476190D01*
X141654285Y-119476190D01*
X140130476Y-119952380D02*
X140701904Y-119952380D01*
X140416190Y-119952380D02*
X140416190Y-118952380D01*
X140511428Y-119095238D01*
X140606666Y-119190476D01*
X140701904Y-119238095D01*
X139797142Y-118952380D02*
X139130476Y-118952380D01*
X139559047Y-119952380D01*
X152082857Y-99352380D02*
X152416190Y-98876190D01*
X152654285Y-99352380D02*
X152654285Y-98352380D01*
X152273333Y-98352380D01*
X152178095Y-98400000D01*
X152130476Y-98447619D01*
X152082857Y-98542857D01*
X152082857Y-98685714D01*
X152130476Y-98780952D01*
X152178095Y-98828571D01*
X152273333Y-98876190D01*
X152654285Y-98876190D01*
X151130476Y-99352380D02*
X151701904Y-99352380D01*
X151416190Y-99352380D02*
X151416190Y-98352380D01*
X151511428Y-98495238D01*
X151606666Y-98590476D01*
X151701904Y-98638095D01*
X150273333Y-98352380D02*
X150463809Y-98352380D01*
X150559047Y-98400000D01*
X150606666Y-98447619D01*
X150701904Y-98590476D01*
X150749523Y-98780952D01*
X150749523Y-99161904D01*
X150701904Y-99257142D01*
X150654285Y-99304761D01*
X150559047Y-99352380D01*
X150368571Y-99352380D01*
X150273333Y-99304761D01*
X150225714Y-99257142D01*
X150178095Y-99161904D01*
X150178095Y-98923809D01*
X150225714Y-98828571D01*
X150273333Y-98780952D01*
X150368571Y-98733333D01*
X150559047Y-98733333D01*
X150654285Y-98780952D01*
X150701904Y-98828571D01*
X150749523Y-98923809D01*
X152082857Y-129602380D02*
X152416190Y-129126190D01*
X152654285Y-129602380D02*
X152654285Y-128602380D01*
X152273333Y-128602380D01*
X152178095Y-128650000D01*
X152130476Y-128697619D01*
X152082857Y-128792857D01*
X152082857Y-128935714D01*
X152130476Y-129030952D01*
X152178095Y-129078571D01*
X152273333Y-129126190D01*
X152654285Y-129126190D01*
X151130476Y-129602380D02*
X151701904Y-129602380D01*
X151416190Y-129602380D02*
X151416190Y-128602380D01*
X151511428Y-128745238D01*
X151606666Y-128840476D01*
X151701904Y-128888095D01*
X150225714Y-128602380D02*
X150701904Y-128602380D01*
X150749523Y-129078571D01*
X150701904Y-129030952D01*
X150606666Y-128983333D01*
X150368571Y-128983333D01*
X150273333Y-129030952D01*
X150225714Y-129078571D01*
X150178095Y-129173809D01*
X150178095Y-129411904D01*
X150225714Y-129507142D01*
X150273333Y-129554761D01*
X150368571Y-129602380D01*
X150606666Y-129602380D01*
X150701904Y-129554761D01*
X150749523Y-129507142D01*
X152082857Y-94332380D02*
X152416190Y-93856190D01*
X152654285Y-94332380D02*
X152654285Y-93332380D01*
X152273333Y-93332380D01*
X152178095Y-93380000D01*
X152130476Y-93427619D01*
X152082857Y-93522857D01*
X152082857Y-93665714D01*
X152130476Y-93760952D01*
X152178095Y-93808571D01*
X152273333Y-93856190D01*
X152654285Y-93856190D01*
X151130476Y-94332380D02*
X151701904Y-94332380D01*
X151416190Y-94332380D02*
X151416190Y-93332380D01*
X151511428Y-93475238D01*
X151606666Y-93570476D01*
X151701904Y-93618095D01*
X150273333Y-93665714D02*
X150273333Y-94332380D01*
X150511428Y-93284761D02*
X150749523Y-93999047D01*
X150130476Y-93999047D01*
X152082857Y-124832380D02*
X152416190Y-124356190D01*
X152654285Y-124832380D02*
X152654285Y-123832380D01*
X152273333Y-123832380D01*
X152178095Y-123880000D01*
X152130476Y-123927619D01*
X152082857Y-124022857D01*
X152082857Y-124165714D01*
X152130476Y-124260952D01*
X152178095Y-124308571D01*
X152273333Y-124356190D01*
X152654285Y-124356190D01*
X151130476Y-124832380D02*
X151701904Y-124832380D01*
X151416190Y-124832380D02*
X151416190Y-123832380D01*
X151511428Y-123975238D01*
X151606666Y-124070476D01*
X151701904Y-124118095D01*
X150797142Y-123832380D02*
X150178095Y-123832380D01*
X150511428Y-124213333D01*
X150368571Y-124213333D01*
X150273333Y-124260952D01*
X150225714Y-124308571D01*
X150178095Y-124403809D01*
X150178095Y-124641904D01*
X150225714Y-124737142D01*
X150273333Y-124784761D01*
X150368571Y-124832380D01*
X150654285Y-124832380D01*
X150749523Y-124784761D01*
X150797142Y-124737142D01*
X93452380Y-106857142D02*
X92976190Y-106523809D01*
X93452380Y-106285714D02*
X92452380Y-106285714D01*
X92452380Y-106666666D01*
X92500000Y-106761904D01*
X92547619Y-106809523D01*
X92642857Y-106857142D01*
X92785714Y-106857142D01*
X92880952Y-106809523D01*
X92928571Y-106761904D01*
X92976190Y-106666666D01*
X92976190Y-106285714D01*
X93452380Y-107809523D02*
X93452380Y-107238095D01*
X93452380Y-107523809D02*
X92452380Y-107523809D01*
X92595238Y-107428571D01*
X92690476Y-107333333D01*
X92738095Y-107238095D01*
X92547619Y-108190476D02*
X92500000Y-108238095D01*
X92452380Y-108333333D01*
X92452380Y-108571428D01*
X92500000Y-108666666D01*
X92547619Y-108714285D01*
X92642857Y-108761904D01*
X92738095Y-108761904D01*
X92880952Y-108714285D01*
X93452380Y-108142857D01*
X93452380Y-108761904D01*
X100804917Y-120332380D02*
X101138250Y-119856190D01*
X101376345Y-120332380D02*
X101376345Y-119332380D01*
X100995393Y-119332380D01*
X100900155Y-119380000D01*
X100852536Y-119427619D01*
X100804917Y-119522857D01*
X100804917Y-119665714D01*
X100852536Y-119760952D01*
X100900155Y-119808571D01*
X100995393Y-119856190D01*
X101376345Y-119856190D01*
X99852536Y-120332380D02*
X100423964Y-120332380D01*
X100138250Y-120332380D02*
X100138250Y-119332380D01*
X100233488Y-119475238D01*
X100328726Y-119570476D01*
X100423964Y-119618095D01*
X98900155Y-120332380D02*
X99471583Y-120332380D01*
X99185869Y-120332380D02*
X99185869Y-119332380D01*
X99281107Y-119475238D01*
X99376345Y-119570476D01*
X99471583Y-119618095D01*
X100804917Y-125452380D02*
X101138250Y-124976190D01*
X101376345Y-125452380D02*
X101376345Y-124452380D01*
X100995393Y-124452380D01*
X100900155Y-124500000D01*
X100852536Y-124547619D01*
X100804917Y-124642857D01*
X100804917Y-124785714D01*
X100852536Y-124880952D01*
X100900155Y-124928571D01*
X100995393Y-124976190D01*
X101376345Y-124976190D01*
X99852536Y-125452380D02*
X100423964Y-125452380D01*
X100138250Y-125452380D02*
X100138250Y-124452380D01*
X100233488Y-124595238D01*
X100328726Y-124690476D01*
X100423964Y-124738095D01*
X99233488Y-124452380D02*
X99138250Y-124452380D01*
X99043012Y-124500000D01*
X98995393Y-124547619D01*
X98947774Y-124642857D01*
X98900155Y-124833333D01*
X98900155Y-125071428D01*
X98947774Y-125261904D01*
X98995393Y-125357142D01*
X99043012Y-125404761D01*
X99138250Y-125452380D01*
X99233488Y-125452380D01*
X99328726Y-125404761D01*
X99376345Y-125357142D01*
X99423964Y-125261904D01*
X99471583Y-125071428D01*
X99471583Y-124833333D01*
X99423964Y-124642857D01*
X99376345Y-124547619D01*
X99328726Y-124500000D01*
X99233488Y-124452380D01*
X111948726Y-130332380D02*
X112282060Y-129856190D01*
X112520155Y-130332380D02*
X112520155Y-129332380D01*
X112139202Y-129332380D01*
X112043964Y-129380000D01*
X111996345Y-129427619D01*
X111948726Y-129522857D01*
X111948726Y-129665714D01*
X111996345Y-129760952D01*
X112043964Y-129808571D01*
X112139202Y-129856190D01*
X112520155Y-129856190D01*
X111472536Y-130332380D02*
X111282060Y-130332380D01*
X111186821Y-130284761D01*
X111139202Y-130237142D01*
X111043964Y-130094285D01*
X110996345Y-129903809D01*
X110996345Y-129522857D01*
X111043964Y-129427619D01*
X111091583Y-129380000D01*
X111186821Y-129332380D01*
X111377298Y-129332380D01*
X111472536Y-129380000D01*
X111520155Y-129427619D01*
X111567774Y-129522857D01*
X111567774Y-129760952D01*
X111520155Y-129856190D01*
X111472536Y-129903809D01*
X111377298Y-129951428D01*
X111186821Y-129951428D01*
X111091583Y-129903809D01*
X111043964Y-129856190D01*
X110996345Y-129760952D01*
X63952380Y-128833333D02*
X63476190Y-128500000D01*
X63952380Y-128261904D02*
X62952380Y-128261904D01*
X62952380Y-128642857D01*
X63000000Y-128738095D01*
X63047619Y-128785714D01*
X63142857Y-128833333D01*
X63285714Y-128833333D01*
X63380952Y-128785714D01*
X63428571Y-128738095D01*
X63476190Y-128642857D01*
X63476190Y-128261904D01*
X63380952Y-129404761D02*
X63333333Y-129309523D01*
X63285714Y-129261904D01*
X63190476Y-129214285D01*
X63142857Y-129214285D01*
X63047619Y-129261904D01*
X63000000Y-129309523D01*
X62952380Y-129404761D01*
X62952380Y-129595238D01*
X63000000Y-129690476D01*
X63047619Y-129738095D01*
X63142857Y-129785714D01*
X63190476Y-129785714D01*
X63285714Y-129738095D01*
X63333333Y-129690476D01*
X63380952Y-129595238D01*
X63380952Y-129404761D01*
X63428571Y-129309523D01*
X63476190Y-129261904D01*
X63571428Y-129214285D01*
X63761904Y-129214285D01*
X63857142Y-129261904D01*
X63904761Y-129309523D01*
X63952380Y-129404761D01*
X63952380Y-129595238D01*
X63904761Y-129690476D01*
X63857142Y-129738095D01*
X63761904Y-129785714D01*
X63571428Y-129785714D01*
X63476190Y-129738095D01*
X63428571Y-129690476D01*
X63380952Y-129595238D01*
X59054440Y-128643333D02*
X58578250Y-128310000D01*
X59054440Y-128071904D02*
X58054440Y-128071904D01*
X58054440Y-128452857D01*
X58102060Y-128548095D01*
X58149679Y-128595714D01*
X58244917Y-128643333D01*
X58387774Y-128643333D01*
X58483012Y-128595714D01*
X58530631Y-128548095D01*
X58578250Y-128452857D01*
X58578250Y-128071904D01*
X58054440Y-128976666D02*
X58054440Y-129643333D01*
X59054440Y-129214761D01*
X73952380Y-128833333D02*
X73476190Y-128500000D01*
X73952380Y-128261904D02*
X72952380Y-128261904D01*
X72952380Y-128642857D01*
X73000000Y-128738095D01*
X73047619Y-128785714D01*
X73142857Y-128833333D01*
X73285714Y-128833333D01*
X73380952Y-128785714D01*
X73428571Y-128738095D01*
X73476190Y-128642857D01*
X73476190Y-128261904D01*
X72952380Y-129690476D02*
X72952380Y-129500000D01*
X73000000Y-129404761D01*
X73047619Y-129357142D01*
X73190476Y-129261904D01*
X73380952Y-129214285D01*
X73761904Y-129214285D01*
X73857142Y-129261904D01*
X73904761Y-129309523D01*
X73952380Y-129404761D01*
X73952380Y-129595238D01*
X73904761Y-129690476D01*
X73857142Y-129738095D01*
X73761904Y-129785714D01*
X73523809Y-129785714D01*
X73428571Y-129738095D01*
X73380952Y-129690476D01*
X73333333Y-129595238D01*
X73333333Y-129404761D01*
X73380952Y-129309523D01*
X73428571Y-129261904D01*
X73523809Y-129214285D01*
X68952380Y-128643333D02*
X68476190Y-128310000D01*
X68952380Y-128071904D02*
X67952380Y-128071904D01*
X67952380Y-128452857D01*
X68000000Y-128548095D01*
X68047619Y-128595714D01*
X68142857Y-128643333D01*
X68285714Y-128643333D01*
X68380952Y-128595714D01*
X68428571Y-128548095D01*
X68476190Y-128452857D01*
X68476190Y-128071904D01*
X67952380Y-129548095D02*
X67952380Y-129071904D01*
X68428571Y-129024285D01*
X68380952Y-129071904D01*
X68333333Y-129167142D01*
X68333333Y-129405238D01*
X68380952Y-129500476D01*
X68428571Y-129548095D01*
X68523809Y-129595714D01*
X68761904Y-129595714D01*
X68857142Y-129548095D01*
X68904761Y-129500476D01*
X68952380Y-129405238D01*
X68952380Y-129167142D01*
X68904761Y-129071904D01*
X68857142Y-129024285D01*
X84054440Y-128643333D02*
X83578250Y-128310000D01*
X84054440Y-128071904D02*
X83054440Y-128071904D01*
X83054440Y-128452857D01*
X83102060Y-128548095D01*
X83149679Y-128595714D01*
X83244917Y-128643333D01*
X83387774Y-128643333D01*
X83483012Y-128595714D01*
X83530631Y-128548095D01*
X83578250Y-128452857D01*
X83578250Y-128071904D01*
X83387774Y-129500476D02*
X84054440Y-129500476D01*
X83006821Y-129262380D02*
X83721107Y-129024285D01*
X83721107Y-129643333D01*
X99054440Y-79643333D02*
X98578250Y-79310000D01*
X99054440Y-79071904D02*
X98054440Y-79071904D01*
X98054440Y-79452857D01*
X98102060Y-79548095D01*
X98149679Y-79595714D01*
X98244917Y-79643333D01*
X98387774Y-79643333D01*
X98483012Y-79595714D01*
X98530631Y-79548095D01*
X98578250Y-79452857D01*
X98578250Y-79071904D01*
X98054440Y-79976666D02*
X98054440Y-80595714D01*
X98435393Y-80262380D01*
X98435393Y-80405238D01*
X98483012Y-80500476D01*
X98530631Y-80548095D01*
X98625869Y-80595714D01*
X98863964Y-80595714D01*
X98959202Y-80548095D01*
X99006821Y-80500476D01*
X99054440Y-80405238D01*
X99054440Y-80119523D01*
X99006821Y-80024285D01*
X98959202Y-79976666D01*
X79054440Y-128833333D02*
X78578250Y-128500000D01*
X79054440Y-128261904D02*
X78054440Y-128261904D01*
X78054440Y-128642857D01*
X78102060Y-128738095D01*
X78149679Y-128785714D01*
X78244917Y-128833333D01*
X78387774Y-128833333D01*
X78483012Y-128785714D01*
X78530631Y-128738095D01*
X78578250Y-128642857D01*
X78578250Y-128261904D01*
X78149679Y-129214285D02*
X78102060Y-129261904D01*
X78054440Y-129357142D01*
X78054440Y-129595238D01*
X78102060Y-129690476D01*
X78149679Y-129738095D01*
X78244917Y-129785714D01*
X78340155Y-129785714D01*
X78483012Y-129738095D01*
X79054440Y-129166666D01*
X79054440Y-129785714D01*
X94054440Y-79643333D02*
X93578250Y-79310000D01*
X94054440Y-79071904D02*
X93054440Y-79071904D01*
X93054440Y-79452857D01*
X93102060Y-79548095D01*
X93149679Y-79595714D01*
X93244917Y-79643333D01*
X93387774Y-79643333D01*
X93483012Y-79595714D01*
X93530631Y-79548095D01*
X93578250Y-79452857D01*
X93578250Y-79071904D01*
X94054440Y-80595714D02*
X94054440Y-80024285D01*
X94054440Y-80310000D02*
X93054440Y-80310000D01*
X93197298Y-80214761D01*
X93292536Y-80119523D01*
X93340155Y-80024285D01*
X140595238Y-83547619D02*
X140690476Y-83500000D01*
X140785714Y-83404761D01*
X140928571Y-83261904D01*
X141023809Y-83214285D01*
X141119047Y-83214285D01*
X141071428Y-83452380D02*
X141166666Y-83404761D01*
X141261904Y-83309523D01*
X141309523Y-83119047D01*
X141309523Y-82785714D01*
X141261904Y-82595238D01*
X141166666Y-82500000D01*
X141071428Y-82452380D01*
X140880952Y-82452380D01*
X140785714Y-82500000D01*
X140690476Y-82595238D01*
X140642857Y-82785714D01*
X140642857Y-83119047D01*
X140690476Y-83309523D01*
X140785714Y-83404761D01*
X140880952Y-83452380D01*
X141071428Y-83452380D01*
X139738095Y-82452380D02*
X140214285Y-82452380D01*
X140261904Y-82928571D01*
X140214285Y-82880952D01*
X140119047Y-82833333D01*
X139880952Y-82833333D01*
X139785714Y-82880952D01*
X139738095Y-82928571D01*
X139690476Y-83023809D01*
X139690476Y-83261904D01*
X139738095Y-83357142D01*
X139785714Y-83404761D01*
X139880952Y-83452380D01*
X140119047Y-83452380D01*
X140214285Y-83404761D01*
X140261904Y-83357142D01*
X140535238Y-114047619D02*
X140630476Y-114000000D01*
X140725714Y-113904761D01*
X140868571Y-113761904D01*
X140963809Y-113714285D01*
X141059047Y-113714285D01*
X141011428Y-113952380D02*
X141106666Y-113904761D01*
X141201904Y-113809523D01*
X141249523Y-113619047D01*
X141249523Y-113285714D01*
X141201904Y-113095238D01*
X141106666Y-113000000D01*
X141011428Y-112952380D01*
X140820952Y-112952380D01*
X140725714Y-113000000D01*
X140630476Y-113095238D01*
X140582857Y-113285714D01*
X140582857Y-113619047D01*
X140630476Y-113809523D01*
X140725714Y-113904761D01*
X140820952Y-113952380D01*
X141011428Y-113952380D01*
X139725714Y-113285714D02*
X139725714Y-113952380D01*
X139963809Y-112904761D02*
X140201904Y-113619047D01*
X139582857Y-113619047D01*
X137787619Y-101174761D02*
X137740000Y-101079523D01*
X137644761Y-100984285D01*
X137501904Y-100841428D01*
X137454285Y-100746190D01*
X137454285Y-100650952D01*
X137692380Y-100698571D02*
X137644761Y-100603333D01*
X137549523Y-100508095D01*
X137359047Y-100460476D01*
X137025714Y-100460476D01*
X136835238Y-100508095D01*
X136740000Y-100603333D01*
X136692380Y-100698571D01*
X136692380Y-100889047D01*
X136740000Y-100984285D01*
X136835238Y-101079523D01*
X137025714Y-101127142D01*
X137359047Y-101127142D01*
X137549523Y-101079523D01*
X137644761Y-100984285D01*
X137692380Y-100889047D01*
X137692380Y-100698571D01*
X136692380Y-101460476D02*
X136692380Y-102079523D01*
X137073333Y-101746190D01*
X137073333Y-101889047D01*
X137120952Y-101984285D01*
X137168571Y-102031904D01*
X137263809Y-102079523D01*
X137501904Y-102079523D01*
X137597142Y-102031904D01*
X137644761Y-101984285D01*
X137692380Y-101889047D01*
X137692380Y-101603333D01*
X137644761Y-101508095D01*
X137597142Y-101460476D01*
X137787619Y-131424761D02*
X137740000Y-131329523D01*
X137644761Y-131234285D01*
X137501904Y-131091428D01*
X137454285Y-130996190D01*
X137454285Y-130900952D01*
X137692380Y-130948571D02*
X137644761Y-130853333D01*
X137549523Y-130758095D01*
X137359047Y-130710476D01*
X137025714Y-130710476D01*
X136835238Y-130758095D01*
X136740000Y-130853333D01*
X136692380Y-130948571D01*
X136692380Y-131139047D01*
X136740000Y-131234285D01*
X136835238Y-131329523D01*
X137025714Y-131377142D01*
X137359047Y-131377142D01*
X137549523Y-131329523D01*
X137644761Y-131234285D01*
X137692380Y-131139047D01*
X137692380Y-130948571D01*
X136787619Y-131758095D02*
X136740000Y-131805714D01*
X136692380Y-131900952D01*
X136692380Y-132139047D01*
X136740000Y-132234285D01*
X136787619Y-132281904D01*
X136882857Y-132329523D01*
X136978095Y-132329523D01*
X137120952Y-132281904D01*
X137692380Y-131710476D01*
X137692380Y-132329523D01*
X111877298Y-120047619D02*
X111972536Y-120000000D01*
X112067774Y-119904761D01*
X112210631Y-119761904D01*
X112305869Y-119714285D01*
X112401107Y-119714285D01*
X112353488Y-119952380D02*
X112448726Y-119904761D01*
X112543964Y-119809523D01*
X112591583Y-119619047D01*
X112591583Y-119285714D01*
X112543964Y-119095238D01*
X112448726Y-119000000D01*
X112353488Y-118952380D01*
X112163012Y-118952380D01*
X112067774Y-119000000D01*
X111972536Y-119095238D01*
X111924917Y-119285714D01*
X111924917Y-119619047D01*
X111972536Y-119809523D01*
X112067774Y-119904761D01*
X112163012Y-119952380D01*
X112353488Y-119952380D01*
X110972536Y-119952380D02*
X111543964Y-119952380D01*
X111258250Y-119952380D02*
X111258250Y-118952380D01*
X111353488Y-119095238D01*
X111448726Y-119190476D01*
X111543964Y-119238095D01*
X68028440Y-86146666D02*
X68742726Y-86146666D01*
X68885583Y-86099047D01*
X68980821Y-86003809D01*
X69028440Y-85860952D01*
X69028440Y-85765714D01*
X69028440Y-87146666D02*
X69028440Y-86575238D01*
X69028440Y-86860952D02*
X68028440Y-86860952D01*
X68171298Y-86765714D01*
X68266536Y-86670476D01*
X68314155Y-86575238D01*
X152238095Y-89452380D02*
X152238095Y-88452380D01*
X152000000Y-88452380D01*
X151857142Y-88500000D01*
X151761904Y-88595238D01*
X151714285Y-88690476D01*
X151666666Y-88880952D01*
X151666666Y-89023809D01*
X151714285Y-89214285D01*
X151761904Y-89309523D01*
X151857142Y-89404761D01*
X152000000Y-89452380D01*
X152238095Y-89452380D01*
X150809523Y-88452380D02*
X151000000Y-88452380D01*
X151095238Y-88500000D01*
X151142857Y-88547619D01*
X151238095Y-88690476D01*
X151285714Y-88880952D01*
X151285714Y-89261904D01*
X151238095Y-89357142D01*
X151190476Y-89404761D01*
X151095238Y-89452380D01*
X150904761Y-89452380D01*
X150809523Y-89404761D01*
X150761904Y-89357142D01*
X150714285Y-89261904D01*
X150714285Y-89023809D01*
X150761904Y-88928571D01*
X150809523Y-88880952D01*
X150904761Y-88833333D01*
X151095238Y-88833333D01*
X151190476Y-88880952D01*
X151238095Y-88928571D01*
X151285714Y-89023809D01*
X152178095Y-119952380D02*
X152178095Y-118952380D01*
X151940000Y-118952380D01*
X151797142Y-119000000D01*
X151701904Y-119095238D01*
X151654285Y-119190476D01*
X151606666Y-119380952D01*
X151606666Y-119523809D01*
X151654285Y-119714285D01*
X151701904Y-119809523D01*
X151797142Y-119904761D01*
X151940000Y-119952380D01*
X152178095Y-119952380D01*
X150701904Y-118952380D02*
X151178095Y-118952380D01*
X151225714Y-119428571D01*
X151178095Y-119380952D01*
X151082857Y-119333333D01*
X150844761Y-119333333D01*
X150749523Y-119380952D01*
X150701904Y-119428571D01*
X150654285Y-119523809D01*
X150654285Y-119761904D01*
X150701904Y-119857142D01*
X150749523Y-119904761D01*
X150844761Y-119952380D01*
X151082857Y-119952380D01*
X151178095Y-119904761D01*
X151225714Y-119857142D01*
X112738095Y-125952380D02*
X112738095Y-124952380D01*
X112500000Y-124952380D01*
X112357142Y-125000000D01*
X112261904Y-125095238D01*
X112214285Y-125190476D01*
X112166666Y-125380952D01*
X112166666Y-125523809D01*
X112214285Y-125714285D01*
X112261904Y-125809523D01*
X112357142Y-125904761D01*
X112500000Y-125952380D01*
X112738095Y-125952380D01*
X111309523Y-125285714D02*
X111309523Y-125952380D01*
X111547619Y-124904761D02*
X111785714Y-125619047D01*
X111166666Y-125619047D01*
X54304440Y-128071904D02*
X53304440Y-128071904D01*
X53304440Y-128310000D01*
X53352060Y-128452857D01*
X53447298Y-128548095D01*
X53542536Y-128595714D01*
X53733012Y-128643333D01*
X53875869Y-128643333D01*
X54066345Y-128595714D01*
X54161583Y-128548095D01*
X54256821Y-128452857D01*
X54304440Y-128310000D01*
X54304440Y-128071904D01*
X53304440Y-128976666D02*
X53304440Y-129595714D01*
X53685393Y-129262380D01*
X53685393Y-129405238D01*
X53733012Y-129500476D01*
X53780631Y-129548095D01*
X53875869Y-129595714D01*
X54113964Y-129595714D01*
X54209202Y-129548095D01*
X54256821Y-129500476D01*
X54304440Y-129405238D01*
X54304440Y-129119523D01*
X54256821Y-129024285D01*
X54209202Y-128976666D01*
X59954440Y-98931904D02*
X58954440Y-98931904D01*
X58954440Y-99170000D01*
X59002060Y-99312857D01*
X59097298Y-99408095D01*
X59192536Y-99455714D01*
X59383012Y-99503333D01*
X59525869Y-99503333D01*
X59716345Y-99455714D01*
X59811583Y-99408095D01*
X59906821Y-99312857D01*
X59954440Y-99170000D01*
X59954440Y-98931904D01*
X59049679Y-99884285D02*
X59002060Y-99931904D01*
X58954440Y-100027142D01*
X58954440Y-100265238D01*
X59002060Y-100360476D01*
X59049679Y-100408095D01*
X59144917Y-100455714D01*
X59240155Y-100455714D01*
X59383012Y-100408095D01*
X59954440Y-99836666D01*
X59954440Y-100455714D01*
X54644440Y-98931904D02*
X53644440Y-98931904D01*
X53644440Y-99170000D01*
X53692060Y-99312857D01*
X53787298Y-99408095D01*
X53882536Y-99455714D01*
X54073012Y-99503333D01*
X54215869Y-99503333D01*
X54406345Y-99455714D01*
X54501583Y-99408095D01*
X54596821Y-99312857D01*
X54644440Y-99170000D01*
X54644440Y-98931904D01*
X54644440Y-100455714D02*
X54644440Y-99884285D01*
X54644440Y-100170000D02*
X53644440Y-100170000D01*
X53787298Y-100074761D01*
X53882536Y-99979523D01*
X53930155Y-99884285D01*
X99179202Y-112607142D02*
X99226821Y-112559523D01*
X99274440Y-112416666D01*
X99274440Y-112321428D01*
X99226821Y-112178571D01*
X99131583Y-112083333D01*
X99036345Y-112035714D01*
X98845869Y-111988095D01*
X98703012Y-111988095D01*
X98512536Y-112035714D01*
X98417298Y-112083333D01*
X98322060Y-112178571D01*
X98274440Y-112321428D01*
X98274440Y-112416666D01*
X98322060Y-112559523D01*
X98369679Y-112607142D01*
X99274440Y-113559523D02*
X99274440Y-112988095D01*
X99274440Y-113273809D02*
X98274440Y-113273809D01*
X98417298Y-113178571D01*
X98512536Y-113083333D01*
X98560155Y-112988095D01*
X98274440Y-113892857D02*
X98274440Y-114559523D01*
X99274440Y-114130952D01*
X141082857Y-94357142D02*
X141130476Y-94404761D01*
X141273333Y-94452380D01*
X141368571Y-94452380D01*
X141511428Y-94404761D01*
X141606666Y-94309523D01*
X141654285Y-94214285D01*
X141701904Y-94023809D01*
X141701904Y-93880952D01*
X141654285Y-93690476D01*
X141606666Y-93595238D01*
X141511428Y-93500000D01*
X141368571Y-93452380D01*
X141273333Y-93452380D01*
X141130476Y-93500000D01*
X141082857Y-93547619D01*
X140130476Y-94452380D02*
X140701904Y-94452380D01*
X140416190Y-94452380D02*
X140416190Y-93452380D01*
X140511428Y-93595238D01*
X140606666Y-93690476D01*
X140701904Y-93738095D01*
X139273333Y-93452380D02*
X139463809Y-93452380D01*
X139559047Y-93500000D01*
X139606666Y-93547619D01*
X139701904Y-93690476D01*
X139749523Y-93880952D01*
X139749523Y-94261904D01*
X139701904Y-94357142D01*
X139654285Y-94404761D01*
X139559047Y-94452380D01*
X139368571Y-94452380D01*
X139273333Y-94404761D01*
X139225714Y-94357142D01*
X139178095Y-94261904D01*
X139178095Y-94023809D01*
X139225714Y-93928571D01*
X139273333Y-93880952D01*
X139368571Y-93833333D01*
X139559047Y-93833333D01*
X139654285Y-93880952D01*
X139701904Y-93928571D01*
X139749523Y-94023809D01*
X141082857Y-124857142D02*
X141130476Y-124904761D01*
X141273333Y-124952380D01*
X141368571Y-124952380D01*
X141511428Y-124904761D01*
X141606666Y-124809523D01*
X141654285Y-124714285D01*
X141701904Y-124523809D01*
X141701904Y-124380952D01*
X141654285Y-124190476D01*
X141606666Y-124095238D01*
X141511428Y-124000000D01*
X141368571Y-123952380D01*
X141273333Y-123952380D01*
X141130476Y-124000000D01*
X141082857Y-124047619D01*
X140130476Y-124952380D02*
X140701904Y-124952380D01*
X140416190Y-124952380D02*
X140416190Y-123952380D01*
X140511428Y-124095238D01*
X140606666Y-124190476D01*
X140701904Y-124238095D01*
X139225714Y-123952380D02*
X139701904Y-123952380D01*
X139749523Y-124428571D01*
X139701904Y-124380952D01*
X139606666Y-124333333D01*
X139368571Y-124333333D01*
X139273333Y-124380952D01*
X139225714Y-124428571D01*
X139178095Y-124523809D01*
X139178095Y-124761904D01*
X139225714Y-124857142D01*
X139273333Y-124904761D01*
X139368571Y-124952380D01*
X139606666Y-124952380D01*
X139701904Y-124904761D01*
X139749523Y-124857142D01*
X99829202Y-104857142D02*
X99876821Y-104809523D01*
X99924440Y-104666666D01*
X99924440Y-104571428D01*
X99876821Y-104428571D01*
X99781583Y-104333333D01*
X99686345Y-104285714D01*
X99495869Y-104238095D01*
X99353012Y-104238095D01*
X99162536Y-104285714D01*
X99067298Y-104333333D01*
X98972060Y-104428571D01*
X98924440Y-104571428D01*
X98924440Y-104666666D01*
X98972060Y-104809523D01*
X99019679Y-104857142D01*
X99924440Y-105809523D02*
X99924440Y-105238095D01*
X99924440Y-105523809D02*
X98924440Y-105523809D01*
X99067298Y-105428571D01*
X99162536Y-105333333D01*
X99210155Y-105238095D01*
X99257774Y-106666666D02*
X99924440Y-106666666D01*
X98876821Y-106428571D02*
X99591107Y-106190476D01*
X99591107Y-106809523D01*
X84779202Y-96357142D02*
X84826821Y-96309523D01*
X84874440Y-96166666D01*
X84874440Y-96071428D01*
X84826821Y-95928571D01*
X84731583Y-95833333D01*
X84636345Y-95785714D01*
X84445869Y-95738095D01*
X84303012Y-95738095D01*
X84112536Y-95785714D01*
X84017298Y-95833333D01*
X83922060Y-95928571D01*
X83874440Y-96071428D01*
X83874440Y-96166666D01*
X83922060Y-96309523D01*
X83969679Y-96357142D01*
X84874440Y-97309523D02*
X84874440Y-96738095D01*
X84874440Y-97023809D02*
X83874440Y-97023809D01*
X84017298Y-96928571D01*
X84112536Y-96833333D01*
X84160155Y-96738095D01*
X83874440Y-97642857D02*
X83874440Y-98261904D01*
X84255393Y-97928571D01*
X84255393Y-98071428D01*
X84303012Y-98166666D01*
X84350631Y-98214285D01*
X84445869Y-98261904D01*
X84683964Y-98261904D01*
X84779202Y-98214285D01*
X84826821Y-98166666D01*
X84874440Y-98071428D01*
X84874440Y-97785714D01*
X84826821Y-97690476D01*
X84779202Y-97642857D01*
X108029202Y-106877367D02*
X108076821Y-106829748D01*
X108124440Y-106686891D01*
X108124440Y-106591653D01*
X108076821Y-106448796D01*
X107981583Y-106353558D01*
X107886345Y-106305939D01*
X107695869Y-106258320D01*
X107553012Y-106258320D01*
X107362536Y-106305939D01*
X107267298Y-106353558D01*
X107172060Y-106448796D01*
X107124440Y-106591653D01*
X107124440Y-106686891D01*
X107172060Y-106829748D01*
X107219679Y-106877367D01*
X108124440Y-107829748D02*
X108124440Y-107258320D01*
X108124440Y-107544034D02*
X107124440Y-107544034D01*
X107267298Y-107448796D01*
X107362536Y-107353558D01*
X107410155Y-107258320D01*
X107219679Y-108210701D02*
X107172060Y-108258320D01*
X107124440Y-108353558D01*
X107124440Y-108591653D01*
X107172060Y-108686891D01*
X107219679Y-108734510D01*
X107314917Y-108782129D01*
X107410155Y-108782129D01*
X107553012Y-108734510D01*
X108124440Y-108163082D01*
X108124440Y-108782129D01*
X90357142Y-150357142D02*
X90404761Y-150309523D01*
X90452380Y-150166666D01*
X90452380Y-150071428D01*
X90404761Y-149928571D01*
X90309523Y-149833333D01*
X90214285Y-149785714D01*
X90023809Y-149738095D01*
X89880952Y-149738095D01*
X89690476Y-149785714D01*
X89595238Y-149833333D01*
X89500000Y-149928571D01*
X89452380Y-150071428D01*
X89452380Y-150166666D01*
X89500000Y-150309523D01*
X89547619Y-150357142D01*
X90452380Y-151309523D02*
X90452380Y-150738095D01*
X90452380Y-151023809D02*
X89452380Y-151023809D01*
X89595238Y-150928571D01*
X89690476Y-150833333D01*
X89738095Y-150738095D01*
X90452380Y-152261904D02*
X90452380Y-151690476D01*
X90452380Y-151976190D02*
X89452380Y-151976190D01*
X89595238Y-151880952D01*
X89690476Y-151785714D01*
X89738095Y-151690476D01*
X68357142Y-150357142D02*
X68404761Y-150309523D01*
X68452380Y-150166666D01*
X68452380Y-150071428D01*
X68404761Y-149928571D01*
X68309523Y-149833333D01*
X68214285Y-149785714D01*
X68023809Y-149738095D01*
X67880952Y-149738095D01*
X67690476Y-149785714D01*
X67595238Y-149833333D01*
X67500000Y-149928571D01*
X67452380Y-150071428D01*
X67452380Y-150166666D01*
X67500000Y-150309523D01*
X67547619Y-150357142D01*
X68452380Y-151309523D02*
X68452380Y-150738095D01*
X68452380Y-151023809D02*
X67452380Y-151023809D01*
X67595238Y-150928571D01*
X67690476Y-150833333D01*
X67738095Y-150738095D01*
X67452380Y-151928571D02*
X67452380Y-152023809D01*
X67500000Y-152119047D01*
X67547619Y-152166666D01*
X67642857Y-152214285D01*
X67833333Y-152261904D01*
X68071428Y-152261904D01*
X68261904Y-152214285D01*
X68357142Y-152166666D01*
X68404761Y-152119047D01*
X68452380Y-152023809D01*
X68452380Y-151928571D01*
X68404761Y-151833333D01*
X68357142Y-151785714D01*
X68261904Y-151738095D01*
X68071428Y-151690476D01*
X67833333Y-151690476D01*
X67642857Y-151738095D01*
X67547619Y-151785714D01*
X67500000Y-151833333D01*
X67452380Y-151928571D01*
X100328726Y-130557142D02*
X100376345Y-130604761D01*
X100519202Y-130652380D01*
X100614440Y-130652380D01*
X100757298Y-130604761D01*
X100852536Y-130509523D01*
X100900155Y-130414285D01*
X100947774Y-130223809D01*
X100947774Y-130080952D01*
X100900155Y-129890476D01*
X100852536Y-129795238D01*
X100757298Y-129700000D01*
X100614440Y-129652380D01*
X100519202Y-129652380D01*
X100376345Y-129700000D01*
X100328726Y-129747619D01*
X99852536Y-130652380D02*
X99662060Y-130652380D01*
X99566821Y-130604761D01*
X99519202Y-130557142D01*
X99423964Y-130414285D01*
X99376345Y-130223809D01*
X99376345Y-129842857D01*
X99423964Y-129747619D01*
X99471583Y-129700000D01*
X99566821Y-129652380D01*
X99757298Y-129652380D01*
X99852536Y-129700000D01*
X99900155Y-129747619D01*
X99947774Y-129842857D01*
X99947774Y-130080952D01*
X99900155Y-130176190D01*
X99852536Y-130223809D01*
X99757298Y-130271428D01*
X99566821Y-130271428D01*
X99471583Y-130223809D01*
X99423964Y-130176190D01*
X99376345Y-130080952D01*
X67357142Y-136333333D02*
X67404761Y-136285714D01*
X67452380Y-136142857D01*
X67452380Y-136047619D01*
X67404761Y-135904761D01*
X67309523Y-135809523D01*
X67214285Y-135761904D01*
X67023809Y-135714285D01*
X66880952Y-135714285D01*
X66690476Y-135761904D01*
X66595238Y-135809523D01*
X66500000Y-135904761D01*
X66452380Y-136047619D01*
X66452380Y-136142857D01*
X66500000Y-136285714D01*
X66547619Y-136333333D01*
X66880952Y-136904761D02*
X66833333Y-136809523D01*
X66785714Y-136761904D01*
X66690476Y-136714285D01*
X66642857Y-136714285D01*
X66547619Y-136761904D01*
X66500000Y-136809523D01*
X66452380Y-136904761D01*
X66452380Y-137095238D01*
X66500000Y-137190476D01*
X66547619Y-137238095D01*
X66642857Y-137285714D01*
X66690476Y-137285714D01*
X66785714Y-137238095D01*
X66833333Y-137190476D01*
X66880952Y-137095238D01*
X66880952Y-136904761D01*
X66928571Y-136809523D01*
X66976190Y-136761904D01*
X67071428Y-136714285D01*
X67261904Y-136714285D01*
X67357142Y-136761904D01*
X67404761Y-136809523D01*
X67452380Y-136904761D01*
X67452380Y-137095238D01*
X67404761Y-137190476D01*
X67357142Y-137238095D01*
X67261904Y-137285714D01*
X67071428Y-137285714D01*
X66976190Y-137238095D01*
X66928571Y-137190476D01*
X66880952Y-137095238D01*
X53357142Y-150333333D02*
X53404761Y-150285714D01*
X53452380Y-150142857D01*
X53452380Y-150047619D01*
X53404761Y-149904761D01*
X53309523Y-149809523D01*
X53214285Y-149761904D01*
X53023809Y-149714285D01*
X52880952Y-149714285D01*
X52690476Y-149761904D01*
X52595238Y-149809523D01*
X52500000Y-149904761D01*
X52452380Y-150047619D01*
X52452380Y-150142857D01*
X52500000Y-150285714D01*
X52547619Y-150333333D01*
X52452380Y-150666666D02*
X52452380Y-151333333D01*
X53452380Y-150904761D01*
X66079202Y-112243558D02*
X66126821Y-112195939D01*
X66174440Y-112053082D01*
X66174440Y-111957844D01*
X66126821Y-111814986D01*
X66031583Y-111719748D01*
X65936345Y-111672129D01*
X65745869Y-111624510D01*
X65603012Y-111624510D01*
X65412536Y-111672129D01*
X65317298Y-111719748D01*
X65222060Y-111814986D01*
X65174440Y-111957844D01*
X65174440Y-112053082D01*
X65222060Y-112195939D01*
X65269679Y-112243558D01*
X65174440Y-113100701D02*
X65174440Y-112910225D01*
X65222060Y-112814986D01*
X65269679Y-112767367D01*
X65412536Y-112672129D01*
X65603012Y-112624510D01*
X65983964Y-112624510D01*
X66079202Y-112672129D01*
X66126821Y-112719748D01*
X66174440Y-112814986D01*
X66174440Y-113005463D01*
X66126821Y-113100701D01*
X66079202Y-113148320D01*
X65983964Y-113195939D01*
X65745869Y-113195939D01*
X65650631Y-113148320D01*
X65603012Y-113100701D01*
X65555393Y-113005463D01*
X65555393Y-112814986D01*
X65603012Y-112719748D01*
X65650631Y-112672129D01*
X65745869Y-112624510D01*
X48579202Y-112333333D02*
X48626821Y-112285714D01*
X48674440Y-112142857D01*
X48674440Y-112047619D01*
X48626821Y-111904761D01*
X48531583Y-111809523D01*
X48436345Y-111761904D01*
X48245869Y-111714285D01*
X48103012Y-111714285D01*
X47912536Y-111761904D01*
X47817298Y-111809523D01*
X47722060Y-111904761D01*
X47674440Y-112047619D01*
X47674440Y-112142857D01*
X47722060Y-112285714D01*
X47769679Y-112333333D01*
X47674440Y-113238095D02*
X47674440Y-112761904D01*
X48150631Y-112714285D01*
X48103012Y-112761904D01*
X48055393Y-112857142D01*
X48055393Y-113095238D01*
X48103012Y-113190476D01*
X48150631Y-113238095D01*
X48245869Y-113285714D01*
X48483964Y-113285714D01*
X48579202Y-113238095D01*
X48626821Y-113190476D01*
X48674440Y-113095238D01*
X48674440Y-112857142D01*
X48626821Y-112761904D01*
X48579202Y-112714285D01*
X102929202Y-74083333D02*
X102976821Y-74035714D01*
X103024440Y-73892857D01*
X103024440Y-73797619D01*
X102976821Y-73654761D01*
X102881583Y-73559523D01*
X102786345Y-73511904D01*
X102595869Y-73464285D01*
X102453012Y-73464285D01*
X102262536Y-73511904D01*
X102167298Y-73559523D01*
X102072060Y-73654761D01*
X102024440Y-73797619D01*
X102024440Y-73892857D01*
X102072060Y-74035714D01*
X102119679Y-74083333D01*
X102357774Y-74940476D02*
X103024440Y-74940476D01*
X101976821Y-74702380D02*
X102691107Y-74464285D01*
X102691107Y-75083333D01*
X89279202Y-128643333D02*
X89326821Y-128595714D01*
X89374440Y-128452857D01*
X89374440Y-128357619D01*
X89326821Y-128214761D01*
X89231583Y-128119523D01*
X89136345Y-128071904D01*
X88945869Y-128024285D01*
X88803012Y-128024285D01*
X88612536Y-128071904D01*
X88517298Y-128119523D01*
X88422060Y-128214761D01*
X88374440Y-128357619D01*
X88374440Y-128452857D01*
X88422060Y-128595714D01*
X88469679Y-128643333D01*
X88374440Y-128976666D02*
X88374440Y-129595714D01*
X88755393Y-129262380D01*
X88755393Y-129405238D01*
X88803012Y-129500476D01*
X88850631Y-129548095D01*
X88945869Y-129595714D01*
X89183964Y-129595714D01*
X89279202Y-129548095D01*
X89326821Y-129500476D01*
X89374440Y-129405238D01*
X89374440Y-129119523D01*
X89326821Y-129024285D01*
X89279202Y-128976666D01*
X103579202Y-81753333D02*
X103626821Y-81705714D01*
X103674440Y-81562857D01*
X103674440Y-81467619D01*
X103626821Y-81324761D01*
X103531583Y-81229523D01*
X103436345Y-81181904D01*
X103245869Y-81134285D01*
X103103012Y-81134285D01*
X102912536Y-81181904D01*
X102817298Y-81229523D01*
X102722060Y-81324761D01*
X102674440Y-81467619D01*
X102674440Y-81562857D01*
X102722060Y-81705714D01*
X102769679Y-81753333D01*
X102769679Y-82134285D02*
X102722060Y-82181904D01*
X102674440Y-82277142D01*
X102674440Y-82515238D01*
X102722060Y-82610476D01*
X102769679Y-82658095D01*
X102864917Y-82705714D01*
X102960155Y-82705714D01*
X103103012Y-82658095D01*
X103674440Y-82086666D01*
X103674440Y-82705714D01*
X89357142Y-79833333D02*
X89404761Y-79785714D01*
X89452380Y-79642857D01*
X89452380Y-79547619D01*
X89404761Y-79404761D01*
X89309523Y-79309523D01*
X89214285Y-79261904D01*
X89023809Y-79214285D01*
X88880952Y-79214285D01*
X88690476Y-79261904D01*
X88595238Y-79309523D01*
X88500000Y-79404761D01*
X88452380Y-79547619D01*
X88452380Y-79642857D01*
X88500000Y-79785714D01*
X88547619Y-79833333D01*
X89452380Y-80785714D02*
X89452380Y-80214285D01*
X89452380Y-80500000D02*
X88452380Y-80500000D01*
X88595238Y-80404761D01*
X88690476Y-80309523D01*
X88738095Y-80214285D01*
M02*
