M48
; DRILL file {KiCad 5.1.5-52549c5~84~ubuntu18.04.1} date Mon 11 May 2020 10:51:15 AM EDT
; FORMAT={-:-/ absolute / inch / decimal}
; #@! TF.CreationDate,2020-05-11T10:51:15-04:00
; #@! TF.GenerationSoftware,Kicad,Pcbnew,5.1.5-52549c5~84~ubuntu18.04.1
; #@! TF.FileFunction,Plated,1,2,PTH
FMAT,2
INCH
T1C0.0295
T2C0.0315
T3C0.0354
T4C0.0394
T5C0.0400
T6C0.0433
T7C0.1063
T8C0.1220
%
G90
G05
T1
X5.4791Y-3.3815
X5.5433Y-3.937
X4.3509Y-4.813
X4.4009Y-4.813
X4.4509Y-4.813
X5.4791Y-4.5823
X5.5291Y-4.5823
X5.5791Y-4.5823
X5.5433Y-5.128
X5.5433Y-5.178
X5.5433Y-5.228
X5.5291Y-3.3815
X5.5791Y-3.3815
X5.5433Y-3.987
X5.5433Y-4.037
T2
X2.7942Y-5.5118
X2.7942Y-5.8118
X2.8942Y-5.5118
X2.8942Y-5.8118
X2.9942Y-5.5118
X2.9942Y-5.8118
X3.0942Y-5.5118
X3.0942Y-5.8118
X3.1942Y-5.5118
X3.1942Y-5.8118
X3.2942Y-5.5118
X3.2942Y-5.8118
X3.3942Y-5.5118
X3.3942Y-5.8118
X4.0639Y-4.4094
X4.0639Y-4.5079
X5.4799Y-3.7894
X5.5783Y-3.7894
X3.6603Y-5.5118
X3.6603Y-5.8118
X3.7603Y-5.5118
X3.7603Y-5.8118
X3.8603Y-5.5118
X3.8603Y-5.8118
X3.9603Y-5.5118
X3.9603Y-5.8118
X4.0603Y-5.5118
X4.0603Y-5.8118
X4.1603Y-5.5118
X4.1603Y-5.8118
X4.2603Y-5.5118
X4.2603Y-5.8118
X5.3791Y-5.3937
X5.6791Y-5.3937
X3.9753Y-2.9921
X3.9753Y-3.2921
X2.6269Y-5.4921
X2.6269Y-5.5906
X5.8122Y-3.5925
X6.1122Y-3.5925
X4.3198Y-4.1839
X4.3198Y-4.2823
X5.8122Y-4.3996
X6.1122Y-4.3996
X3.5816Y-3.5433
X3.5816Y-3.8433
X3.6816Y-3.5433
X3.6816Y-3.8433
X3.7816Y-3.5433
X3.7816Y-3.8433
X3.8816Y-3.5433
X3.8816Y-3.8433
X3.9816Y-3.5433
X3.9816Y-3.8433
X4.0816Y-3.5433
X4.0816Y-3.8433
X4.1816Y-3.5433
X4.1816Y-3.8433
X2.2036Y-5.5118
X2.2036Y-5.8118
X2.3036Y-5.5118
X2.3036Y-5.8118
X2.4036Y-5.5118
X2.4036Y-5.8118
X2.5036Y-5.5118
X2.5036Y-5.8118
X3.5816Y-3.0929
X3.5816Y-3.1913
X5.8122Y-4.2028
X6.1122Y-4.2028
X5.4799Y-4.9902
X5.5783Y-4.9902
X2.4398Y-4.3862
X2.4398Y-4.465
X3.3847Y-4.9213
X3.3847Y-5.2213
X5.8122Y-5.178
X6.1122Y-5.178
X3.7934Y-4.813
X4.0934Y-4.813
X5.8122Y-3.7894
X6.1122Y-3.7894
X5.8122Y-5.3937
X6.1122Y-5.3937
X5.3791Y-4.2028
X5.6791Y-4.2028
X4.0639Y-4.1142
X4.0639Y-4.1929
X2.6761Y-5.7283
X2.6761Y-5.8268
X2.2036Y-4.9213
X2.2036Y-5.2213
X3.8942Y-5.2067
X3.9926Y-5.2067
X2.7942Y-4.9213
X2.7942Y-5.2213
X5.8122Y-4.7933
X6.1122Y-4.7933
X3.4044Y-3.7697
X3.4044Y-3.8681
X4.2509Y-5.0098
X4.5509Y-5.0098
X5.3791Y-4.7933
X5.6791Y-4.7933
X4.2115Y-3.1858
X4.2115Y-3.2646
X4.2509Y-5.2067
X4.5509Y-5.2067
X3.7934Y-5.0098
X4.0934Y-5.0098
X2.0855Y-5.7382
X2.0855Y-5.8366
X5.8122Y-3.1988
X6.1122Y-3.1988
X5.8122Y-3.3957
X6.1122Y-3.3957
X5.8122Y-4.5965
X6.1122Y-4.5965
X5.8122Y-4.9902
X6.1122Y-4.9902
X2.4005Y-4.9213
X2.4005Y-5.2213
X3.5324Y-5.7283
X3.5324Y-5.8268
X5.8122Y-3.987
X6.1122Y-3.987
X2.5973Y-4.9213
X2.5973Y-5.2213
X2.991Y-4.9213
X2.991Y-5.2213
X4.2115Y-2.874
X4.2115Y-2.9724
X3.7784Y-4.0831
X3.7784Y-4.3831
X3.5816Y-5.022
X3.5816Y-5.1205
X2.0461Y-4.3898
X2.0461Y-4.4685
X3.1879Y-4.9213
X3.1879Y-5.2213
X5.3791Y-3.5925
X5.6791Y-3.5925
X3.7784Y-2.9921
X3.7784Y-3.2921
T3
X7.6575Y-5.835
X7.6575Y-5.935
X7.6575Y-4.8508
X7.6575Y-4.9508
T4
X4.7236Y-3.7594
X4.7236Y-3.8594
X4.7236Y-3.9594
X4.7236Y-4.0594
X4.7236Y-4.1594
X4.7236Y-4.2594
X4.7236Y-4.3594
X4.7236Y-4.4594
X4.7236Y-4.5594
X4.7236Y-4.6594
X4.7236Y-4.7594
X4.7236Y-4.8594
X4.7236Y-4.9594
X4.7236Y-5.0594
T5
X2.0398Y-3.3547
X2.0398Y-3.4547
X2.1398Y-3.3547
X2.1398Y-3.4547
X2.2398Y-3.3547
X2.2398Y-3.4547
X2.3398Y-3.3547
X2.3398Y-3.4547
X2.4398Y-3.3547
X2.4398Y-3.4547
T6
X2.0363Y-3.724
X2.0363Y-4.124
X2.4398Y-3.724
X2.4398Y-4.124
T7
X7.9961Y-2.9134
X8.1496Y-2.6811
X8.2677Y-3.185
X8.4346Y-2.7465
X8.5Y-3.0315
X6.3268Y-5.374
X6.4803Y-5.1417
X6.5984Y-5.6457
X6.7654Y-5.2071
X6.8307Y-5.4921
X7.9961Y-3.8976
X8.1496Y-3.6654
X8.2677Y-4.1693
X8.4346Y-3.7307
X8.5Y-4.0157
X7.9961Y-5.8661
X8.1496Y-5.6339
X8.2677Y-6.1378
X8.4346Y-5.6992
X8.5Y-5.9843
X7.9961Y-4.8819
X8.1496Y-4.6496
X8.2677Y-5.1535
X8.4346Y-4.715
X8.5Y-5.0
T8
X6.4862Y-3.4252
X6.6634Y-3.4252
T0
M30
