G04 #@! TF.GenerationSoftware,KiCad,Pcbnew,5.1.5-52549c5~84~ubuntu18.04.1*
G04 #@! TF.CreationDate,2020-05-11T15:10:22-04:00*
G04 #@! TF.ProjectId,gategrinder,67617465-6772-4696-9e64-65722e6b6963,rev?*
G04 #@! TF.SameCoordinates,Original*
G04 #@! TF.FileFunction,Legend,Top*
G04 #@! TF.FilePolarity,Positive*
%FSLAX46Y46*%
G04 Gerber Fmt 4.6, Leading zero omitted, Abs format (unit mm)*
G04 Created by KiCad (PCBNEW 5.1.5-52549c5~84~ubuntu18.04.1) date 2020-05-11 15:10:22*
%MOMM*%
%LPD*%
G04 APERTURE LIST*
%ADD10C,0.150000*%
%ADD11C,0.120000*%
G04 APERTURE END LIST*
D10*
X119488133Y-115646922D02*
X119440657Y-115599160D01*
X119393324Y-115503779D01*
X119394038Y-115265685D01*
X119441942Y-115170590D01*
X119489704Y-115123114D01*
X119585085Y-115075781D01*
X119680322Y-115076067D01*
X119823036Y-115124114D01*
X120392748Y-115697255D01*
X120394605Y-115078210D01*
X120300653Y-114649355D02*
X120348414Y-114601879D01*
X120395890Y-114649640D01*
X120348129Y-114697116D01*
X120300653Y-114649355D01*
X120395890Y-114649640D01*
X119398752Y-113694264D02*
X119397324Y-114170452D01*
X119873369Y-114219499D01*
X119825893Y-114171738D01*
X119778560Y-114076357D01*
X119779274Y-113838263D01*
X119827179Y-113743168D01*
X119874940Y-113695692D01*
X119970321Y-113648359D01*
X120208415Y-113649073D01*
X120303510Y-113696978D01*
X120350986Y-113744740D01*
X120398319Y-113840120D01*
X120397605Y-114078214D01*
X120349700Y-114173309D01*
X120301938Y-114220785D01*
X119734798Y-112790506D02*
X120401462Y-112792506D01*
X119353133Y-113027457D02*
X120066701Y-113267694D01*
X120068559Y-112648649D01*
X119403609Y-112075223D02*
X119403895Y-111979986D01*
X119451799Y-111884891D01*
X119499561Y-111837415D01*
X119594942Y-111790082D01*
X119785560Y-111743034D01*
X120023654Y-111743749D01*
X120213987Y-111791939D01*
X120309081Y-111839843D01*
X120356557Y-111887605D01*
X120403890Y-111982986D01*
X120403605Y-112078223D01*
X120355700Y-112173318D01*
X120307938Y-112220794D01*
X120212558Y-112268127D01*
X120021940Y-112315175D01*
X119783846Y-112314460D01*
X119593513Y-112266270D01*
X119498418Y-112218366D01*
X119450942Y-112170604D01*
X119403609Y-112075223D01*
X120408176Y-110554421D02*
X119741512Y-110552421D01*
X119836750Y-110552706D02*
X119789274Y-110504945D01*
X119741941Y-110409564D01*
X119742370Y-110266708D01*
X119790274Y-110171613D01*
X119885655Y-110124280D01*
X120409462Y-110125851D01*
X119885655Y-110124280D02*
X119790560Y-110076375D01*
X119743227Y-109980995D01*
X119743655Y-109838138D01*
X119791560Y-109743043D01*
X119886940Y-109695710D01*
X120410748Y-109697282D01*
X120412176Y-109221093D02*
X119745512Y-109219093D01*
X119840750Y-109219379D02*
X119793274Y-109171617D01*
X119745941Y-109076237D01*
X119746370Y-108933380D01*
X119794274Y-108838286D01*
X119889655Y-108790952D01*
X120413462Y-108792524D01*
X119889655Y-108790952D02*
X119794560Y-108743048D01*
X119747227Y-108647667D01*
X119747655Y-108504811D01*
X119795560Y-108409716D01*
X119890940Y-108362383D01*
X120414748Y-108363954D01*
D11*
X121217696Y-113255439D02*
X121225316Y-110715439D01*
X121951300Y-113257640D02*
X120631278Y-113253680D01*
X121958920Y-110717640D02*
X120638898Y-110713680D01*
X121225316Y-110715439D02*
X121808355Y-111843697D01*
X121225316Y-110715439D02*
X120635518Y-111840178D01*
X121217696Y-113255439D02*
X121807494Y-112130700D01*
X121217696Y-113255439D02*
X120634657Y-112127181D01*
X217350000Y-94150000D02*
X217350000Y-107400000D01*
X201600000Y-91650000D02*
X215300000Y-91650000D01*
X215300000Y-91650000D02*
X215350000Y-91650000D01*
X201600000Y-107400000D02*
X201600000Y-91650000D01*
X217350000Y-107400000D02*
X201600000Y-107400000D01*
X215350000Y-91650000D02*
X217350000Y-94150000D01*
X217350000Y-144150000D02*
X217350000Y-157400000D01*
X201600000Y-141650000D02*
X215300000Y-141650000D01*
X215300000Y-141650000D02*
X215350000Y-141650000D01*
X201600000Y-157400000D02*
X201600000Y-141650000D01*
X217350000Y-157400000D02*
X201600000Y-157400000D01*
X215350000Y-141650000D02*
X217350000Y-144150000D01*
X217350000Y-69150000D02*
X217350000Y-82400000D01*
X201600000Y-66650000D02*
X215300000Y-66650000D01*
X215300000Y-66650000D02*
X215350000Y-66650000D01*
X201600000Y-82400000D02*
X201600000Y-66650000D01*
X217350000Y-82400000D02*
X201600000Y-82400000D01*
X215350000Y-66650000D02*
X217350000Y-69150000D01*
X217350000Y-119150000D02*
X217350000Y-132400000D01*
X201600000Y-116650000D02*
X215300000Y-116650000D01*
X215300000Y-116650000D02*
X215350000Y-116650000D01*
X201600000Y-132400000D02*
X201600000Y-116650000D01*
X217350000Y-132400000D02*
X201600000Y-132400000D01*
X215350000Y-116650000D02*
X217350000Y-119150000D01*
X174950000Y-131650000D02*
X174950000Y-144900000D01*
X159200000Y-129150000D02*
X172900000Y-129150000D01*
X172900000Y-129150000D02*
X172950000Y-129150000D01*
X159200000Y-144900000D02*
X159200000Y-129150000D01*
X174950000Y-144900000D02*
X159200000Y-144900000D01*
X172950000Y-129150000D02*
X174950000Y-131650000D01*
X172250000Y-87000000D02*
G75*
G03X172250000Y-87000000I-5250000J0D01*
G01*
X118650000Y-94160000D02*
X119980000Y-94160000D01*
X118650000Y-95490000D02*
X118650000Y-94160000D01*
X118650000Y-96760000D02*
X121310000Y-96760000D01*
X121310000Y-96760000D02*
X121310000Y-129840000D01*
X118650000Y-96760000D02*
X118650000Y-129840000D01*
X118650000Y-129840000D02*
X121310000Y-129840000D01*
X192955000Y-127040000D02*
X196045000Y-127040000D01*
X197000000Y-124480000D02*
G75*
G03X197000000Y-124480000I-2500000J0D01*
G01*
X194499538Y-121490000D02*
G75*
G02X196044830Y-127040000I462J-2990000D01*
G01*
X194500462Y-121490000D02*
G75*
G03X192955170Y-127040000I-462J-2990000D01*
G01*
X192955000Y-152040000D02*
X196045000Y-152040000D01*
X197000000Y-149480000D02*
G75*
G03X197000000Y-149480000I-2500000J0D01*
G01*
X194499538Y-146490000D02*
G75*
G02X196044830Y-152040000I462J-2990000D01*
G01*
X194500462Y-146490000D02*
G75*
G03X192955170Y-152040000I-462J-2990000D01*
G01*
D10*
X198702380Y-100309523D02*
X199416666Y-100309523D01*
X199559523Y-100357142D01*
X199654761Y-100452380D01*
X199702380Y-100595238D01*
X199702380Y-100690476D01*
X199702380Y-99309523D02*
X199702380Y-99880952D01*
X199702380Y-99595238D02*
X198702380Y-99595238D01*
X198845238Y-99690476D01*
X198940476Y-99785714D01*
X198988095Y-99880952D01*
X198702380Y-98690476D02*
X198702380Y-98595238D01*
X198750000Y-98500000D01*
X198797619Y-98452380D01*
X198892857Y-98404761D01*
X199083333Y-98357142D01*
X199321428Y-98357142D01*
X199511904Y-98404761D01*
X199607142Y-98452380D01*
X199654761Y-98500000D01*
X199702380Y-98595238D01*
X199702380Y-98690476D01*
X199654761Y-98785714D01*
X199607142Y-98833333D01*
X199511904Y-98880952D01*
X199321428Y-98928571D01*
X199083333Y-98928571D01*
X198892857Y-98880952D01*
X198797619Y-98833333D01*
X198750000Y-98785714D01*
X198702380Y-98690476D01*
X198702380Y-149333333D02*
X199416666Y-149333333D01*
X199559523Y-149380952D01*
X199654761Y-149476190D01*
X199702380Y-149619047D01*
X199702380Y-149714285D01*
X199702380Y-148809523D02*
X199702380Y-148619047D01*
X199654761Y-148523809D01*
X199607142Y-148476190D01*
X199464285Y-148380952D01*
X199273809Y-148333333D01*
X198892857Y-148333333D01*
X198797619Y-148380952D01*
X198750000Y-148428571D01*
X198702380Y-148523809D01*
X198702380Y-148714285D01*
X198750000Y-148809523D01*
X198797619Y-148857142D01*
X198892857Y-148904761D01*
X199130952Y-148904761D01*
X199226190Y-148857142D01*
X199273809Y-148809523D01*
X199321428Y-148714285D01*
X199321428Y-148523809D01*
X199273809Y-148428571D01*
X199226190Y-148380952D01*
X199130952Y-148333333D01*
X198702380Y-74833333D02*
X199416666Y-74833333D01*
X199559523Y-74880952D01*
X199654761Y-74976190D01*
X199702380Y-75119047D01*
X199702380Y-75214285D01*
X199130952Y-74214285D02*
X199083333Y-74309523D01*
X199035714Y-74357142D01*
X198940476Y-74404761D01*
X198892857Y-74404761D01*
X198797619Y-74357142D01*
X198750000Y-74309523D01*
X198702380Y-74214285D01*
X198702380Y-74023809D01*
X198750000Y-73928571D01*
X198797619Y-73880952D01*
X198892857Y-73833333D01*
X198940476Y-73833333D01*
X199035714Y-73880952D01*
X199083333Y-73928571D01*
X199130952Y-74023809D01*
X199130952Y-74214285D01*
X199178571Y-74309523D01*
X199226190Y-74357142D01*
X199321428Y-74404761D01*
X199511904Y-74404761D01*
X199607142Y-74357142D01*
X199654761Y-74309523D01*
X199702380Y-74214285D01*
X199702380Y-74023809D01*
X199654761Y-73928571D01*
X199607142Y-73880952D01*
X199511904Y-73833333D01*
X199321428Y-73833333D01*
X199226190Y-73880952D01*
X199178571Y-73928571D01*
X199130952Y-74023809D01*
X198702380Y-124333333D02*
X199416666Y-124333333D01*
X199559523Y-124380952D01*
X199654761Y-124476190D01*
X199702380Y-124619047D01*
X199702380Y-124714285D01*
X198702380Y-123952380D02*
X198702380Y-123285714D01*
X199702380Y-123714285D01*
X156452380Y-140333333D02*
X157166666Y-140333333D01*
X157309523Y-140380952D01*
X157404761Y-140476190D01*
X157452380Y-140619047D01*
X157452380Y-140714285D01*
X156452380Y-139428571D02*
X156452380Y-139619047D01*
X156500000Y-139714285D01*
X156547619Y-139761904D01*
X156690476Y-139857142D01*
X156880952Y-139904761D01*
X157261904Y-139904761D01*
X157357142Y-139857142D01*
X157404761Y-139809523D01*
X157452380Y-139714285D01*
X157452380Y-139523809D01*
X157404761Y-139428571D01*
X157357142Y-139380952D01*
X157261904Y-139333333D01*
X157023809Y-139333333D01*
X156928571Y-139380952D01*
X156880952Y-139428571D01*
X156833333Y-139523809D01*
X156833333Y-139714285D01*
X156880952Y-139809523D01*
X156928571Y-139857142D01*
X157023809Y-139904761D01*
X159804761Y-88333333D02*
X159852380Y-88190476D01*
X159852380Y-87952380D01*
X159804761Y-87857142D01*
X159757142Y-87809523D01*
X159661904Y-87761904D01*
X159566666Y-87761904D01*
X159471428Y-87809523D01*
X159423809Y-87857142D01*
X159376190Y-87952380D01*
X159328571Y-88142857D01*
X159280952Y-88238095D01*
X159233333Y-88285714D01*
X159138095Y-88333333D01*
X159042857Y-88333333D01*
X158947619Y-88285714D01*
X158900000Y-88238095D01*
X158852380Y-88142857D01*
X158852380Y-87904761D01*
X158900000Y-87761904D01*
X158852380Y-87428571D02*
X159852380Y-87190476D01*
X159138095Y-87000000D01*
X159852380Y-86809523D01*
X158852380Y-86571428D01*
X158852380Y-86285714D02*
X158852380Y-85666666D01*
X159233333Y-86000000D01*
X159233333Y-85857142D01*
X159280952Y-85761904D01*
X159328571Y-85714285D01*
X159423809Y-85666666D01*
X159661904Y-85666666D01*
X159757142Y-85714285D01*
X159804761Y-85761904D01*
X159852380Y-85857142D01*
X159852380Y-86142857D01*
X159804761Y-86238095D01*
X159757142Y-86285714D01*
X119646666Y-92612380D02*
X119646666Y-93326666D01*
X119599047Y-93469523D01*
X119503809Y-93564761D01*
X119360952Y-93612380D01*
X119265714Y-93612380D01*
X120027619Y-92612380D02*
X120646666Y-92612380D01*
X120313333Y-92993333D01*
X120456190Y-92993333D01*
X120551428Y-93040952D01*
X120599047Y-93088571D01*
X120646666Y-93183809D01*
X120646666Y-93421904D01*
X120599047Y-93517142D01*
X120551428Y-93564761D01*
X120456190Y-93612380D01*
X120170476Y-93612380D01*
X120075238Y-93564761D01*
X120027619Y-93517142D01*
X190992380Y-125218095D02*
X189992380Y-125218095D01*
X189992380Y-124980000D01*
X190040000Y-124837142D01*
X190135238Y-124741904D01*
X190230476Y-124694285D01*
X190420952Y-124646666D01*
X190563809Y-124646666D01*
X190754285Y-124694285D01*
X190849523Y-124741904D01*
X190944761Y-124837142D01*
X190992380Y-124980000D01*
X190992380Y-125218095D01*
X190420952Y-124075238D02*
X190373333Y-124170476D01*
X190325714Y-124218095D01*
X190230476Y-124265714D01*
X190182857Y-124265714D01*
X190087619Y-124218095D01*
X190040000Y-124170476D01*
X189992380Y-124075238D01*
X189992380Y-123884761D01*
X190040000Y-123789523D01*
X190087619Y-123741904D01*
X190182857Y-123694285D01*
X190230476Y-123694285D01*
X190325714Y-123741904D01*
X190373333Y-123789523D01*
X190420952Y-123884761D01*
X190420952Y-124075238D01*
X190468571Y-124170476D01*
X190516190Y-124218095D01*
X190611428Y-124265714D01*
X190801904Y-124265714D01*
X190897142Y-124218095D01*
X190944761Y-124170476D01*
X190992380Y-124075238D01*
X190992380Y-123884761D01*
X190944761Y-123789523D01*
X190897142Y-123741904D01*
X190801904Y-123694285D01*
X190611428Y-123694285D01*
X190516190Y-123741904D01*
X190468571Y-123789523D01*
X190420952Y-123884761D01*
X190992380Y-150218095D02*
X189992380Y-150218095D01*
X189992380Y-149980000D01*
X190040000Y-149837142D01*
X190135238Y-149741904D01*
X190230476Y-149694285D01*
X190420952Y-149646666D01*
X190563809Y-149646666D01*
X190754285Y-149694285D01*
X190849523Y-149741904D01*
X190944761Y-149837142D01*
X190992380Y-149980000D01*
X190992380Y-150218095D01*
X189992380Y-149313333D02*
X189992380Y-148646666D01*
X190992380Y-149075238D01*
M02*
