M48
; DRILL file {KiCad 5.1.5-52549c5~84~ubuntu18.04.1} date Mon 11 May 2020 03:13:22 PM EDT
; FORMAT={-:-/ absolute / inch / decimal}
; #@! TF.CreationDate,2020-05-11T15:13:22-04:00
; #@! TF.GenerationSoftware,Kicad,Pcbnew,5.1.5-52549c5~84~ubuntu18.04.1
; #@! TF.FileFunction,Plated,1,2,PTH
FMAT,2
INCH
T1C0.0394
T2C0.0709
T3C0.0827
%
G90
G05
T1
X3.1496Y-4.9016
X3.248Y-4.9016
X3.3465Y-4.9016
X4.8425Y-2.9724
X4.8425Y-3.0724
X4.8425Y-3.1724
X4.8425Y-3.2724
X4.8425Y-3.3724
X4.8425Y-3.4724
X4.8425Y-3.5724
X4.8425Y-3.6724
X4.8425Y-3.7724
X4.8425Y-3.8724
X4.8425Y-3.9724
X4.8425Y-4.0724
X4.8425Y-4.1724
X4.8425Y-4.2724
X5.1122Y-4.311
X5.2106Y-4.311
X5.3091Y-4.311
T2
X5.0217Y-4.6063
X5.3996Y-4.6063
X3.0591Y-4.6063
X3.437Y-4.6063
T3
X3.4331Y-3.1299
X3.063Y-2.1457
X3.248Y-2.1457
X3.4331Y-2.1457
X5.0315Y-2.1457
X5.2165Y-2.1457
X5.4016Y-2.1457
X5.0315Y-3.1299
X5.2165Y-3.1299
X5.4016Y-3.1299
X3.063Y-3.1299
X3.248Y-3.1299
T0
M30
