G04 #@! TF.GenerationSoftware,KiCad,Pcbnew,5.1.5-52549c5~84~ubuntu18.04.1*
G04 #@! TF.CreationDate,2020-05-11T15:13:20-04:00*
G04 #@! TF.ProjectId,gategrinder_panelPCB,67617465-6772-4696-9e64-65725f70616e,rev?*
G04 #@! TF.SameCoordinates,Original*
G04 #@! TF.FileFunction,Copper,L1,Top*
G04 #@! TF.FilePolarity,Positive*
%FSLAX46Y46*%
G04 Gerber Fmt 4.6, Leading zero omitted, Abs format (unit mm)*
G04 Created by KiCad (PCBNEW 5.1.5-52549c5~84~ubuntu18.04.1) date 2020-05-11 15:13:20*
%MOMM*%
%LPD*%
G04 APERTURE LIST*
%ADD10C,3.100000*%
%ADD11C,3.240000*%
%ADD12C,1.800000*%
%ADD13R,1.800000X1.800000*%
%ADD14O,1.700000X1.700000*%
%ADD15R,1.700000X1.700000*%
%ADD16C,0.250000*%
%ADD17C,0.254000*%
G04 APERTURE END LIST*
D10*
X87200000Y-79500000D03*
X77800000Y-79500000D03*
X82500000Y-79500000D03*
X127800000Y-79500000D03*
X137200000Y-79500000D03*
X132500000Y-79500000D03*
X137200000Y-54500000D03*
X127800000Y-54500000D03*
X132500000Y-54500000D03*
X77800000Y-54500000D03*
X87200000Y-54500000D03*
X82500000Y-54500000D03*
D11*
X137150000Y-117000000D03*
X127550000Y-117000000D03*
D12*
X129850000Y-109500000D03*
X132350000Y-109500000D03*
D13*
X134850000Y-109500000D03*
D11*
X77700000Y-117000000D03*
X87300000Y-117000000D03*
D12*
X85000000Y-124500000D03*
X82500000Y-124500000D03*
D13*
X80000000Y-124500000D03*
D14*
X123000000Y-108520000D03*
X123000000Y-105980000D03*
X123000000Y-103440000D03*
X123000000Y-100900000D03*
X123000000Y-98360000D03*
X123000000Y-95820000D03*
X123000000Y-93280000D03*
X123000000Y-90740000D03*
X123000000Y-88200000D03*
X123000000Y-85660000D03*
X123000000Y-83120000D03*
X123000000Y-80580000D03*
X123000000Y-78040000D03*
D15*
X123000000Y-75500000D03*
D16*
X132350000Y-109500000D02*
X129850000Y-109500000D01*
X132350000Y-109500000D02*
X132500000Y-109350000D01*
X132500000Y-102780000D02*
X123000000Y-93280000D01*
X132500000Y-109350000D02*
X132500000Y-102780000D01*
X122435999Y-87024999D02*
X129675001Y-87024999D01*
X135650001Y-81049999D02*
X137200000Y-79500000D01*
X121824999Y-87635999D02*
X122435999Y-87024999D01*
X129675001Y-87024999D02*
X135650001Y-81049999D01*
X121824999Y-89564999D02*
X121824999Y-87635999D01*
X123000000Y-90740000D02*
X121824999Y-89564999D01*
X124650000Y-89850000D02*
X123000000Y-88200000D01*
X124650000Y-94150000D02*
X124650000Y-89850000D01*
X133000000Y-102500000D02*
X124650000Y-94150000D01*
X134850000Y-109500000D02*
X133000000Y-107650000D01*
X133000000Y-107650000D02*
X133000000Y-102500000D01*
X118301398Y-83120000D02*
X123000000Y-83120000D01*
X85000000Y-124500000D02*
X85000000Y-116421398D01*
X85000000Y-116421398D02*
X118301398Y-83120000D01*
X80000000Y-124500000D02*
X82500000Y-124500000D01*
X119797919Y-80580000D02*
X123000000Y-80580000D01*
X82500000Y-124500000D02*
X82500000Y-117877919D01*
X82500000Y-117877919D02*
X119797919Y-80580000D01*
X99300000Y-76000000D02*
X77800000Y-54500000D01*
X123000000Y-78040000D02*
X120960000Y-76000000D01*
X120960000Y-76000000D02*
X99300000Y-76000000D01*
X99750000Y-75500000D02*
X123000000Y-75500000D01*
X82500000Y-54500000D02*
X82500000Y-58250000D01*
X82500000Y-58250000D02*
X99750000Y-75500000D01*
D17*
G36*
X143340001Y-139340000D02*
G01*
X68660000Y-139340000D01*
X68660000Y-116777902D01*
X75445000Y-116777902D01*
X75445000Y-117222098D01*
X75531658Y-117657759D01*
X75701645Y-118068143D01*
X75948427Y-118437479D01*
X76262521Y-118751573D01*
X76631857Y-118998355D01*
X77042241Y-119168342D01*
X77477902Y-119255000D01*
X77922098Y-119255000D01*
X78357759Y-119168342D01*
X78768143Y-118998355D01*
X79137479Y-118751573D01*
X79451573Y-118437479D01*
X79698355Y-118068143D01*
X79868342Y-117657759D01*
X79955000Y-117222098D01*
X79955000Y-116777902D01*
X79868342Y-116342241D01*
X79698355Y-115931857D01*
X79451573Y-115562521D01*
X79137479Y-115248427D01*
X78768143Y-115001645D01*
X78357759Y-114831658D01*
X77922098Y-114745000D01*
X77477902Y-114745000D01*
X77042241Y-114831658D01*
X76631857Y-115001645D01*
X76262521Y-115248427D01*
X75948427Y-115562521D01*
X75701645Y-115931857D01*
X75531658Y-116342241D01*
X75445000Y-116777902D01*
X68660000Y-116777902D01*
X68660000Y-91779872D01*
X72765000Y-91779872D01*
X72765000Y-92220128D01*
X72850890Y-92651925D01*
X73019369Y-93058669D01*
X73263962Y-93424729D01*
X73575271Y-93736038D01*
X73941331Y-93980631D01*
X74348075Y-94149110D01*
X74779872Y-94235000D01*
X75220128Y-94235000D01*
X75651925Y-94149110D01*
X76058669Y-93980631D01*
X76424729Y-93736038D01*
X76736038Y-93424729D01*
X76980631Y-93058669D01*
X77149110Y-92651925D01*
X77235000Y-92220128D01*
X77235000Y-91779872D01*
X77149110Y-91348075D01*
X76980631Y-90941331D01*
X76736038Y-90575271D01*
X76424729Y-90263962D01*
X76058669Y-90019369D01*
X75651925Y-89850890D01*
X75220128Y-89765000D01*
X74779872Y-89765000D01*
X74348075Y-89850890D01*
X73941331Y-90019369D01*
X73575271Y-90263962D01*
X73263962Y-90575271D01*
X73019369Y-90941331D01*
X72850890Y-91348075D01*
X72765000Y-91779872D01*
X68660000Y-91779872D01*
X68660000Y-81027251D01*
X76452354Y-81027251D01*
X76614381Y-81347930D01*
X76997675Y-81543725D01*
X77411803Y-81660981D01*
X77840848Y-81695192D01*
X78268324Y-81645042D01*
X78677802Y-81512461D01*
X78985619Y-81347930D01*
X79147646Y-81027251D01*
X77800000Y-79679605D01*
X76452354Y-81027251D01*
X68660000Y-81027251D01*
X68660000Y-79540848D01*
X75604808Y-79540848D01*
X75654958Y-79968324D01*
X75787539Y-80377802D01*
X75952070Y-80685619D01*
X76272749Y-80847646D01*
X77620395Y-79500000D01*
X77979605Y-79500000D01*
X79327251Y-80847646D01*
X79647930Y-80685619D01*
X79843725Y-80302325D01*
X79960981Y-79888197D01*
X79995192Y-79459152D01*
X79974738Y-79284796D01*
X80315000Y-79284796D01*
X80315000Y-79715204D01*
X80398969Y-80137341D01*
X80563678Y-80534985D01*
X80802800Y-80892856D01*
X81107144Y-81197200D01*
X81465015Y-81436322D01*
X81862659Y-81601031D01*
X82284796Y-81685000D01*
X82715204Y-81685000D01*
X83137341Y-81601031D01*
X83534985Y-81436322D01*
X83892856Y-81197200D01*
X84197200Y-80892856D01*
X84436322Y-80534985D01*
X84601031Y-80137341D01*
X84685000Y-79715204D01*
X84685000Y-79284796D01*
X85015000Y-79284796D01*
X85015000Y-79715204D01*
X85098969Y-80137341D01*
X85263678Y-80534985D01*
X85502800Y-80892856D01*
X85807144Y-81197200D01*
X86165015Y-81436322D01*
X86562659Y-81601031D01*
X86984796Y-81685000D01*
X87415204Y-81685000D01*
X87837341Y-81601031D01*
X88234985Y-81436322D01*
X88592856Y-81197200D01*
X88897200Y-80892856D01*
X89136322Y-80534985D01*
X89301031Y-80137341D01*
X89385000Y-79715204D01*
X89385000Y-79284796D01*
X89301031Y-78862659D01*
X89136322Y-78465015D01*
X88897200Y-78107144D01*
X88592856Y-77802800D01*
X88234985Y-77563678D01*
X87837341Y-77398969D01*
X87415204Y-77315000D01*
X86984796Y-77315000D01*
X86562659Y-77398969D01*
X86165015Y-77563678D01*
X85807144Y-77802800D01*
X85502800Y-78107144D01*
X85263678Y-78465015D01*
X85098969Y-78862659D01*
X85015000Y-79284796D01*
X84685000Y-79284796D01*
X84601031Y-78862659D01*
X84436322Y-78465015D01*
X84197200Y-78107144D01*
X83892856Y-77802800D01*
X83534985Y-77563678D01*
X83137341Y-77398969D01*
X82715204Y-77315000D01*
X82284796Y-77315000D01*
X81862659Y-77398969D01*
X81465015Y-77563678D01*
X81107144Y-77802800D01*
X80802800Y-78107144D01*
X80563678Y-78465015D01*
X80398969Y-78862659D01*
X80315000Y-79284796D01*
X79974738Y-79284796D01*
X79945042Y-79031676D01*
X79812461Y-78622198D01*
X79647930Y-78314381D01*
X79327251Y-78152354D01*
X77979605Y-79500000D01*
X77620395Y-79500000D01*
X76272749Y-78152354D01*
X75952070Y-78314381D01*
X75756275Y-78697675D01*
X75639019Y-79111803D01*
X75604808Y-79540848D01*
X68660000Y-79540848D01*
X68660000Y-77972749D01*
X76452354Y-77972749D01*
X77800000Y-79320395D01*
X79147646Y-77972749D01*
X78985619Y-77652070D01*
X78602325Y-77456275D01*
X78188197Y-77339019D01*
X77759152Y-77304808D01*
X77331676Y-77354958D01*
X76922198Y-77487539D01*
X76614381Y-77652070D01*
X76452354Y-77972749D01*
X68660000Y-77972749D01*
X68660000Y-54284796D01*
X75615000Y-54284796D01*
X75615000Y-54715204D01*
X75698969Y-55137341D01*
X75863678Y-55534985D01*
X76102800Y-55892856D01*
X76407144Y-56197200D01*
X76765015Y-56436322D01*
X77162659Y-56601031D01*
X77584796Y-56685000D01*
X78015204Y-56685000D01*
X78437341Y-56601031D01*
X78712327Y-56487128D01*
X98736200Y-76511002D01*
X98759999Y-76540001D01*
X98788997Y-76563799D01*
X98875724Y-76634974D01*
X99007753Y-76705546D01*
X99151014Y-76749003D01*
X99300000Y-76763677D01*
X99337333Y-76760000D01*
X120645199Y-76760000D01*
X121558790Y-77673592D01*
X121515000Y-77893740D01*
X121515000Y-78186260D01*
X121572068Y-78473158D01*
X121684010Y-78743411D01*
X121846525Y-78986632D01*
X122053368Y-79193475D01*
X122227760Y-79310000D01*
X122053368Y-79426525D01*
X121846525Y-79633368D01*
X121721822Y-79820000D01*
X119835242Y-79820000D01*
X119797919Y-79816324D01*
X119760596Y-79820000D01*
X119760586Y-79820000D01*
X119648933Y-79830997D01*
X119505672Y-79874454D01*
X119373642Y-79945026D01*
X119345254Y-79968324D01*
X119257918Y-80039999D01*
X119234120Y-80068997D01*
X81988998Y-117314120D01*
X81960000Y-117337918D01*
X81936202Y-117366916D01*
X81936201Y-117366917D01*
X81865026Y-117453643D01*
X81794454Y-117585673D01*
X81750998Y-117728934D01*
X81736324Y-117877919D01*
X81740001Y-117915251D01*
X81740000Y-123161687D01*
X81521495Y-123307688D01*
X81483880Y-123345303D01*
X81430537Y-123245506D01*
X81351185Y-123148815D01*
X81254494Y-123069463D01*
X81144180Y-123010498D01*
X81024482Y-122974188D01*
X80900000Y-122961928D01*
X79100000Y-122961928D01*
X78975518Y-122974188D01*
X78855820Y-123010498D01*
X78745506Y-123069463D01*
X78648815Y-123148815D01*
X78569463Y-123245506D01*
X78510498Y-123355820D01*
X78474188Y-123475518D01*
X78461928Y-123600000D01*
X78461928Y-125400000D01*
X78474188Y-125524482D01*
X78510498Y-125644180D01*
X78569463Y-125754494D01*
X78648815Y-125851185D01*
X78745506Y-125930537D01*
X78855820Y-125989502D01*
X78975518Y-126025812D01*
X79100000Y-126038072D01*
X80900000Y-126038072D01*
X81024482Y-126025812D01*
X81144180Y-125989502D01*
X81254494Y-125930537D01*
X81351185Y-125851185D01*
X81430537Y-125754494D01*
X81483880Y-125654697D01*
X81521495Y-125692312D01*
X81772905Y-125860299D01*
X82052257Y-125976011D01*
X82348816Y-126035000D01*
X82651184Y-126035000D01*
X82947743Y-125976011D01*
X83227095Y-125860299D01*
X83478505Y-125692312D01*
X83692312Y-125478505D01*
X83750000Y-125392169D01*
X83807688Y-125478505D01*
X84021495Y-125692312D01*
X84272905Y-125860299D01*
X84552257Y-125976011D01*
X84848816Y-126035000D01*
X85151184Y-126035000D01*
X85447743Y-125976011D01*
X85727095Y-125860299D01*
X85978505Y-125692312D01*
X86192312Y-125478505D01*
X86360299Y-125227095D01*
X86476011Y-124947743D01*
X86535000Y-124651184D01*
X86535000Y-124348816D01*
X86476011Y-124052257D01*
X86360299Y-123772905D01*
X86192312Y-123521495D01*
X85978505Y-123307688D01*
X85760000Y-123161687D01*
X85760000Y-118649052D01*
X85862521Y-118751573D01*
X86231857Y-118998355D01*
X86642241Y-119168342D01*
X87077902Y-119255000D01*
X87522098Y-119255000D01*
X87957759Y-119168342D01*
X88368143Y-118998355D01*
X88737479Y-118751573D01*
X89051573Y-118437479D01*
X89298355Y-118068143D01*
X89468342Y-117657759D01*
X89555000Y-117222098D01*
X89555000Y-116777902D01*
X125295000Y-116777902D01*
X125295000Y-117222098D01*
X125381658Y-117657759D01*
X125551645Y-118068143D01*
X125798427Y-118437479D01*
X126112521Y-118751573D01*
X126481857Y-118998355D01*
X126892241Y-119168342D01*
X127327902Y-119255000D01*
X127772098Y-119255000D01*
X128207759Y-119168342D01*
X128618143Y-118998355D01*
X128987479Y-118751573D01*
X129301573Y-118437479D01*
X129548355Y-118068143D01*
X129718342Y-117657759D01*
X129805000Y-117222098D01*
X129805000Y-116777902D01*
X134895000Y-116777902D01*
X134895000Y-117222098D01*
X134981658Y-117657759D01*
X135151645Y-118068143D01*
X135398427Y-118437479D01*
X135712521Y-118751573D01*
X136081857Y-118998355D01*
X136492241Y-119168342D01*
X136927902Y-119255000D01*
X137372098Y-119255000D01*
X137807759Y-119168342D01*
X138218143Y-118998355D01*
X138587479Y-118751573D01*
X138901573Y-118437479D01*
X139148355Y-118068143D01*
X139318342Y-117657759D01*
X139405000Y-117222098D01*
X139405000Y-116777902D01*
X139318342Y-116342241D01*
X139148355Y-115931857D01*
X138901573Y-115562521D01*
X138587479Y-115248427D01*
X138218143Y-115001645D01*
X137807759Y-114831658D01*
X137372098Y-114745000D01*
X136927902Y-114745000D01*
X136492241Y-114831658D01*
X136081857Y-115001645D01*
X135712521Y-115248427D01*
X135398427Y-115562521D01*
X135151645Y-115931857D01*
X134981658Y-116342241D01*
X134895000Y-116777902D01*
X129805000Y-116777902D01*
X129718342Y-116342241D01*
X129548355Y-115931857D01*
X129301573Y-115562521D01*
X128987479Y-115248427D01*
X128618143Y-115001645D01*
X128207759Y-114831658D01*
X127772098Y-114745000D01*
X127327902Y-114745000D01*
X126892241Y-114831658D01*
X126481857Y-115001645D01*
X126112521Y-115248427D01*
X125798427Y-115562521D01*
X125551645Y-115931857D01*
X125381658Y-116342241D01*
X125295000Y-116777902D01*
X89555000Y-116777902D01*
X89468342Y-116342241D01*
X89298355Y-115931857D01*
X89051573Y-115562521D01*
X88737479Y-115248427D01*
X88368143Y-115001645D01*
X87957759Y-114831658D01*
X87713189Y-114783010D01*
X93619309Y-108876890D01*
X121558524Y-108876890D01*
X121603175Y-109024099D01*
X121728359Y-109286920D01*
X121902412Y-109520269D01*
X122118645Y-109715178D01*
X122368748Y-109864157D01*
X122643109Y-109961481D01*
X122873000Y-109840814D01*
X122873000Y-108647000D01*
X123127000Y-108647000D01*
X123127000Y-109840814D01*
X123356891Y-109961481D01*
X123631252Y-109864157D01*
X123881355Y-109715178D01*
X124097588Y-109520269D01*
X124271641Y-109286920D01*
X124396825Y-109024099D01*
X124441476Y-108876890D01*
X124320155Y-108647000D01*
X123127000Y-108647000D01*
X122873000Y-108647000D01*
X121679845Y-108647000D01*
X121558524Y-108876890D01*
X93619309Y-108876890D01*
X118616200Y-83880000D01*
X121721822Y-83880000D01*
X121846525Y-84066632D01*
X122053368Y-84273475D01*
X122227760Y-84390000D01*
X122053368Y-84506525D01*
X121846525Y-84713368D01*
X121684010Y-84956589D01*
X121572068Y-85226842D01*
X121515000Y-85513740D01*
X121515000Y-85806260D01*
X121572068Y-86093158D01*
X121684010Y-86363411D01*
X121819704Y-86566491D01*
X121313996Y-87072201D01*
X121284999Y-87095998D01*
X121261201Y-87124996D01*
X121261200Y-87124997D01*
X121190025Y-87211723D01*
X121119453Y-87343753D01*
X121091373Y-87436324D01*
X121087445Y-87449275D01*
X121075997Y-87487014D01*
X121061323Y-87635999D01*
X121065000Y-87673331D01*
X121064999Y-89527676D01*
X121061323Y-89564999D01*
X121064999Y-89602321D01*
X121064999Y-89602331D01*
X121075996Y-89713984D01*
X121105931Y-89812667D01*
X121119453Y-89857245D01*
X121190025Y-89989275D01*
X121214723Y-90019369D01*
X121284998Y-90105000D01*
X121314002Y-90128803D01*
X121558791Y-90373592D01*
X121515000Y-90593740D01*
X121515000Y-90886260D01*
X121572068Y-91173158D01*
X121684010Y-91443411D01*
X121846525Y-91686632D01*
X122053368Y-91893475D01*
X122227760Y-92010000D01*
X122053368Y-92126525D01*
X121846525Y-92333368D01*
X121684010Y-92576589D01*
X121572068Y-92846842D01*
X121515000Y-93133740D01*
X121515000Y-93426260D01*
X121572068Y-93713158D01*
X121684010Y-93983411D01*
X121846525Y-94226632D01*
X122053368Y-94433475D01*
X122227760Y-94550000D01*
X122053368Y-94666525D01*
X121846525Y-94873368D01*
X121684010Y-95116589D01*
X121572068Y-95386842D01*
X121515000Y-95673740D01*
X121515000Y-95966260D01*
X121572068Y-96253158D01*
X121684010Y-96523411D01*
X121846525Y-96766632D01*
X122053368Y-96973475D01*
X122227760Y-97090000D01*
X122053368Y-97206525D01*
X121846525Y-97413368D01*
X121684010Y-97656589D01*
X121572068Y-97926842D01*
X121515000Y-98213740D01*
X121515000Y-98506260D01*
X121572068Y-98793158D01*
X121684010Y-99063411D01*
X121846525Y-99306632D01*
X122053368Y-99513475D01*
X122227760Y-99630000D01*
X122053368Y-99746525D01*
X121846525Y-99953368D01*
X121684010Y-100196589D01*
X121572068Y-100466842D01*
X121515000Y-100753740D01*
X121515000Y-101046260D01*
X121572068Y-101333158D01*
X121684010Y-101603411D01*
X121846525Y-101846632D01*
X122053368Y-102053475D01*
X122227760Y-102170000D01*
X122053368Y-102286525D01*
X121846525Y-102493368D01*
X121684010Y-102736589D01*
X121572068Y-103006842D01*
X121515000Y-103293740D01*
X121515000Y-103586260D01*
X121572068Y-103873158D01*
X121684010Y-104143411D01*
X121846525Y-104386632D01*
X122053368Y-104593475D01*
X122227760Y-104710000D01*
X122053368Y-104826525D01*
X121846525Y-105033368D01*
X121684010Y-105276589D01*
X121572068Y-105546842D01*
X121515000Y-105833740D01*
X121515000Y-106126260D01*
X121572068Y-106413158D01*
X121684010Y-106683411D01*
X121846525Y-106926632D01*
X122053368Y-107133475D01*
X122235534Y-107255195D01*
X122118645Y-107324822D01*
X121902412Y-107519731D01*
X121728359Y-107753080D01*
X121603175Y-108015901D01*
X121558524Y-108163110D01*
X121679845Y-108393000D01*
X122873000Y-108393000D01*
X122873000Y-108373000D01*
X123127000Y-108373000D01*
X123127000Y-108393000D01*
X124320155Y-108393000D01*
X124441476Y-108163110D01*
X124396825Y-108015901D01*
X124271641Y-107753080D01*
X124097588Y-107519731D01*
X123881355Y-107324822D01*
X123764466Y-107255195D01*
X123946632Y-107133475D01*
X124153475Y-106926632D01*
X124315990Y-106683411D01*
X124427932Y-106413158D01*
X124485000Y-106126260D01*
X124485000Y-105833740D01*
X124427932Y-105546842D01*
X124315990Y-105276589D01*
X124153475Y-105033368D01*
X123946632Y-104826525D01*
X123772240Y-104710000D01*
X123946632Y-104593475D01*
X124153475Y-104386632D01*
X124315990Y-104143411D01*
X124427932Y-103873158D01*
X124485000Y-103586260D01*
X124485000Y-103293740D01*
X124427932Y-103006842D01*
X124315990Y-102736589D01*
X124153475Y-102493368D01*
X123946632Y-102286525D01*
X123772240Y-102170000D01*
X123946632Y-102053475D01*
X124153475Y-101846632D01*
X124315990Y-101603411D01*
X124427932Y-101333158D01*
X124485000Y-101046260D01*
X124485000Y-100753740D01*
X124427932Y-100466842D01*
X124315990Y-100196589D01*
X124153475Y-99953368D01*
X123946632Y-99746525D01*
X123772240Y-99630000D01*
X123946632Y-99513475D01*
X124153475Y-99306632D01*
X124315990Y-99063411D01*
X124427932Y-98793158D01*
X124485000Y-98506260D01*
X124485000Y-98213740D01*
X124427932Y-97926842D01*
X124315990Y-97656589D01*
X124153475Y-97413368D01*
X123946632Y-97206525D01*
X123772240Y-97090000D01*
X123946632Y-96973475D01*
X124153475Y-96766632D01*
X124315990Y-96523411D01*
X124427932Y-96253158D01*
X124485000Y-95966260D01*
X124485000Y-95839801D01*
X131740001Y-103094803D01*
X131740000Y-108091198D01*
X131622905Y-108139701D01*
X131371495Y-108307688D01*
X131157688Y-108521495D01*
X131100000Y-108607831D01*
X131042312Y-108521495D01*
X130828505Y-108307688D01*
X130577095Y-108139701D01*
X130297743Y-108023989D01*
X130001184Y-107965000D01*
X129698816Y-107965000D01*
X129402257Y-108023989D01*
X129122905Y-108139701D01*
X128871495Y-108307688D01*
X128657688Y-108521495D01*
X128489701Y-108772905D01*
X128373989Y-109052257D01*
X128315000Y-109348816D01*
X128315000Y-109651184D01*
X128373989Y-109947743D01*
X128489701Y-110227095D01*
X128657688Y-110478505D01*
X128871495Y-110692312D01*
X129122905Y-110860299D01*
X129402257Y-110976011D01*
X129698816Y-111035000D01*
X130001184Y-111035000D01*
X130297743Y-110976011D01*
X130577095Y-110860299D01*
X130828505Y-110692312D01*
X131042312Y-110478505D01*
X131100000Y-110392169D01*
X131157688Y-110478505D01*
X131371495Y-110692312D01*
X131622905Y-110860299D01*
X131902257Y-110976011D01*
X132198816Y-111035000D01*
X132501184Y-111035000D01*
X132797743Y-110976011D01*
X133077095Y-110860299D01*
X133328505Y-110692312D01*
X133366120Y-110654697D01*
X133419463Y-110754494D01*
X133498815Y-110851185D01*
X133595506Y-110930537D01*
X133705820Y-110989502D01*
X133825518Y-111025812D01*
X133950000Y-111038072D01*
X135750000Y-111038072D01*
X135874482Y-111025812D01*
X135994180Y-110989502D01*
X136104494Y-110930537D01*
X136201185Y-110851185D01*
X136280537Y-110754494D01*
X136339502Y-110644180D01*
X136375812Y-110524482D01*
X136388072Y-110400000D01*
X136388072Y-108600000D01*
X136375812Y-108475518D01*
X136339502Y-108355820D01*
X136280537Y-108245506D01*
X136201185Y-108148815D01*
X136104494Y-108069463D01*
X135994180Y-108010498D01*
X135874482Y-107974188D01*
X135750000Y-107961928D01*
X134386729Y-107961928D01*
X133760000Y-107335199D01*
X133760000Y-102537322D01*
X133763676Y-102499999D01*
X133760000Y-102462676D01*
X133760000Y-102462667D01*
X133749003Y-102351014D01*
X133705546Y-102207753D01*
X133634974Y-102075724D01*
X133540001Y-101959999D01*
X133511003Y-101936201D01*
X125410000Y-93835199D01*
X125410000Y-91779872D01*
X135765000Y-91779872D01*
X135765000Y-92220128D01*
X135850890Y-92651925D01*
X136019369Y-93058669D01*
X136263962Y-93424729D01*
X136575271Y-93736038D01*
X136941331Y-93980631D01*
X137348075Y-94149110D01*
X137779872Y-94235000D01*
X138220128Y-94235000D01*
X138651925Y-94149110D01*
X139058669Y-93980631D01*
X139424729Y-93736038D01*
X139736038Y-93424729D01*
X139980631Y-93058669D01*
X140149110Y-92651925D01*
X140235000Y-92220128D01*
X140235000Y-91779872D01*
X140149110Y-91348075D01*
X139980631Y-90941331D01*
X139736038Y-90575271D01*
X139424729Y-90263962D01*
X139058669Y-90019369D01*
X138651925Y-89850890D01*
X138220128Y-89765000D01*
X137779872Y-89765000D01*
X137348075Y-89850890D01*
X136941331Y-90019369D01*
X136575271Y-90263962D01*
X136263962Y-90575271D01*
X136019369Y-90941331D01*
X135850890Y-91348075D01*
X135765000Y-91779872D01*
X125410000Y-91779872D01*
X125410000Y-89887322D01*
X125413676Y-89849999D01*
X125410000Y-89812676D01*
X125410000Y-89812667D01*
X125399003Y-89701014D01*
X125355546Y-89557753D01*
X125284974Y-89425724D01*
X125225681Y-89353475D01*
X125213799Y-89338996D01*
X125213795Y-89338992D01*
X125190001Y-89309999D01*
X125161008Y-89286205D01*
X124441210Y-88566408D01*
X124485000Y-88346260D01*
X124485000Y-88053740D01*
X124431544Y-87784999D01*
X129637679Y-87784999D01*
X129675001Y-87788675D01*
X129712323Y-87784999D01*
X129712334Y-87784999D01*
X129823987Y-87774002D01*
X129967248Y-87730545D01*
X130099277Y-87659973D01*
X130215002Y-87565000D01*
X130238805Y-87535996D01*
X136213800Y-81561002D01*
X136213804Y-81560997D01*
X136287673Y-81487128D01*
X136562659Y-81601031D01*
X136984796Y-81685000D01*
X137415204Y-81685000D01*
X137837341Y-81601031D01*
X138234985Y-81436322D01*
X138592856Y-81197200D01*
X138897200Y-80892856D01*
X139136322Y-80534985D01*
X139301031Y-80137341D01*
X139385000Y-79715204D01*
X139385000Y-79284796D01*
X139301031Y-78862659D01*
X139136322Y-78465015D01*
X138897200Y-78107144D01*
X138592856Y-77802800D01*
X138234985Y-77563678D01*
X137837341Y-77398969D01*
X137415204Y-77315000D01*
X136984796Y-77315000D01*
X136562659Y-77398969D01*
X136165015Y-77563678D01*
X135807144Y-77802800D01*
X135502800Y-78107144D01*
X135263678Y-78465015D01*
X135098969Y-78862659D01*
X135015000Y-79284796D01*
X135015000Y-79715204D01*
X135098969Y-80137341D01*
X135212872Y-80412327D01*
X135139003Y-80486196D01*
X135138998Y-80486200D01*
X129360200Y-86264999D01*
X124356753Y-86264999D01*
X124427932Y-86093158D01*
X124485000Y-85806260D01*
X124485000Y-85513740D01*
X124427932Y-85226842D01*
X124315990Y-84956589D01*
X124153475Y-84713368D01*
X123946632Y-84506525D01*
X123772240Y-84390000D01*
X123946632Y-84273475D01*
X124153475Y-84066632D01*
X124315990Y-83823411D01*
X124427932Y-83553158D01*
X124485000Y-83266260D01*
X124485000Y-82973740D01*
X124427932Y-82686842D01*
X124315990Y-82416589D01*
X124153475Y-82173368D01*
X123946632Y-81966525D01*
X123772240Y-81850000D01*
X123946632Y-81733475D01*
X124153475Y-81526632D01*
X124315990Y-81283411D01*
X124427932Y-81013158D01*
X124485000Y-80726260D01*
X124485000Y-80433740D01*
X124427932Y-80146842D01*
X124315990Y-79876589D01*
X124153475Y-79633368D01*
X123946632Y-79426525D01*
X123772240Y-79310000D01*
X123809960Y-79284796D01*
X125615000Y-79284796D01*
X125615000Y-79715204D01*
X125698969Y-80137341D01*
X125863678Y-80534985D01*
X126102800Y-80892856D01*
X126407144Y-81197200D01*
X126765015Y-81436322D01*
X127162659Y-81601031D01*
X127584796Y-81685000D01*
X128015204Y-81685000D01*
X128437341Y-81601031D01*
X128834985Y-81436322D01*
X129192856Y-81197200D01*
X129497200Y-80892856D01*
X129736322Y-80534985D01*
X129901031Y-80137341D01*
X129985000Y-79715204D01*
X129985000Y-79284796D01*
X130315000Y-79284796D01*
X130315000Y-79715204D01*
X130398969Y-80137341D01*
X130563678Y-80534985D01*
X130802800Y-80892856D01*
X131107144Y-81197200D01*
X131465015Y-81436322D01*
X131862659Y-81601031D01*
X132284796Y-81685000D01*
X132715204Y-81685000D01*
X133137341Y-81601031D01*
X133534985Y-81436322D01*
X133892856Y-81197200D01*
X134197200Y-80892856D01*
X134436322Y-80534985D01*
X134601031Y-80137341D01*
X134685000Y-79715204D01*
X134685000Y-79284796D01*
X134601031Y-78862659D01*
X134436322Y-78465015D01*
X134197200Y-78107144D01*
X133892856Y-77802800D01*
X133534985Y-77563678D01*
X133137341Y-77398969D01*
X132715204Y-77315000D01*
X132284796Y-77315000D01*
X131862659Y-77398969D01*
X131465015Y-77563678D01*
X131107144Y-77802800D01*
X130802800Y-78107144D01*
X130563678Y-78465015D01*
X130398969Y-78862659D01*
X130315000Y-79284796D01*
X129985000Y-79284796D01*
X129901031Y-78862659D01*
X129736322Y-78465015D01*
X129497200Y-78107144D01*
X129192856Y-77802800D01*
X128834985Y-77563678D01*
X128437341Y-77398969D01*
X128015204Y-77315000D01*
X127584796Y-77315000D01*
X127162659Y-77398969D01*
X126765015Y-77563678D01*
X126407144Y-77802800D01*
X126102800Y-78107144D01*
X125863678Y-78465015D01*
X125698969Y-78862659D01*
X125615000Y-79284796D01*
X123809960Y-79284796D01*
X123946632Y-79193475D01*
X124153475Y-78986632D01*
X124315990Y-78743411D01*
X124427932Y-78473158D01*
X124485000Y-78186260D01*
X124485000Y-77893740D01*
X124427932Y-77606842D01*
X124315990Y-77336589D01*
X124153475Y-77093368D01*
X124021620Y-76961513D01*
X124094180Y-76939502D01*
X124204494Y-76880537D01*
X124301185Y-76801185D01*
X124380537Y-76704494D01*
X124439502Y-76594180D01*
X124475812Y-76474482D01*
X124488072Y-76350000D01*
X124488072Y-74650000D01*
X124475812Y-74525518D01*
X124439502Y-74405820D01*
X124380537Y-74295506D01*
X124301185Y-74198815D01*
X124204494Y-74119463D01*
X124094180Y-74060498D01*
X123974482Y-74024188D01*
X123850000Y-74011928D01*
X122150000Y-74011928D01*
X122025518Y-74024188D01*
X121905820Y-74060498D01*
X121795506Y-74119463D01*
X121698815Y-74198815D01*
X121619463Y-74295506D01*
X121560498Y-74405820D01*
X121524188Y-74525518D01*
X121511928Y-74650000D01*
X121511928Y-74740000D01*
X100064802Y-74740000D01*
X83260000Y-57935199D01*
X83260000Y-56550224D01*
X83534985Y-56436322D01*
X83892856Y-56197200D01*
X84197200Y-55892856D01*
X84436322Y-55534985D01*
X84601031Y-55137341D01*
X84685000Y-54715204D01*
X84685000Y-54284796D01*
X85015000Y-54284796D01*
X85015000Y-54715204D01*
X85098969Y-55137341D01*
X85263678Y-55534985D01*
X85502800Y-55892856D01*
X85807144Y-56197200D01*
X86165015Y-56436322D01*
X86562659Y-56601031D01*
X86984796Y-56685000D01*
X87415204Y-56685000D01*
X87837341Y-56601031D01*
X88234985Y-56436322D01*
X88592856Y-56197200D01*
X88897200Y-55892856D01*
X89136322Y-55534985D01*
X89301031Y-55137341D01*
X89385000Y-54715204D01*
X89385000Y-54284796D01*
X125615000Y-54284796D01*
X125615000Y-54715204D01*
X125698969Y-55137341D01*
X125863678Y-55534985D01*
X126102800Y-55892856D01*
X126407144Y-56197200D01*
X126765015Y-56436322D01*
X127162659Y-56601031D01*
X127584796Y-56685000D01*
X128015204Y-56685000D01*
X128437341Y-56601031D01*
X128834985Y-56436322D01*
X129192856Y-56197200D01*
X129497200Y-55892856D01*
X129736322Y-55534985D01*
X129901031Y-55137341D01*
X129985000Y-54715204D01*
X129985000Y-54284796D01*
X130315000Y-54284796D01*
X130315000Y-54715204D01*
X130398969Y-55137341D01*
X130563678Y-55534985D01*
X130802800Y-55892856D01*
X131107144Y-56197200D01*
X131465015Y-56436322D01*
X131862659Y-56601031D01*
X132284796Y-56685000D01*
X132715204Y-56685000D01*
X133137341Y-56601031D01*
X133534985Y-56436322D01*
X133892856Y-56197200D01*
X134197200Y-55892856D01*
X134436322Y-55534985D01*
X134601031Y-55137341D01*
X134685000Y-54715204D01*
X134685000Y-54284796D01*
X135015000Y-54284796D01*
X135015000Y-54715204D01*
X135098969Y-55137341D01*
X135263678Y-55534985D01*
X135502800Y-55892856D01*
X135807144Y-56197200D01*
X136165015Y-56436322D01*
X136562659Y-56601031D01*
X136984796Y-56685000D01*
X137415204Y-56685000D01*
X137837341Y-56601031D01*
X138234985Y-56436322D01*
X138592856Y-56197200D01*
X138897200Y-55892856D01*
X139136322Y-55534985D01*
X139301031Y-55137341D01*
X139385000Y-54715204D01*
X139385000Y-54284796D01*
X139301031Y-53862659D01*
X139136322Y-53465015D01*
X138897200Y-53107144D01*
X138592856Y-52802800D01*
X138234985Y-52563678D01*
X137837341Y-52398969D01*
X137415204Y-52315000D01*
X136984796Y-52315000D01*
X136562659Y-52398969D01*
X136165015Y-52563678D01*
X135807144Y-52802800D01*
X135502800Y-53107144D01*
X135263678Y-53465015D01*
X135098969Y-53862659D01*
X135015000Y-54284796D01*
X134685000Y-54284796D01*
X134601031Y-53862659D01*
X134436322Y-53465015D01*
X134197200Y-53107144D01*
X133892856Y-52802800D01*
X133534985Y-52563678D01*
X133137341Y-52398969D01*
X132715204Y-52315000D01*
X132284796Y-52315000D01*
X131862659Y-52398969D01*
X131465015Y-52563678D01*
X131107144Y-52802800D01*
X130802800Y-53107144D01*
X130563678Y-53465015D01*
X130398969Y-53862659D01*
X130315000Y-54284796D01*
X129985000Y-54284796D01*
X129901031Y-53862659D01*
X129736322Y-53465015D01*
X129497200Y-53107144D01*
X129192856Y-52802800D01*
X128834985Y-52563678D01*
X128437341Y-52398969D01*
X128015204Y-52315000D01*
X127584796Y-52315000D01*
X127162659Y-52398969D01*
X126765015Y-52563678D01*
X126407144Y-52802800D01*
X126102800Y-53107144D01*
X125863678Y-53465015D01*
X125698969Y-53862659D01*
X125615000Y-54284796D01*
X89385000Y-54284796D01*
X89301031Y-53862659D01*
X89136322Y-53465015D01*
X88897200Y-53107144D01*
X88592856Y-52802800D01*
X88234985Y-52563678D01*
X87837341Y-52398969D01*
X87415204Y-52315000D01*
X86984796Y-52315000D01*
X86562659Y-52398969D01*
X86165015Y-52563678D01*
X85807144Y-52802800D01*
X85502800Y-53107144D01*
X85263678Y-53465015D01*
X85098969Y-53862659D01*
X85015000Y-54284796D01*
X84685000Y-54284796D01*
X84601031Y-53862659D01*
X84436322Y-53465015D01*
X84197200Y-53107144D01*
X83892856Y-52802800D01*
X83534985Y-52563678D01*
X83137341Y-52398969D01*
X82715204Y-52315000D01*
X82284796Y-52315000D01*
X81862659Y-52398969D01*
X81465015Y-52563678D01*
X81107144Y-52802800D01*
X80802800Y-53107144D01*
X80563678Y-53465015D01*
X80398969Y-53862659D01*
X80315000Y-54284796D01*
X80315000Y-54715204D01*
X80398969Y-55137341D01*
X80563678Y-55534985D01*
X80802800Y-55892856D01*
X81107144Y-56197200D01*
X81465015Y-56436322D01*
X81740001Y-56550224D01*
X81740001Y-57365200D01*
X79787128Y-55412327D01*
X79901031Y-55137341D01*
X79985000Y-54715204D01*
X79985000Y-54284796D01*
X79901031Y-53862659D01*
X79736322Y-53465015D01*
X79497200Y-53107144D01*
X79192856Y-52802800D01*
X78834985Y-52563678D01*
X78437341Y-52398969D01*
X78015204Y-52315000D01*
X77584796Y-52315000D01*
X77162659Y-52398969D01*
X76765015Y-52563678D01*
X76407144Y-52802800D01*
X76102800Y-53107144D01*
X75863678Y-53465015D01*
X75698969Y-53862659D01*
X75615000Y-54284796D01*
X68660000Y-54284796D01*
X68660000Y-44660000D01*
X143340000Y-44660000D01*
X143340001Y-139340000D01*
G37*
X143340001Y-139340000D02*
X68660000Y-139340000D01*
X68660000Y-116777902D01*
X75445000Y-116777902D01*
X75445000Y-117222098D01*
X75531658Y-117657759D01*
X75701645Y-118068143D01*
X75948427Y-118437479D01*
X76262521Y-118751573D01*
X76631857Y-118998355D01*
X77042241Y-119168342D01*
X77477902Y-119255000D01*
X77922098Y-119255000D01*
X78357759Y-119168342D01*
X78768143Y-118998355D01*
X79137479Y-118751573D01*
X79451573Y-118437479D01*
X79698355Y-118068143D01*
X79868342Y-117657759D01*
X79955000Y-117222098D01*
X79955000Y-116777902D01*
X79868342Y-116342241D01*
X79698355Y-115931857D01*
X79451573Y-115562521D01*
X79137479Y-115248427D01*
X78768143Y-115001645D01*
X78357759Y-114831658D01*
X77922098Y-114745000D01*
X77477902Y-114745000D01*
X77042241Y-114831658D01*
X76631857Y-115001645D01*
X76262521Y-115248427D01*
X75948427Y-115562521D01*
X75701645Y-115931857D01*
X75531658Y-116342241D01*
X75445000Y-116777902D01*
X68660000Y-116777902D01*
X68660000Y-91779872D01*
X72765000Y-91779872D01*
X72765000Y-92220128D01*
X72850890Y-92651925D01*
X73019369Y-93058669D01*
X73263962Y-93424729D01*
X73575271Y-93736038D01*
X73941331Y-93980631D01*
X74348075Y-94149110D01*
X74779872Y-94235000D01*
X75220128Y-94235000D01*
X75651925Y-94149110D01*
X76058669Y-93980631D01*
X76424729Y-93736038D01*
X76736038Y-93424729D01*
X76980631Y-93058669D01*
X77149110Y-92651925D01*
X77235000Y-92220128D01*
X77235000Y-91779872D01*
X77149110Y-91348075D01*
X76980631Y-90941331D01*
X76736038Y-90575271D01*
X76424729Y-90263962D01*
X76058669Y-90019369D01*
X75651925Y-89850890D01*
X75220128Y-89765000D01*
X74779872Y-89765000D01*
X74348075Y-89850890D01*
X73941331Y-90019369D01*
X73575271Y-90263962D01*
X73263962Y-90575271D01*
X73019369Y-90941331D01*
X72850890Y-91348075D01*
X72765000Y-91779872D01*
X68660000Y-91779872D01*
X68660000Y-81027251D01*
X76452354Y-81027251D01*
X76614381Y-81347930D01*
X76997675Y-81543725D01*
X77411803Y-81660981D01*
X77840848Y-81695192D01*
X78268324Y-81645042D01*
X78677802Y-81512461D01*
X78985619Y-81347930D01*
X79147646Y-81027251D01*
X77800000Y-79679605D01*
X76452354Y-81027251D01*
X68660000Y-81027251D01*
X68660000Y-79540848D01*
X75604808Y-79540848D01*
X75654958Y-79968324D01*
X75787539Y-80377802D01*
X75952070Y-80685619D01*
X76272749Y-80847646D01*
X77620395Y-79500000D01*
X77979605Y-79500000D01*
X79327251Y-80847646D01*
X79647930Y-80685619D01*
X79843725Y-80302325D01*
X79960981Y-79888197D01*
X79995192Y-79459152D01*
X79974738Y-79284796D01*
X80315000Y-79284796D01*
X80315000Y-79715204D01*
X80398969Y-80137341D01*
X80563678Y-80534985D01*
X80802800Y-80892856D01*
X81107144Y-81197200D01*
X81465015Y-81436322D01*
X81862659Y-81601031D01*
X82284796Y-81685000D01*
X82715204Y-81685000D01*
X83137341Y-81601031D01*
X83534985Y-81436322D01*
X83892856Y-81197200D01*
X84197200Y-80892856D01*
X84436322Y-80534985D01*
X84601031Y-80137341D01*
X84685000Y-79715204D01*
X84685000Y-79284796D01*
X85015000Y-79284796D01*
X85015000Y-79715204D01*
X85098969Y-80137341D01*
X85263678Y-80534985D01*
X85502800Y-80892856D01*
X85807144Y-81197200D01*
X86165015Y-81436322D01*
X86562659Y-81601031D01*
X86984796Y-81685000D01*
X87415204Y-81685000D01*
X87837341Y-81601031D01*
X88234985Y-81436322D01*
X88592856Y-81197200D01*
X88897200Y-80892856D01*
X89136322Y-80534985D01*
X89301031Y-80137341D01*
X89385000Y-79715204D01*
X89385000Y-79284796D01*
X89301031Y-78862659D01*
X89136322Y-78465015D01*
X88897200Y-78107144D01*
X88592856Y-77802800D01*
X88234985Y-77563678D01*
X87837341Y-77398969D01*
X87415204Y-77315000D01*
X86984796Y-77315000D01*
X86562659Y-77398969D01*
X86165015Y-77563678D01*
X85807144Y-77802800D01*
X85502800Y-78107144D01*
X85263678Y-78465015D01*
X85098969Y-78862659D01*
X85015000Y-79284796D01*
X84685000Y-79284796D01*
X84601031Y-78862659D01*
X84436322Y-78465015D01*
X84197200Y-78107144D01*
X83892856Y-77802800D01*
X83534985Y-77563678D01*
X83137341Y-77398969D01*
X82715204Y-77315000D01*
X82284796Y-77315000D01*
X81862659Y-77398969D01*
X81465015Y-77563678D01*
X81107144Y-77802800D01*
X80802800Y-78107144D01*
X80563678Y-78465015D01*
X80398969Y-78862659D01*
X80315000Y-79284796D01*
X79974738Y-79284796D01*
X79945042Y-79031676D01*
X79812461Y-78622198D01*
X79647930Y-78314381D01*
X79327251Y-78152354D01*
X77979605Y-79500000D01*
X77620395Y-79500000D01*
X76272749Y-78152354D01*
X75952070Y-78314381D01*
X75756275Y-78697675D01*
X75639019Y-79111803D01*
X75604808Y-79540848D01*
X68660000Y-79540848D01*
X68660000Y-77972749D01*
X76452354Y-77972749D01*
X77800000Y-79320395D01*
X79147646Y-77972749D01*
X78985619Y-77652070D01*
X78602325Y-77456275D01*
X78188197Y-77339019D01*
X77759152Y-77304808D01*
X77331676Y-77354958D01*
X76922198Y-77487539D01*
X76614381Y-77652070D01*
X76452354Y-77972749D01*
X68660000Y-77972749D01*
X68660000Y-54284796D01*
X75615000Y-54284796D01*
X75615000Y-54715204D01*
X75698969Y-55137341D01*
X75863678Y-55534985D01*
X76102800Y-55892856D01*
X76407144Y-56197200D01*
X76765015Y-56436322D01*
X77162659Y-56601031D01*
X77584796Y-56685000D01*
X78015204Y-56685000D01*
X78437341Y-56601031D01*
X78712327Y-56487128D01*
X98736200Y-76511002D01*
X98759999Y-76540001D01*
X98788997Y-76563799D01*
X98875724Y-76634974D01*
X99007753Y-76705546D01*
X99151014Y-76749003D01*
X99300000Y-76763677D01*
X99337333Y-76760000D01*
X120645199Y-76760000D01*
X121558790Y-77673592D01*
X121515000Y-77893740D01*
X121515000Y-78186260D01*
X121572068Y-78473158D01*
X121684010Y-78743411D01*
X121846525Y-78986632D01*
X122053368Y-79193475D01*
X122227760Y-79310000D01*
X122053368Y-79426525D01*
X121846525Y-79633368D01*
X121721822Y-79820000D01*
X119835242Y-79820000D01*
X119797919Y-79816324D01*
X119760596Y-79820000D01*
X119760586Y-79820000D01*
X119648933Y-79830997D01*
X119505672Y-79874454D01*
X119373642Y-79945026D01*
X119345254Y-79968324D01*
X119257918Y-80039999D01*
X119234120Y-80068997D01*
X81988998Y-117314120D01*
X81960000Y-117337918D01*
X81936202Y-117366916D01*
X81936201Y-117366917D01*
X81865026Y-117453643D01*
X81794454Y-117585673D01*
X81750998Y-117728934D01*
X81736324Y-117877919D01*
X81740001Y-117915251D01*
X81740000Y-123161687D01*
X81521495Y-123307688D01*
X81483880Y-123345303D01*
X81430537Y-123245506D01*
X81351185Y-123148815D01*
X81254494Y-123069463D01*
X81144180Y-123010498D01*
X81024482Y-122974188D01*
X80900000Y-122961928D01*
X79100000Y-122961928D01*
X78975518Y-122974188D01*
X78855820Y-123010498D01*
X78745506Y-123069463D01*
X78648815Y-123148815D01*
X78569463Y-123245506D01*
X78510498Y-123355820D01*
X78474188Y-123475518D01*
X78461928Y-123600000D01*
X78461928Y-125400000D01*
X78474188Y-125524482D01*
X78510498Y-125644180D01*
X78569463Y-125754494D01*
X78648815Y-125851185D01*
X78745506Y-125930537D01*
X78855820Y-125989502D01*
X78975518Y-126025812D01*
X79100000Y-126038072D01*
X80900000Y-126038072D01*
X81024482Y-126025812D01*
X81144180Y-125989502D01*
X81254494Y-125930537D01*
X81351185Y-125851185D01*
X81430537Y-125754494D01*
X81483880Y-125654697D01*
X81521495Y-125692312D01*
X81772905Y-125860299D01*
X82052257Y-125976011D01*
X82348816Y-126035000D01*
X82651184Y-126035000D01*
X82947743Y-125976011D01*
X83227095Y-125860299D01*
X83478505Y-125692312D01*
X83692312Y-125478505D01*
X83750000Y-125392169D01*
X83807688Y-125478505D01*
X84021495Y-125692312D01*
X84272905Y-125860299D01*
X84552257Y-125976011D01*
X84848816Y-126035000D01*
X85151184Y-126035000D01*
X85447743Y-125976011D01*
X85727095Y-125860299D01*
X85978505Y-125692312D01*
X86192312Y-125478505D01*
X86360299Y-125227095D01*
X86476011Y-124947743D01*
X86535000Y-124651184D01*
X86535000Y-124348816D01*
X86476011Y-124052257D01*
X86360299Y-123772905D01*
X86192312Y-123521495D01*
X85978505Y-123307688D01*
X85760000Y-123161687D01*
X85760000Y-118649052D01*
X85862521Y-118751573D01*
X86231857Y-118998355D01*
X86642241Y-119168342D01*
X87077902Y-119255000D01*
X87522098Y-119255000D01*
X87957759Y-119168342D01*
X88368143Y-118998355D01*
X88737479Y-118751573D01*
X89051573Y-118437479D01*
X89298355Y-118068143D01*
X89468342Y-117657759D01*
X89555000Y-117222098D01*
X89555000Y-116777902D01*
X125295000Y-116777902D01*
X125295000Y-117222098D01*
X125381658Y-117657759D01*
X125551645Y-118068143D01*
X125798427Y-118437479D01*
X126112521Y-118751573D01*
X126481857Y-118998355D01*
X126892241Y-119168342D01*
X127327902Y-119255000D01*
X127772098Y-119255000D01*
X128207759Y-119168342D01*
X128618143Y-118998355D01*
X128987479Y-118751573D01*
X129301573Y-118437479D01*
X129548355Y-118068143D01*
X129718342Y-117657759D01*
X129805000Y-117222098D01*
X129805000Y-116777902D01*
X134895000Y-116777902D01*
X134895000Y-117222098D01*
X134981658Y-117657759D01*
X135151645Y-118068143D01*
X135398427Y-118437479D01*
X135712521Y-118751573D01*
X136081857Y-118998355D01*
X136492241Y-119168342D01*
X136927902Y-119255000D01*
X137372098Y-119255000D01*
X137807759Y-119168342D01*
X138218143Y-118998355D01*
X138587479Y-118751573D01*
X138901573Y-118437479D01*
X139148355Y-118068143D01*
X139318342Y-117657759D01*
X139405000Y-117222098D01*
X139405000Y-116777902D01*
X139318342Y-116342241D01*
X139148355Y-115931857D01*
X138901573Y-115562521D01*
X138587479Y-115248427D01*
X138218143Y-115001645D01*
X137807759Y-114831658D01*
X137372098Y-114745000D01*
X136927902Y-114745000D01*
X136492241Y-114831658D01*
X136081857Y-115001645D01*
X135712521Y-115248427D01*
X135398427Y-115562521D01*
X135151645Y-115931857D01*
X134981658Y-116342241D01*
X134895000Y-116777902D01*
X129805000Y-116777902D01*
X129718342Y-116342241D01*
X129548355Y-115931857D01*
X129301573Y-115562521D01*
X128987479Y-115248427D01*
X128618143Y-115001645D01*
X128207759Y-114831658D01*
X127772098Y-114745000D01*
X127327902Y-114745000D01*
X126892241Y-114831658D01*
X126481857Y-115001645D01*
X126112521Y-115248427D01*
X125798427Y-115562521D01*
X125551645Y-115931857D01*
X125381658Y-116342241D01*
X125295000Y-116777902D01*
X89555000Y-116777902D01*
X89468342Y-116342241D01*
X89298355Y-115931857D01*
X89051573Y-115562521D01*
X88737479Y-115248427D01*
X88368143Y-115001645D01*
X87957759Y-114831658D01*
X87713189Y-114783010D01*
X93619309Y-108876890D01*
X121558524Y-108876890D01*
X121603175Y-109024099D01*
X121728359Y-109286920D01*
X121902412Y-109520269D01*
X122118645Y-109715178D01*
X122368748Y-109864157D01*
X122643109Y-109961481D01*
X122873000Y-109840814D01*
X122873000Y-108647000D01*
X123127000Y-108647000D01*
X123127000Y-109840814D01*
X123356891Y-109961481D01*
X123631252Y-109864157D01*
X123881355Y-109715178D01*
X124097588Y-109520269D01*
X124271641Y-109286920D01*
X124396825Y-109024099D01*
X124441476Y-108876890D01*
X124320155Y-108647000D01*
X123127000Y-108647000D01*
X122873000Y-108647000D01*
X121679845Y-108647000D01*
X121558524Y-108876890D01*
X93619309Y-108876890D01*
X118616200Y-83880000D01*
X121721822Y-83880000D01*
X121846525Y-84066632D01*
X122053368Y-84273475D01*
X122227760Y-84390000D01*
X122053368Y-84506525D01*
X121846525Y-84713368D01*
X121684010Y-84956589D01*
X121572068Y-85226842D01*
X121515000Y-85513740D01*
X121515000Y-85806260D01*
X121572068Y-86093158D01*
X121684010Y-86363411D01*
X121819704Y-86566491D01*
X121313996Y-87072201D01*
X121284999Y-87095998D01*
X121261201Y-87124996D01*
X121261200Y-87124997D01*
X121190025Y-87211723D01*
X121119453Y-87343753D01*
X121091373Y-87436324D01*
X121087445Y-87449275D01*
X121075997Y-87487014D01*
X121061323Y-87635999D01*
X121065000Y-87673331D01*
X121064999Y-89527676D01*
X121061323Y-89564999D01*
X121064999Y-89602321D01*
X121064999Y-89602331D01*
X121075996Y-89713984D01*
X121105931Y-89812667D01*
X121119453Y-89857245D01*
X121190025Y-89989275D01*
X121214723Y-90019369D01*
X121284998Y-90105000D01*
X121314002Y-90128803D01*
X121558791Y-90373592D01*
X121515000Y-90593740D01*
X121515000Y-90886260D01*
X121572068Y-91173158D01*
X121684010Y-91443411D01*
X121846525Y-91686632D01*
X122053368Y-91893475D01*
X122227760Y-92010000D01*
X122053368Y-92126525D01*
X121846525Y-92333368D01*
X121684010Y-92576589D01*
X121572068Y-92846842D01*
X121515000Y-93133740D01*
X121515000Y-93426260D01*
X121572068Y-93713158D01*
X121684010Y-93983411D01*
X121846525Y-94226632D01*
X122053368Y-94433475D01*
X122227760Y-94550000D01*
X122053368Y-94666525D01*
X121846525Y-94873368D01*
X121684010Y-95116589D01*
X121572068Y-95386842D01*
X121515000Y-95673740D01*
X121515000Y-95966260D01*
X121572068Y-96253158D01*
X121684010Y-96523411D01*
X121846525Y-96766632D01*
X122053368Y-96973475D01*
X122227760Y-97090000D01*
X122053368Y-97206525D01*
X121846525Y-97413368D01*
X121684010Y-97656589D01*
X121572068Y-97926842D01*
X121515000Y-98213740D01*
X121515000Y-98506260D01*
X121572068Y-98793158D01*
X121684010Y-99063411D01*
X121846525Y-99306632D01*
X122053368Y-99513475D01*
X122227760Y-99630000D01*
X122053368Y-99746525D01*
X121846525Y-99953368D01*
X121684010Y-100196589D01*
X121572068Y-100466842D01*
X121515000Y-100753740D01*
X121515000Y-101046260D01*
X121572068Y-101333158D01*
X121684010Y-101603411D01*
X121846525Y-101846632D01*
X122053368Y-102053475D01*
X122227760Y-102170000D01*
X122053368Y-102286525D01*
X121846525Y-102493368D01*
X121684010Y-102736589D01*
X121572068Y-103006842D01*
X121515000Y-103293740D01*
X121515000Y-103586260D01*
X121572068Y-103873158D01*
X121684010Y-104143411D01*
X121846525Y-104386632D01*
X122053368Y-104593475D01*
X122227760Y-104710000D01*
X122053368Y-104826525D01*
X121846525Y-105033368D01*
X121684010Y-105276589D01*
X121572068Y-105546842D01*
X121515000Y-105833740D01*
X121515000Y-106126260D01*
X121572068Y-106413158D01*
X121684010Y-106683411D01*
X121846525Y-106926632D01*
X122053368Y-107133475D01*
X122235534Y-107255195D01*
X122118645Y-107324822D01*
X121902412Y-107519731D01*
X121728359Y-107753080D01*
X121603175Y-108015901D01*
X121558524Y-108163110D01*
X121679845Y-108393000D01*
X122873000Y-108393000D01*
X122873000Y-108373000D01*
X123127000Y-108373000D01*
X123127000Y-108393000D01*
X124320155Y-108393000D01*
X124441476Y-108163110D01*
X124396825Y-108015901D01*
X124271641Y-107753080D01*
X124097588Y-107519731D01*
X123881355Y-107324822D01*
X123764466Y-107255195D01*
X123946632Y-107133475D01*
X124153475Y-106926632D01*
X124315990Y-106683411D01*
X124427932Y-106413158D01*
X124485000Y-106126260D01*
X124485000Y-105833740D01*
X124427932Y-105546842D01*
X124315990Y-105276589D01*
X124153475Y-105033368D01*
X123946632Y-104826525D01*
X123772240Y-104710000D01*
X123946632Y-104593475D01*
X124153475Y-104386632D01*
X124315990Y-104143411D01*
X124427932Y-103873158D01*
X124485000Y-103586260D01*
X124485000Y-103293740D01*
X124427932Y-103006842D01*
X124315990Y-102736589D01*
X124153475Y-102493368D01*
X123946632Y-102286525D01*
X123772240Y-102170000D01*
X123946632Y-102053475D01*
X124153475Y-101846632D01*
X124315990Y-101603411D01*
X124427932Y-101333158D01*
X124485000Y-101046260D01*
X124485000Y-100753740D01*
X124427932Y-100466842D01*
X124315990Y-100196589D01*
X124153475Y-99953368D01*
X123946632Y-99746525D01*
X123772240Y-99630000D01*
X123946632Y-99513475D01*
X124153475Y-99306632D01*
X124315990Y-99063411D01*
X124427932Y-98793158D01*
X124485000Y-98506260D01*
X124485000Y-98213740D01*
X124427932Y-97926842D01*
X124315990Y-97656589D01*
X124153475Y-97413368D01*
X123946632Y-97206525D01*
X123772240Y-97090000D01*
X123946632Y-96973475D01*
X124153475Y-96766632D01*
X124315990Y-96523411D01*
X124427932Y-96253158D01*
X124485000Y-95966260D01*
X124485000Y-95839801D01*
X131740001Y-103094803D01*
X131740000Y-108091198D01*
X131622905Y-108139701D01*
X131371495Y-108307688D01*
X131157688Y-108521495D01*
X131100000Y-108607831D01*
X131042312Y-108521495D01*
X130828505Y-108307688D01*
X130577095Y-108139701D01*
X130297743Y-108023989D01*
X130001184Y-107965000D01*
X129698816Y-107965000D01*
X129402257Y-108023989D01*
X129122905Y-108139701D01*
X128871495Y-108307688D01*
X128657688Y-108521495D01*
X128489701Y-108772905D01*
X128373989Y-109052257D01*
X128315000Y-109348816D01*
X128315000Y-109651184D01*
X128373989Y-109947743D01*
X128489701Y-110227095D01*
X128657688Y-110478505D01*
X128871495Y-110692312D01*
X129122905Y-110860299D01*
X129402257Y-110976011D01*
X129698816Y-111035000D01*
X130001184Y-111035000D01*
X130297743Y-110976011D01*
X130577095Y-110860299D01*
X130828505Y-110692312D01*
X131042312Y-110478505D01*
X131100000Y-110392169D01*
X131157688Y-110478505D01*
X131371495Y-110692312D01*
X131622905Y-110860299D01*
X131902257Y-110976011D01*
X132198816Y-111035000D01*
X132501184Y-111035000D01*
X132797743Y-110976011D01*
X133077095Y-110860299D01*
X133328505Y-110692312D01*
X133366120Y-110654697D01*
X133419463Y-110754494D01*
X133498815Y-110851185D01*
X133595506Y-110930537D01*
X133705820Y-110989502D01*
X133825518Y-111025812D01*
X133950000Y-111038072D01*
X135750000Y-111038072D01*
X135874482Y-111025812D01*
X135994180Y-110989502D01*
X136104494Y-110930537D01*
X136201185Y-110851185D01*
X136280537Y-110754494D01*
X136339502Y-110644180D01*
X136375812Y-110524482D01*
X136388072Y-110400000D01*
X136388072Y-108600000D01*
X136375812Y-108475518D01*
X136339502Y-108355820D01*
X136280537Y-108245506D01*
X136201185Y-108148815D01*
X136104494Y-108069463D01*
X135994180Y-108010498D01*
X135874482Y-107974188D01*
X135750000Y-107961928D01*
X134386729Y-107961928D01*
X133760000Y-107335199D01*
X133760000Y-102537322D01*
X133763676Y-102499999D01*
X133760000Y-102462676D01*
X133760000Y-102462667D01*
X133749003Y-102351014D01*
X133705546Y-102207753D01*
X133634974Y-102075724D01*
X133540001Y-101959999D01*
X133511003Y-101936201D01*
X125410000Y-93835199D01*
X125410000Y-91779872D01*
X135765000Y-91779872D01*
X135765000Y-92220128D01*
X135850890Y-92651925D01*
X136019369Y-93058669D01*
X136263962Y-93424729D01*
X136575271Y-93736038D01*
X136941331Y-93980631D01*
X137348075Y-94149110D01*
X137779872Y-94235000D01*
X138220128Y-94235000D01*
X138651925Y-94149110D01*
X139058669Y-93980631D01*
X139424729Y-93736038D01*
X139736038Y-93424729D01*
X139980631Y-93058669D01*
X140149110Y-92651925D01*
X140235000Y-92220128D01*
X140235000Y-91779872D01*
X140149110Y-91348075D01*
X139980631Y-90941331D01*
X139736038Y-90575271D01*
X139424729Y-90263962D01*
X139058669Y-90019369D01*
X138651925Y-89850890D01*
X138220128Y-89765000D01*
X137779872Y-89765000D01*
X137348075Y-89850890D01*
X136941331Y-90019369D01*
X136575271Y-90263962D01*
X136263962Y-90575271D01*
X136019369Y-90941331D01*
X135850890Y-91348075D01*
X135765000Y-91779872D01*
X125410000Y-91779872D01*
X125410000Y-89887322D01*
X125413676Y-89849999D01*
X125410000Y-89812676D01*
X125410000Y-89812667D01*
X125399003Y-89701014D01*
X125355546Y-89557753D01*
X125284974Y-89425724D01*
X125225681Y-89353475D01*
X125213799Y-89338996D01*
X125213795Y-89338992D01*
X125190001Y-89309999D01*
X125161008Y-89286205D01*
X124441210Y-88566408D01*
X124485000Y-88346260D01*
X124485000Y-88053740D01*
X124431544Y-87784999D01*
X129637679Y-87784999D01*
X129675001Y-87788675D01*
X129712323Y-87784999D01*
X129712334Y-87784999D01*
X129823987Y-87774002D01*
X129967248Y-87730545D01*
X130099277Y-87659973D01*
X130215002Y-87565000D01*
X130238805Y-87535996D01*
X136213800Y-81561002D01*
X136213804Y-81560997D01*
X136287673Y-81487128D01*
X136562659Y-81601031D01*
X136984796Y-81685000D01*
X137415204Y-81685000D01*
X137837341Y-81601031D01*
X138234985Y-81436322D01*
X138592856Y-81197200D01*
X138897200Y-80892856D01*
X139136322Y-80534985D01*
X139301031Y-80137341D01*
X139385000Y-79715204D01*
X139385000Y-79284796D01*
X139301031Y-78862659D01*
X139136322Y-78465015D01*
X138897200Y-78107144D01*
X138592856Y-77802800D01*
X138234985Y-77563678D01*
X137837341Y-77398969D01*
X137415204Y-77315000D01*
X136984796Y-77315000D01*
X136562659Y-77398969D01*
X136165015Y-77563678D01*
X135807144Y-77802800D01*
X135502800Y-78107144D01*
X135263678Y-78465015D01*
X135098969Y-78862659D01*
X135015000Y-79284796D01*
X135015000Y-79715204D01*
X135098969Y-80137341D01*
X135212872Y-80412327D01*
X135139003Y-80486196D01*
X135138998Y-80486200D01*
X129360200Y-86264999D01*
X124356753Y-86264999D01*
X124427932Y-86093158D01*
X124485000Y-85806260D01*
X124485000Y-85513740D01*
X124427932Y-85226842D01*
X124315990Y-84956589D01*
X124153475Y-84713368D01*
X123946632Y-84506525D01*
X123772240Y-84390000D01*
X123946632Y-84273475D01*
X124153475Y-84066632D01*
X124315990Y-83823411D01*
X124427932Y-83553158D01*
X124485000Y-83266260D01*
X124485000Y-82973740D01*
X124427932Y-82686842D01*
X124315990Y-82416589D01*
X124153475Y-82173368D01*
X123946632Y-81966525D01*
X123772240Y-81850000D01*
X123946632Y-81733475D01*
X124153475Y-81526632D01*
X124315990Y-81283411D01*
X124427932Y-81013158D01*
X124485000Y-80726260D01*
X124485000Y-80433740D01*
X124427932Y-80146842D01*
X124315990Y-79876589D01*
X124153475Y-79633368D01*
X123946632Y-79426525D01*
X123772240Y-79310000D01*
X123809960Y-79284796D01*
X125615000Y-79284796D01*
X125615000Y-79715204D01*
X125698969Y-80137341D01*
X125863678Y-80534985D01*
X126102800Y-80892856D01*
X126407144Y-81197200D01*
X126765015Y-81436322D01*
X127162659Y-81601031D01*
X127584796Y-81685000D01*
X128015204Y-81685000D01*
X128437341Y-81601031D01*
X128834985Y-81436322D01*
X129192856Y-81197200D01*
X129497200Y-80892856D01*
X129736322Y-80534985D01*
X129901031Y-80137341D01*
X129985000Y-79715204D01*
X129985000Y-79284796D01*
X130315000Y-79284796D01*
X130315000Y-79715204D01*
X130398969Y-80137341D01*
X130563678Y-80534985D01*
X130802800Y-80892856D01*
X131107144Y-81197200D01*
X131465015Y-81436322D01*
X131862659Y-81601031D01*
X132284796Y-81685000D01*
X132715204Y-81685000D01*
X133137341Y-81601031D01*
X133534985Y-81436322D01*
X133892856Y-81197200D01*
X134197200Y-80892856D01*
X134436322Y-80534985D01*
X134601031Y-80137341D01*
X134685000Y-79715204D01*
X134685000Y-79284796D01*
X134601031Y-78862659D01*
X134436322Y-78465015D01*
X134197200Y-78107144D01*
X133892856Y-77802800D01*
X133534985Y-77563678D01*
X133137341Y-77398969D01*
X132715204Y-77315000D01*
X132284796Y-77315000D01*
X131862659Y-77398969D01*
X131465015Y-77563678D01*
X131107144Y-77802800D01*
X130802800Y-78107144D01*
X130563678Y-78465015D01*
X130398969Y-78862659D01*
X130315000Y-79284796D01*
X129985000Y-79284796D01*
X129901031Y-78862659D01*
X129736322Y-78465015D01*
X129497200Y-78107144D01*
X129192856Y-77802800D01*
X128834985Y-77563678D01*
X128437341Y-77398969D01*
X128015204Y-77315000D01*
X127584796Y-77315000D01*
X127162659Y-77398969D01*
X126765015Y-77563678D01*
X126407144Y-77802800D01*
X126102800Y-78107144D01*
X125863678Y-78465015D01*
X125698969Y-78862659D01*
X125615000Y-79284796D01*
X123809960Y-79284796D01*
X123946632Y-79193475D01*
X124153475Y-78986632D01*
X124315990Y-78743411D01*
X124427932Y-78473158D01*
X124485000Y-78186260D01*
X124485000Y-77893740D01*
X124427932Y-77606842D01*
X124315990Y-77336589D01*
X124153475Y-77093368D01*
X124021620Y-76961513D01*
X124094180Y-76939502D01*
X124204494Y-76880537D01*
X124301185Y-76801185D01*
X124380537Y-76704494D01*
X124439502Y-76594180D01*
X124475812Y-76474482D01*
X124488072Y-76350000D01*
X124488072Y-74650000D01*
X124475812Y-74525518D01*
X124439502Y-74405820D01*
X124380537Y-74295506D01*
X124301185Y-74198815D01*
X124204494Y-74119463D01*
X124094180Y-74060498D01*
X123974482Y-74024188D01*
X123850000Y-74011928D01*
X122150000Y-74011928D01*
X122025518Y-74024188D01*
X121905820Y-74060498D01*
X121795506Y-74119463D01*
X121698815Y-74198815D01*
X121619463Y-74295506D01*
X121560498Y-74405820D01*
X121524188Y-74525518D01*
X121511928Y-74650000D01*
X121511928Y-74740000D01*
X100064802Y-74740000D01*
X83260000Y-57935199D01*
X83260000Y-56550224D01*
X83534985Y-56436322D01*
X83892856Y-56197200D01*
X84197200Y-55892856D01*
X84436322Y-55534985D01*
X84601031Y-55137341D01*
X84685000Y-54715204D01*
X84685000Y-54284796D01*
X85015000Y-54284796D01*
X85015000Y-54715204D01*
X85098969Y-55137341D01*
X85263678Y-55534985D01*
X85502800Y-55892856D01*
X85807144Y-56197200D01*
X86165015Y-56436322D01*
X86562659Y-56601031D01*
X86984796Y-56685000D01*
X87415204Y-56685000D01*
X87837341Y-56601031D01*
X88234985Y-56436322D01*
X88592856Y-56197200D01*
X88897200Y-55892856D01*
X89136322Y-55534985D01*
X89301031Y-55137341D01*
X89385000Y-54715204D01*
X89385000Y-54284796D01*
X125615000Y-54284796D01*
X125615000Y-54715204D01*
X125698969Y-55137341D01*
X125863678Y-55534985D01*
X126102800Y-55892856D01*
X126407144Y-56197200D01*
X126765015Y-56436322D01*
X127162659Y-56601031D01*
X127584796Y-56685000D01*
X128015204Y-56685000D01*
X128437341Y-56601031D01*
X128834985Y-56436322D01*
X129192856Y-56197200D01*
X129497200Y-55892856D01*
X129736322Y-55534985D01*
X129901031Y-55137341D01*
X129985000Y-54715204D01*
X129985000Y-54284796D01*
X130315000Y-54284796D01*
X130315000Y-54715204D01*
X130398969Y-55137341D01*
X130563678Y-55534985D01*
X130802800Y-55892856D01*
X131107144Y-56197200D01*
X131465015Y-56436322D01*
X131862659Y-56601031D01*
X132284796Y-56685000D01*
X132715204Y-56685000D01*
X133137341Y-56601031D01*
X133534985Y-56436322D01*
X133892856Y-56197200D01*
X134197200Y-55892856D01*
X134436322Y-55534985D01*
X134601031Y-55137341D01*
X134685000Y-54715204D01*
X134685000Y-54284796D01*
X135015000Y-54284796D01*
X135015000Y-54715204D01*
X135098969Y-55137341D01*
X135263678Y-55534985D01*
X135502800Y-55892856D01*
X135807144Y-56197200D01*
X136165015Y-56436322D01*
X136562659Y-56601031D01*
X136984796Y-56685000D01*
X137415204Y-56685000D01*
X137837341Y-56601031D01*
X138234985Y-56436322D01*
X138592856Y-56197200D01*
X138897200Y-55892856D01*
X139136322Y-55534985D01*
X139301031Y-55137341D01*
X139385000Y-54715204D01*
X139385000Y-54284796D01*
X139301031Y-53862659D01*
X139136322Y-53465015D01*
X138897200Y-53107144D01*
X138592856Y-52802800D01*
X138234985Y-52563678D01*
X137837341Y-52398969D01*
X137415204Y-52315000D01*
X136984796Y-52315000D01*
X136562659Y-52398969D01*
X136165015Y-52563678D01*
X135807144Y-52802800D01*
X135502800Y-53107144D01*
X135263678Y-53465015D01*
X135098969Y-53862659D01*
X135015000Y-54284796D01*
X134685000Y-54284796D01*
X134601031Y-53862659D01*
X134436322Y-53465015D01*
X134197200Y-53107144D01*
X133892856Y-52802800D01*
X133534985Y-52563678D01*
X133137341Y-52398969D01*
X132715204Y-52315000D01*
X132284796Y-52315000D01*
X131862659Y-52398969D01*
X131465015Y-52563678D01*
X131107144Y-52802800D01*
X130802800Y-53107144D01*
X130563678Y-53465015D01*
X130398969Y-53862659D01*
X130315000Y-54284796D01*
X129985000Y-54284796D01*
X129901031Y-53862659D01*
X129736322Y-53465015D01*
X129497200Y-53107144D01*
X129192856Y-52802800D01*
X128834985Y-52563678D01*
X128437341Y-52398969D01*
X128015204Y-52315000D01*
X127584796Y-52315000D01*
X127162659Y-52398969D01*
X126765015Y-52563678D01*
X126407144Y-52802800D01*
X126102800Y-53107144D01*
X125863678Y-53465015D01*
X125698969Y-53862659D01*
X125615000Y-54284796D01*
X89385000Y-54284796D01*
X89301031Y-53862659D01*
X89136322Y-53465015D01*
X88897200Y-53107144D01*
X88592856Y-52802800D01*
X88234985Y-52563678D01*
X87837341Y-52398969D01*
X87415204Y-52315000D01*
X86984796Y-52315000D01*
X86562659Y-52398969D01*
X86165015Y-52563678D01*
X85807144Y-52802800D01*
X85502800Y-53107144D01*
X85263678Y-53465015D01*
X85098969Y-53862659D01*
X85015000Y-54284796D01*
X84685000Y-54284796D01*
X84601031Y-53862659D01*
X84436322Y-53465015D01*
X84197200Y-53107144D01*
X83892856Y-52802800D01*
X83534985Y-52563678D01*
X83137341Y-52398969D01*
X82715204Y-52315000D01*
X82284796Y-52315000D01*
X81862659Y-52398969D01*
X81465015Y-52563678D01*
X81107144Y-52802800D01*
X80802800Y-53107144D01*
X80563678Y-53465015D01*
X80398969Y-53862659D01*
X80315000Y-54284796D01*
X80315000Y-54715204D01*
X80398969Y-55137341D01*
X80563678Y-55534985D01*
X80802800Y-55892856D01*
X81107144Y-56197200D01*
X81465015Y-56436322D01*
X81740001Y-56550224D01*
X81740001Y-57365200D01*
X79787128Y-55412327D01*
X79901031Y-55137341D01*
X79985000Y-54715204D01*
X79985000Y-54284796D01*
X79901031Y-53862659D01*
X79736322Y-53465015D01*
X79497200Y-53107144D01*
X79192856Y-52802800D01*
X78834985Y-52563678D01*
X78437341Y-52398969D01*
X78015204Y-52315000D01*
X77584796Y-52315000D01*
X77162659Y-52398969D01*
X76765015Y-52563678D01*
X76407144Y-52802800D01*
X76102800Y-53107144D01*
X75863678Y-53465015D01*
X75698969Y-53862659D01*
X75615000Y-54284796D01*
X68660000Y-54284796D01*
X68660000Y-44660000D01*
X143340000Y-44660000D01*
X143340001Y-139340000D01*
M02*
