G04 #@! TF.GenerationSoftware,KiCad,Pcbnew,5.1.5-52549c5~84~ubuntu18.04.1*
G04 #@! TF.CreationDate,2020-05-11T15:13:20-04:00*
G04 #@! TF.ProjectId,gategrinder_panelPCB,67617465-6772-4696-9e64-65725f70616e,rev?*
G04 #@! TF.SameCoordinates,Original*
G04 #@! TF.FileFunction,Legend,Top*
G04 #@! TF.FilePolarity,Positive*
%FSLAX46Y46*%
G04 Gerber Fmt 4.6, Leading zero omitted, Abs format (unit mm)*
G04 Created by KiCad (PCBNEW 5.1.5-52549c5~84~ubuntu18.04.1) date 2020-05-11 15:13:20*
%MOMM*%
%LPD*%
G04 APERTURE LIST*
%ADD10C,0.300000*%
%ADD11C,0.600000*%
%ADD12C,0.120000*%
%ADD13C,0.010000*%
%ADD14C,0.150000*%
G04 APERTURE END LIST*
D10*
X101821428Y-46921428D02*
X102321428Y-47635714D01*
X102678571Y-46921428D02*
X102678571Y-48421428D01*
X102107142Y-48421428D01*
X101964285Y-48350000D01*
X101892857Y-48278571D01*
X101821428Y-48135714D01*
X101821428Y-47921428D01*
X101892857Y-47778571D01*
X101964285Y-47707142D01*
X102107142Y-47635714D01*
X102678571Y-47635714D01*
X101178571Y-46921428D02*
X101178571Y-47921428D01*
X101178571Y-48421428D02*
X101250000Y-48350000D01*
X101178571Y-48278571D01*
X101107142Y-48350000D01*
X101178571Y-48421428D01*
X101178571Y-48278571D01*
X99821428Y-46992857D02*
X99964285Y-46921428D01*
X100250000Y-46921428D01*
X100392857Y-46992857D01*
X100464285Y-47064285D01*
X100535714Y-47207142D01*
X100535714Y-47635714D01*
X100464285Y-47778571D01*
X100392857Y-47850000D01*
X100250000Y-47921428D01*
X99964285Y-47921428D01*
X99821428Y-47850000D01*
X99178571Y-46921428D02*
X99178571Y-48421428D01*
X98535714Y-46921428D02*
X98535714Y-47707142D01*
X98607142Y-47850000D01*
X98750000Y-47921428D01*
X98964285Y-47921428D01*
X99107142Y-47850000D01*
X99178571Y-47778571D01*
X96678571Y-46921428D02*
X96678571Y-48421428D01*
X96678571Y-47707142D02*
X95821428Y-47707142D01*
X95821428Y-46921428D02*
X95821428Y-48421428D01*
X94892857Y-46921428D02*
X95035714Y-46992857D01*
X95107142Y-47064285D01*
X95178571Y-47207142D01*
X95178571Y-47635714D01*
X95107142Y-47778571D01*
X95035714Y-47850000D01*
X94892857Y-47921428D01*
X94678571Y-47921428D01*
X94535714Y-47850000D01*
X94464285Y-47778571D01*
X94392857Y-47635714D01*
X94392857Y-47207142D01*
X94464285Y-47064285D01*
X94535714Y-46992857D01*
X94678571Y-46921428D01*
X94892857Y-46921428D01*
X93535714Y-46921428D02*
X93678571Y-46992857D01*
X93750000Y-47135714D01*
X93750000Y-48421428D01*
X92964285Y-46921428D02*
X92964285Y-47921428D01*
X92964285Y-47778571D02*
X92892857Y-47850000D01*
X92750000Y-47921428D01*
X92535714Y-47921428D01*
X92392857Y-47850000D01*
X92321428Y-47707142D01*
X92321428Y-46921428D01*
X92321428Y-47707142D02*
X92250000Y-47850000D01*
X92107142Y-47921428D01*
X91892857Y-47921428D01*
X91750000Y-47850000D01*
X91678571Y-47707142D01*
X91678571Y-46921428D01*
X90392857Y-46992857D02*
X90535714Y-46921428D01*
X90821428Y-46921428D01*
X90964285Y-46992857D01*
X91035714Y-47135714D01*
X91035714Y-47707142D01*
X90964285Y-47850000D01*
X90821428Y-47921428D01*
X90535714Y-47921428D01*
X90392857Y-47850000D01*
X90321428Y-47707142D01*
X90321428Y-47564285D01*
X91035714Y-47421428D01*
X89750000Y-46992857D02*
X89607142Y-46921428D01*
X89321428Y-46921428D01*
X89178571Y-46992857D01*
X89107142Y-47135714D01*
X89107142Y-47207142D01*
X89178571Y-47350000D01*
X89321428Y-47421428D01*
X89535714Y-47421428D01*
X89678571Y-47492857D01*
X89750000Y-47635714D01*
X89750000Y-47707142D01*
X89678571Y-47850000D01*
X89535714Y-47921428D01*
X89321428Y-47921428D01*
X89178571Y-47850000D01*
X86607142Y-48421428D02*
X87321428Y-48421428D01*
X87392857Y-47707142D01*
X87321428Y-47778571D01*
X87178571Y-47850000D01*
X86821428Y-47850000D01*
X86678571Y-47778571D01*
X86607142Y-47707142D01*
X86535714Y-47564285D01*
X86535714Y-47207142D01*
X86607142Y-47064285D01*
X86678571Y-46992857D01*
X86821428Y-46921428D01*
X87178571Y-46921428D01*
X87321428Y-46992857D01*
X87392857Y-47064285D01*
X84821428Y-48492857D02*
X86107142Y-46564285D01*
X84392857Y-48278571D02*
X84321428Y-48350000D01*
X84178571Y-48421428D01*
X83821428Y-48421428D01*
X83678571Y-48350000D01*
X83607142Y-48278571D01*
X83535714Y-48135714D01*
X83535714Y-47992857D01*
X83607142Y-47778571D01*
X84464285Y-46921428D01*
X83535714Y-46921428D01*
X82607142Y-48421428D02*
X82464285Y-48421428D01*
X82321428Y-48350000D01*
X82250000Y-48278571D01*
X82178571Y-48135714D01*
X82107142Y-47850000D01*
X82107142Y-47492857D01*
X82178571Y-47207142D01*
X82250000Y-47064285D01*
X82321428Y-46992857D01*
X82464285Y-46921428D01*
X82607142Y-46921428D01*
X82750000Y-46992857D01*
X82821428Y-47064285D01*
X82892857Y-47207142D01*
X82964285Y-47492857D01*
X82964285Y-47850000D01*
X82892857Y-48135714D01*
X82821428Y-48278571D01*
X82750000Y-48350000D01*
X82607142Y-48421428D01*
X81535714Y-48278571D02*
X81464285Y-48350000D01*
X81321428Y-48421428D01*
X80964285Y-48421428D01*
X80821428Y-48350000D01*
X80750000Y-48278571D01*
X80678571Y-48135714D01*
X80678571Y-47992857D01*
X80750000Y-47778571D01*
X81607142Y-46921428D01*
X80678571Y-46921428D01*
X79750000Y-48421428D02*
X79607142Y-48421428D01*
X79464285Y-48350000D01*
X79392857Y-48278571D01*
X79321428Y-48135714D01*
X79250000Y-47850000D01*
X79250000Y-47492857D01*
X79321428Y-47207142D01*
X79392857Y-47064285D01*
X79464285Y-46992857D01*
X79607142Y-46921428D01*
X79750000Y-46921428D01*
X79892857Y-46992857D01*
X79964285Y-47064285D01*
X80035714Y-47207142D01*
X80107142Y-47492857D01*
X80107142Y-47850000D01*
X80035714Y-48135714D01*
X79964285Y-48278571D01*
X79892857Y-48350000D01*
X79750000Y-48421428D01*
D11*
X134328571Y-49500000D02*
X134614285Y-49642857D01*
X135042857Y-49642857D01*
X135471428Y-49500000D01*
X135757142Y-49214285D01*
X135900000Y-48928571D01*
X136042857Y-48357142D01*
X136042857Y-47928571D01*
X135900000Y-47357142D01*
X135757142Y-47071428D01*
X135471428Y-46785714D01*
X135042857Y-46642857D01*
X134757142Y-46642857D01*
X134328571Y-46785714D01*
X134185714Y-46928571D01*
X134185714Y-47928571D01*
X134757142Y-47928571D01*
X131614285Y-46642857D02*
X131614285Y-48214285D01*
X131757142Y-48500000D01*
X132042857Y-48642857D01*
X132614285Y-48642857D01*
X132900000Y-48500000D01*
X131614285Y-46785714D02*
X131900000Y-46642857D01*
X132614285Y-46642857D01*
X132900000Y-46785714D01*
X133042857Y-47071428D01*
X133042857Y-47357142D01*
X132900000Y-47642857D01*
X132614285Y-47785714D01*
X131900000Y-47785714D01*
X131614285Y-47928571D01*
X130614285Y-48642857D02*
X129471428Y-48642857D01*
X130185714Y-49642857D02*
X130185714Y-47071428D01*
X130042857Y-46785714D01*
X129757142Y-46642857D01*
X129471428Y-46642857D01*
X127328571Y-46785714D02*
X127614285Y-46642857D01*
X128185714Y-46642857D01*
X128471428Y-46785714D01*
X128614285Y-47071428D01*
X128614285Y-48214285D01*
X128471428Y-48500000D01*
X128185714Y-48642857D01*
X127614285Y-48642857D01*
X127328571Y-48500000D01*
X127185714Y-48214285D01*
X127185714Y-47928571D01*
X128614285Y-47642857D01*
X122042857Y-49500000D02*
X122328571Y-49642857D01*
X122757142Y-49642857D01*
X123185714Y-49500000D01*
X123471428Y-49214285D01*
X123614285Y-48928571D01*
X123757142Y-48357142D01*
X123757142Y-47928571D01*
X123614285Y-47357142D01*
X123471428Y-47071428D01*
X123185714Y-46785714D01*
X122757142Y-46642857D01*
X122471428Y-46642857D01*
X122042857Y-46785714D01*
X121900000Y-46928571D01*
X121900000Y-47928571D01*
X122471428Y-47928571D01*
X120614285Y-46642857D02*
X120614285Y-48642857D01*
X120614285Y-48071428D02*
X120471428Y-48357142D01*
X120328571Y-48500000D01*
X120042857Y-48642857D01*
X119757142Y-48642857D01*
X118757142Y-46642857D02*
X118757142Y-48642857D01*
X118757142Y-49642857D02*
X118900000Y-49500000D01*
X118757142Y-49357142D01*
X118614285Y-49500000D01*
X118757142Y-49642857D01*
X118757142Y-49357142D01*
X117328571Y-48642857D02*
X117328571Y-46642857D01*
X117328571Y-48357142D02*
X117185714Y-48500000D01*
X116900000Y-48642857D01*
X116471428Y-48642857D01*
X116185714Y-48500000D01*
X116042857Y-48214285D01*
X116042857Y-46642857D01*
X113328571Y-46642857D02*
X113328571Y-49642857D01*
X113328571Y-46785714D02*
X113614285Y-46642857D01*
X114185714Y-46642857D01*
X114471428Y-46785714D01*
X114614285Y-46928571D01*
X114757142Y-47214285D01*
X114757142Y-48071428D01*
X114614285Y-48357142D01*
X114471428Y-48500000D01*
X114185714Y-48642857D01*
X113614285Y-48642857D01*
X113328571Y-48500000D01*
X110757142Y-46785714D02*
X111042857Y-46642857D01*
X111614285Y-46642857D01*
X111900000Y-46785714D01*
X112042857Y-47071428D01*
X112042857Y-48214285D01*
X111900000Y-48500000D01*
X111614285Y-48642857D01*
X111042857Y-48642857D01*
X110757142Y-48500000D01*
X110614285Y-48214285D01*
X110614285Y-47928571D01*
X112042857Y-47642857D01*
X109328571Y-46642857D02*
X109328571Y-48642857D01*
X109328571Y-48071428D02*
X109185714Y-48357142D01*
X109042857Y-48500000D01*
X108757142Y-48642857D01*
X108471428Y-48642857D01*
D12*
X76150000Y-76080000D02*
X76160000Y-76080000D01*
X76150000Y-82930000D02*
X76150000Y-76080000D01*
X88840000Y-82930000D02*
X76150000Y-82930000D01*
X88850000Y-76070000D02*
X88850000Y-82930000D01*
X76150000Y-76070000D02*
X88850000Y-76070000D01*
D13*
G36*
X101852281Y-116864588D02*
G01*
X101853088Y-116801480D01*
X101853844Y-116728115D01*
X101854535Y-116646935D01*
X101855145Y-116560383D01*
X101855659Y-116470902D01*
X101856063Y-116380934D01*
X101856342Y-116292922D01*
X101856480Y-116209310D01*
X101856492Y-116178788D01*
X101856500Y-115783500D01*
X102262900Y-115783500D01*
X102262900Y-116767750D01*
X106358650Y-116767750D01*
X106358650Y-116170850D01*
X102847338Y-116170850D01*
X102845631Y-116315313D01*
X102843925Y-116459775D01*
X102705757Y-116461487D01*
X102567589Y-116463198D01*
X102569232Y-116123097D01*
X102570875Y-115782995D01*
X104667962Y-115781660D01*
X106765050Y-115780325D01*
X106765050Y-117155100D01*
X101848078Y-117155100D01*
X101852281Y-116864588D01*
G37*
X101852281Y-116864588D02*
X101853088Y-116801480D01*
X101853844Y-116728115D01*
X101854535Y-116646935D01*
X101855145Y-116560383D01*
X101855659Y-116470902D01*
X101856063Y-116380934D01*
X101856342Y-116292922D01*
X101856480Y-116209310D01*
X101856492Y-116178788D01*
X101856500Y-115783500D01*
X102262900Y-115783500D01*
X102262900Y-116767750D01*
X106358650Y-116767750D01*
X106358650Y-116170850D01*
X102847338Y-116170850D01*
X102845631Y-116315313D01*
X102843925Y-116459775D01*
X102705757Y-116461487D01*
X102567589Y-116463198D01*
X102569232Y-116123097D01*
X102570875Y-115782995D01*
X104667962Y-115781660D01*
X106765050Y-115780325D01*
X106765050Y-117155100D01*
X101848078Y-117155100D01*
X101852281Y-116864588D01*
G36*
X101851709Y-118201263D02*
G01*
X101853325Y-117513875D01*
X104309187Y-117512280D01*
X106765050Y-117510684D01*
X106765050Y-118888650D01*
X102262900Y-118888650D01*
X102262900Y-118494950D01*
X106358650Y-118494950D01*
X106358650Y-117904400D01*
X102262900Y-117904400D01*
X102262900Y-118494950D01*
X102262900Y-118888650D01*
X101850093Y-118888650D01*
X101851709Y-118201263D01*
G37*
X101851709Y-118201263D02*
X101853325Y-117513875D01*
X104309187Y-117512280D01*
X106765050Y-117510684D01*
X106765050Y-118888650D01*
X102262900Y-118888650D01*
X102262900Y-118494950D01*
X106358650Y-118494950D01*
X106358650Y-117904400D01*
X102262900Y-117904400D01*
X102262900Y-118494950D01*
X102262900Y-118888650D01*
X101850093Y-118888650D01*
X101851709Y-118201263D01*
G36*
X104105987Y-120233272D02*
G01*
X106355475Y-120231675D01*
X106357101Y-119737963D01*
X106358727Y-119244250D01*
X106765050Y-119244250D01*
X106765050Y-120622200D01*
X101856500Y-120622200D01*
X101856500Y-120234868D01*
X104105987Y-120233272D01*
G37*
X104105987Y-120233272D02*
X106355475Y-120231675D01*
X106357101Y-119737963D01*
X106358727Y-119244250D01*
X106765050Y-119244250D01*
X106765050Y-120622200D01*
X101856500Y-120622200D01*
X101856500Y-120234868D01*
X104105987Y-120233272D01*
G36*
X104309187Y-120979380D02*
G01*
X106765050Y-120977784D01*
X106765050Y-121365150D01*
X106358650Y-121365150D01*
X106358650Y-121962050D01*
X106765050Y-121962050D01*
X106765050Y-122355767D01*
X104309187Y-122354171D01*
X102262900Y-122352842D01*
X102262900Y-121962050D01*
X106085725Y-121962050D01*
X106084075Y-121665188D01*
X106082425Y-121368325D01*
X104172662Y-121366728D01*
X102262900Y-121365130D01*
X102262900Y-121962050D01*
X102262900Y-122352842D01*
X101853325Y-122352575D01*
X101853325Y-120980975D01*
X104309187Y-120979380D01*
G37*
X104309187Y-120979380D02*
X106765050Y-120977784D01*
X106765050Y-121365150D01*
X106358650Y-121365150D01*
X106358650Y-121962050D01*
X106765050Y-121962050D01*
X106765050Y-122355767D01*
X104309187Y-122354171D01*
X102262900Y-122352842D01*
X102262900Y-121962050D01*
X106085725Y-121962050D01*
X106084075Y-121665188D01*
X106082425Y-121368325D01*
X104172662Y-121366728D01*
X102262900Y-121365130D01*
X102262900Y-121962050D01*
X102262900Y-122352842D01*
X101853325Y-122352575D01*
X101853325Y-120980975D01*
X104309187Y-120979380D01*
G36*
X106765050Y-122711350D02*
G01*
X106765050Y-123098700D01*
X102262900Y-123098700D01*
X102262900Y-123695600D01*
X106765050Y-123695600D01*
X106765050Y-124082950D01*
X104513975Y-124084491D01*
X104343382Y-124084607D01*
X104174999Y-124084721D01*
X104009333Y-124084834D01*
X103846892Y-124084943D01*
X103688185Y-124085049D01*
X103533718Y-124085152D01*
X103383999Y-124085252D01*
X103239538Y-124085347D01*
X103100841Y-124085438D01*
X102968417Y-124085525D01*
X102842774Y-124085606D01*
X102724418Y-124085682D01*
X102613860Y-124085753D01*
X102511605Y-124085817D01*
X102418163Y-124085875D01*
X102334041Y-124085927D01*
X102259748Y-124085971D01*
X102195790Y-124086009D01*
X102142676Y-124086039D01*
X102100914Y-124086060D01*
X102071012Y-124086074D01*
X102058112Y-124086078D01*
X101853325Y-124086125D01*
X101853098Y-123398738D01*
X101852872Y-122711350D01*
X106765050Y-122711350D01*
G37*
X106765050Y-122711350D02*
X106765050Y-123098700D01*
X102262900Y-123098700D01*
X102262900Y-123695600D01*
X106765050Y-123695600D01*
X106765050Y-124082950D01*
X104513975Y-124084491D01*
X104343382Y-124084607D01*
X104174999Y-124084721D01*
X104009333Y-124084834D01*
X103846892Y-124084943D01*
X103688185Y-124085049D01*
X103533718Y-124085152D01*
X103383999Y-124085252D01*
X103239538Y-124085347D01*
X103100841Y-124085438D01*
X102968417Y-124085525D01*
X102842774Y-124085606D01*
X102724418Y-124085682D01*
X102613860Y-124085753D01*
X102511605Y-124085817D01*
X102418163Y-124085875D01*
X102334041Y-124085927D01*
X102259748Y-124085971D01*
X102195790Y-124086009D01*
X102142676Y-124086039D01*
X102100914Y-124086060D01*
X102071012Y-124086074D01*
X102058112Y-124086078D01*
X101853325Y-124086125D01*
X101853098Y-123398738D01*
X101852872Y-122711350D01*
X106765050Y-122711350D01*
G36*
X106765050Y-124444900D02*
G01*
X106765050Y-124832250D01*
X106358650Y-124832250D01*
X106358650Y-125429150D01*
X106765050Y-125429150D01*
X106765050Y-125816500D01*
X106563437Y-125816628D01*
X106541822Y-125816640D01*
X106508014Y-125816654D01*
X106462520Y-125816671D01*
X106405845Y-125816691D01*
X106338496Y-125816714D01*
X106260980Y-125816738D01*
X106173804Y-125816766D01*
X106077474Y-125816795D01*
X105972497Y-125816826D01*
X105859379Y-125816859D01*
X105738627Y-125816894D01*
X105610748Y-125816930D01*
X105476247Y-125816968D01*
X105335632Y-125817007D01*
X105189410Y-125817047D01*
X105038086Y-125817088D01*
X104882168Y-125817130D01*
X104722162Y-125817173D01*
X104558575Y-125817216D01*
X104391913Y-125817260D01*
X104222682Y-125817304D01*
X104107575Y-125817333D01*
X102262900Y-125817805D01*
X102262900Y-125429150D01*
X106085725Y-125429150D01*
X106084075Y-125132288D01*
X106082425Y-124835425D01*
X104172662Y-124833828D01*
X102262900Y-124832230D01*
X102262900Y-125429150D01*
X102262900Y-125817805D01*
X101853325Y-125817910D01*
X101853098Y-125131405D01*
X101852872Y-124444900D01*
X106765050Y-124444900D01*
G37*
X106765050Y-124444900D02*
X106765050Y-124832250D01*
X106358650Y-124832250D01*
X106358650Y-125429150D01*
X106765050Y-125429150D01*
X106765050Y-125816500D01*
X106563437Y-125816628D01*
X106541822Y-125816640D01*
X106508014Y-125816654D01*
X106462520Y-125816671D01*
X106405845Y-125816691D01*
X106338496Y-125816714D01*
X106260980Y-125816738D01*
X106173804Y-125816766D01*
X106077474Y-125816795D01*
X105972497Y-125816826D01*
X105859379Y-125816859D01*
X105738627Y-125816894D01*
X105610748Y-125816930D01*
X105476247Y-125816968D01*
X105335632Y-125817007D01*
X105189410Y-125817047D01*
X105038086Y-125817088D01*
X104882168Y-125817130D01*
X104722162Y-125817173D01*
X104558575Y-125817216D01*
X104391913Y-125817260D01*
X104222682Y-125817304D01*
X104107575Y-125817333D01*
X102262900Y-125817805D01*
X102262900Y-125429150D01*
X106085725Y-125429150D01*
X106084075Y-125132288D01*
X106082425Y-124835425D01*
X104172662Y-124833828D01*
X102262900Y-124832230D01*
X102262900Y-125429150D01*
X102262900Y-125817805D01*
X101853325Y-125817910D01*
X101853098Y-125131405D01*
X101852872Y-124444900D01*
X106765050Y-124444900D01*
G36*
X107641350Y-115783500D02*
G01*
X107641350Y-116272450D01*
X112143500Y-116272450D01*
X112143500Y-116666150D01*
X107641350Y-116666150D01*
X107641350Y-117155100D01*
X107234950Y-117155100D01*
X107234950Y-115783500D01*
X107641350Y-115783500D01*
G37*
X107641350Y-115783500D02*
X107641350Y-116272450D01*
X112143500Y-116272450D01*
X112143500Y-116666150D01*
X107641350Y-116666150D01*
X107641350Y-117155100D01*
X107234950Y-117155100D01*
X107234950Y-115783500D01*
X107641350Y-115783500D01*
G36*
X108498522Y-119244250D02*
G01*
X108500148Y-119737963D01*
X108501775Y-120231675D01*
X110322637Y-120233274D01*
X112143500Y-120234872D01*
X112143500Y-120622200D01*
X107959181Y-120622200D01*
X107959181Y-120233773D01*
X108001195Y-120233703D01*
X108036245Y-120233458D01*
X108062800Y-120233048D01*
X108079330Y-120232481D01*
X108084220Y-120231961D01*
X108086165Y-120228623D01*
X108087789Y-120219632D01*
X108089117Y-120204095D01*
X108090172Y-120181114D01*
X108090979Y-120149796D01*
X108091561Y-120109244D01*
X108091942Y-120058563D01*
X108092147Y-119996859D01*
X108092200Y-119933425D01*
X108092200Y-119637950D01*
X107641224Y-119637950D01*
X107642874Y-119934813D01*
X107644525Y-120231675D01*
X107860382Y-120233349D01*
X107911733Y-120233658D01*
X107959181Y-120233773D01*
X107959181Y-120622200D01*
X107234950Y-120622200D01*
X107234950Y-119244250D01*
X108498522Y-119244250D01*
G37*
X108498522Y-119244250D02*
X108500148Y-119737963D01*
X108501775Y-120231675D01*
X110322637Y-120233274D01*
X112143500Y-120234872D01*
X112143500Y-120622200D01*
X107959181Y-120622200D01*
X107959181Y-120233773D01*
X108001195Y-120233703D01*
X108036245Y-120233458D01*
X108062800Y-120233048D01*
X108079330Y-120232481D01*
X108084220Y-120231961D01*
X108086165Y-120228623D01*
X108087789Y-120219632D01*
X108089117Y-120204095D01*
X108090172Y-120181114D01*
X108090979Y-120149796D01*
X108091561Y-120109244D01*
X108091942Y-120058563D01*
X108092147Y-119996859D01*
X108092200Y-119933425D01*
X108092200Y-119637950D01*
X107641224Y-119637950D01*
X107642874Y-119934813D01*
X107644525Y-120231675D01*
X107860382Y-120233349D01*
X107911733Y-120233658D01*
X107959181Y-120233773D01*
X107959181Y-120622200D01*
X107234950Y-120622200D01*
X107234950Y-119244250D01*
X108498522Y-119244250D01*
G36*
X107641350Y-120977800D02*
G01*
X107641350Y-121473100D01*
X112143500Y-121473100D01*
X112143500Y-121860450D01*
X107641350Y-121860450D01*
X107641350Y-122355750D01*
X107234950Y-122355750D01*
X107234950Y-120977800D01*
X107641350Y-120977800D01*
G37*
X107641350Y-120977800D02*
X107641350Y-121473100D01*
X112143500Y-121473100D01*
X112143500Y-121860450D01*
X107641350Y-121860450D01*
X107641350Y-122355750D01*
X107234950Y-122355750D01*
X107234950Y-120977800D01*
X107641350Y-120977800D01*
G36*
X111737100Y-118501300D02*
G01*
X111737100Y-117904400D01*
X107234950Y-117904400D01*
X107234950Y-117517050D01*
X109486025Y-117515510D01*
X109656617Y-117515394D01*
X109825000Y-117515280D01*
X109990666Y-117515167D01*
X110153107Y-117515058D01*
X110311814Y-117514952D01*
X110466281Y-117514849D01*
X110616000Y-117514749D01*
X110760461Y-117514654D01*
X110899158Y-117514563D01*
X111031582Y-117514476D01*
X111157225Y-117514395D01*
X111275581Y-117514319D01*
X111386139Y-117514248D01*
X111488394Y-117514184D01*
X111581836Y-117514126D01*
X111665958Y-117514074D01*
X111740251Y-117514030D01*
X111804209Y-117513992D01*
X111857323Y-117513962D01*
X111899085Y-117513941D01*
X111928987Y-117513927D01*
X111941887Y-117513923D01*
X112146675Y-117513875D01*
X112146901Y-118201263D01*
X112147127Y-118888650D01*
X107234950Y-118888650D01*
X107234950Y-118501300D01*
X111737100Y-118501300D01*
G37*
X111737100Y-118501300D02*
X111737100Y-117904400D01*
X107234950Y-117904400D01*
X107234950Y-117517050D01*
X109486025Y-117515510D01*
X109656617Y-117515394D01*
X109825000Y-117515280D01*
X109990666Y-117515167D01*
X110153107Y-117515058D01*
X110311814Y-117514952D01*
X110466281Y-117514849D01*
X110616000Y-117514749D01*
X110760461Y-117514654D01*
X110899158Y-117514563D01*
X111031582Y-117514476D01*
X111157225Y-117514395D01*
X111275581Y-117514319D01*
X111386139Y-117514248D01*
X111488394Y-117514184D01*
X111581836Y-117514126D01*
X111665958Y-117514074D01*
X111740251Y-117514030D01*
X111804209Y-117513992D01*
X111857323Y-117513962D01*
X111899085Y-117513941D01*
X111928987Y-117513927D01*
X111941887Y-117513923D01*
X112146675Y-117513875D01*
X112146901Y-118201263D01*
X112147127Y-118888650D01*
X107234950Y-118888650D01*
X107234950Y-118501300D01*
X111737100Y-118501300D01*
G36*
X111737100Y-123695600D02*
G01*
X111737100Y-123098700D01*
X107234950Y-123098700D01*
X107234950Y-122711350D01*
X112147095Y-122711350D01*
X112147095Y-123397627D01*
X112147064Y-123489853D01*
X112146975Y-123578459D01*
X112146831Y-123662623D01*
X112146637Y-123741527D01*
X112146396Y-123814351D01*
X112146112Y-123880275D01*
X112145790Y-123938480D01*
X112145434Y-123988145D01*
X112145047Y-124028453D01*
X112144634Y-124058581D01*
X112144199Y-124077712D01*
X112143745Y-124085026D01*
X112143710Y-124085075D01*
X112137187Y-124085154D01*
X112118398Y-124085220D01*
X112087776Y-124085275D01*
X112045754Y-124085318D01*
X111992765Y-124085349D01*
X111929243Y-124085369D01*
X111855622Y-124085377D01*
X111772333Y-124085375D01*
X111679812Y-124085361D01*
X111578492Y-124085337D01*
X111468804Y-124085302D01*
X111351184Y-124085256D01*
X111226065Y-124085201D01*
X111093879Y-124085135D01*
X110955060Y-124085059D01*
X110810042Y-124084974D01*
X110659258Y-124084879D01*
X110503141Y-124084774D01*
X110342124Y-124084660D01*
X110176642Y-124084537D01*
X110007127Y-124084405D01*
X109834012Y-124084265D01*
X109687637Y-124084141D01*
X107234950Y-124082035D01*
X107234950Y-123695600D01*
X111737100Y-123695600D01*
G37*
X111737100Y-123695600D02*
X111737100Y-123098700D01*
X107234950Y-123098700D01*
X107234950Y-122711350D01*
X112147095Y-122711350D01*
X112147095Y-123397627D01*
X112147064Y-123489853D01*
X112146975Y-123578459D01*
X112146831Y-123662623D01*
X112146637Y-123741527D01*
X112146396Y-123814351D01*
X112146112Y-123880275D01*
X112145790Y-123938480D01*
X112145434Y-123988145D01*
X112145047Y-124028453D01*
X112144634Y-124058581D01*
X112144199Y-124077712D01*
X112143745Y-124085026D01*
X112143710Y-124085075D01*
X112137187Y-124085154D01*
X112118398Y-124085220D01*
X112087776Y-124085275D01*
X112045754Y-124085318D01*
X111992765Y-124085349D01*
X111929243Y-124085369D01*
X111855622Y-124085377D01*
X111772333Y-124085375D01*
X111679812Y-124085361D01*
X111578492Y-124085337D01*
X111468804Y-124085302D01*
X111351184Y-124085256D01*
X111226065Y-124085201D01*
X111093879Y-124085135D01*
X110955060Y-124085059D01*
X110810042Y-124084974D01*
X110659258Y-124084879D01*
X110503141Y-124084774D01*
X110342124Y-124084660D01*
X110176642Y-124084537D01*
X110007127Y-124084405D01*
X109834012Y-124084265D01*
X109687637Y-124084141D01*
X107234950Y-124082035D01*
X107234950Y-123695600D01*
X111737100Y-123695600D01*
G36*
X112149850Y-124444900D02*
G01*
X112149850Y-125129642D01*
X112149811Y-125221836D01*
X112149699Y-125310458D01*
X112149519Y-125394681D01*
X112149275Y-125473680D01*
X112148972Y-125546630D01*
X112148617Y-125612705D01*
X112148213Y-125671080D01*
X112147766Y-125720930D01*
X112147281Y-125761428D01*
X112146764Y-125791750D01*
X112146218Y-125811071D01*
X112145649Y-125818563D01*
X112145616Y-125818617D01*
X112139033Y-125818921D01*
X112120182Y-125819218D01*
X112089499Y-125819510D01*
X112047417Y-125819794D01*
X111994368Y-125820070D01*
X111930787Y-125820338D01*
X111857108Y-125820597D01*
X111773763Y-125820845D01*
X111681186Y-125821082D01*
X111579811Y-125821308D01*
X111470070Y-125821522D01*
X111352399Y-125821722D01*
X111227230Y-125821909D01*
X111094997Y-125822081D01*
X110956133Y-125822238D01*
X110811072Y-125822378D01*
X110660247Y-125822502D01*
X110504092Y-125822608D01*
X110343040Y-125822696D01*
X110177526Y-125822765D01*
X110007981Y-125822814D01*
X109834841Y-125822843D01*
X109688166Y-125822850D01*
X107641350Y-125822850D01*
X107641350Y-125429150D01*
X111737100Y-125429150D01*
X111737100Y-124832250D01*
X107641350Y-124832250D01*
X107641350Y-125429150D01*
X107641350Y-125822850D01*
X107234950Y-125822850D01*
X107234950Y-124444900D01*
X112149850Y-124444900D01*
G37*
X112149850Y-124444900D02*
X112149850Y-125129642D01*
X112149811Y-125221836D01*
X112149699Y-125310458D01*
X112149519Y-125394681D01*
X112149275Y-125473680D01*
X112148972Y-125546630D01*
X112148617Y-125612705D01*
X112148213Y-125671080D01*
X112147766Y-125720930D01*
X112147281Y-125761428D01*
X112146764Y-125791750D01*
X112146218Y-125811071D01*
X112145649Y-125818563D01*
X112145616Y-125818617D01*
X112139033Y-125818921D01*
X112120182Y-125819218D01*
X112089499Y-125819510D01*
X112047417Y-125819794D01*
X111994368Y-125820070D01*
X111930787Y-125820338D01*
X111857108Y-125820597D01*
X111773763Y-125820845D01*
X111681186Y-125821082D01*
X111579811Y-125821308D01*
X111470070Y-125821522D01*
X111352399Y-125821722D01*
X111227230Y-125821909D01*
X111094997Y-125822081D01*
X110956133Y-125822238D01*
X110811072Y-125822378D01*
X110660247Y-125822502D01*
X110504092Y-125822608D01*
X110343040Y-125822696D01*
X110177526Y-125822765D01*
X110007981Y-125822814D01*
X109834841Y-125822843D01*
X109688166Y-125822850D01*
X107641350Y-125822850D01*
X107641350Y-125429150D01*
X111737100Y-125429150D01*
X111737100Y-124832250D01*
X107641350Y-124832250D01*
X107641350Y-125429150D01*
X107641350Y-125822850D01*
X107234950Y-125822850D01*
X107234950Y-124444900D01*
X112149850Y-124444900D01*
G36*
X98975735Y-120625009D02*
G01*
X98982774Y-120409371D01*
X98995337Y-120201091D01*
X98996151Y-120190400D01*
X99027031Y-119871626D01*
X99070289Y-119555426D01*
X99125818Y-119242096D01*
X99193510Y-118931928D01*
X99273257Y-118625218D01*
X99364950Y-118322259D01*
X99468480Y-118023346D01*
X99583741Y-117728773D01*
X99710622Y-117438834D01*
X99849017Y-117153823D01*
X99998816Y-116874035D01*
X100159912Y-116599763D01*
X100332196Y-116331301D01*
X100510716Y-116075600D01*
X100698759Y-115827604D01*
X100897428Y-115586079D01*
X101106041Y-115351714D01*
X101323919Y-115125199D01*
X101550380Y-114907223D01*
X101784742Y-114698476D01*
X102026326Y-114499645D01*
X102200161Y-114366140D01*
X102458787Y-114181124D01*
X102724146Y-114006770D01*
X102995861Y-113843239D01*
X103273556Y-113690694D01*
X103556854Y-113549296D01*
X103845380Y-113419206D01*
X104138756Y-113300587D01*
X104436608Y-113193601D01*
X104738557Y-113098409D01*
X105044229Y-113015173D01*
X105353246Y-112944055D01*
X105631575Y-112890945D01*
X105804235Y-112862958D01*
X105975168Y-112838963D01*
X106147803Y-112818561D01*
X106325570Y-112801352D01*
X106511896Y-112786937D01*
X106539625Y-112785069D01*
X106579936Y-112782958D01*
X106631142Y-112781165D01*
X106691464Y-112779689D01*
X106759124Y-112778531D01*
X106832341Y-112777690D01*
X106909338Y-112777167D01*
X106988334Y-112776961D01*
X107067552Y-112777074D01*
X107145212Y-112777504D01*
X107219534Y-112778252D01*
X107288741Y-112779319D01*
X107351053Y-112780704D01*
X107404691Y-112782407D01*
X107447876Y-112784429D01*
X107457200Y-112785009D01*
X107725334Y-112806361D01*
X107984351Y-112834324D01*
X108236148Y-112869188D01*
X108482622Y-112911243D01*
X108725671Y-112960779D01*
X108943241Y-113012045D01*
X109253427Y-113096259D01*
X109558673Y-113192154D01*
X109858811Y-113299638D01*
X110153671Y-113418622D01*
X110443085Y-113549016D01*
X110726882Y-113690729D01*
X111004895Y-113843671D01*
X111276954Y-114007753D01*
X111542889Y-114182883D01*
X111802532Y-114368972D01*
X112055714Y-114565930D01*
X112302265Y-114773666D01*
X112383239Y-114845554D01*
X112418069Y-114877512D01*
X112460027Y-114917042D01*
X112507566Y-114962613D01*
X112559144Y-115012690D01*
X112613214Y-115065738D01*
X112668232Y-115120224D01*
X112722654Y-115174614D01*
X112774935Y-115227374D01*
X112823529Y-115276969D01*
X112866893Y-115321866D01*
X112903481Y-115360531D01*
X112921698Y-115380275D01*
X113134082Y-115622836D01*
X113335786Y-115872174D01*
X113526703Y-116128032D01*
X113706729Y-116390154D01*
X113875757Y-116658283D01*
X114033681Y-116932164D01*
X114180395Y-117211538D01*
X114315794Y-117496149D01*
X114439772Y-117785742D01*
X114552223Y-118080059D01*
X114653041Y-118378844D01*
X114742120Y-118681840D01*
X114819355Y-118988790D01*
X114884638Y-119299438D01*
X114937866Y-119613528D01*
X114978931Y-119930802D01*
X115007728Y-120251004D01*
X115020087Y-120466625D01*
X115021469Y-120505981D01*
X115022637Y-120555474D01*
X115023583Y-120612849D01*
X115024301Y-120675849D01*
X115024782Y-120742219D01*
X115025020Y-120809705D01*
X115025006Y-120876049D01*
X115024734Y-120938997D01*
X115024196Y-120996292D01*
X115023385Y-121045681D01*
X115022293Y-121084906D01*
X115022138Y-121088925D01*
X115003071Y-121410722D01*
X114971720Y-121729955D01*
X114928190Y-122046341D01*
X114872587Y-122359596D01*
X114805016Y-122669438D01*
X114725583Y-122975584D01*
X114634392Y-123277751D01*
X114531550Y-123575655D01*
X114417162Y-123869013D01*
X114291333Y-124157543D01*
X114154168Y-124440962D01*
X114005773Y-124718985D01*
X113846253Y-124991331D01*
X113675714Y-125257715D01*
X113494261Y-125517856D01*
X113302000Y-125771470D01*
X113258532Y-125826025D01*
X113082109Y-126037418D01*
X112894938Y-126246302D01*
X112698964Y-126450677D01*
X112496129Y-126648541D01*
X112288375Y-126837893D01*
X112210175Y-126905801D01*
X111969527Y-127103678D01*
X111720284Y-127292429D01*
X111463034Y-127471698D01*
X111198365Y-127641129D01*
X110926867Y-127800368D01*
X110649127Y-127949059D01*
X110365734Y-128086847D01*
X110077277Y-128213377D01*
X109974975Y-128255038D01*
X109677599Y-128366951D01*
X109376886Y-128466713D01*
X109073211Y-128554313D01*
X108766952Y-128629739D01*
X108458484Y-128692978D01*
X108148185Y-128744020D01*
X107836431Y-128782850D01*
X107523599Y-128809459D01*
X107210065Y-128823833D01*
X107000000Y-128825257D01*
X107000000Y-128740525D01*
X107096293Y-128740420D01*
X107181638Y-128740053D01*
X107257786Y-128739342D01*
X107326488Y-128738208D01*
X107389495Y-128736571D01*
X107448557Y-128734351D01*
X107505424Y-128731468D01*
X107561849Y-128727841D01*
X107619581Y-128723391D01*
X107680371Y-128718037D01*
X107745971Y-128711699D01*
X107818131Y-128704298D01*
X107838200Y-128702188D01*
X108151784Y-128662733D01*
X108462810Y-128610918D01*
X108770937Y-128546887D01*
X109075827Y-128470786D01*
X109377138Y-128382758D01*
X109674531Y-128282949D01*
X109967665Y-128171503D01*
X110256201Y-128048565D01*
X110539799Y-127914278D01*
X110818118Y-127768789D01*
X111090819Y-127612242D01*
X111357562Y-127444781D01*
X111618007Y-127266550D01*
X111871813Y-127077696D01*
X112111595Y-126884278D01*
X112181174Y-126825300D01*
X112246716Y-126768385D01*
X112310173Y-126711728D01*
X112373500Y-126653524D01*
X112438647Y-126591968D01*
X112507568Y-126525256D01*
X112582215Y-126451582D01*
X112613744Y-126420129D01*
X112740062Y-126291722D01*
X112857562Y-126167782D01*
X112968192Y-126046037D01*
X113073898Y-125924215D01*
X113176628Y-125800044D01*
X113278330Y-125671255D01*
X113380950Y-125535573D01*
X113434290Y-125462960D01*
X113603233Y-125220788D01*
X113764170Y-124969703D01*
X113916523Y-124710879D01*
X114059718Y-124445489D01*
X114193179Y-124174710D01*
X114316331Y-123899715D01*
X114428598Y-123621679D01*
X114529404Y-123341777D01*
X114618175Y-123061182D01*
X114628524Y-123025675D01*
X114691549Y-122796154D01*
X114746941Y-122570120D01*
X114795055Y-122345439D01*
X114836244Y-122119972D01*
X114870863Y-121891585D01*
X114899267Y-121658141D01*
X114921810Y-121417502D01*
X114938847Y-121167534D01*
X114939864Y-121149250D01*
X114940894Y-121121293D01*
X114941600Y-121082221D01*
X114942002Y-121033615D01*
X114942121Y-120977056D01*
X114941975Y-120914126D01*
X114941584Y-120846404D01*
X114940970Y-120775472D01*
X114940150Y-120702911D01*
X114939146Y-120630302D01*
X114937976Y-120559224D01*
X114936661Y-120491260D01*
X114935221Y-120427990D01*
X114933675Y-120370995D01*
X114932043Y-120321856D01*
X114930346Y-120282154D01*
X114928635Y-120253900D01*
X114916665Y-120109442D01*
X114903570Y-119974159D01*
X114888923Y-119844545D01*
X114872300Y-119717097D01*
X114853277Y-119588308D01*
X114832359Y-119460150D01*
X114773295Y-119150510D01*
X114701975Y-118843869D01*
X114618569Y-118540608D01*
X114523249Y-118241105D01*
X114416185Y-117945737D01*
X114297547Y-117654884D01*
X114167506Y-117368923D01*
X114026233Y-117088234D01*
X113873898Y-116813194D01*
X113710672Y-116544181D01*
X113536725Y-116281575D01*
X113352227Y-116025753D01*
X113190866Y-115818425D01*
X113017043Y-115610283D01*
X112833804Y-115405548D01*
X112643227Y-115206369D01*
X112447393Y-115014898D01*
X112248381Y-114833285D01*
X112184632Y-114777831D01*
X111938812Y-114574860D01*
X111685875Y-114382363D01*
X111426036Y-114200468D01*
X111159510Y-114029306D01*
X110886511Y-113869009D01*
X110607255Y-113719705D01*
X110321957Y-113581527D01*
X110030832Y-113454604D01*
X109954666Y-113423646D01*
X109657325Y-113311364D01*
X109356408Y-113211208D01*
X109052227Y-113123252D01*
X108745092Y-113047572D01*
X108435316Y-112984244D01*
X108123210Y-112933342D01*
X107809086Y-112894942D01*
X107739775Y-112888183D01*
X107674465Y-112882207D01*
X107615676Y-112877107D01*
X107561664Y-112872815D01*
X107510687Y-112869263D01*
X107461004Y-112866382D01*
X107410873Y-112864106D01*
X107358551Y-112862366D01*
X107302296Y-112861093D01*
X107240367Y-112860221D01*
X107171022Y-112859681D01*
X107092518Y-112859405D01*
X107003113Y-112859326D01*
X107000000Y-112859325D01*
X106910211Y-112859400D01*
X106831379Y-112859668D01*
X106761763Y-112860199D01*
X106699620Y-112861059D01*
X106643208Y-112862317D01*
X106590785Y-112864041D01*
X106540610Y-112866299D01*
X106490940Y-112869159D01*
X106440033Y-112872688D01*
X106386147Y-112876955D01*
X106327541Y-112882028D01*
X106262471Y-112887974D01*
X106260225Y-112888183D01*
X105946587Y-112923729D01*
X105635048Y-112971716D01*
X105325996Y-113032001D01*
X105019818Y-113104441D01*
X104716902Y-113188891D01*
X104417635Y-113285209D01*
X104122406Y-113393252D01*
X103831601Y-113512876D01*
X103545608Y-113643939D01*
X103264815Y-113786296D01*
X102989610Y-113939804D01*
X102720379Y-114104321D01*
X102457511Y-114279703D01*
X102415300Y-114309306D01*
X102161644Y-114496191D01*
X101915341Y-114693354D01*
X101676690Y-114900514D01*
X101445990Y-115117389D01*
X101223539Y-115343696D01*
X101009637Y-115579154D01*
X100804582Y-115823481D01*
X100785687Y-115847000D01*
X100598764Y-116090568D01*
X100420822Y-116342808D01*
X100252232Y-116603058D01*
X100093367Y-116870652D01*
X99944601Y-117144925D01*
X99806305Y-117425213D01*
X99678853Y-117710851D01*
X99562617Y-118001175D01*
X99532502Y-118082200D01*
X99435024Y-118365528D01*
X99348738Y-118651701D01*
X99273486Y-118941467D01*
X99209108Y-119235573D01*
X99155447Y-119534766D01*
X99112344Y-119839791D01*
X99079641Y-120151396D01*
X99070767Y-120260250D01*
X99067595Y-120311370D01*
X99064898Y-120373408D01*
X99062679Y-120444593D01*
X99060935Y-120523153D01*
X99059667Y-120607315D01*
X99058876Y-120695309D01*
X99058561Y-120785361D01*
X99058722Y-120875700D01*
X99059359Y-120964553D01*
X99060473Y-121050149D01*
X99062062Y-121130716D01*
X99064128Y-121204480D01*
X99066670Y-121269671D01*
X99069689Y-121324517D01*
X99070767Y-121339750D01*
X99095598Y-121615546D01*
X99127842Y-121882838D01*
X99167858Y-122143686D01*
X99216002Y-122400144D01*
X99272631Y-122654271D01*
X99338104Y-122908124D01*
X99351805Y-122957319D01*
X99442852Y-123257127D01*
X99545948Y-123553427D01*
X99660819Y-123845696D01*
X99787187Y-124133407D01*
X99924778Y-124416037D01*
X100073317Y-124693060D01*
X100232527Y-124963952D01*
X100402134Y-125228188D01*
X100581861Y-125485244D01*
X100771434Y-125734595D01*
X100880928Y-125869628D01*
X101004537Y-126014563D01*
X101135990Y-126161129D01*
X101272948Y-126306920D01*
X101413072Y-126449530D01*
X101554023Y-126586553D01*
X101693463Y-126715583D01*
X101764425Y-126778569D01*
X102007239Y-126982443D01*
X102257244Y-127175992D01*
X102514096Y-127359065D01*
X102777449Y-127531512D01*
X103046959Y-127693183D01*
X103322283Y-127843927D01*
X103603076Y-127983592D01*
X103888995Y-128112030D01*
X104179694Y-128229088D01*
X104474830Y-128334617D01*
X104774058Y-128428466D01*
X105077035Y-128510485D01*
X105383415Y-128580522D01*
X105692856Y-128638428D01*
X106005012Y-128684051D01*
X106161800Y-128702188D01*
X106235953Y-128709879D01*
X106303091Y-128716486D01*
X106364965Y-128722088D01*
X106423324Y-128726765D01*
X106479920Y-128730599D01*
X106536504Y-128733668D01*
X106594826Y-128736053D01*
X106656638Y-128737834D01*
X106723689Y-128739091D01*
X106797731Y-128739904D01*
X106880515Y-128740353D01*
X106973791Y-128740519D01*
X107000000Y-128740525D01*
X107000000Y-128825257D01*
X106896206Y-128825961D01*
X106582399Y-128815831D01*
X106269019Y-128793431D01*
X105956445Y-128758748D01*
X105645052Y-128711771D01*
X105335217Y-128652488D01*
X105027317Y-128580887D01*
X104721728Y-128496955D01*
X104504450Y-128429244D01*
X104203487Y-128324074D01*
X103907463Y-128207255D01*
X103616663Y-128078952D01*
X103331376Y-127939335D01*
X103051888Y-127788571D01*
X102778485Y-127626826D01*
X102511455Y-127454269D01*
X102251084Y-127271068D01*
X101997661Y-127077389D01*
X101751470Y-126873401D01*
X101580275Y-126721538D01*
X101548295Y-126691783D01*
X101509116Y-126654406D01*
X101464307Y-126610971D01*
X101415433Y-126563046D01*
X101364061Y-126512197D01*
X101311757Y-126459992D01*
X101260090Y-126407996D01*
X101210624Y-126357778D01*
X101164928Y-126310903D01*
X101124568Y-126268938D01*
X101091110Y-126233451D01*
X101078462Y-126219725D01*
X100867276Y-125978953D01*
X100666321Y-125730816D01*
X100475760Y-125475604D01*
X100295753Y-125213605D01*
X100126464Y-124945110D01*
X99968054Y-124670406D01*
X99820685Y-124389784D01*
X99684520Y-124103531D01*
X99559720Y-123811939D01*
X99446447Y-123515295D01*
X99344863Y-123213889D01*
X99287174Y-123022500D01*
X99204847Y-122713603D01*
X99134900Y-122401890D01*
X99077345Y-122087412D01*
X99032191Y-121770225D01*
X99002451Y-121485800D01*
X98987578Y-121278403D01*
X98978156Y-121063293D01*
X98974202Y-120844240D01*
X98975735Y-120625009D01*
G37*
X98975735Y-120625009D02*
X98982774Y-120409371D01*
X98995337Y-120201091D01*
X98996151Y-120190400D01*
X99027031Y-119871626D01*
X99070289Y-119555426D01*
X99125818Y-119242096D01*
X99193510Y-118931928D01*
X99273257Y-118625218D01*
X99364950Y-118322259D01*
X99468480Y-118023346D01*
X99583741Y-117728773D01*
X99710622Y-117438834D01*
X99849017Y-117153823D01*
X99998816Y-116874035D01*
X100159912Y-116599763D01*
X100332196Y-116331301D01*
X100510716Y-116075600D01*
X100698759Y-115827604D01*
X100897428Y-115586079D01*
X101106041Y-115351714D01*
X101323919Y-115125199D01*
X101550380Y-114907223D01*
X101784742Y-114698476D01*
X102026326Y-114499645D01*
X102200161Y-114366140D01*
X102458787Y-114181124D01*
X102724146Y-114006770D01*
X102995861Y-113843239D01*
X103273556Y-113690694D01*
X103556854Y-113549296D01*
X103845380Y-113419206D01*
X104138756Y-113300587D01*
X104436608Y-113193601D01*
X104738557Y-113098409D01*
X105044229Y-113015173D01*
X105353246Y-112944055D01*
X105631575Y-112890945D01*
X105804235Y-112862958D01*
X105975168Y-112838963D01*
X106147803Y-112818561D01*
X106325570Y-112801352D01*
X106511896Y-112786937D01*
X106539625Y-112785069D01*
X106579936Y-112782958D01*
X106631142Y-112781165D01*
X106691464Y-112779689D01*
X106759124Y-112778531D01*
X106832341Y-112777690D01*
X106909338Y-112777167D01*
X106988334Y-112776961D01*
X107067552Y-112777074D01*
X107145212Y-112777504D01*
X107219534Y-112778252D01*
X107288741Y-112779319D01*
X107351053Y-112780704D01*
X107404691Y-112782407D01*
X107447876Y-112784429D01*
X107457200Y-112785009D01*
X107725334Y-112806361D01*
X107984351Y-112834324D01*
X108236148Y-112869188D01*
X108482622Y-112911243D01*
X108725671Y-112960779D01*
X108943241Y-113012045D01*
X109253427Y-113096259D01*
X109558673Y-113192154D01*
X109858811Y-113299638D01*
X110153671Y-113418622D01*
X110443085Y-113549016D01*
X110726882Y-113690729D01*
X111004895Y-113843671D01*
X111276954Y-114007753D01*
X111542889Y-114182883D01*
X111802532Y-114368972D01*
X112055714Y-114565930D01*
X112302265Y-114773666D01*
X112383239Y-114845554D01*
X112418069Y-114877512D01*
X112460027Y-114917042D01*
X112507566Y-114962613D01*
X112559144Y-115012690D01*
X112613214Y-115065738D01*
X112668232Y-115120224D01*
X112722654Y-115174614D01*
X112774935Y-115227374D01*
X112823529Y-115276969D01*
X112866893Y-115321866D01*
X112903481Y-115360531D01*
X112921698Y-115380275D01*
X113134082Y-115622836D01*
X113335786Y-115872174D01*
X113526703Y-116128032D01*
X113706729Y-116390154D01*
X113875757Y-116658283D01*
X114033681Y-116932164D01*
X114180395Y-117211538D01*
X114315794Y-117496149D01*
X114439772Y-117785742D01*
X114552223Y-118080059D01*
X114653041Y-118378844D01*
X114742120Y-118681840D01*
X114819355Y-118988790D01*
X114884638Y-119299438D01*
X114937866Y-119613528D01*
X114978931Y-119930802D01*
X115007728Y-120251004D01*
X115020087Y-120466625D01*
X115021469Y-120505981D01*
X115022637Y-120555474D01*
X115023583Y-120612849D01*
X115024301Y-120675849D01*
X115024782Y-120742219D01*
X115025020Y-120809705D01*
X115025006Y-120876049D01*
X115024734Y-120938997D01*
X115024196Y-120996292D01*
X115023385Y-121045681D01*
X115022293Y-121084906D01*
X115022138Y-121088925D01*
X115003071Y-121410722D01*
X114971720Y-121729955D01*
X114928190Y-122046341D01*
X114872587Y-122359596D01*
X114805016Y-122669438D01*
X114725583Y-122975584D01*
X114634392Y-123277751D01*
X114531550Y-123575655D01*
X114417162Y-123869013D01*
X114291333Y-124157543D01*
X114154168Y-124440962D01*
X114005773Y-124718985D01*
X113846253Y-124991331D01*
X113675714Y-125257715D01*
X113494261Y-125517856D01*
X113302000Y-125771470D01*
X113258532Y-125826025D01*
X113082109Y-126037418D01*
X112894938Y-126246302D01*
X112698964Y-126450677D01*
X112496129Y-126648541D01*
X112288375Y-126837893D01*
X112210175Y-126905801D01*
X111969527Y-127103678D01*
X111720284Y-127292429D01*
X111463034Y-127471698D01*
X111198365Y-127641129D01*
X110926867Y-127800368D01*
X110649127Y-127949059D01*
X110365734Y-128086847D01*
X110077277Y-128213377D01*
X109974975Y-128255038D01*
X109677599Y-128366951D01*
X109376886Y-128466713D01*
X109073211Y-128554313D01*
X108766952Y-128629739D01*
X108458484Y-128692978D01*
X108148185Y-128744020D01*
X107836431Y-128782850D01*
X107523599Y-128809459D01*
X107210065Y-128823833D01*
X107000000Y-128825257D01*
X107000000Y-128740525D01*
X107096293Y-128740420D01*
X107181638Y-128740053D01*
X107257786Y-128739342D01*
X107326488Y-128738208D01*
X107389495Y-128736571D01*
X107448557Y-128734351D01*
X107505424Y-128731468D01*
X107561849Y-128727841D01*
X107619581Y-128723391D01*
X107680371Y-128718037D01*
X107745971Y-128711699D01*
X107818131Y-128704298D01*
X107838200Y-128702188D01*
X108151784Y-128662733D01*
X108462810Y-128610918D01*
X108770937Y-128546887D01*
X109075827Y-128470786D01*
X109377138Y-128382758D01*
X109674531Y-128282949D01*
X109967665Y-128171503D01*
X110256201Y-128048565D01*
X110539799Y-127914278D01*
X110818118Y-127768789D01*
X111090819Y-127612242D01*
X111357562Y-127444781D01*
X111618007Y-127266550D01*
X111871813Y-127077696D01*
X112111595Y-126884278D01*
X112181174Y-126825300D01*
X112246716Y-126768385D01*
X112310173Y-126711728D01*
X112373500Y-126653524D01*
X112438647Y-126591968D01*
X112507568Y-126525256D01*
X112582215Y-126451582D01*
X112613744Y-126420129D01*
X112740062Y-126291722D01*
X112857562Y-126167782D01*
X112968192Y-126046037D01*
X113073898Y-125924215D01*
X113176628Y-125800044D01*
X113278330Y-125671255D01*
X113380950Y-125535573D01*
X113434290Y-125462960D01*
X113603233Y-125220788D01*
X113764170Y-124969703D01*
X113916523Y-124710879D01*
X114059718Y-124445489D01*
X114193179Y-124174710D01*
X114316331Y-123899715D01*
X114428598Y-123621679D01*
X114529404Y-123341777D01*
X114618175Y-123061182D01*
X114628524Y-123025675D01*
X114691549Y-122796154D01*
X114746941Y-122570120D01*
X114795055Y-122345439D01*
X114836244Y-122119972D01*
X114870863Y-121891585D01*
X114899267Y-121658141D01*
X114921810Y-121417502D01*
X114938847Y-121167534D01*
X114939864Y-121149250D01*
X114940894Y-121121293D01*
X114941600Y-121082221D01*
X114942002Y-121033615D01*
X114942121Y-120977056D01*
X114941975Y-120914126D01*
X114941584Y-120846404D01*
X114940970Y-120775472D01*
X114940150Y-120702911D01*
X114939146Y-120630302D01*
X114937976Y-120559224D01*
X114936661Y-120491260D01*
X114935221Y-120427990D01*
X114933675Y-120370995D01*
X114932043Y-120321856D01*
X114930346Y-120282154D01*
X114928635Y-120253900D01*
X114916665Y-120109442D01*
X114903570Y-119974159D01*
X114888923Y-119844545D01*
X114872300Y-119717097D01*
X114853277Y-119588308D01*
X114832359Y-119460150D01*
X114773295Y-119150510D01*
X114701975Y-118843869D01*
X114618569Y-118540608D01*
X114523249Y-118241105D01*
X114416185Y-117945737D01*
X114297547Y-117654884D01*
X114167506Y-117368923D01*
X114026233Y-117088234D01*
X113873898Y-116813194D01*
X113710672Y-116544181D01*
X113536725Y-116281575D01*
X113352227Y-116025753D01*
X113190866Y-115818425D01*
X113017043Y-115610283D01*
X112833804Y-115405548D01*
X112643227Y-115206369D01*
X112447393Y-115014898D01*
X112248381Y-114833285D01*
X112184632Y-114777831D01*
X111938812Y-114574860D01*
X111685875Y-114382363D01*
X111426036Y-114200468D01*
X111159510Y-114029306D01*
X110886511Y-113869009D01*
X110607255Y-113719705D01*
X110321957Y-113581527D01*
X110030832Y-113454604D01*
X109954666Y-113423646D01*
X109657325Y-113311364D01*
X109356408Y-113211208D01*
X109052227Y-113123252D01*
X108745092Y-113047572D01*
X108435316Y-112984244D01*
X108123210Y-112933342D01*
X107809086Y-112894942D01*
X107739775Y-112888183D01*
X107674465Y-112882207D01*
X107615676Y-112877107D01*
X107561664Y-112872815D01*
X107510687Y-112869263D01*
X107461004Y-112866382D01*
X107410873Y-112864106D01*
X107358551Y-112862366D01*
X107302296Y-112861093D01*
X107240367Y-112860221D01*
X107171022Y-112859681D01*
X107092518Y-112859405D01*
X107003113Y-112859326D01*
X107000000Y-112859325D01*
X106910211Y-112859400D01*
X106831379Y-112859668D01*
X106761763Y-112860199D01*
X106699620Y-112861059D01*
X106643208Y-112862317D01*
X106590785Y-112864041D01*
X106540610Y-112866299D01*
X106490940Y-112869159D01*
X106440033Y-112872688D01*
X106386147Y-112876955D01*
X106327541Y-112882028D01*
X106262471Y-112887974D01*
X106260225Y-112888183D01*
X105946587Y-112923729D01*
X105635048Y-112971716D01*
X105325996Y-113032001D01*
X105019818Y-113104441D01*
X104716902Y-113188891D01*
X104417635Y-113285209D01*
X104122406Y-113393252D01*
X103831601Y-113512876D01*
X103545608Y-113643939D01*
X103264815Y-113786296D01*
X102989610Y-113939804D01*
X102720379Y-114104321D01*
X102457511Y-114279703D01*
X102415300Y-114309306D01*
X102161644Y-114496191D01*
X101915341Y-114693354D01*
X101676690Y-114900514D01*
X101445990Y-115117389D01*
X101223539Y-115343696D01*
X101009637Y-115579154D01*
X100804582Y-115823481D01*
X100785687Y-115847000D01*
X100598764Y-116090568D01*
X100420822Y-116342808D01*
X100252232Y-116603058D01*
X100093367Y-116870652D01*
X99944601Y-117144925D01*
X99806305Y-117425213D01*
X99678853Y-117710851D01*
X99562617Y-118001175D01*
X99532502Y-118082200D01*
X99435024Y-118365528D01*
X99348738Y-118651701D01*
X99273486Y-118941467D01*
X99209108Y-119235573D01*
X99155447Y-119534766D01*
X99112344Y-119839791D01*
X99079641Y-120151396D01*
X99070767Y-120260250D01*
X99067595Y-120311370D01*
X99064898Y-120373408D01*
X99062679Y-120444593D01*
X99060935Y-120523153D01*
X99059667Y-120607315D01*
X99058876Y-120695309D01*
X99058561Y-120785361D01*
X99058722Y-120875700D01*
X99059359Y-120964553D01*
X99060473Y-121050149D01*
X99062062Y-121130716D01*
X99064128Y-121204480D01*
X99066670Y-121269671D01*
X99069689Y-121324517D01*
X99070767Y-121339750D01*
X99095598Y-121615546D01*
X99127842Y-121882838D01*
X99167858Y-122143686D01*
X99216002Y-122400144D01*
X99272631Y-122654271D01*
X99338104Y-122908124D01*
X99351805Y-122957319D01*
X99442852Y-123257127D01*
X99545948Y-123553427D01*
X99660819Y-123845696D01*
X99787187Y-124133407D01*
X99924778Y-124416037D01*
X100073317Y-124693060D01*
X100232527Y-124963952D01*
X100402134Y-125228188D01*
X100581861Y-125485244D01*
X100771434Y-125734595D01*
X100880928Y-125869628D01*
X101004537Y-126014563D01*
X101135990Y-126161129D01*
X101272948Y-126306920D01*
X101413072Y-126449530D01*
X101554023Y-126586553D01*
X101693463Y-126715583D01*
X101764425Y-126778569D01*
X102007239Y-126982443D01*
X102257244Y-127175992D01*
X102514096Y-127359065D01*
X102777449Y-127531512D01*
X103046959Y-127693183D01*
X103322283Y-127843927D01*
X103603076Y-127983592D01*
X103888995Y-128112030D01*
X104179694Y-128229088D01*
X104474830Y-128334617D01*
X104774058Y-128428466D01*
X105077035Y-128510485D01*
X105383415Y-128580522D01*
X105692856Y-128638428D01*
X106005012Y-128684051D01*
X106161800Y-128702188D01*
X106235953Y-128709879D01*
X106303091Y-128716486D01*
X106364965Y-128722088D01*
X106423324Y-128726765D01*
X106479920Y-128730599D01*
X106536504Y-128733668D01*
X106594826Y-128736053D01*
X106656638Y-128737834D01*
X106723689Y-128739091D01*
X106797731Y-128739904D01*
X106880515Y-128740353D01*
X106973791Y-128740519D01*
X107000000Y-128740525D01*
X107000000Y-128825257D01*
X106896206Y-128825961D01*
X106582399Y-128815831D01*
X106269019Y-128793431D01*
X105956445Y-128758748D01*
X105645052Y-128711771D01*
X105335217Y-128652488D01*
X105027317Y-128580887D01*
X104721728Y-128496955D01*
X104504450Y-128429244D01*
X104203487Y-128324074D01*
X103907463Y-128207255D01*
X103616663Y-128078952D01*
X103331376Y-127939335D01*
X103051888Y-127788571D01*
X102778485Y-127626826D01*
X102511455Y-127454269D01*
X102251084Y-127271068D01*
X101997661Y-127077389D01*
X101751470Y-126873401D01*
X101580275Y-126721538D01*
X101548295Y-126691783D01*
X101509116Y-126654406D01*
X101464307Y-126610971D01*
X101415433Y-126563046D01*
X101364061Y-126512197D01*
X101311757Y-126459992D01*
X101260090Y-126407996D01*
X101210624Y-126357778D01*
X101164928Y-126310903D01*
X101124568Y-126268938D01*
X101091110Y-126233451D01*
X101078462Y-126219725D01*
X100867276Y-125978953D01*
X100666321Y-125730816D01*
X100475760Y-125475604D01*
X100295753Y-125213605D01*
X100126464Y-124945110D01*
X99968054Y-124670406D01*
X99820685Y-124389784D01*
X99684520Y-124103531D01*
X99559720Y-123811939D01*
X99446447Y-123515295D01*
X99344863Y-123213889D01*
X99287174Y-123022500D01*
X99204847Y-122713603D01*
X99134900Y-122401890D01*
X99077345Y-122087412D01*
X99032191Y-121770225D01*
X99002451Y-121485800D01*
X98987578Y-121278403D01*
X98978156Y-121063293D01*
X98974202Y-120844240D01*
X98975735Y-120625009D01*
D12*
X138850000Y-82920000D02*
X138840000Y-82920000D01*
X138850000Y-76070000D02*
X138850000Y-82920000D01*
X126160000Y-76070000D02*
X138850000Y-76070000D01*
X126150000Y-82930000D02*
X126150000Y-76070000D01*
X138850000Y-82930000D02*
X126150000Y-82930000D01*
X126150000Y-51080000D02*
X126160000Y-51080000D01*
X126150000Y-57930000D02*
X126150000Y-51080000D01*
X138840000Y-57930000D02*
X126150000Y-57930000D01*
X138850000Y-51070000D02*
X138850000Y-57930000D01*
X126150000Y-51070000D02*
X138850000Y-51070000D01*
X88850000Y-57920000D02*
X88840000Y-57920000D01*
X88850000Y-51070000D02*
X88850000Y-57920000D01*
X76160000Y-51070000D02*
X88850000Y-51070000D01*
X76150000Y-57930000D02*
X76150000Y-51070000D01*
X88850000Y-57930000D02*
X76150000Y-57930000D01*
X130690000Y-110380000D02*
X131520000Y-110380000D01*
X133140000Y-110380000D02*
X133670000Y-110380000D01*
X136040000Y-110380000D02*
X137220000Y-110380000D01*
X127480000Y-110380000D02*
X127480000Y-115100000D01*
X137220000Y-118910000D02*
X137220000Y-121970000D01*
X137230000Y-110380000D02*
X137230000Y-115100000D01*
X127480000Y-118910000D02*
X127480000Y-121970000D01*
X127480000Y-110380000D02*
X128970000Y-110380000D01*
X127480000Y-121970000D02*
X137220000Y-121970000D01*
X84160000Y-123620000D02*
X83330000Y-123620000D01*
X81710000Y-123620000D02*
X81180000Y-123620000D01*
X78810000Y-123620000D02*
X77630000Y-123620000D01*
X87370000Y-123620000D02*
X87370000Y-118900000D01*
X77630000Y-115090000D02*
X77630000Y-112030000D01*
X77620000Y-123620000D02*
X77620000Y-118900000D01*
X87370000Y-115090000D02*
X87370000Y-112030000D01*
X87370000Y-123620000D02*
X85880000Y-123620000D01*
X87370000Y-112030000D02*
X77630000Y-112030000D01*
D14*
X134252380Y-93333333D02*
X133776190Y-93666666D01*
X134252380Y-93904761D02*
X133252380Y-93904761D01*
X133252380Y-93523809D01*
X133300000Y-93428571D01*
X133347619Y-93380952D01*
X133442857Y-93333333D01*
X133585714Y-93333333D01*
X133680952Y-93380952D01*
X133728571Y-93428571D01*
X133776190Y-93523809D01*
X133776190Y-93904761D01*
X133728571Y-92904761D02*
X133728571Y-92571428D01*
X134252380Y-92428571D02*
X134252380Y-92904761D01*
X133252380Y-92904761D01*
X133252380Y-92428571D01*
X133728571Y-91666666D02*
X133728571Y-92000000D01*
X134252380Y-92000000D02*
X133252380Y-92000000D01*
X133252380Y-91523809D01*
X133252380Y-91000000D02*
X133490476Y-91000000D01*
X133395238Y-91238095D02*
X133490476Y-91000000D01*
X133395238Y-90761904D01*
X133680952Y-91142857D02*
X133490476Y-91000000D01*
X133680952Y-90857142D01*
X133252380Y-90238095D02*
X133490476Y-90238095D01*
X133395238Y-90476190D02*
X133490476Y-90238095D01*
X133395238Y-90000000D01*
X133680952Y-90380952D02*
X133490476Y-90238095D01*
X133680952Y-90095238D01*
X73904761Y-80833333D02*
X73952380Y-80690476D01*
X73952380Y-80452380D01*
X73904761Y-80357142D01*
X73857142Y-80309523D01*
X73761904Y-80261904D01*
X73666666Y-80261904D01*
X73571428Y-80309523D01*
X73523809Y-80357142D01*
X73476190Y-80452380D01*
X73428571Y-80642857D01*
X73380952Y-80738095D01*
X73333333Y-80785714D01*
X73238095Y-80833333D01*
X73142857Y-80833333D01*
X73047619Y-80785714D01*
X73000000Y-80738095D01*
X72952380Y-80642857D01*
X72952380Y-80404761D01*
X73000000Y-80261904D01*
X72952380Y-79928571D02*
X73952380Y-79690476D01*
X73238095Y-79500000D01*
X73952380Y-79309523D01*
X72952380Y-79071428D01*
X73047619Y-78738095D02*
X73000000Y-78690476D01*
X72952380Y-78595238D01*
X72952380Y-78357142D01*
X73000000Y-78261904D01*
X73047619Y-78214285D01*
X73142857Y-78166666D01*
X73238095Y-78166666D01*
X73380952Y-78214285D01*
X73952380Y-78785714D01*
X73952380Y-78166666D01*
X141904761Y-80833333D02*
X141952380Y-80690476D01*
X141952380Y-80452380D01*
X141904761Y-80357142D01*
X141857142Y-80309523D01*
X141761904Y-80261904D01*
X141666666Y-80261904D01*
X141571428Y-80309523D01*
X141523809Y-80357142D01*
X141476190Y-80452380D01*
X141428571Y-80642857D01*
X141380952Y-80738095D01*
X141333333Y-80785714D01*
X141238095Y-80833333D01*
X141142857Y-80833333D01*
X141047619Y-80785714D01*
X141000000Y-80738095D01*
X140952380Y-80642857D01*
X140952380Y-80404761D01*
X141000000Y-80261904D01*
X140952380Y-79928571D02*
X141952380Y-79690476D01*
X141238095Y-79500000D01*
X141952380Y-79309523D01*
X140952380Y-79071428D01*
X141285714Y-78261904D02*
X141952380Y-78261904D01*
X140904761Y-78500000D02*
X141619047Y-78738095D01*
X141619047Y-78119047D01*
X123904761Y-55833333D02*
X123952380Y-55690476D01*
X123952380Y-55452380D01*
X123904761Y-55357142D01*
X123857142Y-55309523D01*
X123761904Y-55261904D01*
X123666666Y-55261904D01*
X123571428Y-55309523D01*
X123523809Y-55357142D01*
X123476190Y-55452380D01*
X123428571Y-55642857D01*
X123380952Y-55738095D01*
X123333333Y-55785714D01*
X123238095Y-55833333D01*
X123142857Y-55833333D01*
X123047619Y-55785714D01*
X123000000Y-55738095D01*
X122952380Y-55642857D01*
X122952380Y-55404761D01*
X123000000Y-55261904D01*
X122952380Y-54928571D02*
X123952380Y-54690476D01*
X123238095Y-54500000D01*
X123952380Y-54309523D01*
X122952380Y-54071428D01*
X122952380Y-53785714D02*
X122952380Y-53166666D01*
X123333333Y-53500000D01*
X123333333Y-53357142D01*
X123380952Y-53261904D01*
X123428571Y-53214285D01*
X123523809Y-53166666D01*
X123761904Y-53166666D01*
X123857142Y-53214285D01*
X123904761Y-53261904D01*
X123952380Y-53357142D01*
X123952380Y-53642857D01*
X123904761Y-53738095D01*
X123857142Y-53785714D01*
X91904761Y-55833333D02*
X91952380Y-55690476D01*
X91952380Y-55452380D01*
X91904761Y-55357142D01*
X91857142Y-55309523D01*
X91761904Y-55261904D01*
X91666666Y-55261904D01*
X91571428Y-55309523D01*
X91523809Y-55357142D01*
X91476190Y-55452380D01*
X91428571Y-55642857D01*
X91380952Y-55738095D01*
X91333333Y-55785714D01*
X91238095Y-55833333D01*
X91142857Y-55833333D01*
X91047619Y-55785714D01*
X91000000Y-55738095D01*
X90952380Y-55642857D01*
X90952380Y-55404761D01*
X91000000Y-55261904D01*
X90952380Y-54928571D02*
X91952380Y-54690476D01*
X91238095Y-54500000D01*
X91952380Y-54309523D01*
X90952380Y-54071428D01*
X91952380Y-53166666D02*
X91952380Y-53738095D01*
X91952380Y-53452380D02*
X90952380Y-53452380D01*
X91095238Y-53547619D01*
X91190476Y-53642857D01*
X91238095Y-53738095D01*
X140102380Y-116545238D02*
X139626190Y-116878571D01*
X140102380Y-117116666D02*
X139102380Y-117116666D01*
X139102380Y-116735714D01*
X139150000Y-116640476D01*
X139197619Y-116592857D01*
X139292857Y-116545238D01*
X139435714Y-116545238D01*
X139530952Y-116592857D01*
X139578571Y-116640476D01*
X139626190Y-116735714D01*
X139626190Y-117116666D01*
X139102380Y-116259523D02*
X140102380Y-115926190D01*
X139102380Y-115592857D01*
X139197619Y-115307142D02*
X139150000Y-115259523D01*
X139102380Y-115164285D01*
X139102380Y-114926190D01*
X139150000Y-114830952D01*
X139197619Y-114783333D01*
X139292857Y-114735714D01*
X139388095Y-114735714D01*
X139530952Y-114783333D01*
X140102380Y-115354761D01*
X140102380Y-114735714D01*
X71252380Y-93333333D02*
X70776190Y-93666666D01*
X71252380Y-93904761D02*
X70252380Y-93904761D01*
X70252380Y-93523809D01*
X70300000Y-93428571D01*
X70347619Y-93380952D01*
X70442857Y-93333333D01*
X70585714Y-93333333D01*
X70680952Y-93380952D01*
X70728571Y-93428571D01*
X70776190Y-93523809D01*
X70776190Y-93904761D01*
X70728571Y-92904761D02*
X70728571Y-92571428D01*
X71252380Y-92428571D02*
X71252380Y-92904761D01*
X70252380Y-92904761D01*
X70252380Y-92428571D01*
X70728571Y-91666666D02*
X70728571Y-92000000D01*
X71252380Y-92000000D02*
X70252380Y-92000000D01*
X70252380Y-91523809D01*
X70252380Y-91000000D02*
X70490476Y-91000000D01*
X70395238Y-91238095D02*
X70490476Y-91000000D01*
X70395238Y-90761904D01*
X70680952Y-91142857D02*
X70490476Y-91000000D01*
X70680952Y-90857142D01*
X70252380Y-90238095D02*
X70490476Y-90238095D01*
X70395238Y-90476190D02*
X70490476Y-90238095D01*
X70395238Y-90000000D01*
X70680952Y-90380952D02*
X70490476Y-90238095D01*
X70680952Y-90095238D01*
X75652380Y-118645238D02*
X75176190Y-118978571D01*
X75652380Y-119216666D02*
X74652380Y-119216666D01*
X74652380Y-118835714D01*
X74700000Y-118740476D01*
X74747619Y-118692857D01*
X74842857Y-118645238D01*
X74985714Y-118645238D01*
X75080952Y-118692857D01*
X75128571Y-118740476D01*
X75176190Y-118835714D01*
X75176190Y-119216666D01*
X74652380Y-118359523D02*
X75652380Y-118026190D01*
X74652380Y-117692857D01*
X75652380Y-116835714D02*
X75652380Y-117407142D01*
X75652380Y-117121428D02*
X74652380Y-117121428D01*
X74795238Y-117216666D01*
X74890476Y-117311904D01*
X74938095Y-117407142D01*
M02*
