G04 #@! TF.GenerationSoftware,KiCad,Pcbnew,5.1.5-52549c5~84~ubuntu18.04.1*
G04 #@! TF.CreationDate,2020-05-11T15:13:20-04:00*
G04 #@! TF.ProjectId,gategrinder_panelPCB,67617465-6772-4696-9e64-65725f70616e,rev?*
G04 #@! TF.SameCoordinates,Original*
G04 #@! TF.FileFunction,Copper,L2,Bot*
G04 #@! TF.FilePolarity,Positive*
%FSLAX46Y46*%
G04 Gerber Fmt 4.6, Leading zero omitted, Abs format (unit mm)*
G04 Created by KiCad (PCBNEW 5.1.5-52549c5~84~ubuntu18.04.1) date 2020-05-11 15:13:20*
%MOMM*%
%LPD*%
G04 APERTURE LIST*
%ADD10C,3.100000*%
%ADD11C,3.240000*%
%ADD12C,1.800000*%
%ADD13R,1.800000X1.800000*%
%ADD14O,1.700000X1.700000*%
%ADD15R,1.700000X1.700000*%
%ADD16C,0.250000*%
%ADD17C,0.254000*%
G04 APERTURE END LIST*
D10*
X87200000Y-79500000D03*
X77800000Y-79500000D03*
X82500000Y-79500000D03*
X127800000Y-79500000D03*
X137200000Y-79500000D03*
X132500000Y-79500000D03*
X137200000Y-54500000D03*
X127800000Y-54500000D03*
X132500000Y-54500000D03*
X77800000Y-54500000D03*
X87200000Y-54500000D03*
X82500000Y-54500000D03*
D11*
X137150000Y-117000000D03*
X127550000Y-117000000D03*
D12*
X129850000Y-109500000D03*
X132350000Y-109500000D03*
D13*
X134850000Y-109500000D03*
D11*
X77700000Y-117000000D03*
X87300000Y-117000000D03*
D12*
X85000000Y-124500000D03*
X82500000Y-124500000D03*
D13*
X80000000Y-124500000D03*
D14*
X123000000Y-108520000D03*
X123000000Y-105980000D03*
X123000000Y-103440000D03*
X123000000Y-100900000D03*
X123000000Y-98360000D03*
X123000000Y-95820000D03*
X123000000Y-93280000D03*
X123000000Y-90740000D03*
X123000000Y-88200000D03*
X123000000Y-85660000D03*
X123000000Y-83120000D03*
X123000000Y-80580000D03*
X123000000Y-78040000D03*
D15*
X123000000Y-75500000D03*
D16*
X128000000Y-100980000D02*
X123000000Y-105980000D01*
X132500000Y-79500000D02*
X128000000Y-84000000D01*
X128000000Y-84000000D02*
X128000000Y-100980000D01*
X127500000Y-98940000D02*
X123000000Y-103440000D01*
X127800000Y-79500000D02*
X127500000Y-79800000D01*
X127500000Y-79800000D02*
X127500000Y-98940000D01*
X120500000Y-98400000D02*
X123000000Y-100900000D01*
X120500000Y-85500000D02*
X120500000Y-98400000D01*
X118500000Y-83500000D02*
X120500000Y-85500000D01*
X82500000Y-79500000D02*
X86500000Y-83500000D01*
X86500000Y-83500000D02*
X118500000Y-83500000D01*
X132500000Y-54500000D02*
X125500000Y-61500000D01*
X125500000Y-95860000D02*
X123000000Y-98360000D01*
X125500000Y-61500000D02*
X125500000Y-95860000D01*
X134700000Y-52000000D02*
X135650001Y-52950001D01*
X126500000Y-52000000D02*
X134700000Y-52000000D01*
X125049989Y-53450011D02*
X126500000Y-52000000D01*
X123000000Y-95820000D02*
X125049989Y-93770011D01*
X135650001Y-52950001D02*
X137200000Y-54500000D01*
X125049989Y-93770011D02*
X125049989Y-53450011D01*
X119170000Y-83000000D02*
X121830000Y-85660000D01*
X121830000Y-85660000D02*
X123000000Y-85660000D01*
X87200000Y-79500000D02*
X90700000Y-83000000D01*
X90700000Y-83000000D02*
X119170000Y-83000000D01*
D17*
G36*
X143340001Y-139340000D02*
G01*
X68660000Y-139340000D01*
X68660000Y-123600000D01*
X78461928Y-123600000D01*
X78461928Y-125400000D01*
X78474188Y-125524482D01*
X78510498Y-125644180D01*
X78569463Y-125754494D01*
X78648815Y-125851185D01*
X78745506Y-125930537D01*
X78855820Y-125989502D01*
X78975518Y-126025812D01*
X79100000Y-126038072D01*
X80900000Y-126038072D01*
X81024482Y-126025812D01*
X81144180Y-125989502D01*
X81254494Y-125930537D01*
X81351185Y-125851185D01*
X81430537Y-125754494D01*
X81483880Y-125654697D01*
X81521495Y-125692312D01*
X81772905Y-125860299D01*
X82052257Y-125976011D01*
X82348816Y-126035000D01*
X82651184Y-126035000D01*
X82947743Y-125976011D01*
X83227095Y-125860299D01*
X83478505Y-125692312D01*
X83692312Y-125478505D01*
X83750000Y-125392169D01*
X83807688Y-125478505D01*
X84021495Y-125692312D01*
X84272905Y-125860299D01*
X84552257Y-125976011D01*
X84848816Y-126035000D01*
X85151184Y-126035000D01*
X85447743Y-125976011D01*
X85727095Y-125860299D01*
X85978505Y-125692312D01*
X86192312Y-125478505D01*
X86360299Y-125227095D01*
X86476011Y-124947743D01*
X86535000Y-124651184D01*
X86535000Y-124348816D01*
X86476011Y-124052257D01*
X86360299Y-123772905D01*
X86192312Y-123521495D01*
X85978505Y-123307688D01*
X85727095Y-123139701D01*
X85447743Y-123023989D01*
X85151184Y-122965000D01*
X84848816Y-122965000D01*
X84552257Y-123023989D01*
X84272905Y-123139701D01*
X84021495Y-123307688D01*
X83807688Y-123521495D01*
X83750000Y-123607831D01*
X83692312Y-123521495D01*
X83478505Y-123307688D01*
X83227095Y-123139701D01*
X82947743Y-123023989D01*
X82651184Y-122965000D01*
X82348816Y-122965000D01*
X82052257Y-123023989D01*
X81772905Y-123139701D01*
X81521495Y-123307688D01*
X81483880Y-123345303D01*
X81430537Y-123245506D01*
X81351185Y-123148815D01*
X81254494Y-123069463D01*
X81144180Y-123010498D01*
X81024482Y-122974188D01*
X80900000Y-122961928D01*
X79100000Y-122961928D01*
X78975518Y-122974188D01*
X78855820Y-123010498D01*
X78745506Y-123069463D01*
X78648815Y-123148815D01*
X78569463Y-123245506D01*
X78510498Y-123355820D01*
X78474188Y-123475518D01*
X78461928Y-123600000D01*
X68660000Y-123600000D01*
X68660000Y-116777902D01*
X75445000Y-116777902D01*
X75445000Y-117222098D01*
X75531658Y-117657759D01*
X75701645Y-118068143D01*
X75948427Y-118437479D01*
X76262521Y-118751573D01*
X76631857Y-118998355D01*
X77042241Y-119168342D01*
X77477902Y-119255000D01*
X77922098Y-119255000D01*
X78357759Y-119168342D01*
X78768143Y-118998355D01*
X79137479Y-118751573D01*
X79451573Y-118437479D01*
X79698355Y-118068143D01*
X79868342Y-117657759D01*
X79955000Y-117222098D01*
X79955000Y-116777902D01*
X85045000Y-116777902D01*
X85045000Y-117222098D01*
X85131658Y-117657759D01*
X85301645Y-118068143D01*
X85548427Y-118437479D01*
X85862521Y-118751573D01*
X86231857Y-118998355D01*
X86642241Y-119168342D01*
X87077902Y-119255000D01*
X87522098Y-119255000D01*
X87957759Y-119168342D01*
X88368143Y-118998355D01*
X88737479Y-118751573D01*
X89051573Y-118437479D01*
X89298355Y-118068143D01*
X89468342Y-117657759D01*
X89555000Y-117222098D01*
X89555000Y-116777902D01*
X125295000Y-116777902D01*
X125295000Y-117222098D01*
X125381658Y-117657759D01*
X125551645Y-118068143D01*
X125798427Y-118437479D01*
X126112521Y-118751573D01*
X126481857Y-118998355D01*
X126892241Y-119168342D01*
X127327902Y-119255000D01*
X127772098Y-119255000D01*
X128207759Y-119168342D01*
X128618143Y-118998355D01*
X128987479Y-118751573D01*
X129301573Y-118437479D01*
X129548355Y-118068143D01*
X129718342Y-117657759D01*
X129805000Y-117222098D01*
X129805000Y-116777902D01*
X134895000Y-116777902D01*
X134895000Y-117222098D01*
X134981658Y-117657759D01*
X135151645Y-118068143D01*
X135398427Y-118437479D01*
X135712521Y-118751573D01*
X136081857Y-118998355D01*
X136492241Y-119168342D01*
X136927902Y-119255000D01*
X137372098Y-119255000D01*
X137807759Y-119168342D01*
X138218143Y-118998355D01*
X138587479Y-118751573D01*
X138901573Y-118437479D01*
X139148355Y-118068143D01*
X139318342Y-117657759D01*
X139405000Y-117222098D01*
X139405000Y-116777902D01*
X139318342Y-116342241D01*
X139148355Y-115931857D01*
X138901573Y-115562521D01*
X138587479Y-115248427D01*
X138218143Y-115001645D01*
X137807759Y-114831658D01*
X137372098Y-114745000D01*
X136927902Y-114745000D01*
X136492241Y-114831658D01*
X136081857Y-115001645D01*
X135712521Y-115248427D01*
X135398427Y-115562521D01*
X135151645Y-115931857D01*
X134981658Y-116342241D01*
X134895000Y-116777902D01*
X129805000Y-116777902D01*
X129718342Y-116342241D01*
X129548355Y-115931857D01*
X129301573Y-115562521D01*
X128987479Y-115248427D01*
X128618143Y-115001645D01*
X128207759Y-114831658D01*
X127772098Y-114745000D01*
X127327902Y-114745000D01*
X126892241Y-114831658D01*
X126481857Y-115001645D01*
X126112521Y-115248427D01*
X125798427Y-115562521D01*
X125551645Y-115931857D01*
X125381658Y-116342241D01*
X125295000Y-116777902D01*
X89555000Y-116777902D01*
X89468342Y-116342241D01*
X89298355Y-115931857D01*
X89051573Y-115562521D01*
X88737479Y-115248427D01*
X88368143Y-115001645D01*
X87957759Y-114831658D01*
X87522098Y-114745000D01*
X87077902Y-114745000D01*
X86642241Y-114831658D01*
X86231857Y-115001645D01*
X85862521Y-115248427D01*
X85548427Y-115562521D01*
X85301645Y-115931857D01*
X85131658Y-116342241D01*
X85045000Y-116777902D01*
X79955000Y-116777902D01*
X79868342Y-116342241D01*
X79698355Y-115931857D01*
X79451573Y-115562521D01*
X79137479Y-115248427D01*
X78768143Y-115001645D01*
X78357759Y-114831658D01*
X77922098Y-114745000D01*
X77477902Y-114745000D01*
X77042241Y-114831658D01*
X76631857Y-115001645D01*
X76262521Y-115248427D01*
X75948427Y-115562521D01*
X75701645Y-115931857D01*
X75531658Y-116342241D01*
X75445000Y-116777902D01*
X68660000Y-116777902D01*
X68660000Y-108876890D01*
X121558524Y-108876890D01*
X121603175Y-109024099D01*
X121728359Y-109286920D01*
X121902412Y-109520269D01*
X122118645Y-109715178D01*
X122368748Y-109864157D01*
X122643109Y-109961481D01*
X122873000Y-109840814D01*
X122873000Y-108647000D01*
X123127000Y-108647000D01*
X123127000Y-109840814D01*
X123356891Y-109961481D01*
X123631252Y-109864157D01*
X123881355Y-109715178D01*
X124097588Y-109520269D01*
X124225473Y-109348816D01*
X128315000Y-109348816D01*
X128315000Y-109651184D01*
X128373989Y-109947743D01*
X128489701Y-110227095D01*
X128657688Y-110478505D01*
X128871495Y-110692312D01*
X129122905Y-110860299D01*
X129402257Y-110976011D01*
X129698816Y-111035000D01*
X130001184Y-111035000D01*
X130297743Y-110976011D01*
X130577095Y-110860299D01*
X130828505Y-110692312D01*
X131042312Y-110478505D01*
X131100000Y-110392169D01*
X131157688Y-110478505D01*
X131371495Y-110692312D01*
X131622905Y-110860299D01*
X131902257Y-110976011D01*
X132198816Y-111035000D01*
X132501184Y-111035000D01*
X132797743Y-110976011D01*
X133077095Y-110860299D01*
X133328505Y-110692312D01*
X133366120Y-110654697D01*
X133419463Y-110754494D01*
X133498815Y-110851185D01*
X133595506Y-110930537D01*
X133705820Y-110989502D01*
X133825518Y-111025812D01*
X133950000Y-111038072D01*
X135750000Y-111038072D01*
X135874482Y-111025812D01*
X135994180Y-110989502D01*
X136104494Y-110930537D01*
X136201185Y-110851185D01*
X136280537Y-110754494D01*
X136339502Y-110644180D01*
X136375812Y-110524482D01*
X136388072Y-110400000D01*
X136388072Y-108600000D01*
X136375812Y-108475518D01*
X136339502Y-108355820D01*
X136280537Y-108245506D01*
X136201185Y-108148815D01*
X136104494Y-108069463D01*
X135994180Y-108010498D01*
X135874482Y-107974188D01*
X135750000Y-107961928D01*
X133950000Y-107961928D01*
X133825518Y-107974188D01*
X133705820Y-108010498D01*
X133595506Y-108069463D01*
X133498815Y-108148815D01*
X133419463Y-108245506D01*
X133366120Y-108345303D01*
X133328505Y-108307688D01*
X133077095Y-108139701D01*
X132797743Y-108023989D01*
X132501184Y-107965000D01*
X132198816Y-107965000D01*
X131902257Y-108023989D01*
X131622905Y-108139701D01*
X131371495Y-108307688D01*
X131157688Y-108521495D01*
X131100000Y-108607831D01*
X131042312Y-108521495D01*
X130828505Y-108307688D01*
X130577095Y-108139701D01*
X130297743Y-108023989D01*
X130001184Y-107965000D01*
X129698816Y-107965000D01*
X129402257Y-108023989D01*
X129122905Y-108139701D01*
X128871495Y-108307688D01*
X128657688Y-108521495D01*
X128489701Y-108772905D01*
X128373989Y-109052257D01*
X128315000Y-109348816D01*
X124225473Y-109348816D01*
X124271641Y-109286920D01*
X124396825Y-109024099D01*
X124441476Y-108876890D01*
X124320155Y-108647000D01*
X123127000Y-108647000D01*
X122873000Y-108647000D01*
X121679845Y-108647000D01*
X121558524Y-108876890D01*
X68660000Y-108876890D01*
X68660000Y-91779872D01*
X72765000Y-91779872D01*
X72765000Y-92220128D01*
X72850890Y-92651925D01*
X73019369Y-93058669D01*
X73263962Y-93424729D01*
X73575271Y-93736038D01*
X73941331Y-93980631D01*
X74348075Y-94149110D01*
X74779872Y-94235000D01*
X75220128Y-94235000D01*
X75651925Y-94149110D01*
X76058669Y-93980631D01*
X76424729Y-93736038D01*
X76736038Y-93424729D01*
X76980631Y-93058669D01*
X77149110Y-92651925D01*
X77235000Y-92220128D01*
X77235000Y-91779872D01*
X77149110Y-91348075D01*
X76980631Y-90941331D01*
X76736038Y-90575271D01*
X76424729Y-90263962D01*
X76058669Y-90019369D01*
X75651925Y-89850890D01*
X75220128Y-89765000D01*
X74779872Y-89765000D01*
X74348075Y-89850890D01*
X73941331Y-90019369D01*
X73575271Y-90263962D01*
X73263962Y-90575271D01*
X73019369Y-90941331D01*
X72850890Y-91348075D01*
X72765000Y-91779872D01*
X68660000Y-91779872D01*
X68660000Y-81027251D01*
X76452354Y-81027251D01*
X76614381Y-81347930D01*
X76997675Y-81543725D01*
X77411803Y-81660981D01*
X77840848Y-81695192D01*
X78268324Y-81645042D01*
X78677802Y-81512461D01*
X78985619Y-81347930D01*
X79147646Y-81027251D01*
X77800000Y-79679605D01*
X76452354Y-81027251D01*
X68660000Y-81027251D01*
X68660000Y-79540848D01*
X75604808Y-79540848D01*
X75654958Y-79968324D01*
X75787539Y-80377802D01*
X75952070Y-80685619D01*
X76272749Y-80847646D01*
X77620395Y-79500000D01*
X77979605Y-79500000D01*
X79327251Y-80847646D01*
X79647930Y-80685619D01*
X79843725Y-80302325D01*
X79960981Y-79888197D01*
X79995192Y-79459152D01*
X79974738Y-79284796D01*
X80315000Y-79284796D01*
X80315000Y-79715204D01*
X80398969Y-80137341D01*
X80563678Y-80534985D01*
X80802800Y-80892856D01*
X81107144Y-81197200D01*
X81465015Y-81436322D01*
X81862659Y-81601031D01*
X82284796Y-81685000D01*
X82715204Y-81685000D01*
X83137341Y-81601031D01*
X83412327Y-81487128D01*
X85936200Y-84011002D01*
X85959999Y-84040001D01*
X86075724Y-84134974D01*
X86207753Y-84205546D01*
X86351014Y-84249003D01*
X86462667Y-84260000D01*
X86462676Y-84260000D01*
X86499999Y-84263676D01*
X86537322Y-84260000D01*
X118185199Y-84260000D01*
X119740000Y-85814802D01*
X119740001Y-98362668D01*
X119736324Y-98400000D01*
X119750998Y-98548985D01*
X119794454Y-98692246D01*
X119865026Y-98824276D01*
X119927173Y-98900001D01*
X119960000Y-98940001D01*
X119988998Y-98963799D01*
X121558790Y-100533592D01*
X121515000Y-100753740D01*
X121515000Y-101046260D01*
X121572068Y-101333158D01*
X121684010Y-101603411D01*
X121846525Y-101846632D01*
X122053368Y-102053475D01*
X122227760Y-102170000D01*
X122053368Y-102286525D01*
X121846525Y-102493368D01*
X121684010Y-102736589D01*
X121572068Y-103006842D01*
X121515000Y-103293740D01*
X121515000Y-103586260D01*
X121572068Y-103873158D01*
X121684010Y-104143411D01*
X121846525Y-104386632D01*
X122053368Y-104593475D01*
X122227760Y-104710000D01*
X122053368Y-104826525D01*
X121846525Y-105033368D01*
X121684010Y-105276589D01*
X121572068Y-105546842D01*
X121515000Y-105833740D01*
X121515000Y-106126260D01*
X121572068Y-106413158D01*
X121684010Y-106683411D01*
X121846525Y-106926632D01*
X122053368Y-107133475D01*
X122235534Y-107255195D01*
X122118645Y-107324822D01*
X121902412Y-107519731D01*
X121728359Y-107753080D01*
X121603175Y-108015901D01*
X121558524Y-108163110D01*
X121679845Y-108393000D01*
X122873000Y-108393000D01*
X122873000Y-108373000D01*
X123127000Y-108373000D01*
X123127000Y-108393000D01*
X124320155Y-108393000D01*
X124441476Y-108163110D01*
X124396825Y-108015901D01*
X124271641Y-107753080D01*
X124097588Y-107519731D01*
X123881355Y-107324822D01*
X123764466Y-107255195D01*
X123946632Y-107133475D01*
X124153475Y-106926632D01*
X124315990Y-106683411D01*
X124427932Y-106413158D01*
X124485000Y-106126260D01*
X124485000Y-105833740D01*
X124441209Y-105613592D01*
X128511003Y-101543799D01*
X128540001Y-101520001D01*
X128634974Y-101404276D01*
X128705546Y-101272247D01*
X128749003Y-101128986D01*
X128760000Y-101017333D01*
X128760000Y-101017323D01*
X128763676Y-100980000D01*
X128760000Y-100942677D01*
X128760000Y-91779872D01*
X135765000Y-91779872D01*
X135765000Y-92220128D01*
X135850890Y-92651925D01*
X136019369Y-93058669D01*
X136263962Y-93424729D01*
X136575271Y-93736038D01*
X136941331Y-93980631D01*
X137348075Y-94149110D01*
X137779872Y-94235000D01*
X138220128Y-94235000D01*
X138651925Y-94149110D01*
X139058669Y-93980631D01*
X139424729Y-93736038D01*
X139736038Y-93424729D01*
X139980631Y-93058669D01*
X140149110Y-92651925D01*
X140235000Y-92220128D01*
X140235000Y-91779872D01*
X140149110Y-91348075D01*
X139980631Y-90941331D01*
X139736038Y-90575271D01*
X139424729Y-90263962D01*
X139058669Y-90019369D01*
X138651925Y-89850890D01*
X138220128Y-89765000D01*
X137779872Y-89765000D01*
X137348075Y-89850890D01*
X136941331Y-90019369D01*
X136575271Y-90263962D01*
X136263962Y-90575271D01*
X136019369Y-90941331D01*
X135850890Y-91348075D01*
X135765000Y-91779872D01*
X128760000Y-91779872D01*
X128760000Y-84314801D01*
X131587673Y-81487129D01*
X131862659Y-81601031D01*
X132284796Y-81685000D01*
X132715204Y-81685000D01*
X133137341Y-81601031D01*
X133534985Y-81436322D01*
X133892856Y-81197200D01*
X134197200Y-80892856D01*
X134436322Y-80534985D01*
X134601031Y-80137341D01*
X134685000Y-79715204D01*
X134685000Y-79284796D01*
X135015000Y-79284796D01*
X135015000Y-79715204D01*
X135098969Y-80137341D01*
X135263678Y-80534985D01*
X135502800Y-80892856D01*
X135807144Y-81197200D01*
X136165015Y-81436322D01*
X136562659Y-81601031D01*
X136984796Y-81685000D01*
X137415204Y-81685000D01*
X137837341Y-81601031D01*
X138234985Y-81436322D01*
X138592856Y-81197200D01*
X138897200Y-80892856D01*
X139136322Y-80534985D01*
X139301031Y-80137341D01*
X139385000Y-79715204D01*
X139385000Y-79284796D01*
X139301031Y-78862659D01*
X139136322Y-78465015D01*
X138897200Y-78107144D01*
X138592856Y-77802800D01*
X138234985Y-77563678D01*
X137837341Y-77398969D01*
X137415204Y-77315000D01*
X136984796Y-77315000D01*
X136562659Y-77398969D01*
X136165015Y-77563678D01*
X135807144Y-77802800D01*
X135502800Y-78107144D01*
X135263678Y-78465015D01*
X135098969Y-78862659D01*
X135015000Y-79284796D01*
X134685000Y-79284796D01*
X134601031Y-78862659D01*
X134436322Y-78465015D01*
X134197200Y-78107144D01*
X133892856Y-77802800D01*
X133534985Y-77563678D01*
X133137341Y-77398969D01*
X132715204Y-77315000D01*
X132284796Y-77315000D01*
X131862659Y-77398969D01*
X131465015Y-77563678D01*
X131107144Y-77802800D01*
X130802800Y-78107144D01*
X130563678Y-78465015D01*
X130398969Y-78862659D01*
X130315000Y-79284796D01*
X130315000Y-79715204D01*
X130398969Y-80137341D01*
X130512871Y-80412327D01*
X128260000Y-82665199D01*
X128260000Y-81636307D01*
X128437341Y-81601031D01*
X128834985Y-81436322D01*
X129192856Y-81197200D01*
X129497200Y-80892856D01*
X129736322Y-80534985D01*
X129901031Y-80137341D01*
X129985000Y-79715204D01*
X129985000Y-79284796D01*
X129901031Y-78862659D01*
X129736322Y-78465015D01*
X129497200Y-78107144D01*
X129192856Y-77802800D01*
X128834985Y-77563678D01*
X128437341Y-77398969D01*
X128015204Y-77315000D01*
X127584796Y-77315000D01*
X127162659Y-77398969D01*
X126765015Y-77563678D01*
X126407144Y-77802800D01*
X126260000Y-77949944D01*
X126260000Y-61814801D01*
X131587673Y-56487129D01*
X131862659Y-56601031D01*
X132284796Y-56685000D01*
X132715204Y-56685000D01*
X133137341Y-56601031D01*
X133534985Y-56436322D01*
X133892856Y-56197200D01*
X134197200Y-55892856D01*
X134436322Y-55534985D01*
X134601031Y-55137341D01*
X134685000Y-54715204D01*
X134685000Y-54284796D01*
X134601031Y-53862659D01*
X134436322Y-53465015D01*
X134197200Y-53107144D01*
X133892856Y-52802800D01*
X133828801Y-52760000D01*
X134385199Y-52760000D01*
X135138998Y-53513800D01*
X135139003Y-53513804D01*
X135212872Y-53587673D01*
X135098969Y-53862659D01*
X135015000Y-54284796D01*
X135015000Y-54715204D01*
X135098969Y-55137341D01*
X135263678Y-55534985D01*
X135502800Y-55892856D01*
X135807144Y-56197200D01*
X136165015Y-56436322D01*
X136562659Y-56601031D01*
X136984796Y-56685000D01*
X137415204Y-56685000D01*
X137837341Y-56601031D01*
X138234985Y-56436322D01*
X138592856Y-56197200D01*
X138897200Y-55892856D01*
X139136322Y-55534985D01*
X139301031Y-55137341D01*
X139385000Y-54715204D01*
X139385000Y-54284796D01*
X139301031Y-53862659D01*
X139136322Y-53465015D01*
X138897200Y-53107144D01*
X138592856Y-52802800D01*
X138234985Y-52563678D01*
X137837341Y-52398969D01*
X137415204Y-52315000D01*
X136984796Y-52315000D01*
X136562659Y-52398969D01*
X136287673Y-52512872D01*
X136213804Y-52439003D01*
X136213800Y-52438998D01*
X135263804Y-51489002D01*
X135240001Y-51459999D01*
X135124276Y-51365026D01*
X134992247Y-51294454D01*
X134848986Y-51250997D01*
X134737333Y-51240000D01*
X134737322Y-51240000D01*
X134700000Y-51236324D01*
X134662678Y-51240000D01*
X126537322Y-51240000D01*
X126499999Y-51236324D01*
X126462676Y-51240000D01*
X126462667Y-51240000D01*
X126351014Y-51250997D01*
X126207753Y-51294454D01*
X126075724Y-51365026D01*
X125959999Y-51459999D01*
X125936201Y-51488997D01*
X124538987Y-52886212D01*
X124509989Y-52910010D01*
X124486191Y-52939008D01*
X124486190Y-52939009D01*
X124415015Y-53025735D01*
X124344443Y-53157765D01*
X124300987Y-53301026D01*
X124286313Y-53450011D01*
X124289990Y-53487344D01*
X124289989Y-74189627D01*
X124204494Y-74119463D01*
X124094180Y-74060498D01*
X123974482Y-74024188D01*
X123850000Y-74011928D01*
X122150000Y-74011928D01*
X122025518Y-74024188D01*
X121905820Y-74060498D01*
X121795506Y-74119463D01*
X121698815Y-74198815D01*
X121619463Y-74295506D01*
X121560498Y-74405820D01*
X121524188Y-74525518D01*
X121511928Y-74650000D01*
X121511928Y-76350000D01*
X121524188Y-76474482D01*
X121560498Y-76594180D01*
X121619463Y-76704494D01*
X121698815Y-76801185D01*
X121795506Y-76880537D01*
X121905820Y-76939502D01*
X121978380Y-76961513D01*
X121846525Y-77093368D01*
X121684010Y-77336589D01*
X121572068Y-77606842D01*
X121515000Y-77893740D01*
X121515000Y-78186260D01*
X121572068Y-78473158D01*
X121684010Y-78743411D01*
X121846525Y-78986632D01*
X122053368Y-79193475D01*
X122227760Y-79310000D01*
X122053368Y-79426525D01*
X121846525Y-79633368D01*
X121684010Y-79876589D01*
X121572068Y-80146842D01*
X121515000Y-80433740D01*
X121515000Y-80726260D01*
X121572068Y-81013158D01*
X121684010Y-81283411D01*
X121846525Y-81526632D01*
X122053368Y-81733475D01*
X122227760Y-81850000D01*
X122053368Y-81966525D01*
X121846525Y-82173368D01*
X121684010Y-82416589D01*
X121572068Y-82686842D01*
X121515000Y-82973740D01*
X121515000Y-83266260D01*
X121572068Y-83553158D01*
X121684010Y-83823411D01*
X121846525Y-84066632D01*
X122053368Y-84273475D01*
X122227760Y-84390000D01*
X122053368Y-84506525D01*
X121902347Y-84657546D01*
X119733804Y-82489003D01*
X119710001Y-82459999D01*
X119594276Y-82365026D01*
X119462247Y-82294454D01*
X119318986Y-82250997D01*
X119207333Y-82240000D01*
X119207322Y-82240000D01*
X119170000Y-82236324D01*
X119132678Y-82240000D01*
X91014803Y-82240000D01*
X89187129Y-80412327D01*
X89301031Y-80137341D01*
X89385000Y-79715204D01*
X89385000Y-79284796D01*
X89301031Y-78862659D01*
X89136322Y-78465015D01*
X88897200Y-78107144D01*
X88592856Y-77802800D01*
X88234985Y-77563678D01*
X87837341Y-77398969D01*
X87415204Y-77315000D01*
X86984796Y-77315000D01*
X86562659Y-77398969D01*
X86165015Y-77563678D01*
X85807144Y-77802800D01*
X85502800Y-78107144D01*
X85263678Y-78465015D01*
X85098969Y-78862659D01*
X85015000Y-79284796D01*
X85015000Y-79715204D01*
X85098969Y-80137341D01*
X85263678Y-80534985D01*
X85502800Y-80892856D01*
X85807144Y-81197200D01*
X86165015Y-81436322D01*
X86562659Y-81601031D01*
X86984796Y-81685000D01*
X87415204Y-81685000D01*
X87837341Y-81601031D01*
X88112327Y-81487129D01*
X89365197Y-82740000D01*
X86814802Y-82740000D01*
X84487128Y-80412327D01*
X84601031Y-80137341D01*
X84685000Y-79715204D01*
X84685000Y-79284796D01*
X84601031Y-78862659D01*
X84436322Y-78465015D01*
X84197200Y-78107144D01*
X83892856Y-77802800D01*
X83534985Y-77563678D01*
X83137341Y-77398969D01*
X82715204Y-77315000D01*
X82284796Y-77315000D01*
X81862659Y-77398969D01*
X81465015Y-77563678D01*
X81107144Y-77802800D01*
X80802800Y-78107144D01*
X80563678Y-78465015D01*
X80398969Y-78862659D01*
X80315000Y-79284796D01*
X79974738Y-79284796D01*
X79945042Y-79031676D01*
X79812461Y-78622198D01*
X79647930Y-78314381D01*
X79327251Y-78152354D01*
X77979605Y-79500000D01*
X77620395Y-79500000D01*
X76272749Y-78152354D01*
X75952070Y-78314381D01*
X75756275Y-78697675D01*
X75639019Y-79111803D01*
X75604808Y-79540848D01*
X68660000Y-79540848D01*
X68660000Y-77972749D01*
X76452354Y-77972749D01*
X77800000Y-79320395D01*
X79147646Y-77972749D01*
X78985619Y-77652070D01*
X78602325Y-77456275D01*
X78188197Y-77339019D01*
X77759152Y-77304808D01*
X77331676Y-77354958D01*
X76922198Y-77487539D01*
X76614381Y-77652070D01*
X76452354Y-77972749D01*
X68660000Y-77972749D01*
X68660000Y-54284796D01*
X75615000Y-54284796D01*
X75615000Y-54715204D01*
X75698969Y-55137341D01*
X75863678Y-55534985D01*
X76102800Y-55892856D01*
X76407144Y-56197200D01*
X76765015Y-56436322D01*
X77162659Y-56601031D01*
X77584796Y-56685000D01*
X78015204Y-56685000D01*
X78437341Y-56601031D01*
X78834985Y-56436322D01*
X79192856Y-56197200D01*
X79497200Y-55892856D01*
X79736322Y-55534985D01*
X79901031Y-55137341D01*
X79985000Y-54715204D01*
X79985000Y-54284796D01*
X80315000Y-54284796D01*
X80315000Y-54715204D01*
X80398969Y-55137341D01*
X80563678Y-55534985D01*
X80802800Y-55892856D01*
X81107144Y-56197200D01*
X81465015Y-56436322D01*
X81862659Y-56601031D01*
X82284796Y-56685000D01*
X82715204Y-56685000D01*
X83137341Y-56601031D01*
X83534985Y-56436322D01*
X83892856Y-56197200D01*
X84197200Y-55892856D01*
X84436322Y-55534985D01*
X84601031Y-55137341D01*
X84685000Y-54715204D01*
X84685000Y-54284796D01*
X85015000Y-54284796D01*
X85015000Y-54715204D01*
X85098969Y-55137341D01*
X85263678Y-55534985D01*
X85502800Y-55892856D01*
X85807144Y-56197200D01*
X86165015Y-56436322D01*
X86562659Y-56601031D01*
X86984796Y-56685000D01*
X87415204Y-56685000D01*
X87837341Y-56601031D01*
X88234985Y-56436322D01*
X88592856Y-56197200D01*
X88897200Y-55892856D01*
X89136322Y-55534985D01*
X89301031Y-55137341D01*
X89385000Y-54715204D01*
X89385000Y-54284796D01*
X89301031Y-53862659D01*
X89136322Y-53465015D01*
X88897200Y-53107144D01*
X88592856Y-52802800D01*
X88234985Y-52563678D01*
X87837341Y-52398969D01*
X87415204Y-52315000D01*
X86984796Y-52315000D01*
X86562659Y-52398969D01*
X86165015Y-52563678D01*
X85807144Y-52802800D01*
X85502800Y-53107144D01*
X85263678Y-53465015D01*
X85098969Y-53862659D01*
X85015000Y-54284796D01*
X84685000Y-54284796D01*
X84601031Y-53862659D01*
X84436322Y-53465015D01*
X84197200Y-53107144D01*
X83892856Y-52802800D01*
X83534985Y-52563678D01*
X83137341Y-52398969D01*
X82715204Y-52315000D01*
X82284796Y-52315000D01*
X81862659Y-52398969D01*
X81465015Y-52563678D01*
X81107144Y-52802800D01*
X80802800Y-53107144D01*
X80563678Y-53465015D01*
X80398969Y-53862659D01*
X80315000Y-54284796D01*
X79985000Y-54284796D01*
X79901031Y-53862659D01*
X79736322Y-53465015D01*
X79497200Y-53107144D01*
X79192856Y-52802800D01*
X78834985Y-52563678D01*
X78437341Y-52398969D01*
X78015204Y-52315000D01*
X77584796Y-52315000D01*
X77162659Y-52398969D01*
X76765015Y-52563678D01*
X76407144Y-52802800D01*
X76102800Y-53107144D01*
X75863678Y-53465015D01*
X75698969Y-53862659D01*
X75615000Y-54284796D01*
X68660000Y-54284796D01*
X68660000Y-44660000D01*
X143340000Y-44660000D01*
X143340001Y-139340000D01*
G37*
X143340001Y-139340000D02*
X68660000Y-139340000D01*
X68660000Y-123600000D01*
X78461928Y-123600000D01*
X78461928Y-125400000D01*
X78474188Y-125524482D01*
X78510498Y-125644180D01*
X78569463Y-125754494D01*
X78648815Y-125851185D01*
X78745506Y-125930537D01*
X78855820Y-125989502D01*
X78975518Y-126025812D01*
X79100000Y-126038072D01*
X80900000Y-126038072D01*
X81024482Y-126025812D01*
X81144180Y-125989502D01*
X81254494Y-125930537D01*
X81351185Y-125851185D01*
X81430537Y-125754494D01*
X81483880Y-125654697D01*
X81521495Y-125692312D01*
X81772905Y-125860299D01*
X82052257Y-125976011D01*
X82348816Y-126035000D01*
X82651184Y-126035000D01*
X82947743Y-125976011D01*
X83227095Y-125860299D01*
X83478505Y-125692312D01*
X83692312Y-125478505D01*
X83750000Y-125392169D01*
X83807688Y-125478505D01*
X84021495Y-125692312D01*
X84272905Y-125860299D01*
X84552257Y-125976011D01*
X84848816Y-126035000D01*
X85151184Y-126035000D01*
X85447743Y-125976011D01*
X85727095Y-125860299D01*
X85978505Y-125692312D01*
X86192312Y-125478505D01*
X86360299Y-125227095D01*
X86476011Y-124947743D01*
X86535000Y-124651184D01*
X86535000Y-124348816D01*
X86476011Y-124052257D01*
X86360299Y-123772905D01*
X86192312Y-123521495D01*
X85978505Y-123307688D01*
X85727095Y-123139701D01*
X85447743Y-123023989D01*
X85151184Y-122965000D01*
X84848816Y-122965000D01*
X84552257Y-123023989D01*
X84272905Y-123139701D01*
X84021495Y-123307688D01*
X83807688Y-123521495D01*
X83750000Y-123607831D01*
X83692312Y-123521495D01*
X83478505Y-123307688D01*
X83227095Y-123139701D01*
X82947743Y-123023989D01*
X82651184Y-122965000D01*
X82348816Y-122965000D01*
X82052257Y-123023989D01*
X81772905Y-123139701D01*
X81521495Y-123307688D01*
X81483880Y-123345303D01*
X81430537Y-123245506D01*
X81351185Y-123148815D01*
X81254494Y-123069463D01*
X81144180Y-123010498D01*
X81024482Y-122974188D01*
X80900000Y-122961928D01*
X79100000Y-122961928D01*
X78975518Y-122974188D01*
X78855820Y-123010498D01*
X78745506Y-123069463D01*
X78648815Y-123148815D01*
X78569463Y-123245506D01*
X78510498Y-123355820D01*
X78474188Y-123475518D01*
X78461928Y-123600000D01*
X68660000Y-123600000D01*
X68660000Y-116777902D01*
X75445000Y-116777902D01*
X75445000Y-117222098D01*
X75531658Y-117657759D01*
X75701645Y-118068143D01*
X75948427Y-118437479D01*
X76262521Y-118751573D01*
X76631857Y-118998355D01*
X77042241Y-119168342D01*
X77477902Y-119255000D01*
X77922098Y-119255000D01*
X78357759Y-119168342D01*
X78768143Y-118998355D01*
X79137479Y-118751573D01*
X79451573Y-118437479D01*
X79698355Y-118068143D01*
X79868342Y-117657759D01*
X79955000Y-117222098D01*
X79955000Y-116777902D01*
X85045000Y-116777902D01*
X85045000Y-117222098D01*
X85131658Y-117657759D01*
X85301645Y-118068143D01*
X85548427Y-118437479D01*
X85862521Y-118751573D01*
X86231857Y-118998355D01*
X86642241Y-119168342D01*
X87077902Y-119255000D01*
X87522098Y-119255000D01*
X87957759Y-119168342D01*
X88368143Y-118998355D01*
X88737479Y-118751573D01*
X89051573Y-118437479D01*
X89298355Y-118068143D01*
X89468342Y-117657759D01*
X89555000Y-117222098D01*
X89555000Y-116777902D01*
X125295000Y-116777902D01*
X125295000Y-117222098D01*
X125381658Y-117657759D01*
X125551645Y-118068143D01*
X125798427Y-118437479D01*
X126112521Y-118751573D01*
X126481857Y-118998355D01*
X126892241Y-119168342D01*
X127327902Y-119255000D01*
X127772098Y-119255000D01*
X128207759Y-119168342D01*
X128618143Y-118998355D01*
X128987479Y-118751573D01*
X129301573Y-118437479D01*
X129548355Y-118068143D01*
X129718342Y-117657759D01*
X129805000Y-117222098D01*
X129805000Y-116777902D01*
X134895000Y-116777902D01*
X134895000Y-117222098D01*
X134981658Y-117657759D01*
X135151645Y-118068143D01*
X135398427Y-118437479D01*
X135712521Y-118751573D01*
X136081857Y-118998355D01*
X136492241Y-119168342D01*
X136927902Y-119255000D01*
X137372098Y-119255000D01*
X137807759Y-119168342D01*
X138218143Y-118998355D01*
X138587479Y-118751573D01*
X138901573Y-118437479D01*
X139148355Y-118068143D01*
X139318342Y-117657759D01*
X139405000Y-117222098D01*
X139405000Y-116777902D01*
X139318342Y-116342241D01*
X139148355Y-115931857D01*
X138901573Y-115562521D01*
X138587479Y-115248427D01*
X138218143Y-115001645D01*
X137807759Y-114831658D01*
X137372098Y-114745000D01*
X136927902Y-114745000D01*
X136492241Y-114831658D01*
X136081857Y-115001645D01*
X135712521Y-115248427D01*
X135398427Y-115562521D01*
X135151645Y-115931857D01*
X134981658Y-116342241D01*
X134895000Y-116777902D01*
X129805000Y-116777902D01*
X129718342Y-116342241D01*
X129548355Y-115931857D01*
X129301573Y-115562521D01*
X128987479Y-115248427D01*
X128618143Y-115001645D01*
X128207759Y-114831658D01*
X127772098Y-114745000D01*
X127327902Y-114745000D01*
X126892241Y-114831658D01*
X126481857Y-115001645D01*
X126112521Y-115248427D01*
X125798427Y-115562521D01*
X125551645Y-115931857D01*
X125381658Y-116342241D01*
X125295000Y-116777902D01*
X89555000Y-116777902D01*
X89468342Y-116342241D01*
X89298355Y-115931857D01*
X89051573Y-115562521D01*
X88737479Y-115248427D01*
X88368143Y-115001645D01*
X87957759Y-114831658D01*
X87522098Y-114745000D01*
X87077902Y-114745000D01*
X86642241Y-114831658D01*
X86231857Y-115001645D01*
X85862521Y-115248427D01*
X85548427Y-115562521D01*
X85301645Y-115931857D01*
X85131658Y-116342241D01*
X85045000Y-116777902D01*
X79955000Y-116777902D01*
X79868342Y-116342241D01*
X79698355Y-115931857D01*
X79451573Y-115562521D01*
X79137479Y-115248427D01*
X78768143Y-115001645D01*
X78357759Y-114831658D01*
X77922098Y-114745000D01*
X77477902Y-114745000D01*
X77042241Y-114831658D01*
X76631857Y-115001645D01*
X76262521Y-115248427D01*
X75948427Y-115562521D01*
X75701645Y-115931857D01*
X75531658Y-116342241D01*
X75445000Y-116777902D01*
X68660000Y-116777902D01*
X68660000Y-108876890D01*
X121558524Y-108876890D01*
X121603175Y-109024099D01*
X121728359Y-109286920D01*
X121902412Y-109520269D01*
X122118645Y-109715178D01*
X122368748Y-109864157D01*
X122643109Y-109961481D01*
X122873000Y-109840814D01*
X122873000Y-108647000D01*
X123127000Y-108647000D01*
X123127000Y-109840814D01*
X123356891Y-109961481D01*
X123631252Y-109864157D01*
X123881355Y-109715178D01*
X124097588Y-109520269D01*
X124225473Y-109348816D01*
X128315000Y-109348816D01*
X128315000Y-109651184D01*
X128373989Y-109947743D01*
X128489701Y-110227095D01*
X128657688Y-110478505D01*
X128871495Y-110692312D01*
X129122905Y-110860299D01*
X129402257Y-110976011D01*
X129698816Y-111035000D01*
X130001184Y-111035000D01*
X130297743Y-110976011D01*
X130577095Y-110860299D01*
X130828505Y-110692312D01*
X131042312Y-110478505D01*
X131100000Y-110392169D01*
X131157688Y-110478505D01*
X131371495Y-110692312D01*
X131622905Y-110860299D01*
X131902257Y-110976011D01*
X132198816Y-111035000D01*
X132501184Y-111035000D01*
X132797743Y-110976011D01*
X133077095Y-110860299D01*
X133328505Y-110692312D01*
X133366120Y-110654697D01*
X133419463Y-110754494D01*
X133498815Y-110851185D01*
X133595506Y-110930537D01*
X133705820Y-110989502D01*
X133825518Y-111025812D01*
X133950000Y-111038072D01*
X135750000Y-111038072D01*
X135874482Y-111025812D01*
X135994180Y-110989502D01*
X136104494Y-110930537D01*
X136201185Y-110851185D01*
X136280537Y-110754494D01*
X136339502Y-110644180D01*
X136375812Y-110524482D01*
X136388072Y-110400000D01*
X136388072Y-108600000D01*
X136375812Y-108475518D01*
X136339502Y-108355820D01*
X136280537Y-108245506D01*
X136201185Y-108148815D01*
X136104494Y-108069463D01*
X135994180Y-108010498D01*
X135874482Y-107974188D01*
X135750000Y-107961928D01*
X133950000Y-107961928D01*
X133825518Y-107974188D01*
X133705820Y-108010498D01*
X133595506Y-108069463D01*
X133498815Y-108148815D01*
X133419463Y-108245506D01*
X133366120Y-108345303D01*
X133328505Y-108307688D01*
X133077095Y-108139701D01*
X132797743Y-108023989D01*
X132501184Y-107965000D01*
X132198816Y-107965000D01*
X131902257Y-108023989D01*
X131622905Y-108139701D01*
X131371495Y-108307688D01*
X131157688Y-108521495D01*
X131100000Y-108607831D01*
X131042312Y-108521495D01*
X130828505Y-108307688D01*
X130577095Y-108139701D01*
X130297743Y-108023989D01*
X130001184Y-107965000D01*
X129698816Y-107965000D01*
X129402257Y-108023989D01*
X129122905Y-108139701D01*
X128871495Y-108307688D01*
X128657688Y-108521495D01*
X128489701Y-108772905D01*
X128373989Y-109052257D01*
X128315000Y-109348816D01*
X124225473Y-109348816D01*
X124271641Y-109286920D01*
X124396825Y-109024099D01*
X124441476Y-108876890D01*
X124320155Y-108647000D01*
X123127000Y-108647000D01*
X122873000Y-108647000D01*
X121679845Y-108647000D01*
X121558524Y-108876890D01*
X68660000Y-108876890D01*
X68660000Y-91779872D01*
X72765000Y-91779872D01*
X72765000Y-92220128D01*
X72850890Y-92651925D01*
X73019369Y-93058669D01*
X73263962Y-93424729D01*
X73575271Y-93736038D01*
X73941331Y-93980631D01*
X74348075Y-94149110D01*
X74779872Y-94235000D01*
X75220128Y-94235000D01*
X75651925Y-94149110D01*
X76058669Y-93980631D01*
X76424729Y-93736038D01*
X76736038Y-93424729D01*
X76980631Y-93058669D01*
X77149110Y-92651925D01*
X77235000Y-92220128D01*
X77235000Y-91779872D01*
X77149110Y-91348075D01*
X76980631Y-90941331D01*
X76736038Y-90575271D01*
X76424729Y-90263962D01*
X76058669Y-90019369D01*
X75651925Y-89850890D01*
X75220128Y-89765000D01*
X74779872Y-89765000D01*
X74348075Y-89850890D01*
X73941331Y-90019369D01*
X73575271Y-90263962D01*
X73263962Y-90575271D01*
X73019369Y-90941331D01*
X72850890Y-91348075D01*
X72765000Y-91779872D01*
X68660000Y-91779872D01*
X68660000Y-81027251D01*
X76452354Y-81027251D01*
X76614381Y-81347930D01*
X76997675Y-81543725D01*
X77411803Y-81660981D01*
X77840848Y-81695192D01*
X78268324Y-81645042D01*
X78677802Y-81512461D01*
X78985619Y-81347930D01*
X79147646Y-81027251D01*
X77800000Y-79679605D01*
X76452354Y-81027251D01*
X68660000Y-81027251D01*
X68660000Y-79540848D01*
X75604808Y-79540848D01*
X75654958Y-79968324D01*
X75787539Y-80377802D01*
X75952070Y-80685619D01*
X76272749Y-80847646D01*
X77620395Y-79500000D01*
X77979605Y-79500000D01*
X79327251Y-80847646D01*
X79647930Y-80685619D01*
X79843725Y-80302325D01*
X79960981Y-79888197D01*
X79995192Y-79459152D01*
X79974738Y-79284796D01*
X80315000Y-79284796D01*
X80315000Y-79715204D01*
X80398969Y-80137341D01*
X80563678Y-80534985D01*
X80802800Y-80892856D01*
X81107144Y-81197200D01*
X81465015Y-81436322D01*
X81862659Y-81601031D01*
X82284796Y-81685000D01*
X82715204Y-81685000D01*
X83137341Y-81601031D01*
X83412327Y-81487128D01*
X85936200Y-84011002D01*
X85959999Y-84040001D01*
X86075724Y-84134974D01*
X86207753Y-84205546D01*
X86351014Y-84249003D01*
X86462667Y-84260000D01*
X86462676Y-84260000D01*
X86499999Y-84263676D01*
X86537322Y-84260000D01*
X118185199Y-84260000D01*
X119740000Y-85814802D01*
X119740001Y-98362668D01*
X119736324Y-98400000D01*
X119750998Y-98548985D01*
X119794454Y-98692246D01*
X119865026Y-98824276D01*
X119927173Y-98900001D01*
X119960000Y-98940001D01*
X119988998Y-98963799D01*
X121558790Y-100533592D01*
X121515000Y-100753740D01*
X121515000Y-101046260D01*
X121572068Y-101333158D01*
X121684010Y-101603411D01*
X121846525Y-101846632D01*
X122053368Y-102053475D01*
X122227760Y-102170000D01*
X122053368Y-102286525D01*
X121846525Y-102493368D01*
X121684010Y-102736589D01*
X121572068Y-103006842D01*
X121515000Y-103293740D01*
X121515000Y-103586260D01*
X121572068Y-103873158D01*
X121684010Y-104143411D01*
X121846525Y-104386632D01*
X122053368Y-104593475D01*
X122227760Y-104710000D01*
X122053368Y-104826525D01*
X121846525Y-105033368D01*
X121684010Y-105276589D01*
X121572068Y-105546842D01*
X121515000Y-105833740D01*
X121515000Y-106126260D01*
X121572068Y-106413158D01*
X121684010Y-106683411D01*
X121846525Y-106926632D01*
X122053368Y-107133475D01*
X122235534Y-107255195D01*
X122118645Y-107324822D01*
X121902412Y-107519731D01*
X121728359Y-107753080D01*
X121603175Y-108015901D01*
X121558524Y-108163110D01*
X121679845Y-108393000D01*
X122873000Y-108393000D01*
X122873000Y-108373000D01*
X123127000Y-108373000D01*
X123127000Y-108393000D01*
X124320155Y-108393000D01*
X124441476Y-108163110D01*
X124396825Y-108015901D01*
X124271641Y-107753080D01*
X124097588Y-107519731D01*
X123881355Y-107324822D01*
X123764466Y-107255195D01*
X123946632Y-107133475D01*
X124153475Y-106926632D01*
X124315990Y-106683411D01*
X124427932Y-106413158D01*
X124485000Y-106126260D01*
X124485000Y-105833740D01*
X124441209Y-105613592D01*
X128511003Y-101543799D01*
X128540001Y-101520001D01*
X128634974Y-101404276D01*
X128705546Y-101272247D01*
X128749003Y-101128986D01*
X128760000Y-101017333D01*
X128760000Y-101017323D01*
X128763676Y-100980000D01*
X128760000Y-100942677D01*
X128760000Y-91779872D01*
X135765000Y-91779872D01*
X135765000Y-92220128D01*
X135850890Y-92651925D01*
X136019369Y-93058669D01*
X136263962Y-93424729D01*
X136575271Y-93736038D01*
X136941331Y-93980631D01*
X137348075Y-94149110D01*
X137779872Y-94235000D01*
X138220128Y-94235000D01*
X138651925Y-94149110D01*
X139058669Y-93980631D01*
X139424729Y-93736038D01*
X139736038Y-93424729D01*
X139980631Y-93058669D01*
X140149110Y-92651925D01*
X140235000Y-92220128D01*
X140235000Y-91779872D01*
X140149110Y-91348075D01*
X139980631Y-90941331D01*
X139736038Y-90575271D01*
X139424729Y-90263962D01*
X139058669Y-90019369D01*
X138651925Y-89850890D01*
X138220128Y-89765000D01*
X137779872Y-89765000D01*
X137348075Y-89850890D01*
X136941331Y-90019369D01*
X136575271Y-90263962D01*
X136263962Y-90575271D01*
X136019369Y-90941331D01*
X135850890Y-91348075D01*
X135765000Y-91779872D01*
X128760000Y-91779872D01*
X128760000Y-84314801D01*
X131587673Y-81487129D01*
X131862659Y-81601031D01*
X132284796Y-81685000D01*
X132715204Y-81685000D01*
X133137341Y-81601031D01*
X133534985Y-81436322D01*
X133892856Y-81197200D01*
X134197200Y-80892856D01*
X134436322Y-80534985D01*
X134601031Y-80137341D01*
X134685000Y-79715204D01*
X134685000Y-79284796D01*
X135015000Y-79284796D01*
X135015000Y-79715204D01*
X135098969Y-80137341D01*
X135263678Y-80534985D01*
X135502800Y-80892856D01*
X135807144Y-81197200D01*
X136165015Y-81436322D01*
X136562659Y-81601031D01*
X136984796Y-81685000D01*
X137415204Y-81685000D01*
X137837341Y-81601031D01*
X138234985Y-81436322D01*
X138592856Y-81197200D01*
X138897200Y-80892856D01*
X139136322Y-80534985D01*
X139301031Y-80137341D01*
X139385000Y-79715204D01*
X139385000Y-79284796D01*
X139301031Y-78862659D01*
X139136322Y-78465015D01*
X138897200Y-78107144D01*
X138592856Y-77802800D01*
X138234985Y-77563678D01*
X137837341Y-77398969D01*
X137415204Y-77315000D01*
X136984796Y-77315000D01*
X136562659Y-77398969D01*
X136165015Y-77563678D01*
X135807144Y-77802800D01*
X135502800Y-78107144D01*
X135263678Y-78465015D01*
X135098969Y-78862659D01*
X135015000Y-79284796D01*
X134685000Y-79284796D01*
X134601031Y-78862659D01*
X134436322Y-78465015D01*
X134197200Y-78107144D01*
X133892856Y-77802800D01*
X133534985Y-77563678D01*
X133137341Y-77398969D01*
X132715204Y-77315000D01*
X132284796Y-77315000D01*
X131862659Y-77398969D01*
X131465015Y-77563678D01*
X131107144Y-77802800D01*
X130802800Y-78107144D01*
X130563678Y-78465015D01*
X130398969Y-78862659D01*
X130315000Y-79284796D01*
X130315000Y-79715204D01*
X130398969Y-80137341D01*
X130512871Y-80412327D01*
X128260000Y-82665199D01*
X128260000Y-81636307D01*
X128437341Y-81601031D01*
X128834985Y-81436322D01*
X129192856Y-81197200D01*
X129497200Y-80892856D01*
X129736322Y-80534985D01*
X129901031Y-80137341D01*
X129985000Y-79715204D01*
X129985000Y-79284796D01*
X129901031Y-78862659D01*
X129736322Y-78465015D01*
X129497200Y-78107144D01*
X129192856Y-77802800D01*
X128834985Y-77563678D01*
X128437341Y-77398969D01*
X128015204Y-77315000D01*
X127584796Y-77315000D01*
X127162659Y-77398969D01*
X126765015Y-77563678D01*
X126407144Y-77802800D01*
X126260000Y-77949944D01*
X126260000Y-61814801D01*
X131587673Y-56487129D01*
X131862659Y-56601031D01*
X132284796Y-56685000D01*
X132715204Y-56685000D01*
X133137341Y-56601031D01*
X133534985Y-56436322D01*
X133892856Y-56197200D01*
X134197200Y-55892856D01*
X134436322Y-55534985D01*
X134601031Y-55137341D01*
X134685000Y-54715204D01*
X134685000Y-54284796D01*
X134601031Y-53862659D01*
X134436322Y-53465015D01*
X134197200Y-53107144D01*
X133892856Y-52802800D01*
X133828801Y-52760000D01*
X134385199Y-52760000D01*
X135138998Y-53513800D01*
X135139003Y-53513804D01*
X135212872Y-53587673D01*
X135098969Y-53862659D01*
X135015000Y-54284796D01*
X135015000Y-54715204D01*
X135098969Y-55137341D01*
X135263678Y-55534985D01*
X135502800Y-55892856D01*
X135807144Y-56197200D01*
X136165015Y-56436322D01*
X136562659Y-56601031D01*
X136984796Y-56685000D01*
X137415204Y-56685000D01*
X137837341Y-56601031D01*
X138234985Y-56436322D01*
X138592856Y-56197200D01*
X138897200Y-55892856D01*
X139136322Y-55534985D01*
X139301031Y-55137341D01*
X139385000Y-54715204D01*
X139385000Y-54284796D01*
X139301031Y-53862659D01*
X139136322Y-53465015D01*
X138897200Y-53107144D01*
X138592856Y-52802800D01*
X138234985Y-52563678D01*
X137837341Y-52398969D01*
X137415204Y-52315000D01*
X136984796Y-52315000D01*
X136562659Y-52398969D01*
X136287673Y-52512872D01*
X136213804Y-52439003D01*
X136213800Y-52438998D01*
X135263804Y-51489002D01*
X135240001Y-51459999D01*
X135124276Y-51365026D01*
X134992247Y-51294454D01*
X134848986Y-51250997D01*
X134737333Y-51240000D01*
X134737322Y-51240000D01*
X134700000Y-51236324D01*
X134662678Y-51240000D01*
X126537322Y-51240000D01*
X126499999Y-51236324D01*
X126462676Y-51240000D01*
X126462667Y-51240000D01*
X126351014Y-51250997D01*
X126207753Y-51294454D01*
X126075724Y-51365026D01*
X125959999Y-51459999D01*
X125936201Y-51488997D01*
X124538987Y-52886212D01*
X124509989Y-52910010D01*
X124486191Y-52939008D01*
X124486190Y-52939009D01*
X124415015Y-53025735D01*
X124344443Y-53157765D01*
X124300987Y-53301026D01*
X124286313Y-53450011D01*
X124289990Y-53487344D01*
X124289989Y-74189627D01*
X124204494Y-74119463D01*
X124094180Y-74060498D01*
X123974482Y-74024188D01*
X123850000Y-74011928D01*
X122150000Y-74011928D01*
X122025518Y-74024188D01*
X121905820Y-74060498D01*
X121795506Y-74119463D01*
X121698815Y-74198815D01*
X121619463Y-74295506D01*
X121560498Y-74405820D01*
X121524188Y-74525518D01*
X121511928Y-74650000D01*
X121511928Y-76350000D01*
X121524188Y-76474482D01*
X121560498Y-76594180D01*
X121619463Y-76704494D01*
X121698815Y-76801185D01*
X121795506Y-76880537D01*
X121905820Y-76939502D01*
X121978380Y-76961513D01*
X121846525Y-77093368D01*
X121684010Y-77336589D01*
X121572068Y-77606842D01*
X121515000Y-77893740D01*
X121515000Y-78186260D01*
X121572068Y-78473158D01*
X121684010Y-78743411D01*
X121846525Y-78986632D01*
X122053368Y-79193475D01*
X122227760Y-79310000D01*
X122053368Y-79426525D01*
X121846525Y-79633368D01*
X121684010Y-79876589D01*
X121572068Y-80146842D01*
X121515000Y-80433740D01*
X121515000Y-80726260D01*
X121572068Y-81013158D01*
X121684010Y-81283411D01*
X121846525Y-81526632D01*
X122053368Y-81733475D01*
X122227760Y-81850000D01*
X122053368Y-81966525D01*
X121846525Y-82173368D01*
X121684010Y-82416589D01*
X121572068Y-82686842D01*
X121515000Y-82973740D01*
X121515000Y-83266260D01*
X121572068Y-83553158D01*
X121684010Y-83823411D01*
X121846525Y-84066632D01*
X122053368Y-84273475D01*
X122227760Y-84390000D01*
X122053368Y-84506525D01*
X121902347Y-84657546D01*
X119733804Y-82489003D01*
X119710001Y-82459999D01*
X119594276Y-82365026D01*
X119462247Y-82294454D01*
X119318986Y-82250997D01*
X119207333Y-82240000D01*
X119207322Y-82240000D01*
X119170000Y-82236324D01*
X119132678Y-82240000D01*
X91014803Y-82240000D01*
X89187129Y-80412327D01*
X89301031Y-80137341D01*
X89385000Y-79715204D01*
X89385000Y-79284796D01*
X89301031Y-78862659D01*
X89136322Y-78465015D01*
X88897200Y-78107144D01*
X88592856Y-77802800D01*
X88234985Y-77563678D01*
X87837341Y-77398969D01*
X87415204Y-77315000D01*
X86984796Y-77315000D01*
X86562659Y-77398969D01*
X86165015Y-77563678D01*
X85807144Y-77802800D01*
X85502800Y-78107144D01*
X85263678Y-78465015D01*
X85098969Y-78862659D01*
X85015000Y-79284796D01*
X85015000Y-79715204D01*
X85098969Y-80137341D01*
X85263678Y-80534985D01*
X85502800Y-80892856D01*
X85807144Y-81197200D01*
X86165015Y-81436322D01*
X86562659Y-81601031D01*
X86984796Y-81685000D01*
X87415204Y-81685000D01*
X87837341Y-81601031D01*
X88112327Y-81487129D01*
X89365197Y-82740000D01*
X86814802Y-82740000D01*
X84487128Y-80412327D01*
X84601031Y-80137341D01*
X84685000Y-79715204D01*
X84685000Y-79284796D01*
X84601031Y-78862659D01*
X84436322Y-78465015D01*
X84197200Y-78107144D01*
X83892856Y-77802800D01*
X83534985Y-77563678D01*
X83137341Y-77398969D01*
X82715204Y-77315000D01*
X82284796Y-77315000D01*
X81862659Y-77398969D01*
X81465015Y-77563678D01*
X81107144Y-77802800D01*
X80802800Y-78107144D01*
X80563678Y-78465015D01*
X80398969Y-78862659D01*
X80315000Y-79284796D01*
X79974738Y-79284796D01*
X79945042Y-79031676D01*
X79812461Y-78622198D01*
X79647930Y-78314381D01*
X79327251Y-78152354D01*
X77979605Y-79500000D01*
X77620395Y-79500000D01*
X76272749Y-78152354D01*
X75952070Y-78314381D01*
X75756275Y-78697675D01*
X75639019Y-79111803D01*
X75604808Y-79540848D01*
X68660000Y-79540848D01*
X68660000Y-77972749D01*
X76452354Y-77972749D01*
X77800000Y-79320395D01*
X79147646Y-77972749D01*
X78985619Y-77652070D01*
X78602325Y-77456275D01*
X78188197Y-77339019D01*
X77759152Y-77304808D01*
X77331676Y-77354958D01*
X76922198Y-77487539D01*
X76614381Y-77652070D01*
X76452354Y-77972749D01*
X68660000Y-77972749D01*
X68660000Y-54284796D01*
X75615000Y-54284796D01*
X75615000Y-54715204D01*
X75698969Y-55137341D01*
X75863678Y-55534985D01*
X76102800Y-55892856D01*
X76407144Y-56197200D01*
X76765015Y-56436322D01*
X77162659Y-56601031D01*
X77584796Y-56685000D01*
X78015204Y-56685000D01*
X78437341Y-56601031D01*
X78834985Y-56436322D01*
X79192856Y-56197200D01*
X79497200Y-55892856D01*
X79736322Y-55534985D01*
X79901031Y-55137341D01*
X79985000Y-54715204D01*
X79985000Y-54284796D01*
X80315000Y-54284796D01*
X80315000Y-54715204D01*
X80398969Y-55137341D01*
X80563678Y-55534985D01*
X80802800Y-55892856D01*
X81107144Y-56197200D01*
X81465015Y-56436322D01*
X81862659Y-56601031D01*
X82284796Y-56685000D01*
X82715204Y-56685000D01*
X83137341Y-56601031D01*
X83534985Y-56436322D01*
X83892856Y-56197200D01*
X84197200Y-55892856D01*
X84436322Y-55534985D01*
X84601031Y-55137341D01*
X84685000Y-54715204D01*
X84685000Y-54284796D01*
X85015000Y-54284796D01*
X85015000Y-54715204D01*
X85098969Y-55137341D01*
X85263678Y-55534985D01*
X85502800Y-55892856D01*
X85807144Y-56197200D01*
X86165015Y-56436322D01*
X86562659Y-56601031D01*
X86984796Y-56685000D01*
X87415204Y-56685000D01*
X87837341Y-56601031D01*
X88234985Y-56436322D01*
X88592856Y-56197200D01*
X88897200Y-55892856D01*
X89136322Y-55534985D01*
X89301031Y-55137341D01*
X89385000Y-54715204D01*
X89385000Y-54284796D01*
X89301031Y-53862659D01*
X89136322Y-53465015D01*
X88897200Y-53107144D01*
X88592856Y-52802800D01*
X88234985Y-52563678D01*
X87837341Y-52398969D01*
X87415204Y-52315000D01*
X86984796Y-52315000D01*
X86562659Y-52398969D01*
X86165015Y-52563678D01*
X85807144Y-52802800D01*
X85502800Y-53107144D01*
X85263678Y-53465015D01*
X85098969Y-53862659D01*
X85015000Y-54284796D01*
X84685000Y-54284796D01*
X84601031Y-53862659D01*
X84436322Y-53465015D01*
X84197200Y-53107144D01*
X83892856Y-52802800D01*
X83534985Y-52563678D01*
X83137341Y-52398969D01*
X82715204Y-52315000D01*
X82284796Y-52315000D01*
X81862659Y-52398969D01*
X81465015Y-52563678D01*
X81107144Y-52802800D01*
X80802800Y-53107144D01*
X80563678Y-53465015D01*
X80398969Y-53862659D01*
X80315000Y-54284796D01*
X79985000Y-54284796D01*
X79901031Y-53862659D01*
X79736322Y-53465015D01*
X79497200Y-53107144D01*
X79192856Y-52802800D01*
X78834985Y-52563678D01*
X78437341Y-52398969D01*
X78015204Y-52315000D01*
X77584796Y-52315000D01*
X77162659Y-52398969D01*
X76765015Y-52563678D01*
X76407144Y-52802800D01*
X76102800Y-53107144D01*
X75863678Y-53465015D01*
X75698969Y-53862659D01*
X75615000Y-54284796D01*
X68660000Y-54284796D01*
X68660000Y-44660000D01*
X143340000Y-44660000D01*
X143340001Y-139340000D01*
M02*
